<svg xmlns="http://www.w3.org/2000/svg" width="8000" height="8000" viewBox="0 0 2116.6666 2116.6666"><g><path d="M1055.53 0l-2.3 1.98-.26.22-2.36-2.2-2.54 2.2-2.35-2.2-2.55 2.2-2.36-2.2-2.57 2.2-2.35-2.18-2.56 2.2-2.35-2.2-2.55 2.2-2.37-2.18-2.55 2.2-2.36-2.2-2.54 2.22-2.38-2.2-2.54 2.22-2.38-2.2-2.53 2.22-2.37-2.2-2.54 2.22-2.37-2.2-2.55 2.22-2.37-2.18-2.28 2-.25.2-2.4-2.18-2.52 2.22-2.37-2.2-2.53 2.23-2.4-2.2-2.52 2.23-2.36-2.18-2.53 2.2-2.38-2.17-2.52 2.23-2.4-2.18-2.5 2.22L962.2.4l-2.5 2.2h-.02l-2.4-2.17-2.5 2.22-2.4-2.18-2.43 2.16-.08.07-2.4-2.18-2.5 2.22-2.4-2.17-2.5 2.22h-.02L937.65.6l-2.5 2.22-2.4-2.17-2.5 2.22L927.82.7l-2.5 2.23-2.4-2.17-2.5 2.23-2.4-2.16-2.5 2.23L913.1.9l-2.5 2.23-2.4-2.17-2.5 2.23L903.3 1l-2.5 2.24-2.42-2.17-2.5 2.22-2.4-2.16-2.24 2-.25.23h-.02l-2.42-2.17-2.48 2.24-2.42-2.17-2.48 2.24-2.44-2.16-2.47 2.23-2.43-2.15-2.48 2.24-2.43-2.17-2.47 2.24L864 1.62l-2.47 2.24-2.43-2.16-2.47 2.24-2.45-2.16-2.45 2.24-2.44-2.15-2.46 2.24-2.44-2.14-2.46 2.24-2.45-2.15-2.47 2.25-2.44-2.15-2.47 2.24-2.45-2.16-2.46 2.25-2.46-2.16-2.2 2.02-.25.23-2.45-2.16-2.44 2.25-2.45-2.16-2.44 2.25-2.46-2.15-2.44 2.25-2.46-2.15L802.68 5l-2.47-2.14-2.44 2.25h-.02l-2.47-2.13-2.42 2.25-2.46-2.14-2.44 2.26-2.48-2.14-2.43 2.25-2.48-2.14-2.43 2.27-2.47-2.14-2.43 2.26-2.48-2.15h-.02l-2.42 2.26-2.48-2.12-2.2 2.03-.23.23-2.5-2.13-2.4 2.26-2.48-2.13-2.42 2.26-2.5-2.14-2.4 2.26-2.5-2.13-2.4 2.25-2.5-2.13-2.4 2.26h-.02l-2.5-2.12-2.4 2.26-2.5-2.13-2.4 2.26-2.5-2.13-2.4 2.27-2.5-2.13-2.34 2.2-.08.07-2.5-2.12-2.4 2.26-2.5-2.12-2.4 2.27L707 5.3l-2.4 2.28-2.5-2.12-2.4 2.27-2.5-2.12-2.4 2.28-2.5-2.12-2.4 2.28-2.5-2.12L685 8.2l-2.5-2.12h-.02l-2.38 2.27-2.52-2.1-2.38 2.26-2.52-2.1-2.38 2.28-2.52-2.12-2.38 2.28-2.53-2.1-2.14 2.04-.23.23-2.52-2.1h-.02l-2.36 2.28-2-1.68-.53-.43-2.37 2.28-2.54-2.1-.42.4-1.95 1.87-2.54-2.1-2.37 2.28-2.55-2.1L636 9.87l-2.55-2.1-2.36 2.27-2.55-2.1-2.36 2.3-2.55-2.12-2.36 2.3h-.02l-2.54-2.1-2.3 2.22-.06.06-2.55-2.1-2.35 2.3-2.54-2.1-2.35 2.28-2.57-2.1-2.34 2.3-2.57-2.1-2.34 2.3-2.57-2.1-2.34 2.28h-.02l-2.56-2.1-2.33 2.3-2.57-2.1-2.33 2.3-2.57-2.1-2.34 2.3-2.58-2.1-2.26 2.24-.07.07h-.02l-2.57-2.1-2.3 2.3-2.58-2.08-2.32 2.28-2.6-2.08-2.3 2.3-2.58-2.1v.02l-2.33 2.3-2.58-2.1-2.32 2.3-2.6-2.08-2.3 2.3-2.58-2.1-2.3 2.32H538l-2.6-2.1-2.3 2.32-2.6-2.08-2.3 2.3-2.58-2.08-2.3 2.3h-.02l-2.58-2.07-2.3 2.3-2.6-2.08-2.08 2.08-.23.23-2.6-2.08-2.3 2.3-2.58-2.06-2.3 2.3-2.6-2.07-2.3 2.3-2.6-2.06v.02l-2.3 2.3-2.6-2.07-2.3 2.33-2.6-2.08-2.3 2.32-2.6-2.07-2.3 2.3-2.6-2.06-2.28 2.3-2.6-2.06h-.02l-2.28 2.32-2.62-2.06-2.05 2.08-.22.23-2.63-2.05-2.27 2.3-2.62-2.05-2.27 2.32-2.63-2.07-2.27 2.32-2.63-2.06v.02l-2.27 2.32-2.63-2.06-2.26 2.32-2.64-2.06-2.26 2.32-2.63-2.06-2.26 2.33-2.64-2.06-2.26 2.32-2.64-2.06-2.25 2.32-2.65-2.06-2.25 2.33-2.65-2.05-2.25 2.32-2.65-2.05-2.02 2.1-.23.23-2.65-2.06-2.24 2.33-2.64-2.05-2.24 2.33-2.66-2.05-2.24 2.33-2.65-2.04-1.53 1.6-.7.74-2.65-2.04-2.24 2.34-2.65-2.04-2.2 2.33-2.64-2.05-2.22 2.34-2.64-2.06-2.22 2.34-2.65-2.04L362 23.1l-.07.08-2.66-2.04-2.2 2.34-2.64-2.04-2.2 2.34-2.65-2.04-2.2 2.34-2.65-2.03-2.2 2.35-2.64-2.04-2.2 2.34-2.66-2.04-2.18 2.35-2.65-2.03-2.17 2.34-2.66-2.02-2.18 2.34h-.02l-2.65-2.03-2.17 2.33-2.65-2.03-2.16 2.34-2.66-2.03-2.17 2.35-2.65-2.03-1.95 2.1-.2.25h-.02l-2.66-2.03-2.15 2.34-2.65-2.03-2.16 2.35-2.67-2.03-2.16 2.35-2.66-2.03-2.15 2.34-2.66-2.03-2.15 2.36-2.66-2.02-2.14 2.34-2.66-2.02-2.14 2.35-2.66-2.02-2.15 2.36-2.65-2.03v.02l-2.14 2.34-2.66-2.02-2.13 2.35-2.65-2.03-2.12 2.35-2.67-2.03-2.13 2.34-2.66-2.02-1.9 2.12-.23.23-2.67-2.02-2.1 2.35-2.67-2.02-2.1 2.36h-.02l-2.67-2.02-2.1 2.35-2.66-2.02-2.1 2.36-2.68-2-2.1 2.35-2.67-2.02-2.1 2.36-2.67-2.03-2.1 2.35-2.67-2-2.1 2.34-2.67-2-2.1 2.34-2.66-2-2.1 2.34-2.66-2-2.1 2.35-2.66-2.03-1.87 2.13-.2.23h-.02l-2.67-2-2.07 2.35-2.68-2.02-2.07 2.36-2.68-2-2.07 2.35-2.67-2-2.07 2.35-2.67-2-2.08 2.35-2.68-2-2.05 2.35-2.68-2-2.06 2.35-2.67-2h-.02l-2.05 2.35-2.68-2-2 2.28-.05.08-2.68-2-2.04 2.35-2.68-2-2.04 2.36-2.68-2.02-2.04 2.36-2.67-2-2.04 2.36-2.68-2-2.03 2.36-2.68-2-2.03 2.36-2.66-2-2.04 2.36-2.67-2-2.04 2.36-2.7-2-2 2.37-2.68-2-2.02 2.37-2.68-2-2.02 2.37-2.68-2-1.8 2.13-.2.23-2.7-2-2 2.37-2.13-1.58-.56-.43-2 2.37-2.7-2-.35.43-1.65 1.94-2.68-2v.02h-.02l-2 2.37-2.67-2-2 2.37-2.7-2L57 44.84l-2.67-2-2 2.37-2.68-1.98-2 2.37-2.68-2-1.94 2.3-.04.07h-.02l-2.68-2-1.98 2.37-2.68-2-1.97 2.38-2.7-2L29 47.1l-2.68-2v.02l-1.97 2.37-2.7-2-1.96 2.37-2.7-2-1.96 2.38-2.68-2-1.96 2.4-2.7-2L5.75 49l-2.7-2-1.9 2.3-.05.1-2.7-2-1.94 2.37-2.68-2-1.95 2.38-2.7-1.98-1.94 2.37-2.7-1.98-1.94 2.36-2.7-1.98-1.92 2.38-2.7-2-1.93 2.4-2.68-2-1.93 2.38h-.02l-2.7-1.98-1.7 2.1-55.1 502.7v1009.53l55.1 502.7 1.7 2.08 2.7-1.98 1.94 2.38 2.7-2 1.92 2.4 2.7-2 1.93 2.38 2.7-1.98 1.93 2.37 2.7-1.98 1.93 2.37 2.7-1.98 1.95 2.37 2.68-2 1.95 2.4 2.7-2 .06.07 1.9 2.3 2.7-1.98 1.94 2.38 2.7-2 1.96 2.4 2.68-2 1.96 2.37 2.7-2 1.96 2.38 2.7-2 1.95 2.38h.02l2.68-2 1.97 2.38 2.7-1.98 1.97 2.38 2.68-2 1.98 2.37 2.68-2 .05.06 1.94 2.32 2.7-2 1.97 2.38 2.7-2 1.98 2.38 2.68-1.98 2 2.37 2.68-2 2 2.36 2.68-2 2 2.38 2.7-2 1.63 1.95.35.4 2.68-2 2 2.38.56-.4 2.12-1.6 2 2.37 2.7-2 .2.24 1.8 2.12 2.68-2 2.02 2.37 2.68-2 2 2.36h.02l2.67-2 2 2.37 2.7-2 2.02 2.36 2.68-2 2.03 2.36 2.68-2 2.03 2.36 2.68-2h.02l2.03 2.37v-.02l2.68-2 2.03 2.36 2.68-2 2.04 2.36 2.67-2 2.05 2.36 2.68-2 2.04 2.35 2.67-2 .06.08 1.98 2.3 2.68-2.02 2.06 2.36 2.68-2 2.06 2.35 2.67-2 2.04 2.36 2.68-2 2.07 2.35 2.66-2 2.06 2.35 2.68-2.02 2.07 2.37 2.67-2 2.08 2.35 2.67-2 2.06 2.34 2.67-2 .22.23 1.86 2.1h.02l2.67-2 2.07 2.35 2.67-2 2.1 2.34 2.66-2.02 2.1 2.35 2.66-2 2.1 2.34 2.66-2 2.1 2.34 2.67-2 2.1 2.35 2.65-2.02 2.1 2.36 2.68-2.03 2.1 2.35 2.68-2.02 2.1 2.36 2.68-2.02 2.12 2.35 2.66-2.03 2.1 2.35 2.68-2.02.22.23 1.9 2.12 2.67-2.02 2.13 2.35 2.66-2.03 2.13 2.35 2.66-2.02 2.14 2.35 2.66-2.02 2.14 2.36 2.67-2.03 2.15 2.35 2.66-2.02h.02l2.14 2.34 2.66-2.02 2.14 2.35 2.66-2.03 2.15 2.35 2.66-2.03 2.14 2.34 2.67-2.02 2.15 2.34 2.65-2.03 2.17 2.35 2.65-2.03 2.15 2.34 2.66-2.02.22.24 1.95 2.1 2.65-2.02 2.18 2.34 2.65-2.03 2.18 2.35 2.66-2.03 2.17 2.34 2.65-2.03 2.2 2.34 2.64-2.03 2.2 2.34 2.64-2.04 2.18 2.34 2.65-2.03 2.2 2.34 2.63-2.05 2.2 2.34 2.65-2.04 2.2 2.34 2.64-2.04 2.2 2.34 2.65-2.04 2.2 2.34 2.65-2.04.07.07 2.13 2.27 2.65-2.04 2.2 2.33h.02l2.64-2.05 2.22 2.34 2.64-2.05 2.2 2.33 2.66-2.04 2.23 2.34 2.63-2.05.7.75 1.53 1.6v-.02l2.66-2.04 2.24 2.33 2.65-2.05h.02l2.24 2.33 2.65-2.05 2.25 2.33 2.64-2.05.23.23 2.02 2.1 2.65-2.05 2.25 2.32 2.64-2.05 2.25 2.32 2.64-2.05 2.24 2.32 2.63-2.06 2.27 2.32 2.63-2.06 2.27 2.33 2.63-2.06 2.26 2.32 2.63-2.07 2.27 2.32 2.63-2.06 2.27 2.3 2.63-2.06 2.27 2.32 2.62-2.06 2.28 2.32 2.62-2.07 2.27 2.32 2.62-2.07.23.24 2.05 2.08 2.62-2.07 2.27 2.32h.02l2.62-2.07 2.28 2.32 2.6-2.07 2.3 2.32 2.6-2.07 2.3 2.3 2.6-2.06 2.3 2.3 2.6-2.06 2.3 2.3 2.6-2.06 2.3 2.3 2.6-2.07 2.3 2.3 2.6-2.06 2.3 2.3 2.58-2.08.24.23 2.07 2.07 2.6-2.07 2.3 2.3h.02l2.58-2.08 2.32 2.3 2.58-2.07 2.3 2.3 2.6-2.08 2.3 2.3 2.6-2.08 2.32 2.3 2.58-2.08 2.3 2.3 2.6-2.08 2.32 2.3 2.57-2.1 2.3 2.3h.02l2.57-2.08 2.3 2.3 2.6-2.1 2.32 2.3 2.57-2.08 2.3 2.3 2.58-2.1.08.08 2.25 2.23h.02l2.57-2.1 2.32 2.3 2.57-2.1 2.33 2.3 2.56-2.1 2.32 2.3 2.56-2.1 2.35 2.3 2.56-2.1 2.33 2.3 2.56-2.1 2.33 2.28 2.56-2.08 2.34 2.3 2.55-2.1 2.33 2.27 2.55-2.1.06.04 2.3 2.24 2.55-2.1 2.34 2.3 2.55-2.12 2.35 2.3 2.54-2.12 2.34 2.3 2.55-2.12 2.35 2.3 2.55-2.12 2.35 2.28h.02l2.53-2.1 1.94 1.87.42.4 2.53-2.1 2.37 2.28.52-.44 2-1.68 2.36 2.28h.02l2.52-2.1.23.22 2.14 2.05 2.54-2.1 2.38 2.27 2.53-2.12 2.38 2.28 2.53-2.12 2.38 2.28 2.53-2.1 2.4 2.26 2.5-2.12h.02l2.38 2.28 2.5-2.12 2.4 2.27 2.5-2.1h.02l2.38 2.26 2.52-2.13 2.38 2.27h.02l2.5-2.12 2.4 2.27 2.5-2.13 2.4 2.27 2.5-2.13 2.4 2.28 2.5-2.12.08.07 2.32 2.2 2.5-2.13 2.4 2.27h.02l2.5-2.13 2.4 2.26 2.5-2.12 2.4 2.26 2.5-2.13 2.4 2.28 2.5-2.13 2.4 2.26h.02l2.48-2.12 2.42 2.26 2.48-2.13 2.43 2.27 2.48-2.13 2.42 2.26 2.48-2.14.25.23 2.17 2.02 2.5-2.13 2.42 2.24 2.47-2.13 2.43 2.26 2.47-2.13 2.43 2.25 2.47-2.14 2.44 2.26 2.48-2.14 2.44 2.25 2.46-2.13 2.43 2.26 2.48-2.15 2.45 2.26 2.46-2.15 2.43 2.25 2.47-2.15 2.44 2.25 2.46-2.14 2.46 2.26 2.45-2.15 2.45 2.26 2.46-2.15h.02l.24.23 2.2 2.03 2.46-2.15 2.46 2.26 2.45-2.15 2.46 2.25 2.43-2.15 2.46 2.24 2.43-2.15 2.47 2.24 2.44-2.15 2.46 2.23 2.45-2.15 2.46 2.23 2.45-2.14 2.47 2.24 2.44-2.16 2.46 2.24 2.43-2.15 2.48 2.23 2.44-2.15 2.47 2.24 2.43-2.16 2.48 2.24 2.43-2.16 2.48 2.24 2.42-2.17 2.48 2.24 2.42-2.17.26.23 2.23 2 2.42-2.16 2.48 2.24 2.42-2.16 2.5 2.23 2.4-2.16 2.5 2.24 2.4-2.17 2.5 2.23 2.42-2.17 2.5 2.23 2.4-2.17 2.5 2.22 2.4-2.17h.02l2.5 2.23 2.4-2.18 2.5 2.23 2.4-2.17 2.5 2.22 2.4-2.17h.02l2.5 2.23 2.4-2.17 2.5 2.22 2.4-2.18h.02l.07.07 2.43 2.16 2.4-2.18 2.5 2.22 2.4-2.18 2.53 2.2 2.4-2.17 2.5 2.22 2.4-2.18 2.52 2.22 2.4-2.2 2.5 2.22h.02l2.38-2.18 2.52 2.22 2.38-2.2 2.54 2.23 2.38-2.2 2.52 2.22 2.38-2.2.26.23 2.28 2 2.37-2.2 2.54 2.22 2.36-2.2 2.54 2.22 2.37-2.2 2.54 2.2 2.37-2.18 2.55 2.2 2.37-2.18 2.55 2.2 2.35-2.2 2.55 2.22 2.36-2.2h.02l2.55 2.2 2.36-2.2 2.54 2.22h.02l2.34-2.2 2.55 2.2 2.35-2.2 2.56 2.2 2.36-2.18 2.56 2.2 2.35-2.2.26.22 2.3 1.98 2.35-2.2 2.56 2.2 2.34-2.2 2.57 2.2 1.02-.97 1.3-1.24 2.56 2.18 2.33-2.2 2.55 2.18 2.33-2.2 2.56 2.18 2.3-2.2 2.56 2.18 2.3-2.2 2.57 2.18 2.32-2.2 2.57 2.18 2.3-2.22 2.56 2.2 2.3-2.22h.02l.26.2 2.3 1.98 2.3-2.2 2.57 2.17 2.3-2.22 2.57 2.18 2.3-2.22 2.55 2.2 2.3-2.23 2.56 2.2 2.3-2.23 2.56 2.2 2.28-2.23 2.57 2.18 2.3-2.22 2.56 2.18 2.27-2.22 2.57 2.18 2.27-2.22 2.57 2.18 2.27-2.23 2.58 2.18 2.26-2.22 2.57 2.18 2.27-2.22.08.07 2.5 2.1 2.25-2.2 2.57 2.16 2.25-2.2h.02l2.57 2.16 2.26-2.23 2.57 2.18 2.25-2.22 2.6 2.18 2.23-2.23 2.6 2.17 2.22-2.23 2.58 2.17 2.24-2.23 2.6 2.2 2.22-2.25 2.57 2.18 2.23-2.24.06.04 2.52 2.12 2.23-2.23 2.58 2.17 2.22-2.23 2.58 2.17 2.2-2.24 2.6 2.17 2.2-2.23 2.6 2.16 2.2-2.23 2.58 2.16 2.2-2.23 2.12 1.78.46.38 2.22-2.23h.02l2.58 2.16.46-.47 1.74-1.78 2.58 2.17 2.2-2.24.25.2 2.32 1.96 2.2-2.24 2.6 2.16 2.17-2.24 2.6 2.17 2.17-2.26 2.6 2.17 2.18-2.24 2.6 2.16 2.17-2.24 2.6 2.16 2.16-2.24 2.6 2.16 2.17-2.25 2.6 2.17 2.16-2.24 2.6 2.15 2.15-2.24 2.6 2.16 2.15-2.25 2.6 2.15 2.15-2.24 2.6 2.15 2.15-2.24h.02l.07.07 2.5 2.1 2.17-2.26 2.6 2.15 2.13-2.25 2.6 2.16 2.14-2.25 2.6 2.15 2.14-2.25h.03l2.6 2.15 2.13-2.25 2.6 2.15 2.13-2.25 2.6 2.15 2.13-2.26 2.6 2.15 2.14-2.25 2.6 2.15 2.12-2.26.25.22 2.34 1.93 2.1-2.25 2.6 2.15 2.13-2.26 2.62 2.15 2.1-2.27 2.6 2.15 2.12-2.26h.02l2.6 2.15 2.1-2.26 2.6 2.15 2.1-2.26 2.6 2.14 2.1-2.26 2.62 2.14 2.1-2.26 2.6 2.14 2.1-2.26 2.6 2.14 2.1-2.26 2.62 2.14 2.1-2.27 2.6 2.14 2.08-2.27.26.2 2.34 1.94 2.1-2.25 2.6 2.14 2.07-2.28 2.6 2.14 2.1-2.27 2.6 2.13 2.07-2.27 2.6 2.14.14-.14.17.13 1.95-2.13 2.44 2 .13-.14.16.13 2.07-2.27 2.6 2.13 2.07-2.27 2.6 2.13 2.07-2.28 2.62 2.14 2.05-2.27 2.6 2.12 2.06-2.27 2.63 2.13 2.05-2.27 2.6 2.14 2.06-2.27 2.6 2.13 2.06-2.27.26.2 2.34 1.93 2.05-2.28 2.6 2.13 2.05-2.26h.02l2.6 2.13 2.04-2.28 2.6 2.12 2.05-2.28 2.62 2.13 2.04-2.28 2.6 2.12 2.04-2.28 2.6 2.13 2.03-2.28 2.62 2.12 2.02-2.28 2.6 2.12 2.03-2.28 2.62 2.13 2-2.27 2.63 2.12 2-2.28 2.63 2.12 2-2.3h.02l.08.08 2.53 2.06 2.02-2.3 2.62 2.13 2-2.28 2.62 2.1 2-2.27 2.6 2.12 2-2.3 2.63 2.13 2-2.28 2.6 2.12 2-2.3 2.6 2.13 2-2.3 2.62 2.13 1.98-2.3 2.62 2.13 1.98-2.28h.02l.26.2 2.35 1.92 2-2.3 2.6 2.13 1.98-2.3h.02l2.62 2.12 1.98-2.3 2.6 2.12 2-2.3 2.62 2.12 1.97-2.3h.02l2.62 2.12 1.97-2.3 2.62 2.12 1.97-2.3 2.62 2.12 1.96-2.3 2.62 2.12 1.96-2.3 2.62 2.12 1.95-2.3 2.63 2.1 1.95-2.28 2.63 2.1 1.94-2.3h.02l.25.22 2.36 1.9 1.95-2.3 2.62 2.1 1.94-2.3 2.64 2.12 1.93-2.3 2.62 2.1 1.93-2.3 2.6 2.12 1.95-2.3 2.62 2.1 1.93-2.3 2.62 2.1 1.92-2.3 2.63 2.12 1.93-2.3 2.62 2.1 1.92-2.3 2.62 2.1 1.9-2.3h.03l.26.2 2.35 1.9 1.9-2.3 2.64 2.1 1.9-2.3 2.64 2.1 1.9-2.3 2.63 2.1 1.9-2.3h.02l2.62 2.1 1.9-2.32h.02l2.62 2.1 1.9-2.3 2.62 2.1 1.9-2.3h.02l2.62 2.1 1.9-2.32 2.62 2.1 1.9-2.3 2.62 2.08 1.9-2.3 2.64 2.1 1.88-2.32 2.62 2.1 1.9-2.3.08.05 2.55 2.04 1.88-2.3 2.64 2.1 1.88-2.33 2.64 2.1 1.87-2.3 2.62 2.1 1.88-2.32 2.64 2.1 1.87-2.32 2.62 2.1 1.87-2.32 2.63 2.1 1.87-2.33 2.64 2.1 1.86-2.3 1.46 1.16 1.15.92 1.85-2.3.05.03 2.56 2.06 1.85-2.32 2.62 2.1 1.84-2.32 2.62 2.1 1.84-2.32 2.6 2.1 1.84-2.33 2.62 2.1 1.83-2.32 2.6 2.1 1.84-2.32 2.14 1.7.46.4 1.83-2.33h.02l2.6 2.1.4-.5 1.44-1.83 2.6 2.1 1.82-2.32.25.2 2.35 1.9 1.83-2.33 2.6 2.1 1.83-2.33 2.6 2.08 1.82-2.3 2.6 2.08 1.83-2.32 2.6 2.1 1.82-2.33 2.62 2.1 1.8-2.32 2.6 2.1 1.82-2.33 2.6 2.1 1.8-2.32 2.6 2.08 1.8-2.3 2.62 2.1 1.8-2.34 2.62 2.1 1.8-2.33 2.6 2.1 1.8-2.33.1.06 2.52 2.03 1.8-2.33 2.6 2.1 1.8-2.33 2.6 2.1 1.8-2.33 2.6 2.1 1.8-2.33 2.6 2.1 1.8-2.33 2.6 2.1 1.78-2.33 2.6 2.1 1.8-2.33 2.62 2.1 1.77-2.33 2.6 2.1 1.78-2.33.28.2 2.34 1.9 1.78-2.33 2.6 2.1 1.78-2.33 2.62 2.1 1.76-2.34 2.6 2.1 1.78-2.33 2.62 2.08 1.76-2.32 2.62 2.1 1.75-2.34 2.6 2.08 1.76-2.32 2.6 2.08 1.77-2.32 2.6 2.1 1.76-2.34 2.6 2.1 1.75-2.34 2.62 2.1 1.75-2.33 2.6 2.1 1.75-2.33h.02l.25.2 2.34 1.9 1.74-2.34 2.6 2.1 1.75-2.34 2.6 2.08 1.75-2.33 2.6 2.1 1.74-2.34 2.6 2.1 1.74-2.33 2.6 2.1.02-.02 1.75-2.32 2.62 2.08 1.73-2.3 2.6 2.07 1.73-2.32 2.6 2.08 1.73-2.32h.03l2.6 2.1 1.73-2.34 2.6 2.1 1.72-2.34 2.6 2.1 1.73-2.34 2.62 2.1 1.7-2.34 2.62 2.1 1.7-2.34.27.2 2.36 1.88 1.7-2.33 2.62 2.1 1.7-2.34h.02l2.6 2.1 1.7-2.33 2.62 2.08 1.7-2.33 2.6 2.1 1.7-2.34 2.62 2.1 1.7-2.34 2.6 2.08 1.7-2.33 2.6 2.08 1.7-2.33 2.6 2.1 1.7-2.35 2.6 2.1 1.7-2.34 2.6 2.1 1.7-2.35 2.6 2.1 1.68-2.33h.02l.07.06 2.54 2.03 1.68-2.34 2.6 2.1 1.7-2.34 2.6 2.08 1.67-2.33 2.6 2.1 1.67-2.35 2.6 2.1 1.7-2.34 2.6 2.1 1.66-2.35 2.6 2.08 1.68-2.33 2.6 2.08 1.68-2.33 2.6 2.1 1.67-2.35.27.2 2.34 1.9 1.67-2.35 2.6 2.1 1.66-2.34 2.6 2.08 1.66-2.33 2.6 2.1 1.66-2.34h.02l2.6 2.1 1.66-2.35 2.6 2.1 1.66-2.34 2.6 2.1 1.66-2.34 2.6 2.08 1.66-2.33 2.6 2.08 1.64-2.33 2.6 2.1 1.65-2.35 2.6 2.1 1.64-2.35 2.6 2.1 1.2-1.68 51.5-508.52V549.9l-51.5-508.52-1.2-1.68-2.6 2.1-1.63-2.34-2.6 2.08-1.65-2.33-2.6 2.1-1.64-2.34-2.6 2.08-1.65-2.33-2.6 2.1-1.67-2.34-2.6 2.1-1.65-2.35-2.6 2.1-1.66-2.34-2.6 2.1h-.02l-1.66-2.34-2.6 2.08-1.66-2.33-2.6 2.08-1.67-2.33-2.6 2.1-1.67-2.35-2.34 1.88-.26.2-1.68-2.33-2.6 2.1-1.67-2.34-2.6 2.08-1.67-2.33-2.6 2.1-1.67-2.35-2.6 2.1-1.68-2.34-2.6 2.08-1.7-2.33-2.6 2.08-1.66-2.33-2.6 2.08L2061 35l-2.6 2.1-1.68-2.35-2.53 2.03-.06.06h-.02l-1.68-2.33-2.6 2.1-1.7-2.34-2.6 2.1-1.7-2.34-2.6 2.1-1.7-2.35-2.6 2.1-1.7-2.34-2.6 2.1-1.7-2.34-2.6 2.07-1.7-2.33-2.6 2.1-1.7-2.34-2.62 2.1-1.7-2.35-2.6 2.1-1.7-2.34-2.62 2.1-1.72-2.33-2.6 2.1-1.72-2.34-2.35 1.87-.25.2-1.7-2.32-2.62 2.1-1.7-2.34-2.62 2.1-1.7-2.34-2.62 2.1-1.7-2.34-2.62 2.1-1.72-2.34-2.6 2.08h-.03l-1.7-2.33-2.62 2.1-1.72-2.34-2.6 2.1-1.74-2.34-2.6 2.08-1.75-2.33h-.02l-2.6 2.1-1.75-2.34-2.6 2.1-1.74-2.33-2.6 2.1-1.75-2.34-2.6 2.1-1.75-2.34-2.6 2.08-1.76-2.32-2.35 1.87-.26.2h-.03l-1.74-2.3-2.6 2.08-1.76-2.32-2.6 2.1h-.02l-1.75-2.34-2.6 2.1-1.76-2.34-2.6 2.1-1.77-2.33-2.6 2.1-1.77-2.34-2.6 2.1-1.76-2.34-2.62 2.08-1.76-2.32-2.6 2.1h-.02l-1.77-2.34-2.6 2.1-1.77-2.33-2.6 2.08h-.02l-1.77-2.33-2.6 2.1-1.78-2.33-2.34 1.88-.27.2-1.76-2.32-2.6 2.1-1.78-2.33-2.62 2.1-1.8-2.34-2.6 2.1-1.78-2.32-2.6 2.1-1.8-2.33-2.6 2.1-1.8-2.34-2.6 2.1-1.8-2.32-2.6 2.1-1.8-2.33-2.6 2.1-1.8-2.33-2.53 2.03-.08.06-1.8-2.3-2.62 2.08-1.8-2.32-2.6 2.1-1.8-2.33-2.62 2.08-1.8-2.3-2.6 2.08-1.8-2.3-2.6 2.08-1.82-2.32-2.6 2.1-1.8-2.33-2.63 2.1-1.8-2.32-2.62 2.1-1.82-2.33-2.6 2.1-1.8-2.32-2.62 2.1-1.82-2.33-2.6 2.1-1.84-2.33-2.35 1.88-.25.2-1.82-2.3-2.6 2.1-1.46-1.85-.38-.48-2.6 2.1h-.03l-1.83-2.33-.46.37-2.15 1.7-1.84-2.3-2.6 2.1-1.84-2.33-2.62 2.1-1.83-2.32-2.6 2.1-1.85-2.32-2.6 2.1-1.85-2.33-2.62 2.1-1.84-2.32-2.55 2.05-.05.04-1.85-2.3-1.16.9-1.47 1.18-1.86-2.32-2.63 2.1-1.88-2.32-2.63 2.1-1.87-2.32-2.62 2.1-1.87-2.32-2.63 2.1-1.9-2.32-2.6 2.1-1.88-2.32-2.63 2.1-1.9-2.32-2.62 2.1-1.87-2.3-2.55 2.02-.08.06-1.9-2.3-2.62 2.1-1.88-2.32-2.63 2.1h-.02l-1.9-2.32-2.6 2.1-1.9-2.3L1698 18l-1.9-2.32-2.62 2.1h-.02l-1.9-2.3-2.62 2.1-1.9-2.3-2.62 2.1h-.02l-1.9-2.33-2.63 2.1h-.02l-1.9-2.3-2.63 2.1-1.9-2.3-2.63 2.1h-.02l-1.9-2.3-2.64 2.1-1.9-2.3-2.37 1.88-.27.2h-.02l-1.9-2.3-2.63 2.1-1.92-2.3-2.62 2.12-1.93-2.3-2.63 2.1-1.92-2.3-2.62 2.1-1.93-2.3-2.62 2.1-1.93-2.3-2.62 2.12-1.94-2.3-2.63 2.1-1.93-2.3-2.63 2.1-1.93-2.3-2.62 2.12-1.94-2.3-2.35 1.9-.26.2h-.03l-1.94-2.3-2.62 2.12-1.94-2.3-2.63 2.12-1.95-2.3-2.62 2.1-1.96-2.28-2.6 2.1-1.98-2.28-2.62 2.1-1.98-2.3-2.6 2.13-1.98-2.3-2.62 2.12-1.98-2.3-2.62 2.12-2-2.3-2.6 2.13-1.98-2.3-2.62 2.12-1.98-2.3-2.62 2.13-2-2.3-2.34 1.9-.26.23h-.02l-1.98-2.3-2.62 2.13-1.98-2.28-2.62 2.12-2-2.3-2.6 2.13-2-2.3-2.6 2.13-2-2.3-2.63 2.14-2-2.3-2.6 2.13-2-2.28-2.63 2.1-2-2.28-2.62 2.13-2-2.3-2.54 2.07-.08.07-2.02-2.3-2.62 2.13-2-2.28-2.63 2.12-2-2.28-2.63 2.12-2.02-2.3-2.6 2.14-2.03-2.28-2.62 2.13-2.02-2.27-2.6 2.13-2.03-2.28-2.6 2.13-2.05-2.27-2.6 2.13-2.05-2.28-2.6 2.13-2.04-2.27-2.6 2.13h-.03L1471.16 7l-2.6 2.12-2.06-2.28-2.34 1.92-.26.2-2.05-2.26-2.6 2.13-2.06-2.27-2.62 2.13-2.05-2.28-2.62 2.13-2.04-2.27-2.6 2.13-2.07-2.26-2.62 2.14L1438.5 6l-2.6 2.14-2.06-2.27-2.6 2.14-2.08-2.26-.17.13-.14-.14-2.44 2-1.95-2.12-.16.14-.12-.14-2.6 2.14-2.1-2.27-2.6 2.14-2.07-2.26-2.6 2.14-2.1-2.27-2.6 2.15-2.08-2.26-2.34 1.9-.26.23-2.1-2.27-2.6 2.14-2.08-2.26-2.6 2.14h-.02l-2.1-2.26-2.6 2.14-2.1-2.26-2.6 2.14-2.1-2.26-2.6 2.14-2.1-2.26-2.6 2.15-2.12-2.25-2.6 2.14-2.1-2.27-2.6 2.15h-.03l-2.1-2.26-2.6 2.14-2.12-2.25-2.6 2.15h-.02l-2.12-2.25-2.6 2.14-2.1-2.25-2.35 1.92-.26.22-2.14-2.26-2.6 2.15-2.12-2.25-2.6 2.15-2.15-2.26-2.6 2.15-2.14-2.25-2.6 2.15-2.14-2.25-2.6 2.15-2.15-2.25-2.6 2.15-2.14-2.25-2.6 2.15-2.14-2.25-2.6 2.16-2.17-2.25-2.5 2.1-.08.05h-.02l-2.16-2.25-2.58 2.16-2.17-2.25-2.6 2.15-2.16-2.25-2.6 2.16-2.15-2.25-2.6 2.17-2.16-2.24-2.6 2.15-2.16-2.24-2.6 2.16-2.16-2.25-2.6 2.16-2.17-2.23-2.6 2.16L1263.4 2l-2.6 2.15-2.17-2.24-2.6 2.17-2.17-2.24-2.6 2.17-2.2-2.24-2.3 1.94-.27.22-2.2-2.24-2.58 2.16-1.74-1.77-.46-.46-2.58 2.17h-.02l-2.2-2.24-.47.4-2.12 1.77-2.2-2.24-2.58 2.17-2.2-2.24-2.6 2.16-2.2-2.23-2.6 2.16-2.2-2.24-2.58 2.17-2.22-2.23-2.58 2.17-2.23-2.24-2.52 2.12-.06.05-2.23-2.23-2.57 2.17-2.23-2.23-2.58 2.18-2.25-2.23-2.58 2.18L1186.7.9l-2.6 2.17-2.23-2.23L1179.3 3h-.02l-2.25-2.2-2.57 2.16-2.25-2.23-2.56 2.18h-.02L1167.37.7l-2.57 2.18-2.26-2.23-2.5 2.12-.07.06-2.26-2.2-2.56 2.17-2.26-2.23-2.57 2.18-2.26-2.22-2.57 2.18-2.27-2.22-2.57 2.18-2.27-2.23-2.57 2.2-2.3-2.22-2.56 2.18-2.28-2.22-2.56 2.18-2.3-2.22-2.56 2.2-2.3-2.23-2.55 2.18-2.3-2.2-2.57 2.17-2.3-2.22-2.57 2.2-2.3-2.23-2.3 1.97-.26.22-2.32-2.2-2.55 2.17-2.3-2.2-2.57 2.18-2.33-2.2-2.56 2.18-2.3-2.2-2.56 2.18-2.3-2.2-2.57 2.18-2.32-2.2-2.54 2.18-2.33-2.2-2.55 2.2-1.3-1.25-1.03-.97-2.57 2.2-2.34-2.2-2.56 2.2z"/></g></svg>