<svg xmlns="http://www.w3.org/2000/svg" width="8000" height="8000" viewBox="0 0 2116.6666 2116.6666"><g><path fill="none" stroke="#080000" stroke-width=".81.64" d="M1055.53 1.04l-2.3 1.98-.26.22-2.36-2.2-2.54 2.2-2.35-2.2-2.55 2.2-2.36-2.2-2.57 2.2-2.35-2.2v.02l-2.56 2.2-2.35-2.2-2.55 2.2-2.37-2.18-2.55 2.2-2.36-2.2-2.54 2.22-2.38-2.2-2.54 2.22-2.38-2.2-2.53 2.22-2.37-2.2-2.54 2.22-2.37-2.2-2.55 2.22-2.37-2.2-2.28 2-.25.23-2.4-2.18-2.52 2.2-2.37-2.17-2.53 2.2v.02l-2.4-2.2-2.52 2.23-2.36-2.2-2.53 2.23-2.38-2.18-2.52 2.22-2.4-2.18-2.5 2.2-2.4-2.17-2.5 2.22h-.02l-2.4-2.18-2.5 2.22-2.4-2.2-2.43 2.17-.08.06-2.4-2.17-2.5 2.22-2.4-2.18-2.5 2.23h-.02l-2.4-2.18-2.5 2.23-2.4-2.17v.02l-2.5 2.2-2.42-2.16-2.5 2.23-2.4-2.18-2.5 2.22-2.4-2.17-2.5 2.23-2.43-2.16-2.5 2.23L908.2 2l-2.5 2.23-2.4-2.17-2.5 2.23-2.42-2.17-2.5 2.23-2.4-2.16-2.24 2-.25.23h-.02l-2.42-2.16-2.48 2.23-2.42-2.16-2.48 2.24-2.43-2.16-2.48 2.23-2.43-2.16-2.48 2.23-2.43-2.16-2.47 2.24L864 2.66l-2.47 2.24-2.43-2.16-2.47 2.24-2.44-2.16-2.45 2.24-2.44-2.15v.02l-2.46 2.23L844.4 3l-2.46 2.24-2.45-2.15-2.47 2.23-2.44-2.15-2.47 2.25-2.45-2.15-2.46 2.25-2.46-2.15-2.2 2.02-.25.22-2.45-2.14-2.44 2.25-2.45-2.15-2.44 2.25-2.46-2.15-2.44 2.25-2.46-2.14-2.45 2.24-2.47-2.14-2.44 2.25h-.02L795.3 4l-2.42 2.26-2.46-2.14-2.44 2.25-2.47-2.14-2.43 2.26-2.48-2.15-2.43 2.26-2.47-2.13-2.43 2.26-2.48-2.14-2.44 2.25-2.48-2.14-2.18 2.05-.25.22-2.5-2.13-2.4 2.26-2.48-2.13-2.42 2.26-2.5-2.14-2.4 2.26-2.5-2.13-2.4 2.26-2.5-2.14-2.4 2.26h-.02l-2.5-2.13-2.4 2.26-2.5-2.13-2.4 2.27-2.5-2.13-2.4 2.27-2.5-2.13-2.34 2.2-.08.08-2.5-2.13-2.4 2.27-2.5-2.12-2.4 2.27L707 6.35l-2.38 2.27-2.5-2.12h-.02l-2.4 2.27-2.5-2.12-2.4 2.27-2.5-2.12-2.4 2.27-2.5-2.1-2.4 2.26-2.5-2.1h-.02l-2.38 2.26-2.52-2.12-2.38 2.27-2.52-2.1-2.38 2.27-2.52-2.12-2.38 2.28-2.52-2.1h-.02l-2.13 2.04-.23.22-2.52-2.1h-.02l-2.36 2.27-2-1.66-.53-.43-2.37 2.3-2.54-2.12-.42.4-1.94 1.88-2.54-2.1-2.37 2.27-2.54-2.1-2.37 2.28-2.55-2.1-2.36 2.3-2.55-2.1-2.36 2.27-2.55-2.1-2.36 2.3h-.02l-2.54-2.1-2.3 2.22-.05.04h-.02l-2.55-2.1-2.35 2.3-2.54-2.1L606.6 12l-2.57-2.1-2.34 2.3-2.57-2.1-2.34 2.3-2.57-2.1-2.34 2.3h-.02l-2.56-2.1-2.33 2.3-2.57-2.1-2.33 2.3-2.57-2.1-2.34 2.3-2.58-2.1-2.26 2.23-.07.07h-.02l-2.57-2.1-2.3 2.3-2.58-2.1-2.32 2.3-2.6-2.08-2.3 2.3-2.58-2.08-2.33 2.3-2.58-2.08-2.32 2.3-2.6-2.1-2.3 2.32-2.58-2.1-2.3 2.32H538l-2.6-2.1-2.3 2.32-2.6-2.1-2.3 2.32-2.58-2.08-2.3 2.3h-.02l-2.58-2.08-2.3 2.3-2.6-2.07-2.08 2.08-.23.24-2.6-2.08-2.3 2.3-2.58-2.07-2.3 2.3-2.6-2.07-2.3 2.3-2.6-2.07-2.3 2.3-2.6-2.06-2.3 2.32-2.6-2.07-2.3 2.33-2.6-2.08-2.3 2.32-2.6-2.07-2.28 2.32-2.6-2.06h-.02l-2.28 2.32-2.62-2.07-2.05 2.1-.22.22-2.63-2.07-2.27 2.32-2.62-2.06-2.27 2.32-2.63-2.07-2.27 2.33-2.63-2.06-2.27 2.32-2.63-2.07-2.26 2.32-2.64-2.06-2.26 2.3-2.63-2.05-2.26 2.32-2.64-2.05-2.26 2.32-2.64-2.06-2.25 2.33-2.65-2.05-2.25 2.33-2.65-2.06-2.25 2.33-2.65-2.05-2.02 2.1-.23.23-2.65-2.06-2.24 2.33-2.64-2.05-2.24 2.33-2.66-2.05-2.24 2.33-2.65-2.05v.02l-1.53 1.57-.7.74-2.65-2.04-2.24 2.34L378.7 21l-2.2 2.33-2.64-2.04-2.22 2.33-2.64-2.05-2.22 2.34-2.65-2.04-2.14 2.27-.08.07-2.65-2.04-2.2 2.34-2.64-2.04-2.2 2.34-2.66-2.04-2.2 2.34-2.64-2.04-2.2 2.34-2.65-2.03-2.2 2.33-2.65-2.04-2.18 2.33L330.2 24l-2.18 2.34-2.66-2.03-2.17 2.35h-.02l-2.66-2.03-2.17 2.34-2.65-2.03-2.17 2.34-2.65-2.03-2.18 2.34-2.65-2.03-1.95 2.1-.22.25-2.66-2.04-2.16 2.35-2.65-2.02-2.15 2.35-2.66-2.03-2.17 2.34-2.65-2.03v.02l-2.16 2.35-2.65-2.03-2.15 2.35-2.67-2.04L275 29.8l-2.64-2.02-2.14 2.35-2.67-2.02v.02l-2.14 2.35-2.65-2.03-2.15 2.35-2.67-2.03-2.12 2.35-2.65-2.03-2.13 2.34-2.66-2.02-2.13 2.35-2.67-2.02-1.9 2.12-.22.23-2.67-2.02-2.1 2.35L234 30.4l-2.12 2.36-2.67-2.02-2.1 2.36-2.66-2.02-2.1 2.35h-.02l-2.66-2.02-2.1 2.37-2.68-2.02-2.1 2.35-2.66-2-2.1 2.34-2.67-2-2.1 2.34-2.66-2.02-2.1 2.36-2.66-2-2.1 2.34-2.66-2-2.1 2.35-2.67-2-1.86 2.1-.2.25-2.68-2-2.08 2.34-2.66-2.02-2.08 2.36-2.67-2-2.07 2.35-2.67-2.02-2.07 2.36-2.68-2.02-2.06 2.37-2.68-2.02-2.06 2.36-2.67-2-2.04 2.35-2.68-2.02-2.06 2.36-2.67-2-2 2.28-.05.07-2.7-2-2.03 2.35-2.67-2-2.04 2.36-2.7-2-2.02 2.36-2.67-2h-.02l-2.03 2.36-2.67-2-2.04 2.36-2.67-2-2.03 2.36-2.67-2-2.03 2.36-2.68-2-2.03 2.36-2.7-2-2 2.37-2.7-2-2 2.37-2.68-2-2.02 2.37-2.68-2-1.82 2.13-.2.23-2.67-2h-.02l-2 2.38-2.1-1.58-.57-.4-2 2.36-2.7-2-.35.42-1.64 1.95-2.67-2h-.02l-2 2.37-2.67-2-2 2.37-2.7-2L57 45.86l-2.68-2-2 2.38-2.68-2-1.98 2.38-2.7-2-1.93 2.32-.05.05-2.7-2-1.96 2.37-2.68-2-1.98 2.38-2.7-2L29 48.14l-2.68-2v.02l-1.98 2.36-2.68-1.98-1.97 2.37h-.02l-2.68-2-1.96 2.38-2.68-2-1.96 2.38-2.7-2-1.96 2.4-2.7-2-1.88 2.3-.06.07-2.7-1.98-1.94 2.37-2.7-2-1.93 2.4-2.7-2-1.94 2.38-2.7-2v.02l-1.94 2.37-2.7-2-1.93 2.38-2.7-1.98-1.93 2.38-2.68-2-1.93 2.4h-.02l-2.7-2-1.7 2.1-55 501.67v1010.57l55 501.67 1.7 2.08 2.7-1.98 1.94 2.38 2.68-2 1.93 2.4 2.7-2 1.94 2.38 2.7-1.98 1.92 2.37 2.7-1.98 1.93 2.37 2.7-1.98 1.94 2.37 2.7-2 1.93 2.4 2.7-2 .06.07 1.9 2.3 2.68-1.98 1.96 2.38 2.7-2 1.96 2.4 2.68-2 1.96 2.37 2.68-2 1.98 2.38 2.68-2 1.97 2.38h.02l2.68-2 1.97 2.38 2.7-1.98 1.97 2.38 2.68-2 1.97 2.37 2.68-2 .05.06 1.93 2.32 2.7-2 1.98 2.38 2.68-2 2 2.38 2.68-1.98 1.98 2.37 2.7-2 2 2.36 2.68-2 2 2.38 2.68-2 1.64 1.95.36.4 2.68-2 2 2.38.57-.4 2.1-1.6 2 2.37h.02l2.68-2 .2.24 1.8 2.12h.02l2.68-2 2 2.37h.02l2.67-2 2 2.36 2.7-2 2 2.37 2.7-2 2 2.36h.02l2.68-2 2.03 2.36 2.67-2 2.03 2.36 2.68-2 2.04 2.37v-.02l2.68-2 2.03 2.36h.02l2.67-2 2.03 2.36 2.68-2 2.05 2.36 2.67-2 2.04 2.35 2.7-2 .06.08 1.98 2.3 2.68-2.02 2.06 2.36 2.67-2 2.06 2.35 2.68-2 2.06 2.36 2.67-2h.02l2.06 2.35 2.68-2 2.06 2.35 2.68-2.02 2.07 2.37 2.67-2 2.08 2.35 2.66-2 2.08 2.34 2.67-2 .2.23 1.88 2.1 2.68-2 2.1 2.35 2.66-2 2.1 2.34 2.66-2.02 2.08 2.35 2.67-2 2.1 2.34 2.67-2 2.1 2.34 2.67-2 2.08 2.35 2.67-2.02 2.1 2.36 2.67-2.03 2.1 2.35h.02l2.66-2.02 2.1 2.36 2.68-2.03 2.12 2.36 2.66-2.03 2.1 2.35 2.67-2.02.22.23 1.9 2.12 2.67-2.02 2.13 2.35 2.67-2.03 2.13 2.35 2.66-2.02 2.13 2.35 2.67-2.02 2.14 2.36 2.67-2.03 2.14 2.35 2.67-2.03h.02l2.14 2.35 2.65-2.02 2.15 2.35 2.66-2.03h.02l2.15 2.35 2.65-2.03 2.15 2.34 2.66-2.02 2.16 2.34 2.64-2.03 2.17 2.35 2.66-2.03 2.16 2.34 2.65-2.02.23.24 1.94 2.1 2.66-2.02 2.17 2.34 2.65-2.03 2.18 2.35 2.65-2.03 2.17 2.34 2.66-2.03 2.18 2.34 2.66-2.03 2.2 2.34 2.63-2.04 2.18 2.34 2.65-2.03 2.2 2.34 2.65-2.05 2.2 2.34 2.64-2.04 2.2 2.34 2.65-2.04 2.2 2.34 2.65-2.04 2.2 2.34 2.65-2.04.07.07 2.13 2.27 2.64-2.04 2.22 2.33 2.63-2.05 2.23 2.34 2.63-2.05 2.2 2.33 2.65-2.04 2.23 2.34 2.64-2.05.72.75 1.52 1.6v-.02l2.65-2.04 2.25 2.33 2.66-2.05 2.26 2.33 2.64-2.05 2.24 2.33 2.65-2.05.22.23 2.02 2.1 2.65-2.05 2.24 2.32 2.64-2.05 2.27 2.32 2.63-2.05 2.25 2.32 2.64-2.06 2.26 2.32 2.64-2.06 2.27 2.33 2.63-2.06 2.26 2.32 2.63-2.07 2.27 2.32 2.63-2.06 2.26 2.3 2.63-2.06 2.27 2.32 2.63-2.06 2.28 2.32 2.6-2.07 2.28 2.32 2.63-2.07.24.24 2.05 2.08 2.62-2.07 2.27 2.32h.02l2.6-2.07 2.3 2.32 2.6-2.07 2.3 2.32 2.6-2.07 2.3 2.3 2.6-2.06 2.3 2.3 2.6-2.06 2.3 2.3 2.6-2.06 2.3 2.3 2.6-2.07 2.3 2.3 2.6-2.06 2.28 2.3 2.6-2.08.24.23 2.07 2.07 2.6-2.07 2.3 2.3 2.6-2.08 2.3 2.3 2.6-2.07 2.3 2.3 2.6-2.08 2.3 2.3 2.6-2.08 2.32 2.3 2.57-2.08 2.3 2.3 2.6-2.08 2.3 2.3 2.6-2.1 2.3 2.3h.02l2.57-2.08 2.3 2.3 2.6-2.1 2.32 2.3 2.57-2.08 2.3 2.3 2.58-2.1.08.08 2.25 2.23h.02l2.56-2.1 2.34 2.3 2.57-2.1 2.33 2.3 2.56-2.1 2.32 2.3 2.56-2.1 2.35 2.3 2.55-2.1 2.34 2.3 2.56-2.1 2.35 2.28 2.55-2.08 2.35 2.3 2.55-2.1 2.35 2.27 2.55-2.1.06.04 2.3 2.24 2.54-2.1 2.36 2.3 2.54-2.12 2.36 2.3 2.55-2.12 2.34 2.3 2.54-2.12 2.37 2.3 2.54-2.12 2.35 2.28 2.54-2.1 1.93 1.87.43.4 2.53-2.1 2.37 2.28.52-.44 2-1.68 2.36 2.28 2.54-2.1.23.22 2.13 2.05 2.54-2.1 2.38 2.27 2.52-2.12 2.37 2.28 2.53-2.12 2.38 2.28 2.52-2.1 2.38 2.26 2.53-2.12 2.4 2.28 2.5-2.12 2.4 2.27 2.5-2.1 2.4 2.26 2.5-2.13 2.4 2.27 2.5-2.12 2.4 2.27 2.5-2.13h.02l2.4 2.27 2.5-2.13 2.4 2.28 2.5-2.12.07.07 2.32 2.2 2.5-2.13 2.4 2.27 2.5-2.13 2.42 2.26 2.5-2.12 2.4 2.26 2.5-2.13 2.4 2.28 2.5-2.13 2.4 2.26 2.5-2.12 2.4 2.26 2.5-2.13 2.43 2.27 2.48-2.13 2.4 2.26 2.5-2.14.24.23 2.17 2.02 2.48-2.13 2.43 2.24 2.48-2.13 2.44 2.26 2.47-2.13 2.42 2.25 2.47-2.14 2.43 2.26 2.47-2.14 2.45 2.25 2.46-2.13 2.43 2.26 2.48-2.15 2.44 2.26 2.47-2.15 2.43 2.25 2.47-2.15 2.44 2.25 2.46-2.14 2.45 2.26 2.45-2.15 2.45 2.26 2.45-2.15.26.23 2.2 2.03 2.46-2.15 2.45 2.26 2.45-2.15 2.47 2.25 2.43-2.15 2.45 2.24 2.45-2.15 2.47 2.24 2.44-2.15 2.45 2.23 2.44-2.15 2.46 2.23 2.44-2.14 2.48 2.24 2.43-2.16 2.47 2.24 2.43-2.15 2.48 2.23 2.43-2.15 2.47 2.24 2.44-2.16 2.47 2.24 2.43-2.16 2.5 2.24 2.4-2.17 2.5 2.24 2.4-2.17h.02l.24.23 2.23 2 2.42-2.16 2.48 2.24 2.4-2.16h.02l2.5 2.23 2.4-2.16 2.5 2.24 2.4-2.17 2.5 2.23 2.4-2.17h.02l2.5 2.23 2.4-2.17 2.5 2.22 2.4-2.17 2.5 2.23 2.42-2.18 2.5 2.23 2.4-2.17 2.5 2.22 2.4-2.17h.02l2.5 2.23 2.4-2.17 2.5 2.22 2.4-2.18.1.07 2.42 2.16 2.4-2.18 2.5 2.22 2.4-2.18 2.52 2.2 2.4-2.17 2.5 2.22 2.4-2.18 2.52 2.22 2.38-2.2 2.52 2.22 2.4-2.18 2.52 2.22 2.38-2.2 2.54 2.23 2.37-2.2 2.53 2.22 2.37-2.2h.02l.25.23 2.27 2 2.38-2.2 2.53 2.22 2.37-2.2 2.55 2.22 2.36-2.2 2.54 2.2 2.37-2.18 2.55 2.2 2.36-2.18h.02l2.54 2.2 2.36-2.2 2.54 2.22 2.36-2.2 2.56 2.2 2.36-2.2 2.55 2.22 2.36-2.2 2.56 2.2 2.34-2.2 2.57 2.2 2.36-2.18 2.55 2.2 2.36-2.2.27.22 2.3 1.98 2.35-2.2 2.56 2.2 2.34-2.2 2.56 2.2 1.03-.97 1.3-1.24 2.56 2.18 2.32-2.2 2.56 2.18 2.33-2.2 2.56 2.18 2.3-2.2 2.56 2.18 2.3-2.2 2.57 2.18 2.3-2.2h.03l2.56 2.18 2.3-2.22 2.56 2.2 2.3-2.22h.02l.25.2 2.3 1.98 2.3-2.2 2.57 2.17 2.3-2.22 2.58 2.18 2.3-2.22 2.55 2.2 2.3-2.23 2.56 2.2 2.3-2.23 2.56 2.2 2.28-2.23 2.56 2.18 2.28-2.22 2.57 2.18 2.28-2.22 2.56 2.18 2.26-2.22 2.57 2.18 2.27-2.23 2.57 2.18 2.27-2.22 2.56 2.18 2.27-2.22.07.07 2.5 2.1 2.25-2.2 2.57 2.16 2.25-2.2 2.6 2.16 2.23-2.23 2.58 2.18 2.24-2.22h.02l2.56 2.18 2.25-2.23 2.58 2.17 2.24-2.23 2.58 2.17 2.23-2.23h.02l2.58 2.2 2.22-2.25 2.58 2.18 2.23-2.24.06.04 2.52 2.12 2.22-2.23 2.58 2.17 2.22-2.23 2.6 2.17 2.2-2.24 2.58 2.17 2.2-2.23 2.6 2.16 2.2-2.23 2.58 2.16 2.2-2.23 2.13 1.78.46.38 2.22-2.23 2.6 2.16.45-.47 1.75-1.78 2.58 2.17 2.2-2.24.24.2 2.33 1.96 2.2-2.24 2.58 2.16 2.2-2.24 2.57 2.17 2.2-2.26 2.57 2.17 2.18-2.24 2.6 2.16 2.17-2.24 2.6 2.16 2.16-2.24 2.6 2.16 2.17-2.25 2.6 2.17 2.16-2.24 2.58 2.15 2.17-2.24 2.6 2.16 2.16-2.25 2.6 2.15 2.15-2.24 2.6 2.15 2.15-2.24.1.07 2.5 2.1 2.16-2.26 2.58 2.15 2.15-2.25 2.6 2.16 2.14-2.25 2.6 2.15 2.14-2.25h.02l2.6 2.15 2.14-2.25 2.6 2.15 2.13-2.25 2.6 2.15 2.12-2.26h.02l2.6 2.15 2.12-2.25 2.6 2.15 2.13-2.26.25.22 2.33 1.93 2.13-2.25 2.6 2.15 2.13-2.26 2.6 2.15 2.13-2.27 2.6 2.15 2.1-2.26h.02l2.6 2.15 2.12-2.26 2.6 2.15 2.1-2.26 2.6 2.14 2.1-2.26 2.6 2.14 2.12-2.26 2.6 2.14 2.1-2.26 2.6 2.14 2.1-2.26 2.6 2.14 2.1-2.27 2.6 2.14 2.1-2.27.25.2 2.35 1.94 2.08-2.25 2.6 2.14 2.1-2.28 2.6 2.14 2.1-2.27 2.6 2.13 2.07-2.27 2.6 2.14.14-.14.17.13 1.94-2.13 2.46 2 .13-.14.15.13 2.07-2.27 2.6 2.13 2.08-2.27 2.6 2.13 2.07-2.28 2.62 2.14 2.05-2.27 2.6 2.12 2.06-2.27 2.62 2.13 2.06-2.27 2.6 2.14 2.06-2.27 2.6 2.13 2.05-2.27.25.2 2.35 1.93 2.05-2.28 2.6 2.13 2.05-2.26 2.62 2.13 2.04-2.28 2.6 2.12 2.05-2.28 2.62 2.13 2.03-2.28 2.62 2.12 2.02-2.28 2.6 2.13 2.03-2.28 2.62 2.12 2.02-2.28 2.6 2.12 2.03-2.28 2.6 2.13 2.03-2.27 2.62 2.12 2-2.28 2.62 2.12 2-2.3h.03l.07.08 2.54 2.06 2.02-2.3 2.62 2.13 2-2.28 2.6 2.1 2-2.27 2.63 2.12 2-2.3 2.6 2.13 2-2.28 2.63 2.12 2-2.3 2.6 2.13 2-2.3 2.62 2.13 1.98-2.3 2.6 2.13 2-2.28.27.2 2.36 1.92 1.98-2.3 2.63 2.13 1.98-2.3h.02l2.62 2.12 1.97-2.3 2.63 2.12 1.97-2.3 2.64 2.12 1.96-2.3h.02l2.62 2.12 1.96-2.3 2.62 2.12 1.96-2.3h.02l2.62 2.12 1.96-2.3 2.62 2.12 1.95-2.3 2.63 2.12 1.95-2.3 2.62 2.1 1.95-2.28 2.62 2.1 1.95-2.3.28.22 2.35 1.9 1.95-2.3 2.62 2.1 1.94-2.3 2.63 2.12 1.94-2.3 2.62 2.1 1.92-2.3 2.62 2.12 1.94-2.3 2.62 2.1 1.93-2.3 2.62 2.1 1.92-2.3 2.63 2.12 1.92-2.3 2.63 2.1 1.92-2.3 2.62 2.1 1.9-2.3h.02l.26.2 2.36 1.9 1.92-2.3 2.63 2.1 1.9-2.3 2.64 2.1 1.9-2.3 2.63 2.1 1.9-2.3h.02l2.6 2.1 1.92-2.32 2.64 2.1 1.9-2.3 2.62 2.1 1.9-2.3 2.64 2.1 1.9-2.32 2.62 2.1 1.9-2.3 2.62 2.08 1.9-2.3 2.63 2.1 1.88-2.32 2.62 2.1 1.9-2.3.08.05 2.54 2.04 1.9-2.3 2.6 2.1 1.9-2.33 2.63 2.1 1.88-2.3 2.62 2.1 1.88-2.32 2.64 2.1 1.87-2.32 2.62 2.1 1.87-2.32 2.62 2.1 1.87-2.33h.02l2.62 2.1 1.86-2.3 1.47 1.16 1.14.92 1.85-2.3.05.03 2.55 2.06 1.85-2.32 2.6 2.1 1.85-2.32 2.62 2.1 1.83-2.32 2.6 2.1 1.85-2.33 2.6 2.1 1.85-2.32 2.6 2.1 1.84-2.32 2.13 1.7.47.4 1.83-2.33 2.63 2.1.37-.5 1.45-1.83 2.6 2.1 1.83-2.32.27.2 2.35 1.9 1.82-2.33 2.62 2.1 1.8-2.33 2.62 2.08 1.82-2.3 2.6 2.08 1.83-2.32 2.6 2.1 1.82-2.33 2.6 2.1 1.82-2.32 2.6 2.1 1.8-2.33 2.63 2.1 1.8-2.32 2.6 2.08 1.8-2.3 2.62 2.1 1.8-2.34 2.6 2.1 1.8-2.33 2.62 2.1 1.8-2.33.1.06 2.52 2.03 1.8-2.33 2.6 2.1 1.8-2.33 2.6 2.1 1.8-2.33 2.6 2.1 1.8-2.33 2.6 2.1 1.8-2.33 2.6 2.1 1.77-2.33 2.62 2.1 1.78-2.33 2.62 2.1 1.78-2.33 2.6 2.1 1.78-2.33.27.2 2.35 1.9 1.77-2.33 2.6 2.1 1.77-2.33 2.63 2.1 1.76-2.34 2.6 2.1 1.77-2.34h.02l2.6 2.1 1.77-2.33 2.6 2.1 1.77-2.34 2.6 2.08 1.76-2.32 2.6 2.08 1.76-2.32 2.6 2.1 1.76-2.34 2.6 2.1 1.77-2.34 2.62 2.1 1.75-2.33 2.6 2.1 1.75-2.33.27.2 2.35 1.9 1.73-2.34 2.62 2.1 1.73-2.34h.02l2.6 2.08 1.74-2.33 2.6 2.1 1.75-2.34 2.6 2.1 1.73-2.33 2.6 2.1.03-.02 1.74-2.32 2.6 2.08 1.74-2.3 2.6 2.07 1.74-2.32 2.6 2.08 1.73-2.33h.02l2.6 2.1 1.73-2.34 2.6 2.1 1.73-2.34 2.6 2.1 1.73-2.34 2.62 2.1 1.7-2.34 2.6 2.1 1.73-2.34.26.2 2.36 1.88 1.7-2.33 2.62 2.1 1.7-2.34h.02l2.6 2.1 1.7-2.33 2.6 2.08 1.72-2.33 2.6 2.1 1.7-2.34 2.62 2.1 1.7-2.34 2.6 2.08 1.7-2.33 2.6 2.08 1.7-2.33 2.6 2.1 1.7-2.35 2.6 2.1 1.7-2.34 2.6 2.1 1.7-2.35 2.6 2.1 1.68-2.33.1.06 2.5 2.03 1.7-2.34 2.6 2.1 1.7-2.34 2.6 2.08 1.67-2.33 2.6 2.1 1.67-2.35 2.6 2.1 1.68-2.34 2.6 2.1 1.67-2.35 2.6 2.08 1.68-2.33 2.6 2.08 1.67-2.33 2.6 2.1 1.67-2.35.28.2 2.33 1.9 1.67-2.35 2.6 2.1 1.67-2.34 2.6 2.08 1.66-2.33 2.6 2.1 1.66-2.34 2.6 2.1 1.67-2.35 2.6 2.1 1.66-2.34 2.6 2.1 1.65-2.34h.02l2.6 2.08 1.66-2.33 2.6 2.08 1.64-2.33 2.6 2.1 1.65-2.35 2.6 2.1 1.64-2.35 2.6 2.1 1.18-1.7 51.4-507.46V549.88L2143.3 42.4l-1.17-1.67-2.6 2.1-1.63-2.35-2.6 2.1-1.65-2.35-2.6 2.1-1.65-2.35-2.6 2.1-1.65-2.34-2.6 2.08-1.66-2.33-2.6 2.08-1.65-2.34-2.6 2.1-1.67-2.35-2.6 2.08-1.67-2.34-2.6 2.1-1.66-2.34-2.6 2.08-1.67-2.33-2.6 2.08-1.68-2.33-2.33 1.88-.27.2-1.68-2.33-2.6 2.1-1.66-2.34-2.6 2.1-1.67-2.34-2.6 2.1-1.68-2.35-2.6 2.1-1.68-2.33-2.6 2.08-1.68-2.33-2.6 2.1-1.7-2.35-2.6 2.1-1.67-2.34-2.6 2.1-1.7-2.35-2.52 2.03-.07.07-1.7-2.33-2.6 2.08-1.7-2.33-2.6 2.08-1.7-2.33-2.6 2.08-1.7-2.33-2.6 2.1-1.7-2.34-2.6 2.1-1.7-2.35-2.6 2.1-1.7-2.33-2.6 2.1-1.7-2.34-2.6 2.08-1.72-2.32-2.6 2.1-1.7-2.34-2.6 2.1h-.02l-1.7-2.34-2.6 2.08-1.72-2.33-2.35 1.88-.25.2-1.72-2.32-2.6 2.1-1.7-2.33-2.62 2.1-1.7-2.34-2.62 2.08-1.72-2.3-2.6 2.07-1.73-2.33-2.6 2.1h-.02l-1.72-2.34-2.6 2.1-1.73-2.34-2.6 2.1-1.74-2.34-2.6 2.1-1.73-2.34h-.03l-2.6 2.1-1.74-2.34-2.6 2.1-1.75-2.34-2.6 2.1-1.74-2.34-2.6 2.1h-.02l-1.73-2.34-2.62 2.1-1.74-2.34-2.36 1.88-.26.2-1.76-2.3-2.6 2.07-1.75-2.32-2.6 2.1h-.02l-1.76-2.33-2.62 2.1-1.75-2.34-2.6 2.1-1.76-2.34-2.6 2.08-1.77-2.32-2.6 2.1-1.77-2.34-2.6 2.1-1.77-2.33-2.6 2.07h-.03l-1.76-2.32-2.6 2.1-1.77-2.34-2.62 2.1-1.77-2.32-2.6 2.1-1.78-2.34-2.35 1.88-.26.2-1.77-2.3-2.6 2.08-1.78-2.32-2.6 2.08h-.02l-1.78-2.32-2.62 2.1-1.77-2.33-2.6 2.1-1.8-2.32-2.6 2.1-1.8-2.34-2.6 2.1-1.8-2.33-2.6 2.1-1.8-2.32-2.6 2.1-1.8-2.33-2.53 2.02-.08.07h-.02l-1.8-2.32-2.6 2.1-1.8-2.34-2.6 2.1-1.8-2.33-2.62 2.1-1.8-2.33-2.6 2.1-1.8-2.33-2.62 2.1-1.8-2.33-2.6 2.08-1.82-2.3-2.6 2.08-1.82-2.32-2.6 2.1-1.83-2.32-2.6 2.1-1.82-2.33-2.6 2.1-1.82-2.32-2.62 2.1-1.82-2.33-2.35 1.88-.26.2-1.8-2.3-2.62 2.08-1.45-1.83-.37-.48-2.62 2.1-1.84-2.33-.47.37-2.14 1.7-1.84-2.3-2.6 2.1-1.85-2.33-2.6 2.1-1.84-2.32-2.6 2.1-1.84-2.33-2.62 2.1-1.84-2.32-2.6 2.1-1.86-2.32-2.55 2.05-.06.04-1.86-2.3-1.15.9-1.48 1.18-1.86-2.32-2.62 2.1h-.02l-1.87-2.32-2.62 2.1-1.87-2.3-2.62 2.08-1.87-2.3-2.63 2.08-1.9-2.3-2.6 2.08-1.9-2.3-2.6 2.08h-.03l-1.87-2.3-2.62 2.1-1.88-2.33-2.54 2.03-.08.06-1.9-2.32-2.62 2.1-1.9-2.3-2.62 2.08-1.9-2.3-2.63 2.1-1.9-2.32-2.6 2.1-1.9-2.3-2.64 2.1h-.02l-1.9-2.32-2.62 2.1-1.9-2.3-2.63 2.1-1.92-2.3-2.6 2.1h-.02l-1.9-2.32-2.64 2.1-1.9-2.3-2.63 2.1-1.9-2.3-2.64 2.1-1.92-2.3-2.36 1.9-.26.2-1.93-2.3-2.63 2.1-1.92-2.3-2.63 2.1-1.92-2.3-2.63 2.1-1.92-2.3-2.62 2.1-1.93-2.3-2.62 2.12-1.94-2.3-2.6 2.1-1.95-2.3-2.63 2.1-1.93-2.3-2.63 2.12-1.93-2.3-2.62 2.12-1.94-2.3-2.35 1.9-.26.2h-.03l-1.94-2.3-2.62 2.12-1.94-2.3-2.63 2.12-1.95-2.3-2.62 2.1-1.96-2.3-2.62 2.13-1.96-2.3-2.62 2.12-1.98-2.3-2.6 2.12-1.98-2.3-2.62 2.12-1.98-2.3-2.62 2.1h-.02l-1.97-2.28-2.6 2.1-2-2.28-2.6 2.12h-.02l-1.97-2.3-2.62 2.13-1.97-2.3-2.35 1.9-.26.2h-.02l-1.98-2.28-2.62 2.12-1.98-2.3-2.62 2.13-2-2.3-2.6 2.14-2-2.28-2.6 2.12-2-2.3-2.63 2.13-2-2.28-2.6 2.1-2-2.28-2.63 2.13-2-2.3-2.62 2.14-2-2.3-2.54 2.06-.08.07-2.03-2.3-2.6 2.14-2.02-2.3-2.62 2.14-2-2.27-2.63 2.12-2.02-2.28-2.6 2.13-2.03-2.28-2.62 2.13-2.02-2.28-2.6 2.12-2.03-2.3-2.6 2.14-2.05-2.28-2.6 2.13-2.05-2.28-2.6 2.13-2.04-2.28-2.62 2.13-2.04-2.28-2.6 2.13-2.06-2.27-2.34 1.92-.26.2-2.05-2.26-2.6 2.13-2.06-2.28-2.62 2.13-2.05-2.28-2.62 2.14-2.04-2.28-2.6 2.13-2.07-2.27-2.62 2.13-2.08-2.26-2.6 2.14-2.06-2.27-2.6 2.15-2.08-2.27-.17.13-.14-.13-2.44 2-1.95-2.13-.16.14-.12-.14-2.6 2.13-2.1-2.26-2.6 2.14-2.07-2.26-2.6 2.14-2.1-2.27-2.6 2.14-2.08-2.28-2.34 1.93-.26.2-2.1-2.25-2.6 2.14-2.08-2.26-2.6 2.14h-.02l-2.1-2.27-2.6 2.15-2.1-2.27-2.6 2.15-2.1-2.26-2.6 2.14-2.1-2.26-2.6 2.14-2.12-2.26-2.6 2.15-2.1-2.26-2.6 2.14h-.03l-2.1-2.24-2.6 2.14-2.12-2.26-2.6 2.15h-.02l-2.12-2.27-2.6 2.15-2.1-2.25-2.35 1.93-.26.2-2.14-2.24-2.6 2.15-2.12-2.26-2.6 2.16-2.15-2.25-2.6 2.16-2.14-2.25-2.6 2.16-2.14-2.25-2.6 2.16-2.15-2.25-2.6 2.16-2.14-2.25-2.6 2.16L1311 3.9l-2.6 2.17-2.17-2.25-2.5 2.1-.08.05h-.02l-2.16-2.25-2.6 2.16-2.14-2.25-2.6 2.16-2.16-2.26-2.6 2.15-2.15-2.25-2.6 2.16-2.16-2.24-2.6 2.16-2.16-2.24-2.6 2.15-2.16-2.24-2.6 2.15-2.17-2.24-2.6 2.17-2.17-2.24-2.6 2.16-2.17-2.25-2.6 2.16-2.17-2.23-2.6 2.16-2.2-2.24-2.3 1.94-.27.2-2.2-2.22-2.58 2.16-1.75-1.77-.45-.46-2.58 2.17h-.02l-2.2-2.23-.47.4-2.12 1.77-2.2-2.24-2.58 2.17-2.2-2.24-2.6 2.17-2.2-2.24-2.6 2.17-2.2-2.23-2.58 2.17-2.22-2.24-2.58 2.17-2.23-2.23-2.52 2.12-.06.04-2.23-2.23-2.57 2.18-2.23-2.23-2.58 2.17L1191.5 2l-2.58 2.16-2.23-2.23-2.6 2.18-2.23-2.22-2.58 2.17h-.02l-2.25-2.23-2.57 2.18-2.25-2.23-2.56 2.18h-.02l-2.25-2.23-2.57 2.18-2.26-2.23-2.5 2.12-.07.05-2.26-2.22-2.56 2.17-2.26-2.22-2.58 2.18-2.26-2.22-2.57 2.18-2.27-2.23-2.57 2.17-2.28-2.22-2.57 2.18-2.27-2.22-2.56 2.2-2.28-2.22-2.57 2.18-2.3-2.22-2.56 2.18-2.3-2.2-2.55 2.17-2.3-2.23-2.57 2.2-2.3-2.23-2.57 2.2-2.3-2.23-2.3 1.98-.26.22-2.32-2.2-2.56 2.17-2.3-2.2-2.56 2.18h-.02l-2.3-2.22-2.57 2.2-2.3-2.22-2.57 2.2-2.3-2.2-2.57 2.18-2.32-2.2-2.55 2.18-2.32-2.2-2.55 2.18-1.3-1.24-1.03-.96-2.57 2.2-2.34-2.2-2.56 2.2z" stroke-linecap="square"/></g></svg>