<svg xmlns="http://www.w3.org/2000/svg" width="211mm" height="17.3mm" viewBox="0 0 211 17.299999"><g><path fill="#033" d="M147.2 1c-.1 0-.1 0-.2.1-.1.08-.1.1.1.23.2.15.24.24.1.16-.1-.06-.3-.2-.35-.23-.02-.02-.08 0-.2.1-.1.1-.13.13-.08.15.03 0 .2.08.37.15.18.07.35.13.38.15.04 0 .06.03.04.04-.02 0-.16-.02-.3-.06-.17-.05-.37-.1-.47-.14l-.2-.05-.13.12c-.08.07-.14.13-.14.13s.2.1.47.18c.25.1.53.2.6.23.08.03.18.07.23.1.05 0 .07.03.04.03-.03 0-.3-.07-.58-.16-.76-.23-.7-.22-.64-.12.05.1.15.13.98.45.64.24.55.26-.17.03-.56-.18-.64-.2-.62-.15.02.05.32.18.75.33-.07 0-.12-.02-.22-.04l-.28-.04-.03.05s-.05 0-.05 0 .02.03.02.04l-.03.04c-.07.13-.06.15.08.25.2.14.23.2.05.1-.07-.05-.16-.1-.2-.1-.02-.02-.06.02-.1.06l-.22-.2c-.1-.08-.22-.17-.24-.17 0 0 0 0-.02 0l-.15-.15-.23-.2-.23-.2-.23.48c0 .07-.03.1-.06.15-.06.02-.1.04-.14.06.02-.12.04-.27.08-.43l.1-.57-.2-.1c-.13-.07-.24-.12-.27-.1 0 0-.12.18-.22.4-.1.22-.2.4-.2.38-.02 0 .02-.2.07-.44.05-.23.1-.43.08-.45 0 0-.1 0-.22 0h-.2l-.13.3c-.16.35-.2.3-.1-.1.05-.22.04-.26-.03-.26-.05 0-.2 0-.35 0-.15 0-.27 0-.27.02 0 0 .02.1.06.22.07.3.05.3-.1 0-.08-.12-.16-.24-.2-.24-.02 0-.18 0-.33 0h-.3l-.04.13c-.05.14-.04.16.12.24.23.13.28.2.08.1-.08-.03-.18-.07-.2-.07-.1-.02-.25.3-.18.34.1.05.34.1.6.16.17.03.25.06.22.08-.03.03-.23 0-.44-.02l-.4-.07-.08.18c-.05.1-.06.2-.03.2.03.03.23.07.45.1.22.06.44.1.5.12.04.02.18.05.3.08s-.08 0-.44-.04l-.65-.1.14.12c.08.06.18.13.23.14.03 0 .22.05.34.08l-.18.06.03.32c.03.37-.03.35-.14-.05-.06-.22-.08-.26-.15-.24-.05.02-.2.07-.32.1-.13.05-.24.1-.24.1s.07.1.16.2c0 0 .02 0 .03.02l-.05.06c-.02-.02-.04-.03-.07-.06-.06-.04-.1-.07-.16-.1l.12-.28-.2-.14c-.1-.07-.2-.13-.24-.13-.02 0-.17.18-.3.38-.16.22-.3.38-.3.37 0-.02.08-.2.18-.44.1-.23.17-.42.16-.43 0-.02-.1-.04-.2-.05l-.2-.03-.2.3c-.23.32-.26.28-.1-.1.1-.22.1-.27.04-.28-.05 0-.2-.02-.35-.03-.14 0-.25-.02-.26 0 0 0 0 .1 0 .22.04.3.02.3-.08 0-.06-.15-.12-.27-.15-.28-.02 0-.17-.03-.33-.05l-.28-.04-.2-.14c-.1-.07-.2-.13-.24-.13-.03 0-.17.16-.3.37-.16.2-.3.37-.3.35 0 0 .08-.2.17-.43.1-.24.18-.43.17-.45 0 0-.1-.03-.2-.04l-.2-.02-.2.3c-.23.32-.27.28-.1-.1.1-.23.1-.27.04-.28-.05 0-.2-.02-.35-.03-.14-.02-.26-.03-.26-.02 0 0 0 .1 0 .23.04.3.02.3-.08 0-.06-.15-.12-.27-.15-.28-.03 0-.18-.03-.33-.05l-.28-.03-.1.14c-.06.13-.06.14.1.25.2.15.23.22.05.1-.1-.04-.17-.08-.2-.1-.1-.02-.3.3-.24.33.1.06.3.15.57.23.15.05.23.1.2.1-.04.02-.23-.02-.44-.1l-.4-.1-.1.17c-.08.1-.1.17-.07.2.02 0 .2.08.42.15.2.07.42.14.46.16.06.03.2.08.3.12.12.04-.07 0-.42-.1l-.63-.16.12.13c.07.07.16.14.2.17.1.04 1.2.43 1.3.46.06.02.08.03.06.04-.02 0-.3-.06-.6-.15-.33-.1-.6-.16-.6-.15-.05.06.17.18.6.34 0 0 0 0-.02 0-.13-.02-.25-.03-.25-.02 0 0 0 .1 0 .23.03.3 0 .3-.08 0-.05-.15-.1-.27-.14-.28-.03 0-.18-.03-.34-.05l-.3-.03-.07.13c0 .02-.02.03-.02.04 0 0 0-.04 0-.04-.04-.03-.62.16-.8.25-.07.03-.12.04-.13.02 0 0 .2-.13.45-.25l.45-.2-.03-.27-.02-.26-.56.27c-.3.15-.54.25-.52.22.02-.03.28-.24.6-.47l.54-.4-.1-.2c-.03-.1-.1-.2-.12-.2-.02 0-.25.1-.5.22-.27.13-.48.23-.48.2 0 0 .2-.14.42-.3.23-.17.42-.32.42-.33 0 0-.07-.07-.16-.12l-.16-.1-.35.2c-.4.2-.4.15 0-.13.2-.16.24-.2.18-.24-.04-.02-.17-.1-.28-.15-.1-.06-.2-.1-.22-.1 0 0-.07.1-.13.2-.16.27-.18.27-.08-.03.05-.14.07-.27.05-.3-.02 0-.14-.08-.27-.16l-.22-.12-.16.1c-.15.08-.16.1-.1.25.1.2.1.27 0 .1-.04-.06-.1-.14-.1-.16-.07-.05-.45.14-.4.2.03.1.16.25.34.4.1.1.15.17.1.17-.03 0-.17-.1-.32-.23l-.26-.23-.2.1c-.13.07-.2.13-.2.16.02.02.15.15.3.3.13.12.26.26.3.3.02.03.1.12.18.2.07.08-.07-.03-.32-.23l-.45-.38.02.16c0 .1.04.2.06.22.06.08.78.82.87.9.03.02.04.04.02.04s-.22-.16-.44-.36c-.22-.2-.4-.35-.43-.34-.1.04.06.27.48.68.47.46.6.62.22.3-.1-.08-.2-.18-.32-.26 0 0 .03-.03.03-.03s-.07-.06-.16-.1l-.17-.1-.34.2c-.4.23-.4.18-.02-.12.22-.15.25-.2.2-.22-.05-.02-.2-.1-.3-.15-.12-.06-.22-.1-.23-.1 0 0-.06.1-.12.2-.14.3-.16.28-.08-.02.04-.13.05-.26.03-.28-.02-.02-.14-.1-.28-.15l-.23-.13-.16.1c-.14.1-.15.1-.07.26.1.2.1.26 0 .1-.05-.06-.1-.13-.13-.15-.06-.05-.42.16-.4.22.06.08.2.23.4.4.1.08.15.14.1.14-.02.02-.17-.08-.33-.2l-.26-.23-.14.07-.16-.16-.27.46c-.16.26-.3.44-.3.4 0-.03.08-.32.18-.63l.18-.56-.2-.13c-.12-.06-.23-.1-.26-.1-.02 0-.15.18-.28.4-.13.2-.24.37-.25.36 0 0 .05-.2.12-.44.08-.23.14-.43.13-.45 0 0-.1-.02-.22-.03h-.2l-.17.28c-.18.34-.22.3-.08-.1.08-.2.08-.26 0-.26-.05 0-.2 0-.34-.02-.14 0-.26 0-.27 0 0 0 .02.1.04.2l-.13-.06c-.04-.1-.1-.17-.1-.18-.02 0-.1 0-.12 0-.05-.04-.14-.08-.24-.13-.12-.07-.22-.1-.23-.1 0 0-.05.1-.1.2-.16.27-.18.27-.1-.03.05-.15.07-.28.05-.3-.02 0-.15-.08-.27-.15l-.24-.14-.15.1c-.16.1-.16.1-.1.25.1.2.1.28 0 .12-.04-.07-.1-.14-.1-.16-.07-.05-.44.15-.4.2.04.1.18.25.36.4.1.1.16.17.12.17-.03 0-.18-.1-.33-.23l-.28-.23-.2.1c-.12.08-.2.14-.18.17 0 .02.14.15.28.28.15.13.3.27.32.3.03.04.12.13.2.2.07.08-.07-.02-.33-.22l-.47-.37.03.16c.02.05.04.1.06.16-.05 0-.1-.02-.17-.02l-.2-.02-.18.3c-.2.34-.23.3-.1-.1.1-.22.1-.26 0-.27-.04 0-.2 0-.33 0-.14-.02-.26-.02-.26-.02s0 .1.03.23c.04.3.02.3-.1 0-.06-.14-.14-.25-.17-.26-.02 0-.18-.02-.33-.03l-.3-.02-.06.14c-.06.12-.05.14.1.24.22.13.26.2.07.1-.07-.05-.16-.1-.2-.1-.08 0-.26.3-.2.34.1.05.33.13.6.2-.02 0-.03 0-.05 0l-.2.02-.38-.1-.04.08c-.07 0-.12 0-.2.02-.14 0-.26.02-.26.03 0 0 .04.1.1.22.1.28.1.28-.1 0-.1-.1-.2-.22-.22-.22-.03 0-.2 0-.34 0l-.28.03-.03.15c-.04.15-.03.17.15.24.24.1.3.16.08.1-.08-.04-.18-.07-.22-.07-.07 0-.18.32-.1.35 0 0 0 0 .02 0l-.07.1c-.07.08-.12.13-.16.16 0-.04 0-.08 0-.1 0-.05.04-.1.08-.17.12-.2.14-.24.06-.26-.05 0-.2-.03-.33-.06-.13-.02-.25-.04-.25-.04s-.02.1-.02.23c-.02.3-.04.3-.1 0-.02-.15-.06-.28-.1-.3-.02 0-.17-.03-.32-.07l-.26-.05-.1.13c-.1.12-.1.14.04.26.18.15.2.22.04.1-.07-.05-.15-.1-.18-.1-.08-.04-.33.24-.27.3.04.02.1.06.2.1l-.03.1-.24-.1-.14.17c-.08.1-.1.17-.1.2-.05-.03-.08-.06-.16-.1l-.23-.13-.16.1c-.1.06-.12.1-.1.15-3.95-.1-7.92-.16-11.9-.16-4.96 0-9.9.1-14.78.24l-.08-.04c.13 0 .33 0 .36-.02.05 0 .17-.05.26-.1l.18-.08-.67-.03c-.36-.02-.56-.03-.43-.04.12 0 .27-.02.32-.03.06 0 .28 0 .5 0 .24 0 .45-.02.48-.03.04 0 .05-.1.04-.2l-.03-.2h-.4c-.23 0-.42-.02-.44-.04-.02-.03.07-.04.24-.04.28 0 .52-.02.63-.05.1 0 .04-.35-.05-.35-.03 0-.13 0-.23.03-.23.05-.16 0 .1-.07.2-.04.2-.06.2-.2v-.15l-.3-.06c-.14-.03-.3-.06-.32-.06-.03 0-.15.1-.27.2-.23.26-.25.25-.07 0 .07-.12.13-.2.12-.22 0 0-.1-.03-.25-.06-.13-.03-.28-.06-.33-.07-.07-.02-.1.02-.1.25-.05.4-.1.44-.14.07l-.03-.32-.2-.04c-.1-.02-.2-.03-.22-.02-.02 0-.05.2-.07.45 0 .23-.04.43-.06.44 0 0-.04-.17-.07-.4-.03-.24-.08-.44-.1-.45-.02-.02-.15 0-.3.04l-.24.07-.07.6c-.02.15-.04.3-.06.42-.02-.02-.06-.05-.1-.08-.02-.06-.03-.1-.04-.16l-.07-.5-.3.15-.27.15-.2.12s0-.02 0-.02c-.03 0-.17.06-.3.13l-.28.14v.02c-.02-.06-.06-.1-.1-.1-.02 0-.12.04-.2.07-.22.08-.16.02.08-.1.17-.06.18-.08.14-.22l-.04-.14h-.3c-.15-.02-.3-.02-.33 0-.03 0-.12.1-.2.23-.18.27-.2.27-.1-.02.05-.1.08-.2.08-.22 0 0-.12-.02-.26-.03-.15 0-.3 0-.35 0-.08-.02-.08.03-.05.26.07.4.03.43-.1.07l-.03-.08c-.02-.03-.02-.04-.03-.06L86 4.06h-.2c-.1-.02-.2 0-.22 0 0 0 0 .04 0 .05-.2.04-.4.05-.42.03-.03-.02.05-.05.22-.07.27-.04.5-.1.6-.14.1-.03-.04-.36-.13-.35-.03 0-.13.04-.22.07-.2.08-.15.02.1-.1.16-.07.17-.1.13-.22l-.04-.15h-.3c-.15-.02-.3-.02-.33-.02-.04 0-.13.12-.22.25-.17.28-.2.27-.1 0 .06-.13.1-.23.1-.23-.02 0-.13-.02-.28-.03-.08 0-.13 0-.2 0l-.04-.07-.37.1h-.2c-.03-.02-.04 0-.06 0 0-.02 0-.02 0-.02.27-.07.5-.16.58-.2.06-.06-.14-.36-.22-.34-.04.02-.13.06-.2.1-.2.1-.15.04.06-.1.15-.1.16-.1.1-.24l-.1-.14-.28.02c-.15.02-.3.04-.33.05-.03 0-.1.12-.15.26-.1.3-.13.3-.1 0 .03-.12.03-.22.03-.23 0 0-.12 0-.26 0-.14.03-.3.04-.35.04-.07 0-.07.05.02.27.16.4.13.43-.08.1l-.2-.3-.2.03c-.06 0-.12.02-.16.03.02-.05.04-.1.05-.17l.02-.16-.45.38c-.24.2-.38.32-.3.24.07-.1.15-.18.18-.22.02-.04.16-.18.3-.3.13-.15.26-.28.27-.3 0-.03-.06-.1-.2-.15l-.2-.1-.26.23c-.13.14-.27.24-.3.24-.05 0 0-.06.1-.16.17-.17.3-.33.35-.4.03-.07-.36-.26-.4-.2-.03 0-.08.1-.12.15-.1.16-.1.08 0-.1.05-.16.04-.18-.1-.26l-.16-.1-.23.14c-.12.07-.24.15-.26.17-.02 0 0 .14.05.28.1.3.1.3-.07.04-.07-.1-.13-.2-.14-.2 0 0-.1.04-.22.1-.1.06-.18.1-.23.14-.04.02-.1.03-.1.03-.04 0-.08.08-.12.18l-.13.08c0-.1.02-.2.02-.2s-.12 0-.26 0c-.14.02-.3.03-.35.03-.07.02-.07.06.02.28.16.4.13.43-.1.1l-.17-.3-.2.03c-.12.02-.2.04-.22.05 0 .02.06.2.15.44.1.22.17.42.17.43 0 0-.13-.15-.27-.36-.14-.2-.28-.38-.3-.4-.03 0-.14.07-.25.14l-.2.14.22.57c.12.32.2.6.2.63 0 .04-.13-.14-.3-.4l-.3-.44-.16.16-.12-.07-.27.23c-.13.12-.28.23-.3.23-.05 0 0-.07.1-.16.17-.17.3-.32.35-.4.03-.07-.34-.26-.4-.2-.02 0-.07.08-.1.15-.1.16-.1.1-.02-.1.07-.15.06-.17-.1-.26L76 2.3l-.24.13c-.13.07-.25.14-.27.16-.03 0 0 .14.04.28.1.3.08.3-.08.03-.06-.1-.12-.2-.13-.2 0 0-.1.05-.22.12-.1.06-.23.13-.27.15-.07.03-.03.07.2.23.38.28.37.33-.02.12l-.34-.2-.17.1c-.1.06-.17.1-.17.13 0 0 .2.16.42.32.22.16.4.3.4.32 0 0-.2-.1-.45-.22-.26-.13-.5-.23-.5-.22-.04 0-.1.1-.15.2l-.04.1-.04-.16-.4.04c-.23.02-.43.02-.45 0-.02-.02.07-.04.23-.06.28-.03.52-.07.62-.1.08-.04-.03-.38-.1-.37-.05.02-.15.04-.24.07-.2.07-.14 0 .1-.08.18-.1.2-.1.16-.24l-.03-.15h-.3c-.15-.02-.3-.03-.33-.03-.03 0-.13.1-.22.24-.2.28-.2.28-.1 0 .06-.12.1-.22.1-.22s-.12-.03-.26-.04c-.14 0-.3-.02-.35-.03-.07 0-.08.05-.06.28.05.4 0 .44-.1.08l-.1-.32h-.2c-.1-.02-.2-.02-.22 0 0 0 0 .2.02.45.02.22.03.43.02.44 0 0-.08-.17-.16-.4-.05-.16-.1-.3-.15-.37.03 0 .07-.03.08-.03.03-.02 0-.1-.1-.2l-.1-.16-.38.13c-.2.08-.4.12-.43.1-.03 0 .04-.05.2-.1.24-.1.46-.2.54-.25.07-.05-.16-.34-.24-.3-.03 0-.12.05-.2.1-.17.1-.13.04.06-.1.14-.12.15-.14.07-.26l-.1-.15-.28.05c-.16.02-.3.05-.34.06-.02 0-.08.13-.12.27-.08.3-.1.3-.1 0 .02-.1.02-.2 0-.22 0 0-.1.02-.25.04-.13.02-.28.04-.33.05-.08 0-.07.04.04.26.2.38.18.42-.06.1l-.22-.28-.2.03c-.1.02-.2.05-.2.06 0 .02.07.2.2.43.1.2.2.4.18.42 0 0-.14-.14-.3-.34-.16-.2-.3-.37-.34-.37-.02 0-.13.07-.23.15l-.2.14.28.54c.16.3.28.58.28.6 0 .05-.15-.12-.35-.36l-.34-.44-.18.23-.17.23.28.34c.16.2.27.36.26.37-.02.03-.07 0-.1-.04-.12-.15-.54-.5-.58-.5-.02 0-.1.1-.2.22l-.17.2.3.4c0 .03.03.08.07.17.02.04.03.06.05.1l-.18-.15c-.06-.04-.1-.06-.13-.1l-.04-.03h-.02c-.1-.1-.2-.15-.2-.14 0 .02 0 .08.03.17 0 0 0 0-.02 0-.02-.04-.04-.08-.07-.08-.04 0-.14.03-.23.05-.22.06-.15 0 .1-.08.18-.07.2-.1.17-.23l-.02-.15-.28-.04c-.16 0-.3-.03-.34-.02-.02 0-.05.02-.08.05v-.13l-.26-.07c-.16-.04-.3-.07-.34-.08-.03 0-.16.1-.28.2-.05.04-.1.06-.12.1v-.08c0-.02 0-.03.03-.06.08-.1.14-.2.14-.2s-.1-.04-.24-.07c-.13-.03-.28-.07-.32-.1-.07 0-.1.04-.15.26-.1.4-.14.43-.13.06V3.3l-.17-.05c.12-.04.3-.08.34-.1.04 0 .14-.08.22-.15l.13-.12-.66.12c-.35.06-.55.1-.43.06.12-.03.26-.07.3-.1.06 0 .27-.07.5-.12.2-.05.4-.1.43-.12.03 0 .02-.1-.04-.2l-.1-.17-.38.08c-.22.04-.42.07-.44.05-.03-.02.06-.05.22-.1.26-.05.5-.12.6-.17.06-.03-.1-.34-.2-.33-.03 0-.13.05-.2.1-.2.08-.16.02.06-.1.17-.1.18-.12.12-.25l-.06-.15h-.3c-.15.02-.3.03-.33.04-.02 0-.1.13-.16.27-.14.3-.16.3-.1 0 .03-.13.05-.23.05-.23-.02 0-.13 0-.27 0-.15 0-.3 0-.35 0-.08 0-.08.05 0 .27.1.4.07.45-.1.1L63 1.6h-.2c-.12 0-.22.03-.23.04 0 0 .03.2.1.44s.1.44.1.45c0 0-.1-.16-.22-.37-.12-.22-.24-.4-.26-.4-.03 0-.14.04-.26.1l-.2.12.14.58c.04.16.08.3.1.42-.02-.02-.08-.03-.14-.05-.03-.05-.05-.08-.08-.15l-.26-.47-.2.22-.22.2-.14.16s-.02 0-.02 0c-.03 0-.14.08-.25.18l-.2.18v.02c-.05-.05-.1-.08-.13-.07-.03 0-.1.05-.18.1-.18.12-.15.05.03-.1.14-.1.15-.13.06-.26l-.1-.13-.3.06c-.14.03-.3.06-.32.07-.03 0-.07.14-.1.28-.07.32-.1.32-.1.02 0-.12 0-.22 0-.23 0 0-.13 0-.27.03-.12.02-.28.05-.33.05-.07 0-.06.06.06.27.22.38.2.42-.07.1l-.06-.07s-.02-.02-.03-.04l-.14-.16-.2.04c-.1.02-.2.05-.2.06 0 0 0 .03.02.05-.2.07-.37.12-.4.1-.03 0 .04-.05.18-.1.25-.1.46-.2.54-.27.06-.05-.2-.34-.26-.3-.02 0-.1.05-.18.1-.17.12-.14.05.05-.1.13-.1.14-.13.05-.26l-.1-.13-.28.05c-.15.03-.3.06-.32.07-.03 0-.08.13-.1.27-.08.3-.1.3-.1 0 0-.1 0-.2 0-.22-.02 0-.14 0-.27.04-.14 0-.3.04-.34.04-.07 0-.06.06.06.27.22.4.2.43-.07.12l-.23-.28-.2.04c-.1.02-.2.04-.2.06-.02 0 .08.2.2.42.13.22.22.4.22.42-.02.02-.16-.13-.33-.33S55.84 3 55.82 3c-.03 0-.13.05-.23.14l-.2.14.3.55c.17.3.3.57.3.6 0 .03-.16-.13-.36-.36l-.37-.43-.16.23-.14.24.3.34c.16.2.28.35.27.37 0 .02-.06 0-.1-.05-.12-.15-.56-.5-.6-.48-.02 0-.1.1-.2.22l-.14.2.32.4.26.33s0 .02 0 .03l-.33-.25c-.22-.15-.4-.26-.4-.24-.02.02.05.2.14.4v.05c-.03.03-.05.05-.05.05s.08.12.2.24v.02h.02c.03.13.06.2.08.27-.03-.03-.04-.04-.07-.06-.04-.03-.07-.05-.1-.07-.03-.06-.06-.1-.1-.17-.1-.22-.2-.4-.22-.4-.02 0-.3.1-.32.1 0 0 .04.18.1.38l-.4-.2.03.12-.1.07h-.04c-.2-.34-.36-.5-.44-.46-.03.02.06.22.2.46 0 .02 0 .04 0 .06l-.04.06c-.18-.28-.4-.64-.45-.7 0-.02-.1-.1-.2-.14l-.18-.1.23.5c.12.26.18.4.12.3-.05-.07-.12-.17-.15-.2-.03-.04-.13-.2-.22-.36-.1-.15-.18-.3-.2-.32-.04-.02-.14 0-.27.06l-.22.1.17.28c.04.08.08.16.1.22l-.07.02c-.02-.02-.03-.03-.05-.07-.07-.12-.14-.23-.2-.3L51.7 5l-.12.08s-.03-.02-.04-.03c0-.02-.07 0-.13 0 0 0 0 0 .02 0 .18-.1.34-.2.36-.23.02-.03-.04-.1-.14-.18l-.17-.14-.33.2c-.17.1-.35.17-.38.16-.04 0 .02-.06.15-.14.23-.13.4-.26.48-.33.05-.07-.26-.32-.33-.28-.03.02-.1.08-.16.14-.15.14-.14.07 0-.1.12-.14.12-.16 0-.27l-.13-.13-.26.1c-.13.04-.27.1-.3.1-.02.02-.04.15-.03.3 0 .3 0 .3-.1.02-.02-.13-.05-.23-.06-.23 0 0-.1.02-.23.07-.13.04-.28.1-.32.1-.07.02-.05.06.12.26.3.34.28.38-.05.1l-.3-.23-.17.06c-.1.04-.2.08-.2.1 0 0 .15.18.32.38s.3.38.3.4c0 0-.17-.12-.38-.3-.23-.16-.42-.3-.45-.3-.02 0-.1.08-.18.18l-.14.17.4.5c.24.26.44.5.45.54 0 .03-.2-.1-.45-.3l-.46-.38-.08.2-.16-.04-.17.28c-.1.16-.2.3-.23.3s-.02-.07.05-.18c.1-.2.17-.38.18-.47 0-.05-.42-.15-.46-.1 0 .03-.04.1-.05.18-.03.18-.06.1-.05-.1 0-.15 0-.17-.17-.22l-.2-.06-.16.18c-.1.1-.2.2-.2.2-.02.04.05.16.15.28.2.27.2.28-.06.05-.1-.08-.2-.15-.2-.16-.02 0-.07.04-.12.1-.1-.07-.15-.1-.17-.08-.03.05-.2.18-.3.24-.15.1-.1 0 .08-.17.16-.14.16-.15.05-.24-.12-.1-.12-.1-.33-.06-.12.02-.24.04-.26.04-.08.02-.08.05 0 .3.03.13.04.23.02.23s-.1-.1-.15-.22c-.06-.12-.12-.22-.13-.22-.08 0-.47.1-.47.12 0 0 .12.1.26.22.3.24.35.3.13.18l-.02-.02c-.07-.02-.12-.05-.2-.1l-.43-.23-.1.03c-.08.02-.13.05-.13.07 0 .02.13.14.3.26.03.02.03.02.06.04-.03 0-.1.02-.1.03-.02 0-.03 0-.04.04-.26-.15-.47-.26-.48-.26 0 0-.2.2-.2.2 0 .02.06.07.12.12-.1 0-.2.02-.23.03-.07 0-.07.04.04.26l-.02.05-.03.1c0-.02-.02-.02-.03-.04l-.2-.28-.2.03c-.13.02-.22.05-.23.06 0 0 .07.2.18.43.1.18.16.33.18.38l-.02.02c-.04-.05-.15-.17-.26-.32-.12-.15-.23-.28-.3-.34.03 0 .06-.03.06-.04.02-.02-.04-.1-.15-.17l-.2-.13-.3.2c-.13.1-.25.16-.32.18v-.02l-.04.04c-.05 0 0-.06.13-.15.2-.14.38-.28.43-.36.05-.06-.3-.3-.35-.25-.03.02-.1.08-.15.14-.12.14-.1.07.02-.12.1-.13.1-.15-.04-.25l-.14-.12-.25.12c-.13.05-.22.1-.27.1-.04 0-.07 0-.1 0-.02 0-.08.07-.13.13 0 0-.03 0-.07.02.02-.03.04-.07.08-.12.1-.13.1-.15-.03-.26l-.14-.12-.25.1c-.14.06-.27.12-.3.14-.02 0-.02.14 0 .3.03.3 0 .3-.1 0-.03-.1-.07-.2-.08-.2 0 0-.1.03-.24.08-.12.05-.26.1-.3.12-.07.02-.05.07.14.25.33.32.32.37-.04.1l-.3-.2-.2.06c-.1.04-.17.1-.17.1s.15.18.34.37c.07.07.12.12.18.18l-.05.06c-.06-.04-.12-.08-.2-.14-.23-.15-.44-.28-.46-.28-.02 0-.1.1-.16.2l-.08.1c0-.1 0-.15-.04-.2-.1-.15-.06-.2-.34.62 0 .03-.02.04-.02.06-.05 0-.08.02-.1.02 0 0 .03.06.05.1-.03.1-.06.2-.1.27-.02-.04-.04-.08-.06-.1 0-.04 0-.06.02-.08.02-.1.1-.42.17-.73.07-.3.13-.56.12-.57 0 0-.13 0-.3-.02h-.27l-.07.2c-.03.1-.1.33-.17.5-.06.17-.13.3-.17.3-.03 0-.04-.03-.03-.07.02-.04.06-.24.1-.45.04-.2.1-.42.1-.46 0-.05-.05-.07-.28-.08-.22 0-.3 0-.3.04.03.08.04.37.04.5-.03.2-.1.07-.16-.25-.05-.28-.06-.3-.28-.32-.22 0-.23 0-.36.2-.08.1-.16.2-.18.23-.05.07 0 .1.4.35.2.12.33.23.3.24 0 0-.2-.06-.42-.15-.22-.1-.4-.17-.42-.16-.07.06-.3.46-.27.48.03.02.27.05.54.07.74.07.74.1 0 .13l-.68.03-.06.13c-.04.07-.04.14-.02.17.03.02.3.06.6.1.95.08 1.02.1.92.13-.06.02-.44.04-.85.04-.4 0-.75.03-.75.04 0 .02.07.37.1.4 0 0 .04 0 .05 0 .02.06.07.16.15.28.32.5.33.53.26.5-.04-.03-.2-.2-.38-.4-.17-.2-.32-.37-.33-.37-.02 0-.27.15-.3.16 0 0 .36.63.53.9-.02 0-.04.02-.04.03 0 0 .02.03.03.06-.07-.07-.17-.18-.28-.3l-.37-.42-.13.14-.12.14.25.3-.1.05-.1-.1s.04-.02.04-.03c.04-.02 0-.05-.15-.1-.14-.07-.2-.08-.22-.06-.02.05-.15.22-.22.3-.1.1-.1 0 .02-.2.1-.16.1-.17-.03-.23-.15-.07-.15-.07-.34 0-.1.05-.2.1-.24.1-.08.03-.07.06.08.3.08.1.12.2.1.2 0 0-.1-.07-.2-.18-.12-.1-.2-.2-.22-.2-.07.02-.43.2-.42.2 0 .02.15.1.33.18.47.22.45.23-.07.07l-.48-.15-.1.06c-.06.03-.1.07-.1.1 0 0 .18.1.37.18.6.3.64.32.55.32-.05 0-.32-.1-.6-.18-.3-.1-.53-.17-.54-.17 0 0-.1.23-.1.25-.04.02-.05.1-.06.28 0 .13-.02.23-.04.23s-.05-.12-.07-.25c-.03-.13-.06-.24-.07-.24-.07-.02-.5 0-.5.03 0 0 .1.13.2.26.27.36.25.37-.12.04l-.33-.3h-.1c-.06.02-.1.03-.12.04-.12.03-.3.06-.44.08-.16.03-.3.04-.32.03-.02 0 0-.02.04-.03.04 0 .22-.05.4-.1.2-.05.37-.1.4-.1.06-.02.04-.05-.05-.16-.1-.1-.13-.13-.16-.1-.05.02-.27.12-.38.16-.17.07-.1-.02.13-.15.2-.1.2-.1.12-.22-.1-.1-.1-.1-.3-.1-.13 0-.25 0-.28 0-.07 0-.08.02-.1.28 0 .13-.02.23-.04.23-.02-.02-.05-.13-.08-.26-.02-.13-.05-.24-.06-.24-.07-.02-.5 0-.5.03 0 0 .1.13.2.26.27.35.25.36-.12.03l-.33-.3h-.1c-.08.02-.14.04-.15.06 0 0 .1.14.2.3.37.46.4.5.3.46-.03-.02-.22-.2-.4-.37-.13-.13-.23-.22-.3-.28 0 0 .07-.04.07-.04s-.08-.05-.17-.1l-.16-.1-.18.08c-.1.04-.28.13-.42.2-.14.07-.27.1-.3.1 0 0 0-.03.04-.04.03-.02.18-.1.33-.2.16-.1.3-.2.34-.2.05-.03.02-.06-.12-.13-.13-.08-.2-.1-.2-.08-.04.04-.2.2-.3.26-.12.1-.1 0 .07-.18.14-.16.14-.17 0-.25-.1-.08-.12-.08-.32-.02-.1.03-.23.06-.25.07-.08 0-.07.04.03.3.06.12.1.22.07.22-.02 0-.1-.1-.18-.22-.1-.1-.17-.2-.18-.2-.08 0-.46.12-.45.14 0 .02.13.1.3.2.4.28.4.3-.1.07l-.44-.2-.1.05c-.07.03-.12.06-.12.08 0 .02.16.12.33.23.55.35.58.38.5.37-.05 0-.3-.12-.57-.25-.26-.12-.48-.22-.5-.22 0 0-.16.2-.17.23 0 0 1.04.72 1.1.75.05 0 .06.04.05.05-.02 0-.27-.1-.6-.25 0-.03-.04-.07-.12-.13-.1-.08-.16-.1-.18-.1 0 .02-.04.03-.05.05l-.1-.06c.07-.06.06-.08-.02-.16-.1-.1-.12-.1-.33-.06-.12 0-.24.03-.26.03-.1.02-.1.05-.05.3.03.14.03.24 0 .24 0 0-.06-.1-.12-.24-.05-.12-.1-.22-.12-.23-.06 0-.47.08-.47.1 0 0 .1.12.25.24.36.32.34.33-.1.06l-.4-.25-.12.03c-.06.02-.12.05-.12.07 0 .02.12.14.27.27.48.4.5.44.42.42-.04-.03-.27-.16-.5-.32-.23-.16-.43-.3-.44-.28-.02 0-.2.18-.22.2 0 0 .87.84.93.88.03.03.04.05.02.06-.02 0-.24-.13-.52-.32l-.48-.33-.08.15-.07.16.48.34c.27.18.46.33.43.32-.02 0-.26-.12-.52-.27l-.46-.27-.1.17-.1.17-.15.1c-.08.06-.24.18-.36.26-.13.1-.25.15-.27.15-.03 0-.02-.03 0-.05.04-.02.17-.13.3-.25.12-.1.24-.22.27-.24.03-.03 0-.06-.16-.1-.15-.06-.2-.07-.22-.05-.02.04-.14.2-.2.3-.12.1-.1 0 0-.2.1-.17.1-.18-.04-.24-.15-.06-.15-.06-.34.02-.1.05-.2.1-.23.1-.06.04-.05.06.1.3.1.1.15.2.13.2-.02 0-.13-.07-.23-.18-.1-.1-.2-.18-.22-.18-.07 0-.42.2-.4.2 0 .03.15.1.33.17.5.2.48.2-.06.06l-.48-.13-.1.06c-.06.02-.1.06-.1.08.02.02.2.1.38.2.63.25.67.27.58.27-.05 0-.32-.07-.6-.16-.3-.1-.54-.16-.55-.16 0 0-.12.23-.12.25 0 0 1.2.56 1.28.58.05 0 .07.03.06.04-.03 0-.3-.06-.65-.16l-.6-.18v.12h-.28c-.16 0-.3.02-.34.03-.03 0-.1.12-.17.26-.14.28-.17.28-.1-.02.03-.1.05-.2.05-.22 0 0-.1 0-.26 0-.14 0-.3 0-.34 0-.08 0-.08.05 0 .28.1.4.07.43-.1.1l-.16-.3h-.2c-.02 0-.02 0-.04 0-.02-.03-.03-.05-.07-.08l-.17-.13-.32.18c-.18.1-.36.2-.4.18-.03 0 .03-.06.17-.14.22-.12.4-.25.47-.33.05-.04-.26-.3-.33-.25-.03 0-.1.07-.16.13-.14.14-.12.07.02-.1.1-.13.1-.15 0-.26l-.13-.12-.27.1c-.14.04-.28.1-.3.1-.03.02-.04.15-.04.3 0 .3 0 .3-.1 0-.02-.1-.05-.2-.05-.2s-.1.02-.24.06c-.13.04-.27.1-.32.1-.07.02-.05.07.12.26.3.34.28.38-.05.1l-.27-.23-.2.06c-.1.03-.18.07-.18.08 0 .02.14.2.3.4.18.2.32.36.32.38 0 0-.18-.12-.4-.3-.2-.16-.4-.3-.42-.3-.03 0-.1.1-.2.18l-.13.17.4.48c-.03 0-.08 0-.16.02-.05 0-.07 0-.1.02l-.2-.16-.1.25-.05.13c-.03-.08-.07-.15-.08-.15-.07 0-.48.08-.47.1 0 0 .1.12.25.23.07.08.12.12.16.16 0 0 0 0-.02.02 0 0-.02 0-.03 0-.05-.02-.1-.06-.2-.1l-.4-.26-.12.03c-.07.02-.12.05-.12.07 0 0 .02.02.03.03-.03 0-.04.02-.06.03-.17.12-.14.05.05-.1.12-.1.13-.13.04-.25l-.1-.14-.28.04c-.15.03-.3.06-.33.07-.02.03-.07.15-.1.3-.07.3-.1.3-.1 0 0-.12 0-.22 0-.22s-.13 0-.27.03c-.13.03-.28.06-.33.07-.08 0-.07.05.05.27.22.37.2.4-.07.1l-.2-.28-.2.04c-.12.02-.22.05-.22.06 0 0 .1.2.2.42.14.22.23.4.23.43 0 .02-.14-.13-.3-.33-.18-.2-.34-.36-.36-.36-.03 0-.13.08-.23.16l-.17.15.3.55c.15.3.3.57.3.6 0 .04-.17-.12-.37-.36l-.37-.44-.16.22-.04-.03-.17.06c-.1.04-.3.1-.46.17-.15.05-.28.08-.3.07-.02 0 0-.03.03-.05.04-.02.2-.1.37-.17.17-.08.33-.15.37-.16.04-.02.02-.05-.1-.14-.12-.1-.18-.1-.2-.1-.04.05-.23.18-.32.23-.15.1-.1 0 .08-.16.17-.15.17-.15.06-.25-.1-.1-.1-.1-.32-.06-.12 0-.24.03-.27.03-.07 0-.07.04-.02.3.03.13.04.23.02.23s-.08-.1-.14-.23c-.06-.13-.1-.23-.13-.23-.07 0-.47.08-.47.1 0 .02.1.12.25.23.37.3.35.33-.1.06l-.4-.26-.12.03c-.04.02-.08.03-.1.05-.1.03-.27.1-.4.14-.16.05-.3.08-.32.07-.02 0 0-.03.03-.04.04-.03.2-.1.38-.18.16-.07.33-.15.36-.16.06-.02.03-.05-.1-.14-.1-.08-.16-.1-.18-.1-.05.05-.23.18-.33.24-.16.08-.1 0 .08-.17.17-.15.17-.16.06-.25-.1-.1-.1-.1-.33-.07-.1.02-.22.04-.25.04-.08.02-.08.04-.02.3.03.13.03.23 0 .23 0 0-.07-.1-.12-.23-.05-.12-.1-.23-.12-.23-.08 0-.48.08-.48.1 0 0 .12.1.25.23.37.3.35.32-.1.05l-.4-.24-.1.03c-.08 0-.13.04-.13.06 0 .02.12.14.27.27.47.4.5.43.4.4-.03 0-.26-.14-.5-.3-.23-.14-.43-.27-.44-.26-.02 0-.2.2-.22.2 0 .02.9.83.96.87.04.03.05.06.03.06 0 0-.24-.12-.52-.3l-.5-.33-.06.16-.05.1c-.05 0-.1.03-.18.06-.1.04-.2.1-.24.1-.06.02-.06.05.1.3 0 0 .02.03.04.06v.02c.04.07.07.12.06.12-.02 0-.12-.08-.22-.2-.1-.1-.2-.18-.2-.18-.08 0-.44.18-.43.2 0 .02.15.1.33.17.47.22.46.23-.07.07l-.5-.14-.1.05c-.05.03-.1.07-.08.1 0 0 .1.06.22.12-.1 0-.2-.02-.22-.02-.05 0-.07 0-.1.08-.05 0-.1-.03-.12-.02 0 0-.02.04-.05.08 0-.07 0-.13-.02-.13-.06-.02-.48-.03-.5 0 0 0 .07.12.15.26.05.07.08.12.1.17-.03 0-.07-.03-.1-.03-.04-.04-.06-.07-.1-.12l-.3-.32h-.12c-.07 0-.13 0-.14.03 0 .02.05.12.12.25l-.16-.05-.06.06c-.1-.14-.18-.23-.2-.23 0 0-.26.13-.28.14 0 .02.1.2.2.4-.1 0-.17 0-.24 0l-.1-.12-.13.13c-.65 0-.78.1-1.36.1 70.4 0 140.78 0 211.17 0-1.3 0-1.3-.4-2.14-.4.12-.08.02-.37.02-.37 0-.02.02 0 0 0 0 0-.23.1-.5.23-.1.05-.17.1-.25.13-.06-.02-.1-.02-.16-.02.08-.06.15-.1.35-.24.16-.1.3-.22.3-.24 0-.02-.04-.05-.1-.07l-.1-.04-.45.2c-.5.2-.5.2-.1-.07.17-.1.3-.2.3-.2 0-.03-.38-.15-.45-.16-.02 0-.1.1-.17.22-.08.1-.16.2-.18.2 0 0 0-.1.06-.22.1-.25.1-.28.04-.3-.03 0-.15-.04-.26-.06-.2-.06-.2-.06-.33.03-.13.08-.13.1.02.24.16.17.2.27.06.17-.1-.07-.25-.2-.3-.26 0 0-.06 0-.16.07-.05-.06-.1-.1-.1-.1s-.1.07-.22.16c-.28.2-.3.2-.05-.06.1-.12.2-.23.18-.25 0-.03-.1-.13-.17-.23l-.14-.2-.2.05c-.17.04-.2.05-.2.2 0 .2-.04.28-.05.1 0-.07 0-.15-.02-.17-.03-.07-.47 0-.47.07 0 .1.06.28.15.48.05.12.06.2.02.18-.03 0-.12-.14-.2-.3l-.1-.24v-.14c.02-.1 0-.2 0-.23-.03-.02-.3 0-.6.05s-.54.08-.53.07c0-.02.25-.1.55-.18.28-.1.52-.17.53-.18 0-.02-.03-.1-.1-.16l-.1-.13-.4.07c-.48.08-.46.03.04-.12.28-.08.33-.1.3-.15-.04-.03-.12-.14-.2-.23-.07-.1-.13-.16-.14-.16 0 0-.1.07-.23.15-.28.2-.3.2-.05-.05.1-.12.2-.24.2-.26-.02-.02-.1-.12-.18-.23l-.14-.2-.2.05c-.18.03-.2.05-.2.2 0 .2-.06.28-.06.1 0-.07-.02-.15-.03-.18-.03-.06-.47 0-.47.07 0 .1.05.28.13.48.05.12.06.2.02.18-.03 0-.12-.15-.2-.3l-.1-.3-.26.03c-.15.03-.24.06-.24.1 0 .02.05.18.1.34.08.16.14.33.14.37 0 .04.04.15.07.25.04.08-.04-.06-.17-.32l-.24-.48-.05.16c-.03.08-.05.18-.05.22.02.1.33.98.37 1.07 0 .04 0 .06-.02.05-.02 0-.13-.2-.23-.45s-.2-.45-.23-.45c-.1.02-.07.27.1.77.22.56.25.75.07.35-.07-.13-.17-.33-.24-.44l-.12-.2-.35.24c-.05.08.02-.08 0 0-.08 0-.14-.3-.2-.3v-.02l-.1-.07.07-.06-.07-.23c-.04-.13-.1-.24-.1-.25-.03-.02-.22.05-.4.14l-.04-.02-.04-.05.4-.27-.06-.25-.07-.26-.52.33c-.04.03-.07.05-.1.07-.05-.02-.08-.03-.14-.05.08-.08.17-.17.26-.27l.47-.46-.12-.18c-.06-.1-.14-.18-.16-.2-.04 0-.25.13-.48.3-.23.15-.42.26-.42.25 0-.02.16-.2.35-.38.2-.18.35-.35.35-.36 0 0-.08-.06-.18-.1l-.18-.08-.3.22c-.37.25-.38.2-.04-.1.2-.2.2-.23.15-.26-.05 0-.2-.07-.3-.12-.14-.05-.24-.1-.25-.1 0 .02-.05.12-.1.23-.1.3-.12.28-.08-.03.02-.14.02-.27 0-.3-.02 0-.16-.06-.3-.12l-.24-.1-.14.1c-.13.1-.14.12-.04.26.12.18.13.26 0 .1-.04-.05-.1-.12-.13-.14-.07-.04-.4.2-.36.25.06.07.23.2.43.36 0 0-.02 0-.04 0l-.2-.06-.3-.2-.07.05c-.07 0-.1-.02-.2-.04-.13-.04-.24-.06-.25-.05 0 0 0 .04 0 .04l-.03-.06-.12.07c-.02-.06-.03-.1-.05-.12l.12-.07-.05-.16-.05-.17-.5.27-.1-.03-.12.12s-.02.02-.03.03c-.18.1-.33.17-.35.17-.02 0 0-.03.04-.05.07-.04 1.06-.8 1.06-.8 0-.03-.18-.22-.2-.23 0 0-.22.1-.47.25-.26.12-.5.24-.55.25-.08.02-.05 0 .47-.38.17-.12.3-.23.3-.25 0-.02-.04-.05-.1-.07l-.12-.04-.43.23c-.47.24-.5.22-.1-.06.16-.1.28-.2.3-.22 0-.02-.4-.13-.47-.13-.02 0-.1.1-.16.22-.07.12-.14.22-.16.22 0 0 0-.1.05-.23.08-.25.1-.28 0-.3-.02 0-.13-.03-.25-.05-.2-.05-.2-.05-.33.04-.12.08-.12.1.03.24.17.17.2.27.07.18-.1-.06-.26-.2-.3-.25 0-.03-.07 0-.2.07-.13.08-.16.1-.12.13.04.02.2.1.35.2.16.08.32.16.35.17.04.02.05.04.03.05-.02 0-.15-.03-.3-.1-.14-.05-.34-.14-.43-.17l-.17-.08-.16.1c-.1.07-.16.12-.16.12s.2.1.43.22c.23.12.5.25.56.28.07.04.16.1.2.1.05.04.07.06.04.06-.03 0-.28-.1-.55-.2-.7-.3-.65-.3-.6-.2.03.1.13.16.9.55.6.32.5.32-.2.02-.5-.23-.6-.26-.58-.2.02.05.3.2.7.4-.07-.02-.12-.03-.22-.06l-.27-.07-.04.04s-.04-.02-.04-.02 0 .04 0 .05l-.03.05c-.1.12-.1.14.02.26.16.16.2.23.03.1-.07-.05-.14-.1-.17-.12-.03 0-.08.02-.13.06v-.02l-.18-.2c-.1-.1-.2-.2-.22-.2 0 0 0 0-.02 0l-.1-.15-.2-.22-.2-.22-.3.46c-.04.06-.06.1-.1.14-.06.02-.12.03-.15.05.04-.12.1-.27.16-.42l.22-.56-.2-.14c-.1-.07-.22-.13-.24-.12-.03 0-.16.18-.3.4-.15.2-.27.36-.27.35 0 0 .07-.2.16-.44.1-.22.16-.4.16-.43 0 0-.1-.03-.22-.04l-.2-.02-.2.3c-.2.33-.24.3-.07-.1.1-.22.1-.26.02-.27-.05 0-.2 0-.35-.03-.14 0-.26-.02-.26 0 0 0 0 .1.02.22.03.3 0 .3-.1 0-.04-.14-.1-.27-.14-.27-.03 0-.18-.03-.34-.05l-.28-.03-.08.14c-.07.14-.06.16.1.26.2.14.24.2.05.1-.08-.04-.17-.1-.2-.1-.06 0-.2.15-.23.26 0 0-.03 0-.05.02-.16.07-.3.12-.3.1-.03 0 .07-.07.2-.16.26-.17.28-.2.23-.24-.02 0-.1-.1-.17-.16-.13-.13-.13-.13-.3-.1-.16 0-.17.02-.16.2 0 .22-.03.32-.07.18-.03-.1-.06-.28-.06-.34 0-.02-.06-.03-.22-.02-.17 0-.22.02-.2.06 0 .02.08.16.14.3.05.14.12.28.14.3.02.03 0 .06 0 .06-.04 0-.12-.1-.2-.2-.06-.12-.16-.27-.2-.35l-.1-.13-.2.02c-.1 0-.2 0-.2.02-.02 0 .07.17.17.37.1.2.22.42.25.48.03.07.07.15.1.2 0 0 0 .02 0 .03 0 0-.02 0-.03 0-.05-.06-.16-.22-.28-.4-.34-.56-.3-.52-.36-.42-.04.1 0 .18.33.84.02 0 .02.02.02.03l-.04.05-.02-.04-.03.03c-.02-.03-.03-.05-.05-.08.07-.1.07-.14 0-.15 0 0-.04 0-.06-.02l-.03-.05-.1-.16-.04.04.05-.03-.02-.18-.03-.2-.07.02c-.05-.04-.08-.07-.12-.1l.17-.05v-.34l-.6.2c-.02 0-.02 0-.03 0h-.1l-.13.08c-.14.06-.26.1-.32.1.03-.02.05-.04.07-.06.2-.1 1.18-.6 1.18-.6 0-.02-.12-.23-.14-.24 0 0-.24.07-.53.16-.28.1-.55.18-.6.18-.1 0-.05-.02.56-.3.18-.1.34-.18.35-.2 0-.02-.03-.06-.1-.1l-.1-.04-.47.15c-.53.16-.54.15-.07-.07.18-.08.33-.16.33-.17 0 0-.34-.18-.4-.2-.03 0-.12.1-.22.2s-.2.2-.2.2c-.03 0 .02-.1.1-.23.14-.23.15-.26.08-.3-.03 0-.13-.04-.24-.08-.2-.1-.2-.1-.34-.02-.13.06-.13.07-.02.24.12.2.13.3.02.18-.08-.07-.2-.23-.23-.28 0-.03-.08 0-.22.04-.15.06-.2.1-.15.12.03.02.16.12.3.23.12.12.26.23.3.25.02.02.03.04 0 .05-.02 0-.14-.06-.27-.14-.12-.08-.3-.2-.37-.24l-.15-.1-.1-.17-.12-.17-.45.28c-.25.15-.47.28-.5.3-.03 0 .16-.16.4-.35l.48-.34-.08-.15-.08-.15-.47.35c-.26.2-.48.34-.5.33-.02 0 0-.03.03-.05.06-.04.9-.9.88-.92 0-.02-.22-.2-.23-.2-.02 0-.2.14-.43.3-.22.17-.44.32-.48.33-.08.02-.06 0 .4-.44.12-.14.24-.26.23-.28 0-.02-.05-.05-.12-.06l-.12-.03-.38.26c-.42.3-.44.28-.1-.05.12-.1.23-.22.23-.23 0-.02-.4-.1-.5-.08 0 0-.05.1-.1.22-.04.13-.1.24-.1.24-.03 0-.03-.1 0-.23.02-.26 0-.3-.06-.3-.03 0-.15 0-.27-.02-.22 0-.22 0-.32.1-.08.07-.1.1 0 .16l-.1.06c-.02-.02-.05-.03-.06-.04-.02-.02-.07 0-.18.1-.08.06-.12.1-.12.12-.32.17-.56.3-.58.28-.02 0 0-.03.04-.05.07-.04 1.07-.8 1.06-.8 0-.02-.17-.2-.2-.22 0 0-.2.1-.47.25-.25.14-.5.26-.54.26-.1.03-.07 0 .46-.37.16-.1.3-.22.3-.24 0-.03-.04-.06-.1-.08l-.12-.04-.43.2c-.47.25-.5.23-.08-.05.15-.1.27-.2.28-.2 0-.03-.4-.15-.46-.15-.02 0-.1.1-.16.22-.07.12-.15.22-.16.22-.02 0 0-.1.04-.23.1-.26.1-.3 0-.3 0 0-.13-.04-.24-.06-.2-.05-.2-.05-.34.04-.12.08-.1.1.04.24.16.17.2.27.06.17-.1-.07-.26-.2-.3-.26 0-.02-.07 0-.2.08s-.16.12-.12.14c.04 0 .2.1.35.18.16.1.32.18.36.2.03 0 .04.03.02.04-.02 0-.15-.03-.3-.1-.14-.06-.33-.14-.42-.18l-.17-.07-.17.1c-.1.06-.16.1-.16.1s.05.04.06.05c-.06.06-.15.15-.26.27-.18.2-.36.37-.4.4-.08.02-.06 0 .28-.5.1-.14.18-.28.18-.3 0-.02-.07-.04-.14-.04h-.13l-.32.3c-.34.36-.37.35-.1-.02.1-.14.16-.26.16-.27 0 0-.4-.02-.48 0 0 0-.04.1-.05.24-.02.13-.05.24-.06.25 0 0-.04-.1-.05-.23-.03-.26-.04-.3-.12-.3-.03 0-.15.02-.27.02-.02 0-.03 0-.04 0l-.02-.1-.04-.2-.54.17c-.3.08-.57.15-.6.15-.03 0 .2-.1.53-.22l.58-.23V7.9l-.03-.16-.58.22c-.34.13-.6.2-.62.2 0 0 0-.03.05-.04.08-.03 1.2-.66 1.2-.67 0-.02-.12-.23-.13-.24 0 0-.25.1-.52.2-.28.1-.55.2-.6.2-.1 0-.05-.03.55-.33.18-.1.34-.2.35-.2 0-.03-.04-.07-.1-.1l-.1-.05-.47.17c-.52.17-.54.15-.08-.08.17-.1.3-.17.32-.18 0-.02-.36-.18-.43-.2 0 0-.1.1-.2.2-.1.12-.2.2-.2.2-.02 0 .02-.1.08-.2.14-.25.15-.28.08-.3-.03 0-.14-.05-.25-.1-.2-.06-.2-.06-.33 0-.14.08-.14.1-.02.26.13.18.15.3.03.17-.08-.07-.2-.23-.24-.28-.03-.03-.1 0-.23.05-.15.06-.18.1-.14.12.03 0 .16.12.3.22.14.1.28.2.3.22.04 0 .05.04.03.05-.02 0-.15-.05-.28-.13-.13-.08-.3-.18-.4-.23l-.14-.1-.18.1c-.1.05-.18.1-.18.1s.17.12.38.27c.2.14.43.3.5.35.06.04.14.1.18.13.04.03.05.05.02.05-.03 0-.25-.12-.5-.27-.63-.38-.57-.36-.55-.25.02.1.1.16.78.64.52.37.42.37-.18 0-.47-.3-.54-.34-.54-.28 0 .05.33.3.8.6.23.17.37.3.18.2-.06-.03-.15-.07-.2-.1-.05-.02-.23-.12-.4-.22s-.3-.18-.32-.17c0 0 0 .08 0 .18.02.1.03.28.04.4-.02.03-.03.05-.05.07-.08.1-.18.2-.2.2-.02 0 .02-.1.1-.22.13-.24.14-.27.06-.3-.02 0-.13-.04-.24-.08-.2-.07-.2-.07-.34 0-.13.07-.13.08 0 .24.12.2.14.3.02.18-.08-.07-.2-.23-.24-.28-.02-.02-.08 0-.22.06-.02 0-.04 0-.05.02l-.15.04.13-.18-.03-.03.26-.1.02-.26v-.27l-.73.27c.03-.1.06-.15.06-.15s-.06-.03-.1-.05c.44-.24.9-.5.9-.5 0-.03-.14-.37-.15-.38 0 0-.32.1-.7.23-.36.13-.72.24-.78.24-.1 0-.06-.05.75-.45.25-.13.47-.25.48-.28 0-.03-.04-.1-.1-.14l-.14-.1-.6.2c-.7.23-.72.2-.1-.1.24-.12.43-.22.44-.24 0-.04-.42-.32-.52-.34 0 0-.14.12-.28.28-.14.16-.27.28-.3.28-.02 0 .05-.15.15-.33.2-.36.22-.4.13-.45-.03 0-.16-.08-.3-.15-.23-.13-.23-.13-.42-.04-.17.1-.18.1-.05.38.14.3.14.46 0 .27-.08-.1-.23-.36-.26-.44-.02-.04-.1-.02-.3.06-.2.08-.24.12-.2.17.04.02.2.2.36.36.16.18.32.34.35.38.05.03.06.06.03.07-.03.02-.18-.08-.33-.2-.15-.14-.36-.32-.46-.4l-.18-.16-.24.1c-.13.07-.24.13-.25.13 0 0 .2.22.44.46.26.25.52.5.6.6.06.07.16.17.2.22.05.04.06.07.02.07-.04 0-.3-.22-.6-.47-.05-.05-.08-.08-.13-.12V6.9l-.17-.1c-.4-.35-.38-.32-.37-.2 0 .04 0 .07.02.1-.05.08-.13.2-.22.34-.13.22-.24.38-.25.37 0 0 .06-.2.14-.43.08-.23.14-.43.13-.44 0-.02-.1-.03-.22-.04l-.2-.03-.17.3c-.2.34-.23.3-.1-.1.1-.22.1-.26 0-.27-.04 0-.2 0-.33 0-.14-.02-.26-.03-.27-.02 0 0 0 .1.03.23.07.3.05.3-.08 0-.06-.13-.13-.25-.16-.26-.03 0-.18-.02-.33-.03h-.3l-.06.13c-.07.13-.06.15.1.25.2.13.26.2.07.1-.08-.05-.18-.1-.2-.1-.04 0-.07.03-.1.07-.02 0-.02 0-.03 0 .06-.1.1-.15.1-.16 0-.02-.1.02-.26.08h-.02l-.04.03c-.05.03-.1.05-.15.07l-.22.1c.04-.02.05-.04.08-.07.07-.08.1-.13.14-.16l.4-.33-.1-.2c-.04-.14-.1-.25-.12-.26-.03-.02-.55.25-.72.37-.05.05-.1.07-.1.05 0 0 .15-.15.36-.3l.38-.3-.1-.24-.08-.25-.47.36c-.27.2-.47.35-.45.3 0-.02.2-.27.45-.53l.43-.5-.13-.16c-.08-.1-.16-.17-.2-.17 0 0-.2.13-.43.3-.22.17-.4.3-.4.28 0 0 .14-.18.32-.37.18-.2.33-.37.33-.38-.02-.02-.1-.06-.2-.1l-.2-.06-.28.22c-.34.27-.35.22-.04-.1.17-.2.2-.24.13-.27-.04 0-.18-.06-.3-.1-.14-.05-.25-.08-.26-.08 0 0-.04.1-.07.22-.08.28-.1.28-.1-.03.02-.15 0-.28-.02-.3-.02 0-.16-.06-.3-.1l-.26-.1-.14.1c-.12.12-.12.14-.02.27.15.18.16.25.02.1-.05-.05-.12-.12-.15-.13-.06-.03-.38.2-.33.27.06.07.24.2.45.34.13.1.2.14.15.15-.03 0-.2-.07-.38-.18l-.32-.2-.18.14c-.1.1-.16.16-.14.2 0 0 .03.02.05.03-.05.06-.15.2-.25.34-.1.15-.2.28-.25.33h-.02c.02-.06.07-.2.15-.4.1-.24.17-.43.17-.45 0 0-.1-.03-.22-.04l-.2-.02-.2.3s0 .02-.02.04l-.04-.1-.02-.03c0-.02 0-.02 0-.02.1-.22.1-.27.03-.28-.03 0-.14 0-.23-.02.06-.05.1-.1.1-.1 0-.02-.2-.2-.2-.2 0-.02-.22.1-.45.26-.02 0-.04-.03-.04-.03s-.08 0-.1 0c.02-.03.02-.03.06-.07.15-.12.27-.24.27-.26 0-.02-.05-.05-.12-.07l-.1-.03-.4.25c-.1.05-.15.08-.2.1l-.02.02c-.2.12-.17.07.12-.17.13-.12.24-.22.25-.24 0-.02-.4-.1-.48-.1 0 0-.07.1-.13.23-.05.12-.1.23-.13.23 0 0 0-.1.02-.24.06-.26.05-.3-.02-.3-.03 0-.15-.02-.27-.03-.2-.04-.2-.04-.32.06-.1.08-.1.1.07.23.2.16.24.25.1.17-.1-.06-.3-.2-.34-.23-.02-.02-.07 0-.16.08-.06-.05-.1-.1-.1-.1-.02 0-.1.1-.2.2-.24.22-.26.2-.07-.06.1-.14.15-.26.14-.3 0 0-.1-.1-.2-.2l-.2-.16-.17.06c-.17.06-.18.08-.16.23.04.2 0 .28-.04.1 0-.07-.04-.15-.06-.17-.04-.06-.46.05-.45.12 0 .1.1.27.22.46.07.1.1.18.06.17-.04 0-.15-.12-.25-.27l-.15-.23v-.14c-.02-.1-.05-.2-.07-.22-.02 0-.28.04-.57.12-.3.07-.54.12-.53.1 0 0 .24-.1.5-.22.28-.12.5-.22.52-.23 0 0-.05-.07-.12-.14l-.13-.12-.4.1c-.46.13-.45.1.03-.1.26-.12.3-.15.26-.2-.03-.02-.13-.1-.22-.2-.1-.08-.17-.15-.18-.14 0 0-.1.08-.2.17-.24.23-.25.22-.06-.05.1-.13.16-.25.14-.27 0-.02-.1-.12-.2-.2l-.18-.18-.18.06c-.17.05-.18.07-.17.22.02.2 0 .28-.05.1-.02-.07-.04-.14-.06-.17-.05-.06-.47.05-.46.12 0 .1.1.27.2.46.08.1.1.18.06.18-.04 0-.14-.14-.24-.3l-.17-.27-.25.06c-.14.04-.23.08-.23.1 0 .04.08.2.17.35.1.15.17.3.2.35 0 .04.05.15.1.24.05.1-.05-.04-.23-.3l-.3-.44-.04.16c0 .08-.02.18 0 .2.03.1.48.96.54 1.04.03.03.03.06 0 .05-.02 0-.16-.2-.3-.44-.15-.23-.3-.42-.3-.4-.1 0-.03.26.24.74.06.1.1.15.13.22-.04 0-.07-.02-.1-.03-.08-.1-.15-.2-.2-.27l-.16-.2-.16.64s0 .03 0 .04c0-.02 0-.05 0-.1 0-.15-.03-.28-.06-.3-.02 0-.16-.05-.3-.1l-.28-.07-.12.12c-.08.08-.1.12-.05.18-.04.02-.06.04-.1.05 0 0 0 0-.03 0l-.07-.05.36-.3-.1-.25-.13-.25-.43.4c-.04.02-.07.04-.1.07-.05-.02-.08-.02-.14-.04.06-.1.13-.18.2-.3l.4-.5-.15-.16c-.08-.1-.17-.17-.2-.17-.02 0-.2.14-.4.32s-.38.3-.38.3.13-.2.3-.4c.15-.2.28-.38.28-.4 0 0-.1-.04-.2-.08l-.2-.05-.26.25c-.32.28-.34.24-.06-.1.16-.2.18-.26.1-.27-.04-.02-.2-.06-.32-.1-.13-.03-.24-.06-.25-.06 0 0-.02.1-.04.23-.06.3-.08.3-.1-.02 0-.14-.02-.27-.05-.3 0 0-.15-.05-.3-.1l-.27-.07-.12.12c-.1.1-.1.13.02.26.16.17.18.24.03.1-.06-.05-.14-.1-.17-.12-.07-.04-.37.22-.3.27.06.08.24.2.47.33 0 0-.02 0-.04 0l-.2-.04-.32-.17-.06.06c-.07-.02-.12-.03-.2-.04-.14-.02-.25-.03-.26-.02 0 0 0 .03 0 .04l-.03-.05-.12.06c0-.07-.04-.1-.05-.12l.1-.08-.08-.16-.08-.15-.45.3-.12-.02-.08.14s-.02.02-.03.04c-.16.1-.3.2-.3.2-.03 0-.02-.04.02-.06.06-.04.9-.9.9-.9 0-.02-.2-.2-.22-.2 0 0-.2.12-.44.3-.22.15-.44.3-.5.3-.07.03-.04 0 .4-.42.15-.13.27-.26.27-.28 0-.02-.06-.04-.12-.06l-.12-.02-.38.25c-.43.3-.45.28-.1-.04.13-.12.23-.23.24-.25 0-.02-.4-.1-.5-.08 0 0-.05.1-.1.23s-.1.23-.12.24c-.02 0-.02-.1 0-.23.04-.26.03-.3-.04-.3-.03 0-.15-.02-.27-.03-.05 0-.1 0-.12 0zM80.06 2.23c.02 0 .02.02.03.03-.02 0-.03.02-.05.02 0 0-.02 0-.02 0 .02-.02.03-.03.05-.05zm1.92.33c.02.07.07.2.14.4.1.22.17.42.16.43 0 0-.12-.16-.27-.37-.02-.03-.04-.04-.05-.07.06-.1.07-.15.03-.17 0-.02-.05 0-.1.06-.03-.04-.06-.08-.08-.1.06-.07.15-.17.17-.2zm68.94.07c.03.02.03.03.02.04 0 0-.02 0-.02 0 0-.02 0-.03 0-.04zm-1.98.03c.03.02.04.04.05.05 0 0 0 .02-.02.02 0 0-.03-.02-.06-.03 0-.02 0-.03.02-.04zm-69.08.07c.03.03.04.03.06.05-.03 0-.05 0-.07 0-.02 0-.04 0-.06-.02 0 0 .04-.02.07-.03zm47.1.1s.02.02.03.03c0 0 0 0-.02 0 0 0-.03 0-.05 0 0-.02 0-.03.03-.04zm23.22 0c.03 0 .05.02.08.04-.02.02-.05.06-.07.07l-.05-.02c0-.02.03-.06.04-.1zm-2.82 0c.04.02.07.03.1.04.04 0 .06.02.1.03 0 .02 0 .05 0 .08-.03 0-.06-.02-.08-.02 0 0-.05 0-.07-.02-.03-.04-.04-.08-.06-.1zm-8.52.1c0 .04.05.07.1.12.06.03.1.05.1.07v.04c-.02 0-.02 0-.03 0-.08-.06-.17-.1-.2-.1 0 0-.02 0-.03 0zm6.07.1c0 .02 0 .05.02.08-.03.04-.04.06-.05.05 0 0 0-.07.02-.12zm-82.77.04c0 .05.02.1.02.12 0 0-.02 0-.05-.05 0-.03.02-.05.03-.08zm8.75 0v.1l-.13.03c-.34.1-.53.15-.42.1.1-.04.24-.1.28-.12.04 0 .18-.06.28-.1zm79.8.05c.02.02.07.04.1.06 0 0-.02.02-.03.03-.02 0-.05 0-.1-.03.02 0 .03-.03.04-.05zm-1.58.06c.03 0 .06.03.07.03 0 .02-.03.03-.05.04-.02 0-.05 0-.08-.02.02 0 .05-.03.06-.04zm-67.73.03l.02.08c-.1.07-.16.13-.2.17l-.03-.04c.03-.02.12-.1.2-.2zm2.3.02s0 .02 0 .03c0 0-.02 0-.02 0s0-.02.02-.03zm41.36 0c.02.03.12.12.2.2-.03.02-.06.06-.08.1-.06-.05-.1-.08-.1-.07-.05.02-.04.08.03.17 0 .03-.03.04-.04.07-.13.2-.24.37-.25.36-.02-.02.04-.2.12-.45.06-.17.1-.3.1-.37zm2.14.1c.03 0 .06.02.07.03 0 0-.04.02-.05.02-.03 0-.06 0-.1 0 .03-.02.04-.03.07-.05zm-63.1 0c-.02.03-.02.06-.03.1-.06 0-.1 0-.17.03-.02 0-.03 0-.05 0 0-.02 0-.04 0-.06.1-.04.13-.05.24-.08zm78.9.03c.1.02.14.03.25.05 0 .02 0 .05 0 .07-.02 0-.03 0-.06 0-.06-.02-.1-.02-.16-.03 0-.04-.02-.06-.03-.1zm-63.4.03c-.04.02-.06.02 0 0zm-8.67 0v.15s-.1.02-.2.06l-.05-.1c.1-.05.2-.08.25-.1zm67.73.03c.04.03.1.05.15.07-.03.04-.04.06-.06.1l-.14-.05c.02-.04.03-.08.05-.1zm11.93 0c0 .02 0 .02.02.02-.02.02-.03.02-.03.02s0-.02 0-.03zm-73.6.07l.05.08-.07.07c-.02-.02-.04-.04-.06-.06.03-.04.05-.05.1-.1zm4.52.03c0 .04.02.06.03.1-.04.03-.08.07-.13.1l-.04-.05c.05-.05.1-.1.15-.15zm2.86.04c0 .04 0 .08 0 .1l-.05.02c-.02-.02-.04-.06-.05-.1.03 0 .06 0 .1-.02zm-13.42.04c0 .08 0 .14 0 .2 0 0-.08.02-.08.03-.02 0-.03.04-.05.08-.03-.03-.04-.05-.05-.1l-.02-.07c.1-.04.17-.1.2-.12zm75.75 0c.06.02.1.05.18.07.15.05.22.1.2.1-.04.02-.22-.02-.4-.08 0-.02 0-.04 0-.06 0 0 .02 0 .02-.02zM64 3.58c0 .03-.02.05-.02.07 0 .03-.02.06-.02.1h-.13c0-.02 0-.04 0-.07 0-.02 0-.03 0-.04.05-.02.1-.04.16-.05zm15.84 0c.03.04.08.08.1.1-.02 0-.03 0-.04 0-.03 0-.08-.04-.14-.06.03 0 .04-.02.08-.03zm63.2.03c.06.03.13.04.18.05 0 .02 0 .03 0 .05 0 .03 0 .04 0 .07h-.12c0-.04-.02-.06-.03-.1 0-.02 0-.03 0-.06zm-3.73.07c.03.02.04.03.02.03 0 0-.02 0-.03 0zm-78.93.02s.02 0 .03 0c0 .03 0 .05 0 .07-.18.07-.35.12-.38.1-.03 0 .04-.05.18-.1.07-.04.12-.06.17-.08zm9.74 0l.03.07c-.06.02-.13.04-.18.05 0-.02-.03-.03-.04-.03.06-.03.14-.06.2-.1zm-11.65.02c.02.03.03.05.05.08l-.1.04c-.03-.02-.04-.03-.06-.05 0-.02 0-.02 0-.03.04-.02.06-.03.1-.05zm25.28.02c0 .02 0 .03 0 .05-.03 0-.06 0-.1 0 0 0 0 0 0-.02.03-.02.08-.03.1-.04zm-6.6 0c.1.12.14.2.13.22 0 .02-.05 0-.1-.06 0-.03-.04-.06-.07-.1 0 0 .04-.05.04-.06zm71.38.05c.02 0 .03 0 .04.02-.07.1-.12.15-.13.14 0 0 .04-.07.08-.16 0 0 .02 0 .03 0zm2.73 0c.03.02.1.06.12.07 0 0 0 .02 0 .03-.04 0-.08-.03-.13-.05 0-.02 0-.03 0-.05zm-7.28 0c.3.08.3.1 0 .06zm-80.84.02v.05c-.3.05-.27.03 0-.05zm6.72 0c-.03.02-.06.04-.1.05 0 0 .02-.02.06-.03 0 0 .03 0 .04-.02zm79.5.02c.06.02.04.02 0 0zm-70.23 0l.05.03c-.13.03-.22.05-.24.05 0 0 .02-.03.06-.04.02 0 .1-.03.13-.04zm46.58 0c.07.08.17.18.2.2l-.02.04c-.05-.04-.12-.1-.2-.16zm-61.75 0c0 .02 0 .02 0 .03h-.03zm93.27 0c.03.07.08.14.12.2l-.12.04-.1-.16-.04.16s0 .02 0 .04l-.23.05c-.35.1-.6.15-.58.12.03-.04.36-.2.73-.35zm-14.06.03l.02.02h-.02c0-.02 0-.02 0-.03zM63.9 3.9V4c-.03.04-.04.1-.05.1 0 0 0-.07-.02-.16zm79.28 0l.05.06c0 .1 0 .16 0 .15 0 0-.03-.04-.05-.1zm-19.8.04c.02 0 .03.02.02.03 0 0-.02 0-.03 0 0 0 0-.02 0-.03zm-64.8 0c.04.1.08.18.08.18s-.06-.05-.14-.13c.02-.02.03-.04.05-.06zm71.5 0c.06.05.07.06.1.1 0 .02-.02.04-.04.06l-.1-.07zm-2.6.02c.06 0 .05 0 0 0zm4.93.03l.02.15c-.02 0-.03.02-.05.03-.25.14-.46.25-.45.23 0 0 .18-.15.4-.33.03-.03.06-.05.1-.08zM65.98 4c-.02.03-.04.05-.05.07-.03 0-.05 0-.07 0 0 0 0-.02.02-.04.02 0 .03 0 .05 0 .02-.02.04-.02.05-.02zm-8.22.03v.02c-.04 0-.06 0 0 0 0 0 0 0 0-.02zm26 0c0 .02 0 .04 0 .04s0 0 0-.02zm-9.65 0l.17.14c-.04.05-.07.1-.1.16-.02.02-.03.03-.04.04l-.1-.05-.03.25c-.06.1-.1.16-.12.16-.02 0 .04-.17.12-.4.04-.1.08-.2.1-.3zm85.44.06c.16.05.3.12.34.13.04 0 .05.03.04.05-.02 0-.1 0-.2-.04l-.04-.04h-.05s0 0-.02 0c-.05-.02-.1-.03-.17-.06.05-.02.1-.04.1-.06zm-10.35 0c.08.04.1.04.2.08l-.05.06s-.02 0-.02 0c-.07-.03-.1-.04-.17-.06 0-.03.02-.05.03-.08zm-10.2 0c.03.02.05.02.06.03-.02.03-.04.05-.06.05-.02 0 0-.03 0-.07zm-13.42.05c.06.05.1.1.16.14l-.03.04c-.05-.03-.1-.07-.14-.1 0-.04 0-.06.02-.1zm21.1 0c.08.03.2.07.23.1 0 0 .04 0 .04 0s0 0-.02 0c-.06 0-.12 0-.2-.02-.02 0-.03 0-.05 0l-.1-.04c.05-.02.08-.04.1-.05zm6.38 0l-.05.1c0 .02-.02.02-.03 0 0 0 .03-.03.1-.1zm-25.83.03c.03 0 .04 0 .08.02-.05.03-.1.05-.13.06 0 0-.02 0-.03 0 0-.02.05-.05.1-.08zm27.78 0c.04.06.07.12.08.14h-.02s-.04-.05-.08-.1c0 0 .02-.03.03-.04zm-81.66 0l-.05.1h-.12c-.07 0-.1 0-.16 0l.02-.05s.02 0 .02 0c.03 0 .18-.02.28-.04zm84.08.04c.04.08.1.18.1.2.02.04.08.14.13.23.04.1-.06-.04-.24-.28v-.1zm-27.5 0c0 .02.05.05.06.07-.03.02-.06.06-.07.1-.02.04-.06.07-.08.06 0 0 .04-.1.1-.23zm-69.52.03c.04.02.07.03.1.04l-.08.03c-.02 0-.03 0-.05 0-.08.02-.14.03-.2.04 0 0-.02 0-.02 0s.03-.02.03-.02c.02 0 .14-.06.22-.1zm18.26 0s0 .02 0 .03c-.08 0-.08 0 0-.03zm58.43 0c.05.04.1.05.16.07l-.04.05c-.05 0-.1-.02-.15-.03 0-.03.02-.06.02-.08zm-14.37.03c.03 0 .06.02.1.03-.02.04-.03.08-.04.1h-.07c0-.04 0-.08 0-.12zM57.9 4.3c0 .02 0 .04.03.07-.06.02-.1.04-.17.06l-.06-.05c.08-.04.1-.05.2-.08zm25.1 0s0 .03 0 .04c-.07.02-.1.03-.14.03 0 0 0-.02-.02-.03 0 0 0 0 .02 0 0 0 .1-.03.13-.04zm64.1.02c.02 0 .02 0 .04 0 0 .02 0 .02-.02.03 0 0 0 0 0-.02 0 0-.02 0-.02 0zm-70.52 0l.04.06c-.02.02-.04.04-.06.05l-.05-.04c.04-.04.06-.05.08-.08zm72.52 0c.04.02.08.04.13.06-.04.04-.07.08-.1.12h-.04l.02.02c-.1.1-.17.2-.17.17 0-.04.06-.2.15-.38zm-13.56 0c.02.02.04.04.07.06.2.14.25.2.07.1-.04-.02-.08-.05-.1-.06l-.02-.03c0-.03 0-.05 0-.07zm10.87.02c.02 0 .03.02.04.02-.03 0-.04 0-.07 0zm12.58.02c.02 0 .03 0 .05.02-.08.02-.1 0-.05-.02zm-9.05.02s0 .02 0 .02 0 0-.02 0zM128 4.4c.02 0 .1.03.12.03.04 0 .07.03.05.04 0 0-.1 0-.24-.04zm-67.32.03l.04.04c-.02 0-.04 0-.06 0 0-.02.02-.03.02-.04zm-.7 0s0 .02 0 .02 0 0 0 .02c0 0-.02 0-.02-.02 0 0 .02 0 .03 0zm63.37.03c.02 0 .07.02.1.04 0 0 0 .02 0 .03-.04 0-.07 0-.1-.02 0 0 0-.02 0-.04zm-48.7 0c.03.02.06.04.08.06-.03.05-.06.1-.08.1-.02 0-.02 0-.04 0 0-.04.04-.1.06-.16zm-1.52.05c-.03.05-.05.1-.08.13-.04 0-.1 0-.15 0 0-.02 0-.05.03-.1.1 0 .13 0 .2-.02zM58 4.5c.1.2.17.35.17.37 0 .02-.08-.05-.18-.16V4.7h-.03c-.03-.03-.06-.06-.1-.1.05-.03.1-.05.13-.07zm103.45.02c0 .1 0 .1-.04.03.03 0 .04-.02.05-.03zm-75.82 0c0 .04 0 .07 0 .1h-.1c-.02 0-.03-.02-.03-.04 0 0 0-.02 0-.02.05 0 .06-.02.13-.03zM83 4.56c0 .03 0 .06 0 .08 0 0 0 0-.02 0 0 0-.02-.03-.04-.05.03 0 .05-.02.07-.03zm74.2 0c.03.06.04.1.08.16-.03 0-.08 0-.13 0-.04-.03-.07-.08-.1-.1zm-80.46 0l.04.08-.06-.05s0 0 .02-.02zm73.02.04c.04 0 .1.02.13.04-.03 0-.04.03-.06.04-.04 0-.08-.02-.13-.03zm-92.58 0v.02c-.02 0-.02 0 0-.02zm9.65 0c.02.04.04.08.06.12h-.2l-.04-.07h-.02s-.02 0-.02 0c.08-.02.16-.03.2-.04zm90.13.02c0 .03 0 .06.02.1-.04 0-.1.02-.14.02.02-.05.03-.07.05-.1zm2.65 0c.04 0 .12.05.14.05.04.02.07.03.1.05-.02 0-.06 0-.1.02-.07-.02-.15-.05-.23-.07.04-.02.07-.04.1-.05zm-87.32 0c0 .03-.02.05-.03.07-.02 0-.06 0-.08 0 0-.02 0-.03 0-.05.03 0 .08 0 .1-.02zm67.37.04s0 0 .02 0l-.03.03c0-.02 0-.03 0-.04zm-54.8.02c-.06 0-.08 0-.03 0 0 0 0 0 .02 0zm-18.66 0l-.08.06c-.03 0-.04 0-.05-.02-.02 0 .04-.03.12-.04zm23.2.03c-.02.06-.03.12-.03.13 0 0-.02 0-.03-.05.02-.02.04-.05.05-.07zm47.52.02l.03.03c-.03.02-.04 0-.03-.03zm20.38.03c.12.22.2.38.28.48l-.1-.07v.02c-.06-.07-.1-.14-.17-.23 0-.02 0-.02-.02-.04.02-.06.02-.1.02-.15zm-84.34 0c-.07.1-.12.18-.14.2-.02 0 0-.06.03-.16.03-.02.08-.03.1-.04zm50.37 0c0 .02 0 .02.02.02 0 .02 0 .03-.02.02 0 0 0-.03 0-.04zm-37.67.02c0 .1.02.2 0 .2 0 0-.03-.07-.07-.16 0 0 .03 0 .06-.03zm73.6 0c.04.02.1.04.14.06-.07.02-.13.03-.2.05-.02 0-.07-.03-.1-.04.05-.02.1-.04.17-.07zm-28.74.02c.03 0 .05.03.07.05l-.05.05c-.02-.02-.04-.03-.06-.05zm-2.07 0c.08.02.08.03 0 .02 0 0 0-.02 0-.02zm-71.1 0l.05.06c-.04 0-.08.02-.12.04-.02-.02-.03-.03-.05-.04.03-.02.08-.04.12-.06zm64.25.02c.04 0 .08 0 .12.02.06 0 .1 0 .14.02-.02 0-.04.03-.06.05-.07 0-.15 0-.24 0 0-.03.03-.06.04-.08zm41.77.02c.1.06.2.13.22.15.03.02.14.1.23.16.1.07-.07-.02-.37-.18l-.12-.07zm-96.4.02c.08.18.15.34.14.35 0 .02-.05-.04-.12-.13 0-.04 0-.1 0-.17zm65.48 0c.03.06.05.12.06.15 0 .02 0 .02-.03.03-.02-.02-.05-.06-.1-.1.04-.03.06-.04.08-.07zm26.58.02s.03.02.04.03c-.1.04-.15.05-.15.04 0 0 .06-.03.1-.06zm-23.33 0c.04.03.07.04.1.05.05 0 .07.02.1.03 0 .02 0 .03 0 .05v.03c-.04 0-.1-.03-.15-.04v-.02zm-63.54.02s-.02.02-.02.02 0 0-.02-.02c.02 0 .03 0 .04 0zm15.32.02s0 .02.02.03c0 .02 0 .04 0 .06-.22.03-.4.04-.43.02-.03-.02.06-.05.22-.07.06 0 .12-.02.18-.03zm-2.6.04c0 .03 0 .05 0 .08-.06 0-.1 0-.18.02 0 0 0 0-.02 0L84.66 5c.1-.02.1-.02.2-.04zm50.06 0c0 .04.02.06.03.1h-.07s-.02-.04-.03-.06zM124.12 5c.03 0 .13.03.14.03 0 .02 0 .02 0 .03-.03 0-.08 0-.14-.02 0 0 0-.03 0-.05zm6.26.04s0 0 .02 0l-.05.06zm9.75.05s.02 0 .03 0c0 .02 0 .04 0 .05-.02 0-.04 0-.05 0 0-.03.02-.04.03-.06zm-56.06 0v.02c-.02 0 0 0 0-.02zm63.35 0c.02 0 .03.02.03.03 0 0-.02 0-.04 0 .02-.02.02-.02.02-.03zm15.83.04c.05.03.12.08.2.14l-.05.1c-.1-.07-.2-.1-.2-.1zM84.9 5.2c.02.2.03.35.03.37 0 .03-.06-.06-.1-.2h.02-.04c0-.05-.03-.1-.05-.14.05 0 .1-.03.15-.04zm-25.18.03s0 0 0 .02c0 0 0 0-.03 0 0 0 0 0 .02-.02zm-8.58 0c0 .02.02.04.04.06-.04 0-.04 0-.06.02-.02 0-.04-.03-.06-.04.02 0 .06-.03.08-.04zm106.1 0c0 .03 0 .04.02.06.02.02.03.04.05.06l-.05.07c-.03-.03-.05-.06-.08-.1zm-33.12.02c.02 0 .04 0 .06.02 0 .03-.02.04-.03.06 0 0-.02 0-.03 0 0-.02 0-.05 0-.08zm29.55.02c0 .02 0 0 0 0zm-84.6.04c0 .03.02.06.03.1l-.13.03c-.02-.02-.04-.04-.06-.07.07-.02.1-.03.16-.05zm94.1 0c0 .05.06.1.15.18l-.05.07c-.07.1-.13.18-.18.24l-.08-.07c.04-.1.1-.26.16-.4zm-79 .03l.02.06c-.05 0-.1 0-.14 0 0 0-.02-.03-.03-.04.04 0 .1-.02.14-.03zm34.75 0s.02 0 .02 0 0 0-.02 0zm37.75.04c-.03.04-.07.1-.1.13h-.1c.03-.03.04-.04.06-.1l.12-.02zm-65.52 0c0 .02-.02.03-.03.05-.08 0-.16 0-.24 0 0 0 0-.03 0-.04.13 0 .15 0 .27 0zm31.15.07c.02 0 .02 0 .02 0s0 0-.02 0zm-44.05 0c0 .04.02.08.02.1 0 0 0 0-.02 0 0 0-.03-.03-.05-.05.02-.03.03-.04.05-.06zm9.04.03c.02.02.05.04.08.06h-.1s-.02 0-.04 0c-.1 0-.14 0-.2 0-.02 0-.02 0-.03 0 .02 0 .04-.02.05-.02.02 0 .16-.02.24-.03zm-6.86.02l.04.02c.03.02.05.04.07.05-.05 0-.14.04-.23.06 0-.04 0-.07 0-.1.05-.02.07-.03.12-.04zm78.83 0c0 .05 0 .1 0 .15-.02 0-.03 0-.05 0 0-.02-.03-.07-.04-.1.03-.03.06-.04.1-.06zm-21.18 0c.06.03.1.04.15.06-.02.03-.04.04-.05.07l-.14-.04c0-.03.02-.06.03-.1zm-68.93.04c.03.08.06.15.06.16 0 .02-.05-.03-.12-.1.03-.02.04-.03.07-.06zm17.66.02v.02c-.04 0-.07 0-.1 0 .04 0 .06-.02.1-.02zm-18.44.02v.02c-.08.02-.12.03-.06 0 .02 0 .03 0 .05-.02zm95.52 0c.06.05.13.1.16.12 0 0-.02.02-.05.03-.04-.02-.1-.05-.15-.08zm-97.46.05c0 .02.02.04.03.06-.07 0-.1 0-.14 0 0 0 0 0-.02 0 .02-.03.07-.05.12-.07zm71.54.12c.03.02.05.03.07.05-.07.08-.12.13-.12.1 0 0 .03-.08.05-.15zm26.17 0s.02.03.02.03c.03.02.05.04.03.04-.02-.02-.05-.04-.06-.06zm-25.4 0c.03.02.04.02.06.03.06.02.03.02-.06 0zm-58.45.03s0 .02-.02.03c-.07.13-.1.1-.06 0 .03 0 .05 0 .08-.02zm-.76 0s0 .03 0 .04c-.05.02-.1.02-.12.03 0 0 0-.02 0-.03 0 0 0 0 .02 0 0 0 .08-.04.1-.04zm1.75 0c.02.03.02.04.03.06-.05 0-.1 0-.14 0-.02 0-.02 0-.02 0s0-.02-.02-.03c.04 0 .1 0 .15 0zm82.46.03c.03.03.05.04.08.06 0 0 .02 0 .03.02-.02 0-.03.02-.04.04l-.1-.05zm-6.22.02zm-88.96 0c.02.03.04.06.06.08-.02 0-.05.02-.07.02-.02-.02-.04-.04-.07-.07.04 0 .05 0 .08-.03zm1.97.02c.06 0 .1 0 .15 0-.17.06-.3.1-.3.1-.03-.02 0-.04.03-.05 0 0 .1-.05.12-.06zm3.35.02c.02.02.02.03.06.07-.03 0-.04 0-.06 0zm80.2 0c0 .02.07.05.07.06.02 0 .03 0 .04.02 0 0 0 0 0 .02-.03 0-.07-.03-.13-.05 0 0 .02-.02.02-.03zm-102.84.08s.04 0 .05.02c0 0 0 .02 0 .03 0 0-.02 0-.03 0 0-.03 0-.04 0-.06zm-.7.05s-.03 0-.03.02c0 0 0 .02 0 .04-.08.04-.15.07-.16.07-.02 0 0-.03.04-.05.02 0 .12-.07.15-.1zm88.05 0c.04.02.05.02.1.03-.04.03-.05.05-.08.08-.02 0-.05 0-.07 0 .02-.04.04-.07.06-.1zm-69.88.02c.02.02.03.04.02.05 0 0-.03 0-.06-.03 0 0 .03-.02.04-.02zm84.27 0c.02.05.04.1.07.15.02.02.02.03.03.05l-.06.05c-.03-.04-.08-.1-.12-.17l.05-.08s0 0 .02 0zm-82.22 0l.02.1c-.1.02-.18.05-.28.08l-.03-.06c.08-.03.15-.06.25-.1 0 0 .02 0 .03 0zm65.7.02c.1.03.26.1.28.1.04 0 .06.02.06.03-.03 0-.06 0-.1 0-.05-.02-.16-.05-.27-.08v-.03s.03 0 .03 0 0-.03 0-.03zm17.47.05c.02 0 .04 0 .06.02 0 .02-.03.04-.05.06 0 0-.02-.02-.04-.02.02-.02.04-.05.05-.07zm-86.1 0l.02.05c-.07 0-.1.02-.12.02-.02 0 0-.03.05-.04 0 0 .03-.02.04-.02zm-19.52.02l.08.06-.04.1c-.03-.02-.06-.04-.08-.05.02-.05.02-.06.05-.1zm22.1.04l-.1.1c-.35.1-.28.06.1-.1zm-24.3.02c.03.02.07.03.12.06-.06.02-.1.04-.17.06 0 0-.02 0-.03 0H46l-.04.04c-.1.03-.17.05-.2.04 0 0 0-.03.04-.04.04 0 .2-.1.33-.16zm92.35.02s.03.02.04.02c-.02.03-.05.05-.06.03 0 0 0-.02.02-.05zm17.4.02c.02 0 .05 0 .07.02-.02 0-.03.02-.04.03-.03 0-.05 0-.07 0 0 0 .03-.03.04-.05zm-14.68 0c.03.02.06.02.08.02-.03.04-.06.08-.08.1-.03.05-.07.08-.1.06 0 0 .04-.08.1-.17zm22.28 0c0 .03.02.04.03.05 0 0-.03.02-.03 0 0 0 0 0 0-.04zm-112.83.02c0 .02.02.03.03.04 0 0 0 .02.02.02 0 0 0 0-.02 0l-.06-.04s.02 0 .03-.02zm88.7.03c.02 0 .06.02.06.02.06 0 .08.02.06.03 0 0-.06 0-.12-.03zm-67.76 0c0 .02.03.03.05.04 0 .03 0 .07 0 .08 0 0-.02-.04-.06-.1zm-3.6.05v.02l.05.05c-.05 0-.1 0-.14.03 0-.02-.03-.03-.05-.05.05 0 .1-.03.15-.06zm-19.4.03c.1.08.2.15.2.17 0 0-.02 0-.02.02-.02 0-.05-.03-.08-.05-.03-.03-.07-.06-.12-.1 0 0 .03-.05.03-.05zm93.42.06c0 .04.02.05.05.04.02 0 .15 0 .25 0 .06.02.1.04.15.07-.06.02-.1.03-.16.04 0-.02.02-.05.02-.06 0 0-.06.02-.13.08 0 0-.02 0-.02 0-.1 0-.17 0-.25-.02zm-100.8.02c0 .07-.02.07-.05.02 0 0 .02 0 .04-.02zm5.5 0c.05.04.03.05-.06.04.03 0 .03-.02.05-.03zm20.9.05c.02.02.02.03.02.04-.22.08-.22.06 0-.03zm3.25.02s0 0 0 .02c0 0-.02 0-.03 0zm81.7.06c.02.02.04.06.05.07-.02.02-.04.03-.05.04-.02 0-.02-.02-.04-.04.02-.02.02-.03.05-.07zm-108.32.12c.02 0 .03.02.05.03-.03.1-.04.08-.05-.02zm24.02 0l.03.05-.05-.03zm-22.17.04c.04 0 .07.03.1.04-.08.03-.16.06-.23.1-.03-.02-.07-.03-.1-.03.04-.02.07-.04.1-.05.02 0 .1-.05.13-.06zm17.7.06s0 0 .02.02c0 0-.02 0-.02 0s0-.02 0-.02zm-17.35.08c.06.02.12.05.17.07-.02 0-.08.02-.1.03-.07 0-.12-.02-.2-.04.04-.02.1-.05.13-.06zm109.86.04v.02h-.03s.03-.02.04-.02zm-.05 0l-.02.05-.17.1.14-.14c.02 0 .03 0 .05 0zm3.7.05l-.04.02c0-.02.05-.02.06-.02zm-113.25 0c.05.03.1.06.1.06 0 .02-.05 0-.15 0 .02-.02.04-.03.05-.04zm110.04 0c0 .02 0 .03 0 .04 0 0 0 0-.02 0l.02-.03zM48.3 7.03l.05.05c0 .02-.02.04-.04.06l-.05-.03c0-.03.02-.05.04-.08zm-9.74 0l.2.23s0 .02 0 .03c-.06 0-.07.03-.05.1 0 .04-.02.06-.03.1l-.17-.12c.02-.14.05-.25.06-.33zm128.25.04c.07.03.14.05.2.08-.02.02-.06.04-.1.07l-.17-.04c.03-.03.06-.06.08-.1zm-124.44 0l.04.08-.12.08s0 0-.02 0c0 0 0-.02.03-.04.02-.04.03-.07.04-.1 0 0 0 0 .02 0zm114.83.03v.08h-.14c0-.03-.02-.06-.03-.08.05 0 .1 0 .16 0zm-5.85.04s0 0-.02 0c0 0 0 0 .02 0zm9.25.02zm9.2.06c.05.05.13.14.2.2l-.1.14c-.05-.06-.1-.12-.16-.16zm-2.38.04c.07.02.12.05.1.06 0 0-.03 0-.05 0zm-114.8 0c.04.02.07.03.12.05-.02.03-.04.04-.07.05h-.03s0 0 0-.02c0 0-.03 0-.05.02 0-.03 0-.06.02-.1zm114 .03l-.03.03c-.05.07-.07.12-.07.16-.1.06-.18.1-.18.1s.12-.15.27-.3zm-114.24.03s0 0 0 .02c-.02 0-.02 0-.03 0 0 0 .02-.02.03-.02zm104.2.06c.1.12.1.14-.03.04zM55.9 7.4s.02 0 .04 0c0 0 0 0-.02.02 0 0 0 0-.02-.02zm101.96.14c0 .02 0 .04 0 .06-.02 0-.03 0-.05 0 0-.02 0-.02-.02-.05.03 0 .07 0 .08 0zm-100.42 0c.02.02.02.02.04.03-.03 0-.07.03-.1.04 0 0 0 0-.02 0 .03-.02.05-.03.08-.05zm-14.87.02c0 .04.02.07.04.1l-.07.05c-.03.03-.06.04-.1.06l-.02-.05c.05-.04.1-.08.1-.1.02-.02.03-.03.04-.04zm3.9.02c.04 0 .06.02.1.04-.02.05-.03.1-.04.12 0 0-.02 0-.03 0 0-.04 0-.1-.02-.16zm123.18 0c.04.05.1.1.13.14-.03.07-.06.12-.1.17-.03-.04-.06-.06-.1-.08.03-.07.05-.15.08-.24zm-6.5.08c.04.02.05.03.08.05-.02.04-.05.07-.07.1-.02-.02-.04-.04-.06-.05 0-.02.03-.06.05-.1zm-7.35.02s.02 0 .03 0c0 .02-.02.04-.02.05 0 0 0 0-.02 0 0 0 0-.03 0-.05zm11.37.05c.1.03.22.06.25.07 0 0 .02 0 .02 0l-.05.05c-.04 0-.06 0-.1-.02l-.18-.04zm-8.47.04c0 .02.02.03.03.05 0 0-.02 0-.03 0 0 0 0-.03-.02-.05.02 0 .03 0 .03 0zm8.86.08c.05.02.1.04.15.05.07.03 0 0-.15 0zm-115.2 0l.03.03c-.04.06-.08.13-.12.18zm110.68.04zm3.9.06c.02 0 .03.02.04.02 0 0 .12.04.16.05l-.1.08c-.26.2-.46.34-.45.3 0-.02.17-.22.36-.44zm5 0s0 0-.02.02c-.04.05-.07.1-.1.14-.08.02-.14.03-.17.04 0-.02 0-.05.03-.07.03-.02.12-.07.24-.14zM158.84 8c0 .07 0 .1-.02.1 0 0-.02-.07-.04-.1.02 0 .03 0 .05 0zm-105.93.08c.16.06.3.12.4.17-.08 0-.16 0-.23.02-.06 0-.1 0-.13-.02-.02-.06-.03-.1-.05-.17zm110.9 0c.03.02.08.06.1.07.03.02.05.04.03.04 0 0-.07-.03-.14-.07.02 0 .02-.02.03-.04zm3.9.12c.3.08.6.17.65.18.05 0 .07.03.05.04-.02 0-.3-.05-.62-.13-.04 0-.06-.02-.1-.03l.04-.02zm-5.96.02c.03 0 .04 0 .06.02.06.03.02.02-.06 0 0 0 0-.02 0-.02zm1.94.1c.04.03.08.06.1.08 0 .02-.02.03-.03.05-.03-.02-.07-.04-.1-.06 0-.03.02-.05.03-.07zm3.85.07c.06 0 .12.03.2.06-.17.06-.52.25-.66.35-.06.05-.1.07-.1.05-.02-.02.14-.16.35-.3zm-6.1 0c.14.06.2.1.33.15-.1 0-.2-.03-.3-.04-.02-.02-.03-.04-.03-.04s-.06 0-.1 0c-.03 0-.05 0-.06 0 .04-.02.12-.04.16-.05zm10.92.06c-.05.06-.08.1-.13.15-.04.02-.1.04-.13.05.03-.04.05-.07.07-.1.07-.04.12-.06.2-.1zm-130.04 0c0 .02 0 .02 0 .03 0 0 0 0-.02 0 0-.02.02-.02.03-.03zm118.88.02zm6.65 0c.07.03.14.05.22.08.04 0 .06 0 .1.02-.03.04-.04.06-.05.07-.08 0-.15-.02-.2-.03-.04-.06-.06-.1-.07-.13zm-132.12.2c.06 0 .13 0 .2 0 .03.05.05.1.08.14.05.05.06.08.1.12H36c-.04-.03-.06-.05-.1-.1zm141.2.02c0 .03.03.06.12.1l-.15.04s-.04 0-.04 0c-.02-.02-.05 0-.1.04h-.05c-.27.08-.53.13-.57.13-.03 0 .2-.1.52-.2zM36.4 8.75c.03 0 .07 0 .12 0 0 .03 0 .04 0 .07-.02.04-.03.08-.04.1l-.07.02c0-.05 0-.1 0-.15 0-.03 0-.04 0-.05zm136.9.07c.06.04.1.08.15.1l-.05.05c-.05-.02-.1-.05-.14-.08v-.02zm3.8.02c.24.12.32.2.14.15-.06-.03-.14-.07-.22-.1zm2.25 0c.02.02.02.02.05.03.24.13.5.26.56.3.07.03.17.08.2.1.06.03.07.05.04.05-.03 0-.28-.1-.55-.2-.05-.04-.08-.05-.13-.07-.1-.04-.18-.08-.23-.1.02-.06.03-.07.05-.1zm-5.1.02c.03 0 .05.03.07.04-.25.08-.27.07-.06-.04zM37.04 8.9v.02zm136.47.06c.04.03.05.05.03.06 0 0-.03 0-.05 0zm-5.64.1c0 .02 0 .03.03.04 0 0 .14.02.24.04.04.04.07.07.1.1-.05 0-.1 0-.16 0 0-.02.03-.05.03-.05 0-.03-.05 0-.14.03h-.2l-.08.1c-.05 0-.1 0-.16 0l.1-.08zm6.86 0c.06.03.13.06.17.08-.02 0-.02 0-.03 0-.28.1-.55.2-.6.2-.08 0 0-.04.45-.27zm4.5 0c.03.04.1.08.17.12l-.1.1c-.1-.03-.13-.03-.12 0 0 0 .02.03.06.05l-.1.12s0 0-.02.02c-.02 0-.03 0-.06 0-.06 0-.1.02-.13.03.1-.14.2-.3.28-.43zm-2.55.05c.06.02.2.06.38.1.2.04.37.08.4.08.05 0 .07.03.06.04 0 .02-.15 0-.3 0-.16-.03-.34-.05-.45-.07-.03 0-.07-.02-.12-.02h-.12l-.3.3c-.35.34-.37.34-.1-.03.06-.1.1-.2.13-.23l.28-.05zm5.57.05c.18.14.23.22.08.14 0 0-.03-.02-.05-.03l-.02-.08zM173 9.2c.02.02.04.04.06.05H173l-.02-.02s0-.02.02-.02zm-127.7.1s0 0 .02 0c-.02 0-.02 0-.02 0zm130.43.06c0 .03-.02.06-.02.1 0 .13-.03.24-.05.25-.02 0-.04-.1-.06-.22 0-.04-.02-.08-.02-.1.04 0 .08 0 .15-.02zm4 0c.07.04.12.06.2.1.47.25.5.3.18.17 0 0 0-.02-.02-.03-.02 0-.1-.07-.2-.14l-.02-.02c-.07-.04-.1-.07-.14-.07zm-6.43.06c.04.03.1.07.12.1.04 0 .04.03.02.03s-.08-.03-.16-.07zm8.78.06c.07.02.1.03.16.05l-.12.06c-.06-.03-.1-.04-.16-.06zm-7.1.04c.02 0 .04.02.07.03.04.02.07.04.1.06l-.1.05c-.07-.03-.12-.05-.17-.08.03-.02.06-.03.1-.05zm1.62.04c.07.02.08.02.17.04-.02.03-.04.04-.06.07 0 0 0 .02-.02.03-.08 0-.13-.02-.16-.02.03-.04.03-.04.07-.1 0 0 0 0 0-.02zm2.3 0c0 .02.03.06.04.1-.03.02-.07.06-.1.08 0 0-.03-.03-.04-.05.03-.04.05-.07.1-.13zm3.5.03s.06.02.06.02c.04 0 .06.03.04.04 0 0-.04 0-.08 0zm-9.3.03s0 0 .02.02l-.06.07s-.02-.02-.04-.03zm4.1.06c.1 0 .23.03.26.04.1.02.2.04.25.05.06 0 .08.02.06.03-.02 0-.12 0-.26-.02l-.04-.05-.05.05c-.07 0-.15-.02-.24-.03 0-.03.03-.06.05-.08zm-.7.03s0 0 0 .02c.02.02.04.03.08.05-.13.13-.24.24-.27.25-.05.03 0-.05.2-.32zm-1.9 0c-.05.06-.05.08 0 .1-.18.05-.3.1-.32.1-.02-.02 0-.05.05-.06.02 0 .12-.06.26-.14zm6.93.04c.04 0 .05.02.08.03-.07.03-.13.06-.18.08-.04 0-.04 0-.04 0-.03.02-.1.04-.1.05 0 0 .1-.07.25-.16zm-8.62.02c.02 0 .04 0 .06.02l-.04.04c-.02.02-.03.03-.05.05-.02 0-.03 0-.06-.03.03-.03.06-.05.1-.08zm7.2 0c.02 0 .03.02.05.03-.02 0-.05.03-.08.05 0 0-.03-.02-.04-.02zm-146 .06l.05.07c-.05.04-.1.06-.14.08l-.04-.03c.03-.02.08-.06.13-.1zm5.45.04l.26.2h.03c-.05 0-.1.02-.13.02l-.05-.06-.2.02c-.1-.03-.15-.05-.15-.04 0 0 .03.04.04.06-.04 0-.08 0-.12 0 .02-.02.03-.04.05-.07 0 0 0-.03.02-.04.08-.03.2-.05.22-.05.03 0 .04-.02.03-.05zm133.93.03s0 .02 0 0zm3.58 0c.05 0 .13.02.2.04l-.1.1c-.05-.02-.13-.03-.17-.04 0-.04.03-.07.06-.1zm-1.88.02c.1.02.2.04.22.05l-.12.04c-.05 0-.1 0-.15-.02-.03 0-.06 0-.1 0zm4 0c0 .03 0 .04.02.06-.04.03-.04.04-.07.06 0 0 0-.02-.02-.03.02-.02.05-.04.07-.07zm3 .06c.06.02.16.06.18.07 0 0 .02 0 .03 0l-.1.04c-.08 0-.14-.02-.22-.04zM33.92 10l.03.05c-.02 0-.04.02-.05.02-.02 0-.02-.03 0-.05.02 0 .03 0 .03 0zm143.78.06c.48.1.44.12-.06.06zm-4.33.03c.04.02.08.05.1.08l-.03.03c-.04-.02-.08-.04-.12-.06zm9.1 0c.05.02.1.04.14.05.04.02.06.03.03.04-.02 0-.1-.03-.24-.06zm-154.4 0c.03.03.04.05.08.1-.06.03-.14.07-.22.1-.05.04-.08.05-.13.08-.27.12-.5.23-.53.22-.03 0-.02-.02.02-.04.05-.02.14-.08.2-.12.07-.04.32-.18.55-.3.04-.03.03-.02.06-.04zm148.9 0c.04.02.08.03.14.05h-.02c-.22.24-.4.4-.42.4-.02 0 0-.02.02-.05.02-.02.14-.2.26-.4zm4.9.07c.05.02.08.03.12.04l-.04.04c-.04.02-.08.03-.12.05 0-.02-.08-.04-.1-.04.05-.03.1-.06.16-.1zm-145.8 0c.02 0 .02.02.02.03-.02 0-.03 0 0-.02zm-1.63.07s.02 0 .03.02l-.04.04v.02c-.02 0-.04-.02-.05-.03.02-.02.05-.04.07-.06zm143.1 0c.04 0 .1.02.15.02l-.1.1c-.06-.02-.1-.02-.15-.03zm-3.1 0s.03.02.04.02c-.02 0-.06 0-.07 0-.02 0 0 0 .02 0zm7.24.07s.02.02.03.03c-.05 0-.06 0-.1.02.03-.02.04-.03.06-.04zm.6.02c.05.02.1.03.15.05.04 0 .04 0 .07.02-.02 0-.05.03-.08.05-.06-.02-.1-.03-.17-.05-.02 0-.02 0-.04 0 0-.03.04-.06.06-.08zm-154.05 0c.1.14.2.28.3.42-.02 0-.06 0-.12-.02-.03 0-.03 0-.05 0 0-.02-.02-.02-.03-.03l-.1-.12c.03-.02.05-.05.05-.06 0-.03-.02-.03-.1 0l-.1-.1c.06-.03.12-.07.16-.1zm149.77 0c.06 0 .1.03.14.04.02 0 .03.03.04.05-.03 0-.06 0-.1 0zm-2.65.12c.02 0 .07 0 .08 0 .1.03.2.05.25.06.05 0 .07.03.05.04 0 0-.06 0-.13 0l.03-.03-.07.03c-.1 0-.22-.02-.35-.04zm-141.2.02l.04.05c-.08.06-.14.1-.15.1-.02 0-.02-.02.02-.05.03-.02.07-.06.1-.1zm147.97.03c.05 0 .1.03.16.05-.03.02-.05.03-.07.05-.03 0-.04.02-.06.04-.08-.03-.1-.03-.16-.04.05-.05.05-.05.1-.1 0 0 0 0 .02 0zm-156.9 0l-.02.05-.02.08s-.03.02-.04.02c-.15.08-.1 0 .07-.14zm157.6.03c.05.02.04.03 0 .02 0 0 0 0 0-.02zm-5.58.02c0 .02.03.04.04.06-.1.1-.18.17-.23.2 0 0 0 0-.02 0 .04-.05.13-.14.22-.25zm2.8.04c.07 0 .12.02.18.03 0 0 0 0-.02 0s-.07-.02-.1-.02h-.07c.02 0 .02 0 .02 0zm-147.56.02c.04.02.07.03.1.05-.05.03-.1.05-.16.08l-.1-.03c.02-.02.05-.04.1-.07.02 0 .04-.02.06-.03zm-4.75 0l.02.02c-.03 0-.07.03-.13.07h-.02l-.02.03c-.1.07-.17.14-.2.15 0 0 0 .02-.02.03-.3.15-.3.1.16-.15.1-.05.14-.08.2-.12zm157 .02c.03 0 .08.06.13.1l-.15.07c-.02 0-.03 0-.03.03-.07.04-.12.06-.17.1 0-.04 0-.06-.04-.07 0 0-.02 0-.02 0 .04-.04.07-.06.12-.1zm-150.35.03l.08.05c-.02 0-.03.02-.04.03l-.07-.07s0 0 .02 0zm148.32.02c.22.06.36.14.25.12l-.02-.03h-.03c-.07 0-.17-.03-.23-.04 0 0-.02 0-.03 0 .03-.03.06-.05.07-.07zm-.8.02c0 .02.03.06.04.08-.1.07-.17.12-.2.13-.05.02 0-.05.17-.2zm-151.02 0c.05.07.05.07.1.12-.05 0-.1 0-.17.02 0 0-.02-.02-.04-.03-.02-.03-.04-.04-.06-.07.1-.02.1-.02.17-.04zm154.06.08c.06.03.05.03.1.07.2.16.43.32.5.37.05.05.13.1.17.14.04.03.04.05 0 .05-.02 0-.23-.13-.47-.3-.18-.1-.3-.18-.38-.23zm-156.34 0c.04.06.07.1.1.13-.02 0-.04.03-.05.05 0-.02-.06-.06-.1-.1.03-.02.05-.07.06-.07zm6 0c.03.04.07.07.1.1-.04 0-.04.02-.07.03-.03 0-.04-.03-.06-.04l-.04-.05c.02 0 .03-.03.05-.04zm-1.7.02c.15.07.26.12.28.12.04.02.06.04.05.05-.02 0-.16-.04-.33-.1.04 0 .04-.03 0-.08zm-7.5 0l.13.07c-.06 0-.1.02-.17.04l-.12-.05c.07-.03.1-.04.17-.07zm4.9.05c0 .02.02.05.04.07-.1.02-.17.03-.25.04l-.05-.04-.04.06c-.13.02-.24.03-.25.02-.02 0 0-.02.05-.03.05-.02.16-.05.24-.07.03 0 .16-.04.25-.06zm.7 0c.22.28.27.36.2.33-.02 0-.14-.12-.28-.25.04 0 .06-.03.08-.05 0 0 0 0 0-.02zm-5.9.08l-.02.07c-.04 0-.08 0-.08 0-.02 0 0-.03.03-.04 0 0 .04-.02.06-.03zm8.93.02V11c-.02 0-.03 0 0-.03zm146.26.06c.1.04.17.06.24.1l-.2.02c-.1-.03-.18-.05-.24-.07.06 0 .13-.03.2-.05zm-147.98.03l.16.05c-.04 0-.06.02-.1.03-.05 0-.1 0-.14 0l-.14-.02c.03 0 .14-.02.22-.04zm146.32 0s0 0 .02 0c0 0 0 0-.02 0zm-151.23.02l.06.06s-.02 0-.03 0c-.03 0-.06-.02-.08-.03 0 0 .03 0 .05-.02zm3.04.02c.04.04.06.07.1.1-.06 0-.13.02-.2.03l-.1-.08c.08-.02.16-.04.2-.05zm-4.47 0c.16.08.28.15.26.15-.02 0-.08-.02-.1-.03 0-.02 0-.02-.05 0-.05-.03-.1-.05-.2-.1.04 0 .05 0 .08-.02zm153.9.04c.03 0 .07.03.1.05-.16 0-.28 0-.3 0 0 0 .03-.03.07-.03 0 0 .1-.02.14-.03zM28.3 11.2c.03.03.05.06.07.08 0 0-.02 0-.02.02-.03-.02-.04-.02-.07-.05 0 0 0-.02.02-.04zm156.7.04c.04.02.1.07.13.1l-.14.04c-.05-.02-.1-.06-.13-.07.05-.02.1-.04.14-.06zm-2.86 0c.02.03.04.05.05.07-.14.1-.25.17-.26.17-.02 0 0-.03.03-.05 0-.02.08-.08.17-.18zm-152.34 0l.06.07c-.5.1-.54.07-.06-.05zm151.1.02s.04.02.05.02c.05.02.07.04.04.04-.02 0-.07 0-.12-.02zm-150.36.02c.13.17.24.33.27.36 0 0-.03 0-.05 0-.08-.05-.2-.17-.35-.3v-.02c.05 0 .1-.03.14-.04zm154.24.07s.03.02.04.03c-.04 0-.07 0-.07 0s0 .05 0 .08c-.06 0-.1.02-.14.03 0-.02 0-.04 0-.06.05-.03.1-.05.17-.08zm-159.5 0l.12.06c-.07.03-.14.05-.2.07l-.1-.03s0 0 .02 0c.02-.02.12-.06.17-.08zm4.7.08l.1.1c-.07 0-.1 0-.15 0l-.1-.07c.05 0 .1-.02.15-.03zm152.63.02c.07 0 .1 0 .15.02h-.03s0 0 0 .02h-.02c-.18.1-.32.2-.4.23-.02 0-.03 0-.05 0 .07-.06.2-.16.36-.28zm-157.56 0l.06.05c-.13.04-.22.06-.24.06-.03 0 0-.02.04-.04.03 0 .1-.04.14-.06zm.6.07c.05.03.1.05.15.07-.03 0-.1.02-.12.03-.04 0-.07-.03-.12-.04l-.04-.04c.04 0 .07-.03.1-.04zm158.2 0c.04.02.05.05.03.05 0 0-.04 0-.08-.02 0 0 .03-.02.05-.03zm-154.32 0l-.07.1c-.03 0-.06 0-.08 0 0-.02 0-.04 0-.05.05-.02.1-.03.15-.04zm155.86 0s0 0 0 .02zm-159.54.12c.02.02.03.03.04.04-.02 0-.03 0-.08 0 .02-.02.03-.03.04-.04zm157.38.03c.06.04.1.07.14.1l-.1.05c-.06-.04-.08-.06-.13-.1zm-157.98 0c.02.03.05.05.07.08 0 0 0 0-.03 0-.07.03-.1.04-.16.06 0 0-.05-.03-.07-.04.03 0 .04-.02.06-.03.05-.02.08-.03.14-.06zm5.05.06zm153.1.06c.04.03.13.1.15.12.03.02.05.04.1.07-.06-.02-.12-.03-.17-.04-.05-.03-.1-.06-.15-.1zm-.42.04s.02.02.03.03c0 0-.03 0-.05 0zm-157.57 0h.02c.06.06.06.06.1.1-.05.02-.06.02-.14.05-.02-.02-.03-.03-.05-.05-.03 0-.05-.03-.08-.04.06-.02.1-.04.16-.06zm2.1.02l-.07.03c-.02 0-.07 0-.1.02.04-.02.1-.04.16-.06zm159.87.03c-.06.04-.14.1-.23.16-.1.03-.2.05-.28.07.03-.03.04-.04.08-.08.07-.03.12-.05.2-.08zm-162.67 0s0 .02.02.03c-.05 0-.05 0-.02-.02zm.95.16c.18.16.24.22.18.2-.03 0-.1-.05-.2-.12 0-.02 0-.06.02-.07zm-.8 0c.02.02.04.04.06.06-.07.02-.17.05-.23.07l-.05-.04v.04c-.12.03.02-.06.23-.14zm-2.04.02l.2.12c.04.03.07.06.1.1-.04 0-.05.02-.04.05-.06-.02-.1-.04-.16-.07h-.02c0-.03 0-.03-.03-.02l-.15-.08c.04-.03.1-.08.1-.1zm-.18.17l.1.1c-.1.05-.2.13-.37.25-.23.17-.43.3-.46.3-.04 0-.04 0 0-.04.04-.03.1-.1.17-.15.06-.04.26-.2.46-.37.05-.04.05-.04.1-.08zm167.45 0c.05.03.1.05.15.06.16.06.23.1.2.1 0 .02-.05.02-.1 0h-.07c-.07-.02-.16-.04-.26-.07l-.16-.04c.1-.02.17-.03.23-.04zm-.53.08l-.03.05c-.17 0-.15-.03.04-.05zm-1.88 0s0 .03.02.05l-.06.04c-.07 0-.13-.02-.17-.03zm-.26.08c0 .03 0 .1-.02.14l-.1.02s0-.03-.02-.04c.03-.03.06-.06.1-.1zm-162 .2c.05.03.07.04.1.07-.03 0-.06 0-.1.02 0-.02-.02-.03-.03-.03 0-.02.03-.05.04-.08zm164.3.1c.05 0 .1.02.16.04s.07.03.13.04c-.03 0-.03 0-.04 0-.12 0-.23 0-.33 0l-.07-.02v.02c-.12 0-.22 0-.25-.02-.05-.02.06-.03.4-.07zm-167.15 0c.04 0 .1.03.14.05-.04.02-.1.06-.12.08l-.15-.04c.04-.04.1-.08.12-.1zm.66.03l.1.04c0 .02 0 .03 0 .03s-.04-.03-.1-.07zm-.42.07c.5.2.48.22-.06.07 0-.03.04-.05.06-.08zm165.1.02zm-164.16.12c.03 0 .05 0 .07.02-.05.02-.08.03-.1.03 0-.02 0-.04.02-.06zm166.8.03c.04.02.06.02.1.04.07.03 0 .02-.1 0 0 0 0-.02 0-.03zm-168.3 0c.02.02.06.04.1.05-.07.05-.12.08-.17.1-.02 0-.06 0-.08 0 .04-.05.06-.07.1-.1.03-.02.03-.03.05-.04zm.24.12c.07.02.08.03.14.05-.03.02-.03.02-.06.04-.02 0-.03 0-.06.03-.03 0-.05-.02-.1-.03 0 0-.02 0-.04 0 .04-.05.08-.08.12-.1zm167.62.02c.03.02.08.03.13.05l-.17.04v.08c-.07 0-.14-.03-.2-.04-.02-.03-.04-.04-.07-.03 0 0-.03 0-.04 0-.04 0-.08 0-.12 0 .16-.03.32-.05.48-.08zm2.35.02c0 .02 0 .05 0 .08s-.03.05-.03.04c0 0 .02-.08.03-.12zm4.07.04c.02.02.03.04.03.05 0 0 0 0-.02 0 0 0-.02 0-.04-.03 0 0 .02-.02.04-.02zm-1.6 0c.03.03.06.04.1.06.02 0 .05.02.07.04 0 0 0 .04 0 .07-.03 0-.06-.02-.08-.02-.02 0-.06-.02-.07-.03 0-.04-.02-.1-.03-.1zm-4.43.08c.1.04.14.05.24.08 0 .02 0 .05 0 .07-.02 0-.03 0-.05 0-.06-.02-.1-.03-.16-.04-.02-.04-.02-.07-.03-.1zm8 .08c0 .02.02.04 0 .04 0 0 0 0-.02 0 0-.02.02-.03.02-.04zm-178.52 0l.5.16c.2.06.35.1.45.14-.02 0-.05.02-.08.02-.1-.02-.25-.05-.42-.08l-.54-.12c.06-.04.1-.07.1-.1zm177.75.12c.02.02.04.03.06.05-.02.03-.05.07-.07.08l-.06-.03c0-.02.04-.06.06-.1zm-177.86 0v.08c-.04 0-.07.03-.1.04-.2.1-.15.03.07-.1.02 0 .03 0 .04 0zm-2.08.03c0 .02.02.06.03.1l-.16.08c-.02-.03-.03-.06-.05-.08 0 0 0 0 .02-.02.05-.03.1-.06.14-.1zm178.82.2c.03.02.05.04.06.05 0 0-.03 0-.05.02-.03 0-.05-.02-.08-.03 0 0 .05-.02.06-.03zm-178.76.02c.07.23.12.43.1.44 0 0-.08-.13-.18-.3.03-.04.06-.1.08-.14zm180.34.1c.02 0 .06.03.08.06 0 0-.02.02-.03.02 0 0-.04-.03-.07-.04 0-.02.02-.03.03-.05zm-4.05.04c.06.03.1.06.17.1.14.05.2.1.17.1-.03.02-.2-.04-.38-.12 0-.02 0-.03 0-.05.03-.02.04-.03.05-.04zm-177.04.1c-.08.06-.13.07-.08.04.03-.02.05-.03.08-.05zm180.93.12s0 0 0 .02c0 0-.02 0-.03 0 0 0 .02 0 .02-.02zm-2.1.18s0 .02.02.03c-.1.06-.15.12-.15.1 0 0 .03-.06.08-.14.02 0 .03 0 .04 0zm-178.76 0c0 .03.02.06.02.1-.02 0-.03 0-.06.02s-.06.03-.1.05c0 0 0 0 0-.02l-.03-.03c.07-.05.1-.06.17-.1zm-2.02.03c.02.02.05.05.07.08-.04.02-.06.03-.1.06-.03-.02-.05-.03-.08-.06.05-.04.08-.06.1-.1zm181.56.08s0 0 .02 0c.04.03.02.02-.02 0zm-179.47.15c0 .02.02.06.03.08-.02 0-.05 0-.1-.03.03 0 .06-.03.08-.04zm181.4 0c0 .02.08.08.1.08 0 .02 0 .02 0 .02s-.02.02-.03.02c-.02 0-.06-.03-.1-.06 0 0 0-.03.02-.04zm-184.16.05l.06.05s0 0-.02 0c0 0-.02-.02-.03-.05zm182.07.05c.02 0 .02 0 .02 0zm-182.9.1c.05.05.06.06.1.1l-.14.02s-.02 0-.03 0c-.02 0-.04-.02-.06-.04.05 0 .1-.04.13-.06zm-.54.26c.02 0 .03.02.05.04-.06.02-.1.03-.13.02-.02 0 .02-.04.1-.07zm.88.04s.02 0 .03.02zm186.4.04l-.07.1c-.02 0-.03 0-.03 0 0-.02.03-.05.1-.1zm4.16 1c.02.05.05.12.08.2h-.12l-.1-.16-.04.16s0 .02 0 .03l-.24.05c-.37.05-.63.08-.6.06.04-.02.38-.13.78-.26zm-191-.7c.02.02.04.05.07.07l-.07.02c0-.02-.02-.03-.04-.05 0 0 0 0-.02-.02.02 0 .03 0 .05-.02zM8 15.5s.02 0 .02 0c.06.06.06.06.1.1-.03 0-.08.02-.15.05 0 0-.02-.02-.04-.03-.03-.02-.05-.03-.08-.05.08-.04.1-.04.16-.07zm196.64.95c.03.08.08.2.08.2s0 .02 0 .02c-.02 0-.04 0-.07 0 0-.03-.02-.04-.03-.07l-.02-.04.03-.06zM13.7 15.57c0 .02 0 .04.02.06 0 0-.04-.02-.06-.03 0 0 .02-.02.03-.03zm-5.53.07c.27.23.34.3.27.28-.03 0-.18-.1-.34-.2.03-.02.05-.04.06-.06 0 0 0 0 0-.02zm198.6.9c.15.07.3.16.32.17.02.02.04.05 0 .06 0 0-.08-.02-.17-.06l-.03-.04h-.05s-.02 0-.03 0c-.05-.03-.1-.05-.16-.08.05-.02.1-.04.12-.05zm-199.3-.8s.03.04.06.06c-.1.03-.16.05-.24.08l-.06-.04-.03.07c-.12.04-.22.07-.23.07-.03 0-.02-.02.03-.04s.15-.06.22-.1c.03 0 .16-.06.24-.1zm2.7.1l.1.1c-.05 0-.1.02-.17.05-.04-.05-.08-.08-.1-.1 0 0 .02 0 .04 0 .07-.04.07-.04.13-.07zm196 .9c.03.02.03.02.05.03-.1 0-.1 0-.05-.03zm-198.5-.8c.04.03.07.05.1.1-.03 0-.1.02-.16.05l-.1-.1c.05 0 .13-.04.18-.06zm2.24 0c-.02.04-.07.1-.12.16 0 0 0 0-.02 0-.28.1-.54.18-.57.18-.04 0-.02-.03.03-.05.04 0 .14-.06.22-.1.06-.02.27-.1.46-.2zm.44.08l.04.05c.1.12.2.24.24.3-.02 0-.04 0-.06 0-.06-.06-.2-.18-.33-.28.05-.04.1-.06.1-.08zm-5.2 0l.1.07c-.04.02-.05.04-.08.07l-.1-.04c.02 0 .02-.02.03-.03 0-.03.02-.05.03-.07zm2.7.07c.2.16.36.3.4.32.03.02.04.05.02.05s-.24-.12-.53-.3c.04-.04.08-.06.12-.08zm-.72.08l.07.05c-.47.15-.52.14-.08-.05zm-1.6.1c.03.02.07.05.1.07-.02 0-.04.02-.05.03-.04-.02-.08-.04-.12-.06.03-.02.04-.03.06-.04zm1.82.04l.12.08c-.06.02-.08.03-.14.04l-.12-.06c.04-.02.1-.04.14-.06zm2.3.04l.06.08c-.04 0-.04 0-.1.03-.2.07-.35.12-.45.15-.04 0-.1 0-.13.02.02-.02.15-.1.4-.2.1-.03.14-.05.2-.08zm-2.72.13l-.05.08c-.03 0-.06 0-.08.02-.2.06-.1-.02.12-.1zm.8.08c.13.08.25.16.3.2 0 0-.02 0-.03 0-.06-.02-.16-.07-.3-.14 0-.02.02-.04.02-.06zm-2.64.04l.03.02c.02 0 .02 0 .03 0-.03.02-.05.03-.06.03-.02 0-.02-.03 0-.05zm-1.1.2c.34.15.44.2.36.2-.03 0-.18-.04-.36-.1.03-.03.03-.06 0-.1zm1.54.1c.03 0 .04.03.03.03 0 0-.04-.02-.05-.03 0 0 0 0 .02 0zm-2.35.06c.03 0 .04 0 .08.04-.02.06-.04.12-.05.1 0 0-.02-.06-.03-.14z"/></g></svg>