<?xml version="1.0" encoding="UTF-8" standalone="no"?>
<!-- Created with Inkscape (http://www.inkscape.org/) -->

<svg
   xmlns:dc="http://purl.org/dc/elements/1.1/"
   xmlns:cc="http://creativecommons.org/ns#"
   xmlns:rdf="http://www.w3.org/1999/02/22-rdf-syntax-ns#"
   xmlns:svg="http://www.w3.org/2000/svg"
   xmlns="http://www.w3.org/2000/svg"
   xmlns:sodipodi="http://sodipodi.sourceforge.net/DTD/sodipodi-0.dtd"
   xmlns:inkscape="http://www.inkscape.org/namespaces/inkscape"
   width="8000"
   height="8000"
   viewBox="0 0 2116.6666 2116.6666"
   version="1.1"
   id="svg8"
   inkscape:version="0.92.3 (2405546, 2018-03-11)"
   sodipodi:docname="border-mask.svg">
  <defs
     id="defs2" />
  <sodipodi:namedview
     id="base"
     pagecolor="#ffffff"
     bordercolor="#666666"
     borderopacity="1.0"
     inkscape:pageopacity="0.0"
     inkscape:pageshadow="2"
     inkscape:zoom="0.14939379"
     inkscape:cx="4006.3459"
     inkscape:cy="3976.0694"
     inkscape:document-units="mm"
     inkscape:current-layer="layer1"
     showgrid="false"
     inkscape:window-width="2495"
     inkscape:window-height="1417"
     inkscape:window-x="1977"
     inkscape:window-y="-8"
     inkscape:window-maximized="1"
     units="px" />
  <metadata
     id="metadata5">
    <rdf:RDF>
      <cc:Work
         rdf:about="">
        <dc:format>image/svg+xml</dc:format>
        <dc:type
           rdf:resource="http://purl.org/dc/dcmitype/StillImage" />
        <dc:title></dc:title>
      </cc:Work>
    </rdf:RDF>
  </metadata>
  <g
     inkscape:label="Calque 1"
     inkscape:groupmode="layer"
     id="layer1"
     transform="translate(0,1819.6667)">
    <path
       style="fill:#000000;fill-opacity:1;stroke:none;stroke-width:0.71450084;stroke-miterlimit:4;stroke-dasharray:none;stroke-opacity:1"
       d="m 8.7397273,-1806.9997 -8.72732496,14.8347 v 0.051 2074.22579 0.0527 L 8.7397273,296.99944 17.480983,282.1647 h 0.02735 l 8.742804,14.83474 8.741256,-14.83474 h 0.02735 l 8.742803,14.83474 8.72681,-14.83474 8.726807,14.83474 8.742803,-14.83474 h 0.02786 l 8.740741,14.83474 8.741257,-14.83474 h 0.0036 l 8.727326,14.83474 0.01961,-0.0346 0.02167,0.0346 8.72732,-14.83474 8.74125,14.83474 8.74282,-14.83474 h 0.0273 l 8.74281,14.83474 8.72681,-14.83474 8.72733,14.83474 8.74074,-14.83474 h 0.0279 l 0.87453,1.48259 7.85383,13.35215 0.007,-0.0103 0.006,0.0103 8.74228,-14.83474 h 0.0134 l 8.74228,14.83474 0.007,-0.0124 0.007,0.0124 8.7263,-14.83474 h 0.0294 l 8.74074,14.83474 8.72732,-14.83474 8.72682,14.83474 10e-4,-0.002 v 0.002 l 8.74125,-14.83474 h 0.0279 l 8.74074,14.83474 9.9e-4,-0.002 5.2e-4,0.002 8.74126,-14.83474 h 0.0273 l 8.74281,14.83474 8.72732,-14.83474 8.72682,14.83474 8.7428,-14.83474 h 0.0274 l 8.74124,14.83474 8.74178,-14.83474 h 0.003 l 8.72682,14.83474 0.0202,-0.0346 0.0217,0.0346 8.72681,-14.83474 8.74176,14.83474 8.7428,-14.83474 h 0.0269 l 8.7428,14.83474 8.72682,-14.83474 8.72732,14.83474 8.74125,-14.83474 h 0.0279 l 0.26417,0.44905 8.46316,14.38569 5.3e-4,-5.1e-4 0.007,-0.01 0.006,0.0103 8.7428,-14.83474 h 0.0124 l 8.7428,14.83474 5e-4,-5.1e-4 0.007,-0.0119 0.006,0.0124 8.72682,-14.83474 h 0.0274 l 8.7428,14.83423 8.7268,-14.83373 8.72681,14.83373 8.74281,-14.83423 h 0.0274 l 8.74128,14.83474 h 5e-4 l 8.7428,-14.83474 8.72683,14.83474 0.0201,-0.0346 0.0217,0.0346 5.1e-4,-5.1e-4 8.72629,-14.83423 8.74177,14.83474 8.7428,-14.83474 h 0.0274 l 8.7428,14.83474 8.72683,-14.83474 8.72682,14.83474 8.74124,-14.83474 h 0.0274 l 0.87505,1.48259 7.85329,13.35215 0.007,-0.0103 0.006,0.0103 8.74281,-14.83474 h 0.0129 l 8.7428,14.83474 0.006,-0.0124 0.007,0.0124 8.72682,-14.83474 h 0.0289 l 8.74124,14.83474 8.72733,-14.83474 8.72629,14.83474 8.74127,-14.83474 h 0.0279 l 8.74127,14.83474 8.74124,-14.83474 h 0.0274 l 8.7428,14.83474 8.72732,-14.83474 8.72629,14.83474 8.74334,-14.83474 h 0.0268 l 8.74125,14.83474 8.74177,-14.83474 h 0.006 l 8.72629,14.83474 0.0207,-0.0346 0.0217,0.0346 8.72679,-14.83474 8.74177,14.83474 8.74284,-14.83474 h 0.0268 l 8.74281,14.83474 8.72731,-14.83474 8.72733,14.83474 8.74074,-14.83474 h 0.0273 l 0.87456,1.48259 7.85382,13.35215 0.006,-0.0103 0.006,0.0103 8.7428,-14.83474 8.72733,14.83527 0.0145,-0.0248 0.0145,0.0243 0.008,-0.0124 0.006,0.0124 8.72629,-14.83321 8.7423,14.83374 0.0145,-0.0243 0.014,0.0238 8.72628,-14.83424 h 10e-4 l 8.7268,14.83424 0.0145,-0.0243 0.0145,0.0248 8.72683,-14.83477 8.72679,14.83477 0.0145,-0.0248 0.0145,0.0243 8.74231,-14.83371 8.74071,14.83424 0.0155,-0.0258 0.015,0.0253 8.72062,-14.82389 8.72114,14.82442 0.0196,-0.0346 0.0222,0.0346 8.7268,-14.83477 8.74126,14.83477 8.74282,-14.83477 h 0.0274 l 8.74281,14.83477 8.72681,-14.83477 8.72733,14.83477 8.74124,-14.83477 h 0.0274 l 0.87455,1.4826 7.85381,13.35217 0.007,-0.0104 0.006,0.0104 8.74227,-14.83477 h 0.0134 l 8.7428,14.83477 0.007,-0.0124 0.007,0.0124 8.72682,-14.83477 h 0.0288 l 8.74124,14.83477 8.72683,-14.83477 8.72679,14.83477 10e-4,-0.002 5.2e-4,0.002 8.74074,-14.83477 h 0.0279 l 8.74126,14.83477 10e-4,-0.002 v 0.002 l 8.74125,-14.83477 h 0.0274 l 8.74282,14.83477 8.7273,-14.83477 8.7268,14.83477 8.7433,-14.83477 h 0.027 l 8.7407,14.83477 8.7423,-14.83477 8.7268,14.83477 0.02,-0.0346 0.022,0.0346 8.7268,-14.83477 8.7418,14.83477 8.7428,-14.83477 h 0.027 l 8.7423,14.83477 8.7273,-14.83477 8.7274,14.83477 8.7412,-14.83477 h 0.028 l 0.2647,0.44855 8.4627,14.38622 5e-4,-5.3e-4 0.01,-0.01 0.01,0.0104 8.7428,-14.83477 h 0.012 l 8.7428,14.83477 5e-4,-5.3e-4 0.01,-0.0119 0.01,0.0124 8.7272,-14.83477 h 0.027 l 8.7428,14.83424 v 5.3e-4 h 5e-4 l 8.7263,-14.83424 8.7273,14.83371 8.7429,-14.83424 h 0.027 l 8.7419,14.83477 h 5e-4 l 8.7428,-14.83477 8.7268,14.83477 0.02,-0.0346 0.022,0.0346 5e-4,-5.3e-4 8.7267,-14.83424 8.7414,14.83477 8.7427,-14.83477 h 0.027 l 8.7428,14.83477 8.7268,-14.83477 8.7268,14.83477 8.7413,-14.83477 h 0.027 l 0.1945,0.3292 8.5334,14.50557 0.01,-0.0104 0.01,0.0104 8.7429,-14.83477 h 0.01 l 8.7423,14.83477 v -0.006 0.006 l 0.01,-0.0124 0.01,0.0124 8.7267,-14.83477 h 0.014 l 8.7427,14.83477 0.01,-0.0109 0.01,0.0109 8.7206,-14.82392 8.72,14.82392 0.01,-0.0109 0.01,0.0109 8.7407,-14.83477 h 0.017 l 8.7412,14.83477 0.01,-0.009 0.01,0.009 v -0.002 l 5e-4,0.002 8.7356,-14.82495 8.7216,14.82495 0.02,-0.0346 0.022,0.0346 0.01,-0.01 0.01,0.01 8.7217,-14.82442 7.1743,12.17549 1.5581,2.64893 v -0.002 0.002 l 8.7429,-14.83477 h 0.025 l 8.7418,14.83477 v -0.003 0.003 l 1.8053,-3.06906 6.9271,-11.75536 8.7217,14.82442 0.011,-0.0181 0.01,0.0181 0.02,-0.0346 0.022,0.0346 8.7164,-14.81667 0.8637,1.4645 7.8538,13.35217 0.01,-0.0104 0.01,0.0104 0.01,-0.0124 0.01,0.0124 8.7418,-14.83321 8.7417,14.83321 0.01,-0.0124 0.01,0.0124 v -0.008 0.008 l 8.7272,-14.83477 8.7274,14.83477 0.016,-0.0279 0.017,0.0279 8.7272,-14.83477 8.7269,14.83477 10e-4,-0.002 v 0.002 -0.007 0.007 l 0.01,-0.0104 0.01,0.0104 8.7419,-14.83321 8.7407,14.83321 v -0.002 0.002 l 0.01,-0.0129 0.01,0.0129 0.01,-0.0124 0.01,0.0124 8.7268,-14.83477 h 0.01 l 8.7428,14.83477 0.01,-0.0176 0.01,0.0176 8.7165,-14.81823 8.7164,14.81823 0.01,-0.0176 0.01,0.0176 8.7427,-14.83477 h 0.01 l 8.7413,14.83477 0.011,-0.0181 0.01,0.0181 8.7315,-14.81617 8.7159,14.81617 0.02,-0.0346 0.022,0.0346 0.012,-0.0207 0.012,0.0207 8.715,-14.81408 8.7294,14.81408 8.7428,-14.83477 h 0.027 l 8.7427,14.83477 8.7273,-14.83477 8.7268,14.83477 8.7413,-14.83477 h 0.028 l 0.2647,0.44908 8.4631,14.38569 h 5e-4 l 0.01,-0.0104 0.01,0.0104 8.7428,-14.83477 h 0.012 l 8.7429,14.83477 h 5e-4 l 0.01,-0.0124 0.01,0.0124 8.7274,-14.83477 h 0.027 l 8.7428,14.83424 8.7268,-14.83371 8.7268,14.83371 8.7433,-14.83424 h 0.027 l 8.7412,14.83477 h 5e-4 l 8.7428,-14.83477 8.7268,14.83477 0.02,-0.0346 0.022,0.0346 h 6e-4 l 8.7263,-14.83477 8.7412,14.83477 8.7429,-14.83477 h 0.027 l 8.7428,14.83477 8.7268,-14.83477 8.7273,14.83477 8.7413,-14.83477 h 0.027 l 0.8751,1.4826 7.8527,13.35217 0.01,-0.0104 0.01,0.0104 8.7428,-14.83477 h 0.013 l 8.7427,14.83477 0.01,-0.0124 0.01,0.0124 8.7268,-14.83477 h 0.029 l 8.7412,14.83477 8.7274,-14.83477 8.7263,14.83477 8.7412,-14.83477 h 0.028 l 8.7413,14.83477 8.7413,-14.83477 h 0.027 l 8.7427,14.83477 8.7274,-14.83477 8.7262,14.83477 8.7434,-14.83477 h 0.027 l 8.7412,14.83477 8.7419,-14.83477 h 0.01 l 8.7267,14.83477 0.02,-0.0346 0.022,0.0346 8.7267,-14.83477 8.7418,14.83477 8.7429,-14.83477 h 0.027 l 8.7429,14.83477 8.7273,-14.83477 8.7273,14.83477 8.7413,-14.83477 h 0.027 l 0.874,1.4826 7.8538,13.35217 0.01,-0.0104 0.01,0.0104 8.7428,-14.83477 h 0.013 l 8.7427,14.83477 0.01,-0.0124 0.01,0.0124 8.7274,-14.83477 h 0.028 l 8.7418,14.83477 8.7268,-14.83477 8.7273,14.83477 8.7428,-14.83477 h 0.028 l 8.7412,14.83477 8.7428,-14.83477 h 0.028 l 8.7428,14.83477 8.7268,-14.83477 v -0.0522 -2074.22581 -0.051 l -8.7268,-14.8347 -8.7428,14.8347 h -0.028 l -8.7428,-14.8347 -8.7412,14.8347 h -0.028 l -8.7428,-14.8347 -8.7273,14.8347 -8.7268,-14.8347 -8.7418,14.8347 h -0.028 l -8.7274,-14.8347 -0.01,0.012 -0.01,-0.012 -8.7427,14.8347 h -0.013 l -8.7428,-14.8347 -0.01,0.011 -0.01,-0.011 -7.8538,13.3521 -0.874,1.4826 h -0.027 l -8.7413,-14.8347 -8.7273,14.8347 -8.7273,-14.8347 -8.7429,14.8347 h -0.027 l -8.7429,-14.8347 -8.7418,14.8347 -8.7267,-14.8347 -0.022,0.035 -0.02,-0.035 -8.7267,14.8347 h -0.01 l -8.7419,-14.8347 -8.7412,14.8347 h -0.027 l -8.7434,-14.8347 -8.7262,14.8347 -8.7274,-14.8347 -8.7427,14.8347 h -0.027 l -8.7413,-14.8347 -8.7413,14.8347 h -0.028 l -8.7412,-14.8347 -8.7263,14.8347 -8.7274,-14.8347 -8.7412,14.8347 h -0.029 l -8.7268,-14.8347 -0.01,0.012 -0.01,-0.012 -8.7427,14.8347 h -0.013 l -8.7428,-14.8347 -0.01,0.011 -0.01,-0.011 -7.8527,13.3521 -0.8751,1.4826 h -0.027 l -8.7413,-14.8347 -8.7273,14.8347 -8.7268,-14.8347 -8.7428,14.8347 h -0.027 l -8.7429,-14.8347 -8.7412,14.8347 -8.7263,-14.8347 -6e-4,5e-4 -0.022,0.035 -0.02,-0.035 -8.7268,14.8347 -8.7428,-14.8347 h -5e-4 l -8.7412,14.8347 h -0.027 l -8.7433,-14.8342 -8.7268,14.8337 -8.7268,-14.8337 -8.7428,14.8342 h -0.027 l -8.7274,-14.8347 -0.01,0.012 -0.01,-0.012 -5e-4,5e-4 -8.7429,14.8342 h -0.012 l -8.7428,-14.8347 -0.01,0.011 -0.01,-0.011 -5e-4,5e-4 -8.4631,14.3852 -0.2647,0.449 h -0.028 l -8.7413,-14.8347 -8.7268,14.8347 -8.7273,-14.8347 -8.7427,14.8347 h -0.027 l -8.7428,-14.8347 -8.7294,14.8141 -8.715,-14.8146 -0.012,0.021 -0.012,-0.02 -0.022,0.035 -0.02,-0.035 -8.7154,14.8156 -8.732,-14.8161 -0.011,0.018 -0.01,-0.018 -8.7407,14.8342 h -0.01 l -8.7427,-14.8347 -0.01,0.017 -0.01,-0.017 -8.7164,14.8172 -8.7165,-14.8177 -0.01,0.017 -0.01,-0.017 -8.7423,14.8342 h -0.01 l -8.7268,-14.8347 -0.01,0.012 -0.01,-0.012 -0.01,0.013 -0.01,-0.012 h -10e-4 l -8.7402,14.8332 -8.7424,-14.8337 -0.01,0.011 -0.01,-0.011 v 0.01 -0.01 h -5e-4 -5e-4 l -8.7263,14.8342 v 0 l -8.7268,-14.8342 -0.017,0.028 -0.016,-0.028 -8.7274,14.8347 -8.7272,-14.8347 v 0.01 -0.01 l -0.01,0.012 -0.01,-0.012 -8.7417,14.8332 -8.7418,-14.8337 -0.01,0.012 -0.01,-0.012 -0.01,0.011 -0.01,-0.011 -7.8538,13.3521 -0.8637,1.4646 -8.7164,-14.8172 -0.022,0.035 -0.02,-0.035 -0.011,0.018 -0.01,-0.018 -8.7212,14.8244 -7.1051,-12.0571 -1.6278,-2.7673 v 0 0 l -8.7418,14.8347 h -0.026 l -8.7418,-14.8342 h -10e-4 v 0 l -1.7423,2.9615 -6.9901,11.8634 -8.7217,-14.8249 -0.01,0.01 -0.01,-0.01 -0.022,0.035 -0.02,-0.035 -8.7216,14.8249 -8.7356,-14.8254 h -5e-4 l -0.01,0.01 -0.01,-0.01 -8.7406,14.8342 h -0.018 l -8.7407,-14.8347 -0.01,0.011 -0.01,-0.011 -8.72,14.8234 -8.7206,-14.8239 -0.01,0.011 -0.01,-0.011 -8.7422,14.8342 h -0.015 l -8.7267,-14.8347 -0.01,0.012 -0.01,-0.012 v 0.01 -0.01 l -8.7419,14.8342 h -0.01 l -8.7429,-14.8347 -0.01,0.011 -0.01,-0.011 -8.5334,14.5055 -0.1945,0.3292 h -0.027 l -8.7413,-14.8347 -8.7268,14.8347 -8.7268,-14.8347 -8.7428,14.8347 h -0.027 l -8.7427,-14.8347 -8.7414,14.8347 -8.7267,-14.8342 v -5e-4 h -5e-4 l -0.022,0.035 -0.02,-0.035 -8.7268,14.8347 -8.7428,-14.8347 h -5e-4 l -8.7419,14.8347 h -0.027 l -8.7429,-14.8342 -8.7273,14.8342 -8.7263,-14.8347 -5e-4,5e-4 -8.7428,14.8342 h -0.027 l -8.7272,-14.8347 -0.01,0.012 -0.01,-0.012 v -5e-4 h -5e-4 l -8.7428,14.8347 h -0.012 l -8.7428,-14.8347 -0.01,0.011 -0.01,-0.011 v -5e-4 h -5e-4 l -8.4627,14.3862 -0.2647,0.4485 h -0.028 l -8.7412,-14.8347 -8.7274,14.8347 -8.7273,-14.8347 -8.7423,14.8347 h -0.027 l -8.7427,-14.8347 -8.7418,14.8347 -8.7268,-14.8347 -0.022,0.035 -0.02,-0.035 -8.7268,14.8347 -8.7423,-14.8347 -8.7407,14.8347 h -0.027 l -8.7433,-14.8347 -8.7268,14.8347 -8.7273,-14.8347 -8.74282,14.8347 h -0.0274 l -8.74124,-14.8347 h -5.3e-4 -5.1e-4 l -8.74126,14.8347 h -0.0279 l -8.74075,-14.8347 h -5.1e-4 -10e-4 l -8.72679,14.8347 -8.72683,-14.8347 -8.74124,14.8347 h -0.0289 l -8.72681,-14.8347 -0.007,0.012 -0.007,-0.012 -8.7428,14.8347 h -0.0134 l -8.74228,-14.8347 -0.006,0.011 -0.007,-0.011 -7.8538,13.3521 -0.87455,1.4826 h -0.0274 l -8.74124,-14.8347 -8.72733,14.8347 -8.72682,-14.8347 -8.7428,14.8347 h -0.0274 l -8.74281,-14.8347 -8.74126,14.8347 -8.72733,-14.8347 -0.0217,0.035 -0.0196,-0.035 -8.72114,14.8244 -8.72062,-14.8244 -0.0155,0.026 -0.015,-0.026 -8.74072,14.8337 -8.7423,-14.8337 -0.0145,0.024 -0.0145,-0.024 -8.72679,14.8347 -8.72683,-14.8347 -0.0145,0.024 -0.0145,-0.024 -8.72733,14.8347 -8.72679,-14.8347 -0.0145,0.024 -0.0139,-0.024 -8.74178,14.8332 -8.72681,-14.8332 -0.006,0.012 -0.008,-0.012 -0.0145,0.024 -0.0145,-0.024 -8.72732,14.8347 -8.7428,-14.8347 -0.006,0.011 -0.006,-0.011 -7.85382,13.3521 -0.87455,1.4826 h -0.0274 l -8.74073,-14.8347 -8.72733,14.8347 -8.72732,-14.8347 -8.7428,14.8347 h -0.0269 l -8.74283,-14.8347 -8.74177,14.8347 -8.72679,-14.8347 -0.0217,0.035 -0.0207,-0.035 -8.72629,14.8347 h -0.006 l -8.74178,-14.8347 -8.74124,14.8347 h -0.0269 l -8.74333,-14.8347 -8.7263,14.8347 -8.72731,-14.8347 -8.74281,14.8347 h -0.0274 l -8.74125,-14.8347 -8.74126,14.8347 h -0.0279 l -8.74127,-14.8347 -8.72629,14.8347 -8.72733,-14.8347 -8.74124,14.8347 h -0.0289 l -8.72681,-14.8347 -0.007,0.012 -0.006,-0.012 -8.74281,14.8347 h -0.0129 l -8.7428,-14.8347 -0.006,0.011 -0.007,-0.011 -7.85329,13.3521 -0.87505,1.4826 h -0.0274 l -8.74124,-14.8347 -8.72682,14.8347 -8.72683,-14.8347 -8.7428,14.8347 h -0.0274 l -8.7428,-14.8347 -8.74177,14.8347 -8.72629,-14.8342 v -5e-4 h -5.1e-4 l -0.0217,0.035 -0.0201,-0.035 -8.72682,14.8347 -8.74281,-14.8347 h -5e-4 l -8.74127,14.8347 h -0.0274 l -8.7428,-14.8342 -8.72682,14.8337 -8.72679,-14.8337 -8.74281,14.8342 h -0.0274 l -8.72682,-14.8347 -0.006,0.012 -0.007,-0.011 v -5e-4 h -5e-4 l -8.7428,14.8347 h -0.0124 l -8.7428,-14.8347 -0.006,0.011 -0.007,-0.01 v -5e-4 h -5.3e-4 l -8.46317,14.3857 -0.26416,0.449 h -0.0279 l -8.74124,-14.8347 -8.72733,14.8347 -8.72681,-14.8347 -8.74281,14.8347 h -0.0268 l -8.74281,-14.8347 -8.74175,14.8347 -8.72682,-14.8347 -0.0217,0.035 -0.0202,-0.035 -8.72682,14.8347 h -0.003 l -8.74178,-14.8347 -8.74124,14.8347 h -0.0274 l -8.7428,-14.8347 -8.72682,14.8347 -8.72733,-14.8347 -8.7428,14.8347 h -0.0274 l -8.74125,-14.8347 h -5.2e-4 -0.001 l -8.74073,14.8347 h -0.0279 l -8.74125,-14.8347 h -0.001 l -8.72682,14.8347 -8.72733,-14.8347 -8.74073,14.8347 h -0.0295 l -8.72681,-14.8347 -0.007,0.012 -0.007,-0.012 -8.74228,14.8347 h -0.0134 l -8.74229,-14.8347 -0.006,0.011 -0.007,-0.011 -7.85382,13.3521 -0.87453,1.4826 h -0.0279 l -8.74073,-14.8347 -8.72733,14.8347 -8.72682,-14.8347 -8.7428,14.8347 h -0.0274 l -8.74281,-14.8347 -8.74125,14.8347 -8.727323,-14.8347 -0.02167,0.035 -0.01961,-0.035 -8.727325,14.8347 h -0.0036 l -8.741256,-14.8347 -8.740741,14.8347 h -0.02786 l -8.742803,-14.8347 -8.726807,14.8347 -8.72681,-14.8347 -8.742803,14.8347 h -0.02735 l -8.741256,-14.8347 -8.742804,14.8347 h -0.02735 z"
       id="rect4520"
       inkscape:connector-curvature="0" />
  </g>
</svg>
