<?xml version="1.0" encoding="UTF-8" standalone="no"?>
<!-- Created with Inkscape (http://www.inkscape.org/) -->

<svg
   xmlns:dc="http://purl.org/dc/elements/1.1/"
   xmlns:cc="http://creativecommons.org/ns#"
   xmlns:rdf="http://www.w3.org/1999/02/22-rdf-syntax-ns#"
   xmlns:svg="http://www.w3.org/2000/svg"
   xmlns="http://www.w3.org/2000/svg"
   xmlns:sodipodi="http://sodipodi.sourceforge.net/DTD/sodipodi-0.dtd"
   xmlns:inkscape="http://www.inkscape.org/namespaces/inkscape"
   width="8000"
   height="8000"
   viewBox="0 0 2116.6666 2116.6666"
   version="1.1"
   id="svg8"
   inkscape:version="0.92.3 (2405546, 2018-03-11)"
   sodipodi:docname="border.svg">
  <defs
     id="defs2" />
  <sodipodi:namedview
     id="base"
     pagecolor="#ffffff"
     bordercolor="#666666"
     borderopacity="1.0"
     inkscape:pageopacity="0.0"
     inkscape:pageshadow="2"
     inkscape:zoom="0.59860985"
     inkscape:cx="4000.0587"
     inkscape:cy="494.47899"
     inkscape:document-units="mm"
     inkscape:current-layer="layer1"
     showgrid="false"
     inkscape:window-width="2495"
     inkscape:window-height="1417"
     inkscape:window-x="1977"
     inkscape:window-y="-8"
     inkscape:window-maximized="1"
     units="px" />
  <metadata
     id="metadata5">
    <rdf:RDF>
      <cc:Work
         rdf:about="">
        <dc:format>image/svg+xml</dc:format>
        <dc:type
           rdf:resource="http://purl.org/dc/dcmitype/StillImage" />
        <dc:title />
      </cc:Work>
    </rdf:RDF>
  </metadata>
  <g
     inkscape:label="Calque 1"
     inkscape:groupmode="layer"
     id="layer1"
     transform="translate(0,1819.6667)">
    <g
       id="g5206"
       transform="translate(0,7.62098)">
      <path
         inkscape:connector-curvature="0"
         style="fill:#000000;fill-opacity:1;stroke:none;stroke-width:0.71388334;stroke-miterlimit:4;stroke-dasharray:none;stroke-opacity:1"
         d="M 8.7273264,-1811.5142 0,-1796.7051 v 0.051 1.4212 h 1.555079 v -1.0483 l 7.1732794,-12.1719 7.4008136,12.5388 a 1.5552069,1.5549642 0 0 0 0.83997,0.6814 h 1.023132 a 1.5552069,1.5549642 0 0 0 0.843066,-0.6814 l 7.403394,-12.5404 7.401846,12.5404 a 1.5552069,1.5549642 0 0 0 0.83997,0.6814 h 1.023131 a 1.5552069,1.5549642 0 0 0 0.843067,-0.6814 l 7.40236,-12.5383 7.387917,12.5372 a 1.5552069,1.5549642 0 0 0 0.841,0.6825 h 0.994757 a 1.5552069,1.5549642 0 0 0 0.844097,-0.6825 l 7.387916,-12.5372 7.402361,12.5383 a 1.5552069,1.5549642 0 0 0 0.83997,0.6814 h 1.023649 a 1.5552069,1.5549642 0 0 0 0.843066,-0.6814 l 7.401328,-12.5398 7.401848,12.5398 a 1.5552069,1.5549642 0 0 0 0.839968,0.6814 h 0.999401 a 1.5552069,1.5549642 0 0 0 0.843581,-0.6825 l 7.408036,-12.5703 7.408047,12.5703 a 1.5552069,1.5549642 0 0 0 0.841,0.6825 h 0.99475 a 1.5552069,1.5549642 0 0 0 0.84358,-0.6814 l 7.40185,-12.5404 7.4034,12.5404 a 1.5552069,1.5549642 0 0 0 0.83996,0.6814 h 1.02313 a 1.5552069,1.5549642 0 0 0 0.84307,-0.6814 l 7.40237,-12.5383 7.3879,12.5372 a 1.5552069,1.5549642 0 0 0 0.84101,0.6825 h 0.99475 a 1.5552069,1.5549642 0 0 0 0.84411,-0.6825 l 7.38843,-12.5372 7.40029,12.5383 a 1.5552069,1.5549642 0 0 0 0.83997,0.6814 h 1.02365 a 1.5552069,1.5549642 0 0 0 0.84255,-0.6809 l 0.87454,-1.4801 a 1.5552069,1.5549642 0 0 0 0.001,0 l 6.52164,-11.068 7.40803,12.5491 a 1.5552069,1.5549642 0 0 0 0.83482,0.6799 h 1.01899 a 1.5552069,1.5549642 0 0 0 0.83843,-0.6799 l 7.40855,-12.5501 7.39514,12.5491 a 1.5552069,1.5549642 0 0 0 0.83584,0.6809 h 1.03448 a 1.5552069,1.5549642 0 0 0 0.83842,-0.6799 l 7.40031,-12.5382 7.38842,12.5372 a 1.5552069,1.5549642 0 0 0 0.83585,0.6809 h 1.00508 a 1.5552069,1.5549642 0 0 0 0.83894,-0.6809 l 7.38842,-12.5383 7.40133,12.5393 a 1.5552069,1.5549642 0 0 0 0.83481,0.6799 h 1.03345 a 1.5552069,1.5549642 0 0 0 0.83842,-0.6799 l 7.40237,-12.5413 7.40236,12.5413 a 1.5552069,1.5549642 0 0 0 0.83481,0.6799 h 1.03294 a 1.5552069,1.5549642 0 0 0 0.83842,-0.6799 l 7.40236,-12.5382 7.38843,12.5372 a 1.5552069,1.5549642 0 0 0 0.83585,0.6809 h 1.00507 a 1.5552069,1.5549642 0 0 0 0.83894,-0.6809 l 7.38842,-12.5378 7.40237,12.5388 a 1.5552069,1.5549642 0 0 0 0.83482,0.6799 h 1.03242 a 1.5552069,1.5549642 0 0 0 0.83841,-0.6799 l 7.40184,-12.5398 7.40237,12.5398 a 1.5552069,1.5549642 0 0 0 0.83481,0.6799 h 1.00868 a 1.5552069,1.5549642 0 0 0 0.83894,-0.6809 l 7.40805,-12.5708 7.40751,12.5708 a 1.5552069,1.5549642 0 0 0 0.83583,0.6809 h 1.00508 a 1.5552069,1.5549642 0 0 0 0.83844,-0.6799 l 7.40234,-12.5403 7.4034,12.5403 a 1.5552069,1.5549642 0 0 0 0.83429,0.6799 h 1.03295 a 1.5552069,1.5549642 0 0 0 0.83841,-0.6799 l 7.40236,-12.5382 7.38793,12.5372 a 1.5552069,1.5549642 0 0 0 0.83584,0.6809 h 1.00508 a 1.5552069,1.5549642 0 0 0 0.83892,-0.6809 l 7.38844,-12.5372 7.40081,12.5382 a 1.5552069,1.5549642 0 0 0 0.8343,0.6799 h 1.03397 a 1.5552069,1.5549642 0 0 0 0.83895,-0.6809 l 0.26416,-0.4483 7.13096,-12.1008 7.40908,12.5501 a 1.5552069,1.5549642 0 0 0 0.8348,0.6799 h 1.01797 a 1.5552069,1.5549642 0 0 0 0.83844,-0.6799 l 7.40907,-12.5501 7.39513,12.5491 a 1.5552069,1.5549642 0 0 0 0.83585,0.6809 h 1.03242 a 1.5552069,1.5549642 0 0 0 0.83788,-0.6799 l 7.40237,-12.5382 7.38845,12.5367 a 1.5552069,1.5549642 0 0 0 0.83738,0.6814 h 1.00198 a 1.5552069,1.5549642 0 0 0 0.84048,-0.6814 l 7.38841,-12.5367 7.40238,12.5382 a 1.5552069,1.5549642 0 0 0 0.83429,0.6799 h 1.03295 a 1.5552069,1.5549642 0 0 0 0.83841,-0.6799 l 7.40237,-12.5408 7.40339,12.5408 a 1.5552069,1.5549642 0 0 0 0.8343,0.6799 h 1.0066 a 1.5552069,1.5549642 0 0 0 0.83844,-0.6809 l 7.40803,-12.5708 7.40754,12.5708 a 1.5552069,1.5549642 0 0 0 0.83583,0.6809 h 1.00507 a 1.5552069,1.5549642 0 0 0 0.83841,-0.6799 l 7.40238,-12.5403 7.40339,12.5403 a 1.5552069,1.5549642 0 0 0 0.83429,0.6799 h 1.03346 a 1.5552069,1.5549642 0 0 0 0.83791,-0.6799 l 7.40236,-12.5388 7.38842,12.5378 a 1.5552069,1.5549642 0 0 0 0.83585,0.6809 h 1.00508 a 1.5552069,1.5549642 0 0 0 0.83895,-0.6809 l 7.38791,-12.5372 7.4008,12.5382 a 1.5552069,1.5549642 0 0 0 0.8348,0.6799 h 1.03397 a 1.5552069,1.5549642 0 0 0 0.83689,-0.6789 l 0.87505,-1.48 a 1.5552069,1.5549642 0 0 0 10e-4,0 l 6.5211,-11.0685 7.40908,12.5496 a 1.5552069,1.5549642 0 0 0 0.82758,0.6778 h 1.03088 a 1.5552069,1.5549642 0 0 0 0.83274,-0.6778 l 7.40855,-12.5491 7.39463,12.548 a 1.5552069,1.5549642 0 0 0 0.82861,0.6789 h 1.04687 a 1.5552069,1.5549642 0 0 0 0.83276,-0.6778 l 7.4008,-12.5383 7.38842,12.5372 a 1.5552069,1.5549642 0 0 0 0.82864,0.6789 h 1.01848 a 1.5552069,1.5549642 0 0 0 0.83276,-0.6789 l 7.38738,-12.5372 7.40081,12.5383 a 1.5552069,1.5549642 0 0 0 0.82758,0.6778 h 1.04637 a 1.5552069,1.5549642 0 0 0 0.83274,-0.6778 l 7.40186,-12.5398 7.40184,12.5398 a 1.5552069,1.5549642 0 0 0 0.82758,0.6778 h 1.04584 a 1.5552069,1.5549642 0 0 0 0.83224,-0.6778 l 7.40236,-12.5388 7.38895,12.5377 a 1.5552069,1.5549642 0 0 0 0.82861,0.6789 h 1.01849 a 1.5552069,1.5549642 0 0 0 0.83274,-0.6789 l 7.38792,-12.5377 7.40287,12.5388 a 1.5552069,1.5549642 0 0 0 0.82758,0.6778 h 1.04481 a 1.5552069,1.5549642 0 0 0 0.83276,-0.6778 l 7.40183,-12.5398 7.40237,12.5398 a 1.5552069,1.5549642 0 0 0 0.82811,0.6778 h 1.02365 a 1.5552069,1.5549642 0 0 0 0.83324,-0.6789 l 7.40754,-12.5713 7.40803,12.5713 a 1.5552069,1.5549642 0 0 0 0.82863,0.6789 h 1.01848 a 1.5552069,1.5549642 0 0 0 0.83223,-0.6778 l 7.40236,-12.5403 7.4039,12.5403 a 1.5552069,1.5549642 0 0 0 0.82759,0.6778 h 1.04533 a 1.5552069,1.5549642 0 0 0 0.83273,-0.6778 l 7.40237,-12.5383 7.38845,12.5372 a 1.5552069,1.5549642 0 0 0 0.82861,0.6789 h 1.01847 a 1.5552069,1.5549642 0 0 0 0.83276,-0.6789 l 7.38792,-12.5372 7.40081,12.5383 a 1.5552069,1.5549642 0 0 0 0.82758,0.6778 h 1.04584 a 1.5552069,1.5549642 0 0 0 0.83223,-0.6773 l 0.87453,-1.4801 a 1.5552069,1.5549642 0 0 0 5.3e-4,0 l 6.5211,-11.0674 7.40858,12.5485 a 1.5552069,1.5549642 0 0 0 0.82346,0.6763 h 1.0262 a 1.5552069,1.5549642 0 0 0 0.82915,-0.6773 l 7.40908,-12.5719 7.40801,12.5703 a 1.5552069,1.5549642 0 0 0 0.82915,0.6789 h 1.01644 a 1.5552069,1.5549642 0 0 0 0.83376,-0.6789 l 7.41526,-12.5609 7.40236,12.5614 a 1.5552069,1.5549642 0 0 0 0.82709,0.6784 h 1.02158 a 1.5552069,1.5549642 0 0 0 0.83118,-0.6784 l 7.40187,-12.5598 7.40133,12.5598 a 1.5552069,1.5549642 0 0 0 0.82706,0.6784 h 1.02158 a 1.5552069,1.5549642 0 0 0 0.8312,-0.6784 l 7.40237,-12.5619 7.41679,12.5619 a 1.5552069,1.5549642 0 0 0 0.82967,0.6784 h 1.01488 a 1.5552069,1.5549642 0 0 0 0.83377,-0.6784 l 7.41525,-12.563 7.39722,12.5527 a 1.5552069,1.5549642 0 0 0 0.86163,0.6887 h 0.95555 a 1.5552069,1.5549642 0 0 0 0.86266,-0.6887 l 7.40184,-12.5599 7.40805,12.5702 a 1.5552069,1.5549642 0 0 0 0.82759,0.6784 h 1.01952 a 1.5552069,1.5549642 0 0 0 0.83223,-0.6784 l 7.40236,-12.5408 7.4034,12.5408 a 1.5552069,1.5549642 0 0 0 0.82965,0.6784 h 1.04169 a 1.5552069,1.5549642 0 0 0 0.8343,-0.6784 l 7.40236,-12.5382 7.38791,12.5372 a 1.5552069,1.5549642 0 0 0 0.83017,0.6794 h 1.01542 a 1.5552069,1.5549642 0 0 0 0.83428,-0.6794 l 7.38843,-12.5372 7.4008,12.5382 a 1.5552069,1.5549642 0 0 0 0.82915,0.6784 h 1.04377 a 1.5552069,1.5549642 0 0 0 0.83326,-0.6778 l 0.87403,-1.4801 a 1.5552069,1.5549642 0 0 0 10e-4,0 l 6.52163,-11.068 7.40802,12.5491 a 1.5552069,1.5549642 0 0 0 0.82399,0.6768 h 1.0381 a 1.5552069,1.5549642 0 0 0 0.83017,-0.6768 l 7.40905,-12.5501 7.39515,12.5491 a 1.5552069,1.5549642 0 0 0 0.82501,0.6778 h 1.05304 a 1.5552069,1.5549642 0 0 0 0.83017,-0.6768 l 7.40082,-12.5383 7.38791,12.5373 a 1.5552069,1.5549642 0 0 0 0.82502,0.6778 h 1.02518 a 1.5552069,1.5549642 0 0 0 0.82967,-0.6778 l 7.38842,-12.5388 7.40133,12.5398 a 1.5552069,1.5549642 0 0 0 0.82397,0.6768 h 1.05255 a 1.5552069,1.5549642 0 0 0 0.83017,-0.6768 l 7.40236,-12.5413 7.40237,12.5413 a 1.5552069,1.5549642 0 0 0 0.8245,0.6768 h 1.05148 a 1.5552069,1.5549642 0 0 0 0.82966,-0.6768 l 7.40286,-12.5383 7.3885,12.5373 a 1.5552069,1.5549642 0 0 0 0.825,0.6778 h 1.0252 a 1.5552069,1.5549642 0 0 0 0.8297,-0.6778 l 7.3884,-12.5378 7.4029,12.5388 a 1.5552069,1.5549642 0 0 0 0.8244,0.6768 h 1.0511 a 1.5552069,1.5549642 0 0 0 0.8301,-0.6768 l 7.4013,-12.5398 7.403,12.5398 a 1.5552069,1.5549642 0 0 0 0.8239,0.6768 h 1.0262 a 1.5552069,1.5549642 0 0 0 0.8291,-0.6778 l 7.4076,-12.5708 7.408,12.5708 a 1.5552069,1.5549642 0 0 0 0.825,0.6778 h 1.0252 a 1.5552069,1.5549642 0 0 0 0.8291,-0.6768 l 7.4025,-12.5403 7.4033,12.5403 a 1.5552069,1.5549642 0 0 0 0.824,0.6768 h 1.0515 a 1.5552069,1.5549642 0 0 0 0.8302,-0.6768 l 7.4018,-12.5383 7.3884,12.5373 a 1.5552069,1.5549642 0 0 0 0.8251,0.6778 h 1.0252 a 1.5552069,1.5549642 0 0 0 0.8296,-0.6778 l 7.3884,-12.5373 7.4009,12.5383 a 1.5552069,1.5549642 0 0 0 0.8244,0.6768 h 1.0531 a 1.5552069,1.5549642 0 0 0 0.8286,-0.6758 l 0.2647,-0.4477 7.1346,-12.1075 7.4126,12.5563 a 1.5552069,1.5549642 0 0 0 0.8188,0.6747 h 1.0469 a 1.5552069,1.5549642 0 0 0 0.8245,-0.6747 l 7.4127,-12.5558 7.3988,12.5547 a 1.5552069,1.5549642 0 0 0 0.8198,0.6758 h 1.0618 a 1.5552069,1.5549642 0 0 0 0.824,-0.6747 l 7.4034,-12.5388 7.3875,12.5377 a 1.5552069,1.5549642 0 0 0 0.8198,0.6758 h 1.0365 a 1.5552069,1.5549642 0 0 0 0.8234,-0.6758 l 7.389,-12.5372 7.4024,12.5383 a 1.5552069,1.5549642 0 0 0 0.8188,0.6747 h 1.0623 a 1.5552069,1.5549642 0 0 0 0.8245,-0.6747 l 7.4029,-12.5409 7.4039,12.5409 a 1.5552069,1.5549642 0 0 0 0.8188,0.6747 h 1.0381 a 1.5552069,1.5549642 0 0 0 0.8219,-0.6747 l 7.408,-12.5709 7.4081,12.5709 a 1.5552069,1.5549642 0 0 0 0.8178,0.6747 h 1.0406 a 1.5552069,1.5549642 0 0 0 0.821,-0.6747 l 7.4018,-12.5404 7.4034,12.5404 a 1.5552069,1.5549642 0 0 0 0.8188,0.6747 h 1.0623 a 1.5552069,1.5549642 0 0 0 0.8245,-0.6747 l 7.4024,-12.5383 7.3879,12.5372 a 1.5552069,1.5549642 0 0 0 0.8198,0.6758 h 1.0366 a 1.5552069,1.5549642 0 0 0 0.8234,-0.6758 l 7.388,-12.5372 7.4008,12.5383 a 1.5552069,1.5549642 0 0 0 0.8193,0.6747 h 1.0619 a 1.5552069,1.5549642 0 0 0 0.8234,-0.6732 l 0.1946,-0.3286 7.2046,-12.2261 7.4128,12.5557 a 1.5552069,1.5549642 0 0 0 0.8126,0.6722 h 1.0587 a 1.5552069,1.5549642 0 0 0 0.8172,-0.6722 l 7.4154,-12.5609 7.4013,12.5599 a 1.5552069,1.5549642 0 0 0 0.8131,0.6732 h 1.0639 a 1.5552069,1.5549642 0 0 0 0.8173,-0.6722 l 7.4085,-12.549 7.3879,12.5372 a 1.5552069,1.5549642 0 0 0 0.8462,0.684 h 0.985 a 1.5552069,1.5549642 0 0 0 0.8487,-0.684 l 7.3879,-12.5367 7.4065,12.5485 a 1.5552069,1.5549642 0 0 0 0.8126,0.6722 h 1.067 a 1.5552069,1.5549642 0 0 0 0.8173,-0.6722 l 7.4065,-12.5496 7.4019,12.5404 a 1.5552069,1.5549642 0 0 0 0.8378,0.6814 h 0.9994 a 1.5552069,1.5549642 0 0 0 0.8425,-0.6825 l 7.4081,-12.5713 7.4085,12.5708 a 1.5552069,1.5549642 0 0 0 0.8426,0.683 h 0.9916 a 1.5552069,1.5549642 0 0 0 0.8457,-0.683 l 6.9896,-11.8429 a 1.5552069,1.5549642 0 0 0 5e-4,0 l 0.4051,-0.6866 7.4023,12.5403 a 1.5552069,1.5549642 0 0 0 0.8131,0.6722 h 1.0748 a 1.5552069,1.5549642 0 0 0 0.8173,-0.6722 l 7.4028,-12.5403 0.2905,0.4932 a 1.5552069,1.5549642 0 0 0 6e-4,0 l 7.1051,12.0363 a 1.5552069,1.5549642 0 0 0 0.8431,0.683 h 0.9896 a 1.5552069,1.5549642 0 0 0 0.8467,-0.683 l 7.4126,-12.5785 7.408,12.5708 a 1.5552069,1.5549642 0 0 0 0.871,0.6907 h 0.9359 a 1.5552069,1.5549642 0 0 0 0.872,-0.6907 l 0.8637,-1.4621 a 1.5552069,1.5549642 0 0 0 10e-4,0 l 6.5325,-11.0865 7.4183,12.5661 a 1.5552069,1.5549642 0 0 0 0.8152,0.6732 h 1.0464 a 1.5552069,1.5549642 0 0 0 0.8173,-0.6732 l 7.4157,-12.5614 7.4029,12.5614 a 1.5552069,1.5549642 0 0 0 0.8132,0.6732 h 1.0514 a 1.5552069,1.5549642 0 0 0 0.8153,-0.6732 l 7.4039,-12.563 7.4034,12.563 a 1.5552069,1.5549642 0 0 0 0.8131,0.6732 h 1.0489 a 1.5552069,1.5549642 0 0 0 0.8178,-0.6732 l 7.4024,-12.5619 7.4157,12.5619 a 1.5552069,1.5549642 0 0 0 0.8152,0.6732 h 1.0464 a 1.5552069,1.5549642 0 0 0 0.8173,-0.6732 l 7.4173,-12.5676 7.4065,12.5676 a 1.5552069,1.5549642 0 0 0 0.8131,0.6732 h 1.0587 a 1.5552069,1.5549642 0 0 0 0.8174,-0.6722 l 7.4121,-12.5552 7.388,12.5372 a 1.5552069,1.5549642 0 0 0 0.8667,0.6902 h 0.9453 a 1.5552069,1.5549642 0 0 0 0.8677,-0.6902 l 7.3885,-12.5377 7.4127,12.5557 a 1.5552069,1.5549642 0 0 0 0.8127,0.6722 h 1.0581 a 1.5552069,1.5549642 0 0 0 0.8173,-0.6722 l 7.4127,-12.5583 7.4029,12.5398 a 1.5552069,1.5549642 0 0 0 0.8709,0.6907 h 0.936 a 1.5552069,1.5549642 0 0 0 0.8719,-0.6907 l 7.4028,-12.5791 7.4081,12.5708 a 1.5552069,1.5549642 0 0 0 0.8978,0.699 h 0.8848 a 1.5552069,1.5549642 0 0 0 0.8968,-0.699 l 7.3899,-12.5197 7.4034,12.5403 a 1.5552069,1.5549642 0 0 0 0.8292,0.6784 h 1.0421 a 1.5552069,1.5549642 0 0 0 0.8343,-0.6784 l 7.4025,-12.5382 7.3884,12.5372 a 1.5552069,1.5549642 0 0 0 0.8302,0.6794 h 1.0154 a 1.5552069,1.5549642 0 0 0 0.8342,-0.6794 l 7.3879,-12.5372 7.4009,12.5382 a 1.5552069,1.5549642 0 0 0 0.8291,0.6784 h 1.0432 a 1.5552069,1.5549642 0 0 0 0.8338,-0.6784 l 0.2647,-0.4482 7.1346,-12.1065 7.4127,12.5558 a 1.5552069,1.5549642 0 0 0 0.8255,0.6773 h 1.034 a 1.5552069,1.5549642 0 0 0 0.8317,-0.6773 l 7.4127,-12.5558 7.3988,12.5547 a 1.5552069,1.5549642 0 0 0 0.827,0.6784 h 1.0474 a 1.5552069,1.5549642 0 0 0 0.8317,-0.6773 l 7.4024,-12.5378 7.3878,12.5362 a 1.5552069,1.5549642 0 0 0 0.8287,0.6789 h 1.0185 a 1.5552069,1.5549642 0 0 0 0.8327,-0.6789 l 7.3885,-12.5367 7.4028,12.5383 a 1.5552069,1.5549642 0 0 0 0.8255,0.6773 h 1.048 a 1.5552069,1.5549642 0 0 0 0.8317,-0.6773 l 7.4023,-12.5408 7.4034,12.5408 a 1.5552069,1.5549642 0 0 0 0.8256,0.6773 h 1.0231 a 1.5552069,1.5549642 0 0 0 0.8307,-0.6784 l 7.408,-12.5718 7.4081,12.5718 a 1.5552069,1.5549642 0 0 0 0.827,0.6784 h 1.0216 a 1.5552069,1.5549642 0 0 0 0.8306,-0.6773 l 7.4019,-12.5403 7.4034,12.5403 a 1.5552069,1.5549642 0 0 0 0.8255,0.6773 h 1.0485 a 1.5552069,1.5549642 0 0 0 0.8317,-0.6773 l 7.4023,-12.5383 7.3879,12.5372 a 1.5552069,1.5549642 0 0 0 0.8271,0.6784 h 1.0216 a 1.5552069,1.5549642 0 0 0 0.8312,-0.6784 l 7.3885,-12.5372 7.4007,12.5383 a 1.5552069,1.5549642 0 0 0 0.8255,0.6773 h 1.0485 a 1.5552069,1.5549642 0 0 0 0.8307,-0.6763 l 0.875,-1.4801 6.5247,-11.0746 7.4123,12.5557 a 1.5552069,1.5549642 0 0 0 0.8203,0.6753 h 1.0453 a 1.5552069,1.5549642 0 0 0 0.826,-0.6753 l 7.4123,-12.5552 7.3981,12.5542 a 1.5552069,1.5549642 0 0 0 0.8209,0.6763 h 1.0613 a 1.5552069,1.5549642 0 0 0 0.826,-0.6753 l 7.4009,-12.5382 7.3884,12.5372 a 1.5552069,1.5549642 0 0 0 0.8209,0.6763 h 1.034 a 1.5552069,1.5549642 0 0 0 0.825,-0.6763 l 7.3873,-12.5372 7.4009,12.5382 a 1.5552069,1.5549642 0 0 0 0.8203,0.6753 h 1.0603 a 1.5552069,1.5549642 0 0 0 0.826,-0.6753 l 7.4019,-12.5398 7.4018,12.5398 a 1.5552069,1.5549642 0 0 0 0.8204,0.6753 h 1.0593 a 1.5552069,1.5549642 0 0 0 0.826,-0.6753 l 7.4023,-12.5382 7.3885,12.5372 a 1.5552069,1.5549642 0 0 0 0.8209,0.6763 h 1.034 a 1.5552069,1.5549642 0 0 0 0.825,-0.6763 l 7.3879,-12.5377 7.4028,12.5387 a 1.5552069,1.5549642 0 0 0 0.8204,0.6753 h 1.0588 a 1.5552069,1.5549642 0 0 0 0.826,-0.6753 l 7.4018,-12.5398 7.4024,12.5398 a 1.5552069,1.5549642 0 0 0 0.8204,0.6753 h 1.0427 a 1.5552069,1.5549642 0 0 0 0.8265,-0.6763 l 7.4076,-12.5708 7.408,12.5708 a 1.5552069,1.5549642 0 0 0 0.8209,0.6763 h 1.034 a 1.5552069,1.5549642 0 0 0 0.8244,-0.6753 l 7.4024,-12.5403 7.4034,12.5403 a 1.5552069,1.5549642 0 0 0 0.8204,0.6753 h 1.0592 a 1.5552069,1.5549642 0 0 0 0.826,-0.6753 l 7.4024,-12.5382 7.3885,12.5372 a 1.5552069,1.5549642 0 0 0 0.8209,0.6763 h 1.0338 a 1.5552069,1.5549642 0 0 0 0.8251,-0.6763 l 7.3884,-12.5372 7.4009,12.5382 a 1.5552069,1.5549642 0 0 0 0.8203,0.6753 h 1.0592 a 1.5552069,1.5549642 0 0 0 0.8256,-0.6753 l 0.874,-1.48 6.5253,-11.0747 7.4126,12.5558 a 1.5552069,1.5549642 0 0 0 0.8178,0.6742 h 1.051 a 1.5552069,1.5549642 0 0 0 0.8225,-0.6742 l 7.4121,-12.5553 7.3988,12.5542 a 1.5552069,1.5549642 0 0 0 0.8183,0.6753 h 1.0664 a 1.5552069,1.5549642 0 0 0 0.823,-0.6742 l 7.4013,-12.5383 7.3879,12.5372 a 1.5552069,1.5549642 0 0 0 0.8183,0.6753 h 1.0396 a 1.5552069,1.5549642 0 0 0 0.8219,-0.6753 l 7.3885,-12.5372 7.4023,12.5383 a 1.5552069,1.5549642 0 0 0 0.8179,0.6742 h 1.0659 a 1.5552069,1.5549642 0 0 0 0.8229,-0.6742 l 7.4019,-12.5403 7.4034,12.5403 a 1.5552069,1.5549642 0 0 0 0.8178,0.6742 h 1.0659 a 1.5552069,1.5549642 0 0 0 0.823,-0.6742 l 7.4023,-12.5383 7.1728,12.172 v 1.0405 h 1.5566 v -1.4202 -0.051 l -8.7268,-14.8091 -8.7428,14.8091 h -0.028 l -8.7429,-14.8091 -8.7412,14.8091 h -0.028 l -8.7428,-14.8091 -8.7273,14.8091 -8.7268,-14.8091 -8.7418,14.8091 h -0.028 l -8.7274,-14.8091 -0.01,0.012 -0.01,-0.012 -8.7428,14.8091 h -0.013 l -8.7428,-14.8091 -0.01,0.011 -0.01,-0.011 -7.8539,13.3291 -0.874,1.48 h -0.027 l -8.7413,-14.8091 -8.7273,14.8091 -8.7273,-14.8091 -8.7429,14.8091 h -0.027 l -8.7428,-14.8091 -8.7417,14.8091 -8.7269,-14.8091 -0.022,0.035 -0.02,-0.035 -8.7269,14.8091 h -0.01 l -8.7417,-14.8091 -8.7412,14.8091 h -0.027 l -8.7433,-14.8091 -8.7263,14.8091 -8.7274,-14.8091 -8.7428,14.8091 h -0.027 l -8.7413,-14.8091 -8.7413,14.8091 h -0.028 l -8.7413,-14.8091 -8.7262,14.8091 -8.7274,-14.8091 -8.7412,14.8091 h -0.029 l -8.7269,-14.8091 -0.01,0.012 -0.01,-0.012 -8.7429,14.8091 h -0.013 l -8.7428,-14.8091 -0.01,0.011 -0.01,-0.011 -7.8528,13.3291 -0.875,1.48 h -0.027 l -8.7412,-14.8091 -8.7273,14.8091 -8.7269,-14.8091 -8.7427,14.8091 h -0.027 l -8.7428,-14.8091 -8.7413,14.8091 -8.7262,-14.8091 -5e-4,5e-4 -0.022,0.034 -0.02,-0.035 -8.7268,14.8091 -8.7428,-14.8091 h -5e-4 l -8.7412,14.8091 h -0.027 l -8.7433,-14.8086 -8.7268,14.8081 -8.7268,-14.8081 -8.7428,14.8086 h -0.027 l -8.7274,-14.8091 -0.01,0.012 -0.01,-0.012 -5e-4,5e-4 -8.7428,14.8086 h -0.012 l -8.7428,-14.8091 -0.01,0.011 -0.01,-0.011 -5e-4,5e-4 -8.4632,14.3603 -0.2647,0.4483 h -0.028 l -8.7413,-14.8091 -8.7268,14.8091 -8.7273,-14.8091 -8.7429,14.8091 h -0.027 l -8.7428,-14.8091 -8.7293,14.7885 -8.715,-14.789 -0.012,0.021 -0.012,-0.02 -0.022,0.035 -0.02,-0.035 -8.7154,14.79 -8.7319,-14.7905 -0.011,0.018 -0.01,-0.017 -8.7408,14.8086 h -0.01 l -8.7429,-14.8091 -0.01,0.017 -0.01,-0.017 -8.7164,14.7916 -8.7165,-14.7921 -0.01,0.017 -0.01,-0.017 -8.7422,14.8086 h -0.01 l -8.7268,-14.8091 -0.01,0.012 -0.01,-0.012 -0.01,0.013 -0.01,-0.012 h -10e-4 l -0.8859,1.5012 0.034,0.057 h -0.039 l -0.014,-0.025 -7.8348,13.2739 -8.7422,-14.8081 -0.01,0.011 -0.01,-0.011 v 0.01 -0.01 h -5e-4 -5e-4 l -0.8875,1.5058 0.029,0.049 h -0.033 l -0.012,-0.021 -7.8223,13.2749 h -10e-4 l -8.7268,-14.8086 -0.017,0.028 -0.016,-0.028 -8.7273,14.8091 -8.7273,-14.8091 v 0.01 -0.01 l -0.01,0.012 -0.01,-0.012 -8.7417,14.8076 -8.7418,-14.8081 -0.01,0.012 -0.01,-0.012 -0.01,0.011 -0.01,-0.011 -7.8538,13.3291 -0.8638,1.462 -8.7165,-14.7916 -0.022,0.035 -0.02,-0.035 -0.011,0.018 -0.01,-0.017 -8.7211,14.7988 -7.1053,-12.0363 -1.6278,-2.7625 v 0 0 l -8.7417,14.8091 h -0.026 l -8.7417,-14.8086 v 0 0 l -1.7424,2.9565 -6.9901,11.8428 -8.7217,-14.7993 -0.01,0.01 -0.01,-0.01 -0.022,0.035 -0.02,-0.035 -8.7215,14.7993 -8.7357,-14.7998 h -5e-4 l -0.01,0.01 -0.01,-0.01 -8.7406,14.8086 h -0.018 l -8.7407,-14.8091 -0.01,0.011 -0.01,-0.011 -8.7201,14.7978 -8.7207,-14.7983 -0.01,0.011 -0.01,-0.011 -8.7424,14.8086 h -0.015 l -8.7268,-14.8091 -0.01,0.012 -0.01,-0.012 v 0.01 -0.01 l -8.7417,14.8086 h -0.01 l -8.7429,-14.8091 -0.01,0.011 -0.01,-0.011 -8.5334,14.4806 -0.1945,0.3285 h -0.027 l -8.7413,-14.8091 -8.7269,14.8091 -8.7267,-14.8091 -8.7429,14.8091 h -0.027 l -8.7429,-14.8091 -8.7412,14.8091 -7.8337,-13.2925 -0.026,0.043 h -0.02 l 0.036,-0.061 -0.8828,-1.4976 v -5e-4 h -5e-4 l -0.022,0.035 -0.02,-0.035 -8.7269,14.8091 -8.7427,-14.8091 h -6e-4 l -8.7418,14.8091 h -0.027 l -8.7429,-14.8086 -8.7273,14.8086 -8.7263,-14.8091 -5e-4,5e-4 -8.7428,14.8086 h -0.027 l -8.7273,-14.8091 -0.01,0.012 -0.01,-0.012 v -5e-4 h -5e-4 l -8.7428,14.8091 h -0.012 l -8.7428,-14.8091 -0.01,0.011 -0.01,-0.011 v -5e-4 h -5e-4 l -8.4626,14.3613 -0.2646,0.4478 h -0.028 l -8.7413,-14.8091 -8.7273,14.8091 -8.7274,-14.8091 -8.7422,14.8091 h -0.027 l -8.7427,-14.8091 -8.7419,14.8091 -8.7267,-14.8091 -0.022,0.035 -0.02,-0.035 -8.7267,14.8091 -8.7424,-14.8091 -8.7407,14.8091 h -0.027 l -8.7433,-14.8091 -8.7268,14.8091 -8.7273,-14.8091 -8.74292,14.8091 h -0.0273 l -8.74125,-14.8091 h -5.3e-4 -5.1e-4 l -8.74126,14.8091 h -0.0279 l -8.74074,-14.8091 h -5.3e-4 -10e-4 l -8.7268,14.8091 -8.72682,-14.8091 -8.74124,14.8091 h -0.029 l -8.72681,-14.8091 -0.007,0.012 -0.007,-0.012 -8.7428,14.8091 h -0.01 l -8.74228,-14.8091 -0.006,0.011 -0.007,-0.011 -7.8538,13.3291 -0.87455,1.48 h -0.0274 l -8.74125,-14.8091 -8.72732,14.8091 -8.72683,-14.8091 -8.7428,14.8091 h -0.0274 l -8.74281,-14.8091 -8.74126,14.8091 -8.72733,-14.8091 -0.0217,0.035 -0.0196,-0.035 -8.72114,14.7988 -8.72062,-14.7988 -0.0155,0.026 -0.015,-0.026 -8.74072,14.8081 -8.7423,-14.8081 -0.0145,0.024 -0.0145,-0.024 -8.7268,14.8091 -8.72683,-14.8091 -0.0145,0.024 -0.0145,-0.024 -8.72733,14.8091 -8.7268,-14.8091 -0.0145,0.024 -0.0139,-0.024 -8.74178,14.8075 -8.72682,-14.8075 -0.006,0.012 -0.008,-0.012 -0.0145,0.024 -0.0145,-0.024 -8.72731,14.8091 -8.74282,-14.8091 -0.006,0.011 -0.006,-0.011 -7.85382,13.3291 -0.87455,1.48 h -0.0274 l -8.74073,-14.8091 -8.72733,14.8091 -8.72733,-14.8091 -8.7428,14.8091 h -0.0269 l -8.74282,-14.8091 -8.74177,14.8091 -8.7268,-14.8091 -0.0217,0.035 -0.0207,-0.035 -8.72629,14.8091 h -0.006 l -8.74178,-14.8091 -8.74124,14.8091 h -0.0269 l -8.74333,-14.8091 -8.72629,14.8091 -8.72733,-14.8091 -8.7428,14.8091 h -0.0274 l -8.74124,-14.8091 -8.74127,14.8091 h -0.0279 l -8.74128,-14.8091 -8.72629,14.8091 -8.72732,-14.8091 -8.74125,14.8091 h -0.0288 l -8.72682,-14.8091 -0.007,0.012 -0.006,-0.012 -8.7428,14.8091 h -0.0129 l -8.7428,-14.8091 -0.006,0.011 -0.007,-0.011 -7.8533,13.3291 -0.87506,1.48 h -0.0273 l -8.74125,-14.8091 -8.72683,14.8091 -8.72681,-14.8091 -8.74282,14.8091 h -0.0274 l -8.7428,-14.8091 -8.74178,14.8091 -7.8337,-13.2935 -0.0263,0.043 h -0.0196 l 0.0356,-0.06 -0.88229,-1.4976 v -5e-4 h -5e-4 l -0.0217,0.035 -0.0201,-0.035 -8.72682,14.8091 -8.7428,-14.8091 h -5.1e-4 l -8.74126,14.8091 h -0.0274 l -8.7428,-14.8086 -8.72682,14.8081 -8.7268,-14.8081 -8.7428,14.8086 h -0.0274 l -8.72682,-14.8091 -0.006,0.012 -0.007,-0.011 v -5e-4 h -5.1e-4 l -8.74281,14.8091 h -0.0124 l -8.7428,-14.8091 -0.006,0.011 -0.007,-0.01 v -5e-4 h -5.3e-4 l -8.46315,14.3608 -0.26417,0.4483 h -0.0279 l -8.74125,-14.8091 -8.72732,14.8091 -8.72682,-14.8091 -8.74281,14.8091 h -0.0269 l -8.7428,-14.8091 -8.74175,14.8091 -8.72682,-14.8091 -0.0217,0.035 -0.0202,-0.035 -8.72681,14.8091 h -0.003 l -8.74177,-14.8091 -8.74125,14.8091 h -0.0274 l -8.7428,-14.8091 -8.72683,14.8091 -8.72732,-14.8091 -8.7428,14.8091 h -0.0274 l -8.74126,-14.8091 h -5.2e-4 -9.9e-4 l -8.74075,14.8091 h -0.0279 l -8.74125,-14.8091 h -0.001 l -8.72681,14.8091 -8.72732,-14.8091 -8.74075,14.8091 h -0.0293 l -8.72681,-14.8091 -0.007,0.012 -0.007,-0.012 -8.74228,14.8091 h -0.0134 l -8.74229,-14.8091 -0.006,0.011 -0.007,-0.011 -7.85382,13.3291 -0.87455,1.48 h -0.0279 l -8.74075,-14.8091 -8.72733,14.8091 -8.7268,-14.8091 -8.74281,14.8091 h -0.0273 l -8.74282,-14.8091 -8.74125,14.8091 -8.72733,-14.8091 -0.02166,0.035 -0.01961,-0.035 -8.727326,14.8091 h -0.0036 l -8.741258,-14.8091 -8.740741,14.8091 h -0.02787 l -8.742804,-14.8091 -8.726809,14.8091 -8.726811,-14.8091 -8.742805,14.8091 h -0.02735 l -8.741256,-14.8091 -8.742806,14.8091 h -0.02735 z M 0,272.64799 v 1.33974 0.0526 l 8.7273264,14.8091 8.7412566,-14.8091 h 0.02735 l 8.742806,14.8091 8.741256,-14.8091 h 0.02735 l 8.742805,14.8091 8.726811,-14.8091 8.726809,14.8091 8.742804,-14.8091 h 0.02787 l 8.740741,14.8091 8.741258,-14.8091 h 0.0036 l 8.727326,14.8091 0.01961,-0.0345 0.02167,0.0345 8.727331,-14.8091 8.74126,14.8091 8.74281,-14.8091 h 0.0274 l 8.7428,14.8091 8.72681,-14.8091 8.72732,14.8091 8.74075,-14.8091 h 0.0279 l 0.87455,1.48003 7.85382,13.32907 0.007,-0.0103 0.006,0.0103 8.74229,-14.8091 h 0.0134 l 8.74228,14.8091 0.007,-0.0123 0.007,0.0123 8.7263,-14.8091 h 0.0293 l 8.74075,14.8091 8.72733,-14.8091 8.7268,14.8091 10e-4,-0.002 v 0.002 l 8.74126,-14.8091 h 0.0279 l 8.74075,14.8091 0.001,-0.002 5.2e-4,0.002 8.74125,-14.8091 h 0.0274 l 8.7428,14.8091 8.72733,-14.8091 8.72682,14.8091 8.74281,-14.8091 h 0.0274 l 8.74125,14.8091 8.74177,-14.8091 h 0.003 l 8.72681,14.8091 0.0202,-0.0345 0.0217,0.0345 8.72683,-14.8091 8.74174,14.8091 8.7428,-14.8091 h 0.0269 l 8.74281,14.8091 8.72682,-14.8091 8.72733,14.8091 8.74124,-14.8091 h 0.0279 l 0.26417,0.44827 8.46315,14.36083 5.3e-4,-5e-4 0.007,-0.01 0.006,0.0103 8.74281,-14.8091 h 0.0124 l 8.7428,14.8091 5.1e-4,-5e-4 0.007,-0.0118 0.006,0.0123 8.72681,-14.8091 h 0.0274 l 8.7428,14.8086 8.7268,-14.8081 8.72682,14.8081 8.7428,-14.8086 h 0.0274 l 8.74126,14.8091 h 5.1e-4 l 8.7428,-14.8091 8.72682,14.8091 0.0201,-0.0345 0.0217,0.0345 5e-4,-5e-4 8.72629,-14.8086 8.74178,14.8091 8.7428,-14.8091 h 0.0274 l 8.74281,14.8091 8.72682,-14.8091 8.72682,14.8091 8.74125,-14.8091 h 0.0274 l 0.87505,1.48003 7.8533,13.32907 0.007,-0.0103 0.006,0.0103 8.7428,-14.8091 h 0.0129 l 8.7428,14.8091 0.006,-0.0123 0.007,0.0123 8.72682,-14.8091 h 0.0289 l 8.74124,14.8091 8.72732,-14.8091 8.7263,14.8091 8.74127,-14.8091 h 0.0279 l 8.74127,14.8091 8.74125,-14.8091 h 0.0273 l 8.74281,14.8091 8.72732,-14.8091 8.72629,14.8091 8.74333,-14.8091 h 0.0269 l 8.74124,14.8091 8.74178,-14.8091 h 0.006 l 8.72629,14.8091 0.0207,-0.0345 0.0217,0.0345 8.7268,-14.8091 8.74177,14.8091 8.74282,-14.8091 h 0.0269 l 8.7428,14.8091 8.72733,-14.8091 8.72733,14.8091 8.74073,-14.8091 h 0.0274 l 0.87455,1.48003 7.85383,13.32907 0.006,-0.0103 0.006,0.0103 8.74281,-14.8091 8.72732,14.80963 0.0145,-0.0247 0.0145,0.0242 0.008,-0.0123 0.006,0.0123 8.7263,-14.80757 8.7423,14.8081 0.0144,-0.0242 0.014,0.0237 8.7263,-14.8086 h 10e-4 l 8.7268,14.8086 0.0145,-0.0242 0.0145,0.0247 8.72683,-14.80913 8.7268,14.80913 0.0145,-0.0247 0.0145,0.0242 8.74231,-14.80807 8.74071,14.8086 0.0155,-0.0258 0.015,0.0252 8.72062,-14.79828 8.72114,14.79881 0.0196,-0.0345 0.0222,0.0345 8.7268,-14.80913 8.74126,14.80913 8.74282,-14.80913 h 0.0274 l 8.74281,14.80913 8.72682,-14.80913 8.72732,14.80913 8.74125,-14.80913 h 0.0274 l 0.87455,1.48003 7.85381,13.3291 0.007,-0.0103 0.006,0.0103 8.74227,-14.80913 h 0.0134 l 8.7428,14.80913 0.007,-0.0124 0.007,0.0124 8.72682,-14.80913 h 0.029 l 8.74124,14.80913 8.72682,-14.80913 8.7268,14.80913 10e-4,-0.002 5.3e-4,0.002 8.74074,-14.80913 h 0.0279 l 8.74126,14.80913 10e-4,-0.002 v 0.002 l 8.74125,-14.80913 h 0.0274 l 8.7428,14.80913 8.7274,-14.80913 8.7268,14.80913 8.7433,-14.80913 h 0.027 l 8.7407,14.80913 8.7423,-14.80913 8.7268,14.80913 0.02,-0.0345 0.022,0.0345 8.7268,-14.80913 8.7419,14.80913 8.7427,-14.80913 h 0.027 l 8.7422,14.80913 8.7274,-14.80913 8.7272,14.80913 8.7414,-14.80913 h 0.028 l 0.2647,0.44777 8.4626,14.36136 5e-4,-5.3e-4 0.01,-0.01 0.01,0.0103 8.7428,-14.80913 h 0.012 l 8.7427,14.80913 5e-4,-5.3e-4 0.01,-0.0118 0.01,0.0124 8.7273,-14.80913 h 0.027 l 8.7429,14.8086 v 5.3e-4 h 5e-4 l 8.7262,-14.8086 8.7274,14.80807 8.7428,-14.8086 h 0.027 l 8.7418,14.80913 h 6e-4 l 8.7427,-14.80913 8.7269,14.80913 0.02,-0.0345 0.022,0.0345 5e-4,-5.3e-4 8.7269,-14.8086 8.7412,14.80913 8.7428,-14.80913 h 0.027 l 8.7428,14.80913 8.7268,-14.80913 8.7269,14.80913 8.7412,-14.80913 h 0.027 l 0.1945,0.32862 8.5334,14.48051 0.01,-0.0103 0.01,0.0103 8.7429,-14.80913 h 0.01 l 8.7423,14.80913 v -0.006 0.006 l 0.01,-0.0124 0.01,0.0124 8.7267,-14.80913 h 0.014 l 8.7428,14.80913 0.01,-0.0108 0.01,0.0108 8.7207,-14.7983 8.7201,14.7983 0.01,-0.0108 0.01,0.0108 8.7408,-14.80913 h 0.017 l 8.7412,14.80913 0.01,-0.009 0.01,0.009 v -0.002 l 5e-4,0.002 8.7356,-14.79933 8.7216,14.79933 0.02,-0.0345 0.022,0.0345 0.01,-0.01 0.01,0.01 8.7217,-14.79881 7.1743,12.15445 1.5581,2.64436 v -0.002 0.002 l 8.7428,-14.80913 h 0.025 l 8.7418,14.80913 v -0.003 0.003 l 1.8053,-3.06376 6.9272,-11.73505 8.7217,14.79881 0.011,-0.018 0.01,0.018 0.02,-0.0345 0.022,0.0345 8.7165,-14.79107 0.8637,1.46197 7.8539,13.3291 0.01,-0.0103 0.01,0.0103 0.01,-0.0124 0.01,0.0124 8.7418,-14.80757 8.7417,14.80757 0.01,-0.0124 0.01,0.0124 v -0.008 0.008 l 8.7272,-14.80913 8.7274,14.80913 0.016,-0.0278 0.017,0.0278 8.7272,-14.80913 8.7269,14.80913 10e-4,-0.002 v 0.002 -0.007 0.007 l 0.01,-0.0103 0.01,0.0103 8.7417,-14.80757 8.7407,14.80757 10e-4,-0.002 v 0.002 l 0.01,-0.0129 0.01,0.0129 0.01,-0.0124 0.01,0.0124 8.7268,-14.80913 h 0.01 l 8.7428,14.80913 0.01,-0.0175 0.01,0.0175 8.7165,-14.79262 8.7165,14.79262 0.01,-0.0175 0.01,0.0175 8.7428,-14.80913 h 0.01 l 8.7413,14.80913 0.011,-0.018 0.01,0.018 8.7315,-14.79056 8.7159,14.79056 0.02,-0.0345 0.022,0.0345 0.012,-0.0206 0.012,0.0206 8.7149,-14.78848 8.7294,14.78848 8.7428,-14.80913 h 0.027 l 8.7429,14.80913 8.7272,-14.80913 8.7269,14.80913 8.7412,-14.80913 h 0.028 l 0.2647,0.4483 8.4632,14.36083 h 5e-4 l 0.01,-0.0103 0.01,0.0103 8.7429,-14.80913 h 0.012 l 8.7429,14.80913 h 5e-4 l 0.01,-0.0124 0.01,0.0124 8.7273,-14.80913 h 0.027 l 8.7427,14.8086 8.7269,-14.80807 8.7268,14.80807 8.7433,-14.8086 h 0.027 l 8.7412,14.80913 h 5e-4 l 8.7427,-14.80913 8.7269,14.80913 0.02,-0.0345 0.022,0.0345 h 5e-4 l 0.8798,-1.49345 -0.034,-0.0578 0.036,0.0552 7.8445,-13.31309 8.7413,14.80913 8.7428,-14.80913 h 0.027 l 8.7427,14.80913 8.7269,-14.80913 8.7272,14.80913 8.7413,-14.80913 h 0.027 l 0.8751,1.48003 7.8528,13.3291 0.01,-0.0103 0.01,0.0103 8.7428,-14.80913 h 0.013 l 8.7428,14.80913 0.01,-0.0124 0.01,0.0124 8.7269,-14.80913 h 0.029 l 8.7413,14.80913 8.7273,-14.80913 8.7263,14.80913 8.7412,-14.80913 h 0.028 l 8.7413,14.80913 8.7413,-14.80913 h 0.027 l 8.7428,14.80913 8.7274,-14.80913 8.7262,14.80913 8.7434,-14.80913 h 0.027 l 8.7413,14.80913 8.7417,-14.80913 h 0.01 l 8.7269,14.80913 0.02,-0.0345 0.022,0.0345 8.7269,-14.80913 8.7417,14.80913 8.7428,-14.80913 h 0.027 l 8.7429,14.80913 8.7272,-14.80913 8.7274,14.80913 8.7412,-14.80913 h 0.027 l 0.874,1.48003 7.8539,13.3291 0.01,-0.0103 0.01,0.0103 8.7429,-14.80913 h 0.013 l 8.7429,14.80913 0.01,-0.0124 0.01,0.0124 8.7273,-14.80913 h 0.028 l 8.7417,14.80913 8.7269,-14.80913 8.7273,14.80913 8.7428,-14.80913 h 0.028 l 8.7412,14.80913 8.7428,-14.80913 h 0.028 l 8.7427,14.80913 8.7269,-14.80913 v -0.0521 -1.34077 h -1.5566 v 0.96883 l -7.1729,12.17196 -7.4022,-12.53826 a 1.5552069,1.5549642 0 0 0 -0.6512,-0.60253 h -1.4029 a 1.5552069,1.5549642 0 0 0 -0.6526,0.60253 l -7.4034,12.54034 -7.4019,-12.54034 a 1.5552069,1.5549642 0 0 0 -0.6511,-0.60253 h -1.4029 a 1.5552069,1.5549642 0 0 0 -0.6527,0.60253 l -7.4023,12.53826 -7.3885,-12.53723 a 1.5552069,1.5549642 0 0 0 -0.6516,-0.60356 h -1.3802 a 1.5552069,1.5549642 0 0 0 -0.648,0.60356 l -7.388,12.53723 -7.4012,-12.53826 a 1.5552069,1.5549642 0 0 0 -0.6512,-0.60253 h -1.4039 a 1.5552069,1.5549642 0 0 0 -0.6527,0.60356 l -7.3987,12.55426 -7.4122,-12.55529 a 1.5552069,1.5549642 0 0 0 -0.6511,-0.60253 h -1.3879 a 1.5552069,1.5549642 0 0 0 -0.6522,0.60253 l -7.4127,12.55582 -6.5252,-11.07473 a 1.5552069,1.5549642 0 0 0 0,-10e-4 l -0.874,-1.48006 a 1.5552069,1.5549642 0 0 0 -0.6512,-0.60253 h -1.4013 a 1.5552069,1.5549642 0 0 0 -0.6527,0.60253 l -7.4008,12.53826 -7.3884,-12.53723 a 1.5552069,1.5549642 0 0 0 -0.6517,-0.60356 h -1.3802 a 1.5552069,1.5549642 0 0 0 -0.648,0.60356 l -7.3884,12.53723 -7.4024,-12.53826 a 1.5552069,1.5549642 0 0 0 -0.6511,-0.60253 h -1.4019 a 1.5552069,1.5549642 0 0 0 -0.6526,0.60253 l -7.4034,12.54034 -7.4024,-12.54034 a 1.5552069,1.5549642 0 0 0 -0.6511,-0.60253 h -1.3796 a 1.5552069,1.5549642 0 0 0 -0.6486,0.60356 l -7.4081,12.57077 -7.4075,-12.57077 a 1.5552069,1.5549642 0 0 0 -0.6516,-0.60356 h -1.3854 a 1.5552069,1.5549642 0 0 0 -0.6527,0.60253 l -7.4023,12.53981 -7.4019,-12.53981 a 1.5552069,1.5549642 0 0 0 -0.6511,-0.60253 h -1.4018 a 1.5552069,1.5549642 0 0 0 -0.6522,0.60253 l -7.4029,12.53878 -7.3878,-12.53775 a 1.5552069,1.5549642 0 0 0 -0.6517,-0.60356 h -1.3801 a 1.5552069,1.5549642 0 0 0 -0.6481,0.60356 l -7.3885,12.53723 -7.4024,-12.53826 a 1.5552069,1.5549642 0 0 0 -0.651,-0.60253 h -1.4019 a 1.5552069,1.5549642 0 0 0 -0.6527,0.60253 l -7.4018,12.53981 -7.4019,-12.53981 a 1.5552069,1.5549642 0 0 0 -0.6511,-0.60253 h -1.4029 a 1.5552069,1.5549642 0 0 0 -0.6526,0.60253 l -7.4009,12.53826 -7.3874,-12.53723 a 1.5552069,1.5549642 0 0 0 -0.6516,-0.60356 h -1.3802 a 1.5552069,1.5549642 0 0 0 -0.6481,0.60356 l -7.3883,12.53723 -7.4009,-12.53826 a 1.5552069,1.5549642 0 0 0 -0.6511,-0.60253 h -1.4038 a 1.5552069,1.5549642 0 0 0 -0.6533,0.60356 l -7.3982,12.55426 -7.4122,-12.55529 a 1.5552069,1.5549642 0 0 0 -0.6511,-0.60253 h -1.3879 a 1.5552069,1.5549642 0 0 0 -0.6527,0.60253 l -7.4122,12.55582 -6.5247,-11.07473 a 1.5552069,1.5549642 0 0 0 0,-0.002 l -0.8751,-1.48006 a 1.5552069,1.5549642 0 0 0 -0.6505,-0.6015 h -1.4014 a 1.5552069,1.5549642 0 0 0 -0.6527,0.60253 l -7.4008,12.53826 -7.3884,-12.53723 a 1.5552069,1.5549642 0 0 0 -0.6517,-0.60356 h -1.3801 a 1.5552069,1.5549642 0 0 0 -0.6481,0.60356 l -7.3879,12.53723 -7.4024,-12.53826 a 1.5552069,1.5549642 0 0 0 -0.6511,-0.60253 h -1.4018 a 1.5552069,1.5549642 0 0 0 -0.6527,0.60253 l -7.4034,12.54034 -7.4019,-12.54034 a 1.5552069,1.5549642 0 0 0 -0.6506,-0.60253 h -1.3796 a 1.5552069,1.5549642 0 0 0 -0.6491,0.60356 l -7.4075,12.5718 -7.4086,-12.5718 a 1.5552069,1.5549642 0 0 0 -0.6516,-0.60356 h -1.3802 a 1.5552069,1.5549642 0 0 0 -0.6475,0.60253 l -7.4034,12.54084 -7.4024,-12.54084 a 1.5552069,1.5549642 0 0 0 -0.6511,-0.60253 h -1.4018 a 1.5552069,1.5549642 0 0 0 -0.6522,0.60253 l -7.4028,12.53826 -7.3885,-12.5367 a 1.5552069,1.5549642 0 0 0 -0.6527,-0.60409 h -1.3775 a 1.5552069,1.5549642 0 0 0 -0.6497,0.60409 l -7.3879,12.53619 -7.4023,-12.53775 a 1.5552069,1.5549642 0 0 0 -0.6512,-0.60253 h -1.4018 a 1.5552069,1.5549642 0 0 0 -0.6532,0.60356 l -7.3987,12.55479 -7.4128,-12.55582 a 1.5552069,1.5549642 0 0 0 -0.651,-0.60253 h -1.3875 a 1.5552069,1.5549642 0 0 0 -0.6526,0.60253 l -7.4128,12.55632 -7.1345,-12.10699 a 1.5552069,1.5549642 0 0 0 -10e-4,-10e-4 l -0.2647,-0.4483 a 1.5552069,1.5549642 0 0 0 -0.6511,-0.60253 h -1.4024 a 1.5552069,1.5549642 0 0 0 -0.6527,0.60253 l -7.4008,12.53826 -7.3879,-12.53723 a 1.5552069,1.5549642 0 0 0 -0.6517,-0.60356 h -1.3802 a 1.5552069,1.5549642 0 0 0 -0.648,0.60356 l -7.3883,12.53723 -7.4025,-12.53826 a 1.5552069,1.5549642 0 0 0 -0.6511,-0.60253 h -1.4019 a 1.5552069,1.5549642 0 0 0 -0.6526,0.60253 l -7.4034,12.54034 -7.39,-12.51969 a 1.5552069,1.5549642 0 0 0 -0.6924,-0.62318 h -1.2909 a 1.5552069,1.5549642 0 0 0 -0.696,0.62422 l -7.4081,12.57073 -7.409,-12.5728 a 1.5552069,1.5549642 0 0 0 -0.6888,-0.62215 h -1.3002 a 1.5552069,1.5549642 0 0 0 -0.6904,0.62112 l -7.4024,12.53929 -7.4126,-12.55788 a 1.5552069,1.5549642 0 0 0 -0.6512,-0.60253 h -1.3848 a 1.5552069,1.5549642 0 0 0 -0.6522,0.60253 l -7.4126,12.55632 -7.3885,-12.53876 a 1.5552069,1.5549642 0 0 0 -0.682,-0.62009 h -1.3121 a 1.5552069,1.5549642 0 0 0 -0.6862,0.62009 l -7.3874,12.53826 -7.4127,-12.55582 a 1.5552069,1.5549642 0 0 0 -0.6511,-0.60253 h -1.3854 a 1.5552069,1.5549642 0 0 0 -0.6531,0.60356 l -7.406,12.56767 -7.4184,-12.56714 a 1.5552069,1.5549642 0 0 0 -0.6542,-0.60409 h -1.3719 a 1.5552069,1.5549642 0 0 0 -0.6522,0.60409 l -7.4157,12.56147 -7.403,-12.562 a 1.5552069,1.5549642 0 0 0 -0.6516,-0.60356 h -1.3802 a 1.5552069,1.5549642 0 0 0 -0.648,0.60356 l -7.4039,12.56356 -7.4039,-12.56356 a 1.5552069,1.5549642 0 0 0 -0.6516,-0.60356 h -1.3803 a 1.5552069,1.5549642 0 0 0 -0.6479,0.60356 l -7.403,12.562 -7.4157,-12.56147 a 1.5552069,1.5549642 0 0 0 -0.6537,-0.60409 h -1.3735 a 1.5552069,1.5549642 0 0 0 -0.6516,0.60409 l -7.4184,12.56611 -6.5325,-11.08658 a 1.5552069,1.5549642 0 0 0 -10e-4,-0.002 l -0.8637,-1.46199 a 1.5552069,1.5549642 0 0 0 -0.6857,-0.61957 h -1.3028 a 1.5552069,1.5549642 0 0 0 -0.6903,0.62162 l -7.4081,12.57077 -7.4132,-12.57851 a 1.5552069,1.5549642 0 0 0 -0.6712,-0.61388 h -1.3368 a 1.5552069,1.5549642 0 0 0 -0.6712,0.61286 l -6.9272,11.73505 a 1.5552069,1.5549642 0 0 0 -5e-4,10e-4 l -0.468,0.79443 -7.403,-12.54084 a 1.5552069,1.5549642 0 0 0 -0.651,-0.60253 h -1.3998 a 1.5552069,1.5549642 0 0 0 -0.6522,0.60253 l -7.4039,12.54084 -0.2208,-0.37504 a 1.5552069,1.5549642 0 0 0 -5e-4,-0.001 l -7.1743,-12.15445 a 1.5552069,1.5549642 0 0 0 -0.6703,-0.61286 h -1.3369 a 1.5552069,1.5549642 0 0 0 -0.6722,0.61388 l -7.4085,12.57077 -7.4086,-12.57127 a 1.5552069,1.5549642 0 0 0 -0.6702,-0.61338 h -1.3389 a 1.5552069,1.5549642 0 0 0 -0.6703,0.61235 l -7.4018,12.53979 -7.4076,-12.54961 a 1.5552069,1.5549642 0 0 0 -0.651,-0.60253 h -1.392 a 1.5552069,1.5549642 0 0 0 -0.6528,0.60253 l -7.4065,12.54911 -7.3878,-12.53723 a 1.5552069,1.5549642 0 0 0 -0.6724,-0.61441 h -1.3342 a 1.5552069,1.5549642 0 0 0 -0.6733,0.61441 l -7.3885,12.53773 -7.409,-12.54961 a 1.5552069,1.5549642 0 0 0 -0.6512,-0.60253 h -1.3884 a 1.5552069,1.5549642 0 0 0 -0.6532,0.60356 l -7.4018,12.56044 -7.4153,-12.56147 a 1.5552069,1.5549642 0 0 0 -0.6512,-0.60253 h -1.3853 a 1.5552069,1.5549642 0 0 0 -0.6521,0.60253 l -7.4122,12.55582 -7.2052,-12.22617 a 1.5552069,1.5549642 0 0 0 0,-0.003 l -0.1945,-0.32863 a 1.5552069,1.5549642 0 0 0 -0.6491,-0.60047 h -1.4039 a 1.5552069,1.5549642 0 0 0 -0.6517,0.60203 l -7.4008,12.53825 -7.3879,-12.53722 a 1.5552069,1.5549642 0 0 0 -0.6506,-0.60306 h -1.3823 a 1.5552069,1.5549642 0 0 0 -0.647,0.60306 l -7.3879,12.53722 -7.4023,-12.53825 a 1.5552069,1.5549642 0 0 0 -0.6501,-0.60203 h -1.404 a 1.5552069,1.5549642 0 0 0 -0.6516,0.60203 l -7.4034,12.54031 -7.4019,-12.54031 a 1.5552069,1.5549642 0 0 0 -0.65,-0.60203 h -1.3818 a 1.5552069,1.5549642 0 0 0 -0.6474,0.60306 l -7.4081,12.57127 -7.408,-12.57127 a 1.5552069,1.5549642 0 0 0 -0.6506,-0.60306 h -1.3812 a 1.5552069,1.5549642 0 0 0 -0.647,0.60203 l -7.404,12.54084 -7.4028,-12.54084 a 1.5552069,1.5549642 0 0 0 -0.6501,-0.60203 h -1.404 a 1.5552069,1.5549642 0 0 0 -0.6511,0.60203 l -7.4029,12.53825 -7.3884,-12.53672 a 1.5552069,1.5549642 0 0 0 -0.6517,-0.60356 h -1.3801 a 1.5552069,1.5549642 0 0 0 -0.6481,0.60356 l -7.3878,12.53775 -7.4035,-12.53928 a 1.5552069,1.5549642 0 0 0 -0.6501,-0.60203 h -1.4034 a 1.5552069,1.5549642 0 0 0 -0.6521,0.60306 l -7.3988,12.55476 -7.4126,-12.55579 a 1.5552069,1.5549642 0 0 0 -0.6501,-0.60203 h -1.389 a 1.5552069,1.5549642 0 0 0 -0.6511,0.60203 l -7.4127,12.55632 -7.1346,-12.10752 a 1.5552069,1.5549642 0 0 0 0,-0.002 l -0.2647,-0.4478 a 1.5552069,1.5549642 0 0 0 -0.6506,-0.6015 h -1.4029 a 1.5552069,1.5549642 0 0 0 -0.6526,0.60253 l -7.4009,12.53826 -7.3884,-12.53723 a 1.5552069,1.5549642 0 0 0 -0.6516,-0.60356 h -1.3802 a 1.5552069,1.5549642 0 0 0 -0.648,0.60356 l -7.3885,12.53723 -7.4018,-12.53826 a 1.5552069,1.5549642 0 0 0 -0.6511,-0.60253 h -1.4018 a 1.5552069,1.5549642 0 0 0 -0.6527,0.60253 l -7.4035,12.54034 -7.4023,-12.54034 a 1.5552069,1.5549642 0 0 0 -0.6501,-0.60253 h -1.3817 a 1.5552069,1.5549642 0 0 0 -0.6476,0.60306 l -7.4079,12.57127 -7.4076,-12.57127 a 1.5552069,1.5549642 0 0 0 -0.6507,-0.60306 h -1.3812 a 1.5552069,1.5549642 0 0 0 -0.6475,0.60253 l -7.4028,12.53981 -7.4014,-12.53981 a 1.5552069,1.5549642 0 0 0 -0.6511,-0.60253 h -1.4023 a 1.5552069,1.5549642 0 0 0 -0.6522,0.60253 l -7.4029,12.53878 -7.3884,-12.53775 a 1.5552069,1.5549642 0 0 0 -0.6522,-0.60356 h -1.377 a 1.5552069,1.5549642 0 0 0 -0.6501,0.60356 l -7.389,12.53723 -7.40236,-12.53826 a 1.5552069,1.5549642 0 0 0 -0.65112,-0.60253 h -1.40236 a 1.5552069,1.5549642 0 0 0 -0.65267,0.60253 l -7.40238,12.54084 -7.40236,-12.54084 a 1.5552069,1.5549642 0 0 0 -0.65112,-0.60253 h -1.40289 a 1.5552069,1.5549642 0 0 0 -0.65268,0.60253 l -7.40133,12.53931 -7.38843,-12.53828 a 1.5552069,1.5549642 0 0 0 -0.65164,-0.60356 h -1.38017 a 1.5552069,1.5549642 0 0 0 -0.64805,0.60356 l -7.38792,12.53723 -7.40081,-12.53826 a 1.5552069,1.5549642 0 0 0 -0.65111,-0.60253 h -1.40442 a 1.5552069,1.5549642 0 0 0 -0.65269,0.60356 l -7.39462,12.54911 -7.40908,-12.55014 a 1.5552069,1.5549642 0 0 0 -0.65112,-0.60253 h -1.38069 a 1.5552069,1.5549642 0 0 0 -0.65269,0.60253 l -7.40804,12.54911 -6.52163,-11.06802 a 1.5552069,1.5549642 0 0 0 -9.9e-4,-0.002 l -0.87453,-1.48006 a 1.5552069,1.5549642 0 0 0 -0.64959,-0.6015 h -1.40442 a 1.5552069,1.5549642 0 0 0 -0.65164,0.60203 l -7.4008,12.53825 -7.38845,-12.53722 a 1.5552069,1.5549642 0 0 0 -0.65062,-0.60306 h -1.38223 a 1.5552069,1.5549642 0 0 0 -0.647,0.60306 l -7.38792,12.53722 -7.40236,-12.53825 a 1.5552069,1.5549642 0 0 0 -0.65009,-0.60203 h -1.40442 a 1.5552069,1.5549642 0 0 0 -0.65115,0.60203 l -7.40339,12.54084 -7.40237,-12.54084 a 1.5552069,1.5549642 0 0 0 -0.65009,-0.60203 h -1.38172 a 1.5552069,1.5549642 0 0 0 -0.6475,0.60306 l -7.40805,12.57074 -7.40184,-12.56042 a 1.5552069,1.5549642 0 0 0 -0.67022,-0.61338 h -1.33891 a 1.5552069,1.5549642 0 0 0 -0.67074,0.61338 l -7.39719,12.55218 -7.41525,-12.56303 a 1.5552069,1.5549642 0 0 0 -0.65115,-0.60253 h -1.37861 a 1.5552069,1.5549642 0 0 0 -0.64856,0.60253 l -7.41682,12.562 -7.40236,-12.56147 a 1.5552069,1.5549642 0 0 0 -0.65063,-0.60306 h -1.38222 a 1.5552069,1.5549642 0 0 0 -0.647,0.60306 l -7.40134,12.5594 -7.40133,-12.5594 a 1.5552069,1.5549642 0 0 0 -0.65112,-0.60306 h -1.37655 a 1.5552069,1.5549642 0 0 0 -0.65321,0.60356 l -7.40183,12.56097 -7.41629,-12.56097 a 1.5552069,1.5549642 0 0 0 -0.65321,-0.60356 h -1.37449 a 1.5552069,1.5549642 0 0 0 -0.65115,0.60461 l -7.40801,12.57025 -7.40858,-12.5718 a 1.5552069,1.5549642 0 0 0 -0.65059,-0.60306 h -1.38123 a 1.5552069,1.5549642 0 0 0 -0.647,0.60203 l -7.40854,12.54858 -6.52111,-11.06752 a 1.5552069,1.5549642 0 0 0 -10e-4,-0.002 l -0.87452,-1.48003 a 1.5552069,1.5549642 0 0 0 -0.64856,-0.601 h -1.40648 a 1.5552069,1.5549642 0 0 0 -0.65061,0.6015 l -7.40031,12.53826 -7.38842,-12.53723 a 1.5552069,1.5549642 0 0 0 -0.65009,-0.60253 h -1.38379 a 1.5552069,1.5549642 0 0 0 -0.64596,0.60253 l -7.38895,12.53775 -7.40187,-12.53878 a 1.5552069,1.5549642 0 0 0 -0.64906,-0.6015 h -1.40597 a 1.5552069,1.5549642 0 0 0 -0.65009,0.6015 l -7.40392,12.54034 -7.40234,-12.54034 a 1.5552069,1.5549642 0 0 0 -0.64909,-0.6015 h -1.38379 a 1.5552069,1.5549642 0 0 0 -0.64647,0.60253 l -7.40805,12.57127 -7.40751,-12.57127 a 1.5552069,1.5549642 0 0 0 -0.65009,-0.60253 h -1.38482 a 1.5552069,1.5549642 0 0 0 -0.65062,0.6015 l -7.40237,12.53981 -7.40183,-12.53981 a 1.5552069,1.5549642 0 0 0 -0.64909,-0.6015 h -1.40595 a 1.5552069,1.5549642 0 0 0 -0.65011,0.6015 l -7.40287,12.53878 -7.38792,-12.53775 a 1.5552069,1.5549642 0 0 0 -0.65009,-0.60253 h -1.38379 a 1.5552069,1.5549642 0 0 0 -0.64596,0.60253 l -7.38895,12.53775 -7.40237,-12.53878 a 1.5552069,1.5549642 0 0 0 -0.64906,-0.6015 H 611.565 a 1.5552069,1.5549642 0 0 0 -0.65062,0.6015 l -7.40184,12.53981 -7.40186,-12.53981 a 1.5552069,1.5549642 0 0 0 -0.64906,-0.6015 h -1.40701 a 1.5552069,1.5549642 0 0 0 -0.65062,0.6015 l -7.40081,12.53826 -7.38738,-12.53723 a 1.5552069,1.5549642 0 0 0 -0.64959,-0.60253 h -1.38429 a 1.5552069,1.5549642 0 0 0 -0.646,0.60253 l -7.38842,12.53723 -7.4008,-12.53826 a 1.5552069,1.5549642 0 0 0 -0.64909,-0.6015 h -1.40801 a 1.5552069,1.5549642 0 0 0 -0.65114,0.60253 l -7.39464,12.54808 -7.40854,-12.54911 a 1.5552069,1.5549642 0 0 0 -0.64906,-0.6015 h -1.39206 a 1.5552069,1.5549642 0 0 0 -0.65008,0.6015 l -7.40908,12.54961 -6.5211,-11.06852 a 1.5552069,1.5549642 0 0 0 -5.3e-4,-0.002 l -0.87506,-1.48003 a 1.5552069,1.5549642 0 0 0 -0.64905,-0.60047 h -1.40649 a 1.5552069,1.5549642 0 0 0 -0.65062,0.6015 l -7.4008,12.53826 -7.38792,-12.53723 a 1.5552069,1.5549642 0 0 0 -0.64958,-0.60253 h -1.38432 a 1.5552069,1.5549642 0 0 0 -0.64597,0.60253 l -7.39264,12.53775 -7.40236,-12.53878 a 1.5552069,1.5549642 0 0 0 -0.64906,-0.6015 h -1.40598 a 1.5552069,1.5549642 0 0 0 -0.65063,0.6015 l -7.40339,12.54034 -7.40237,-12.54034 a 1.5552069,1.5549642 0 0 0 -0.64906,-0.6015 h -1.38378 a 1.5552069,1.5549642 0 0 0 -0.64647,0.60253 l -7.40754,12.57127 -7.40803,-12.57127 a 1.5552069,1.5549642 0 0 0 -0.64959,-0.60253 h -1.38429 a 1.5552069,1.5549642 0 0 0 -0.64546,0.6015 l -7.40339,12.54084 -7.40237,-12.54084 a 1.5552069,1.5549642 0 0 0 -0.64906,-0.6015 h -1.40648 a 1.5552069,1.5549642 0 0 0 -0.65012,0.6015 l -7.40237,12.53826 -7.38841,-12.5367 a 1.5552069,1.5549642 0 0 0 -0.65062,-0.60306 h -1.38223 a 1.5552069,1.5549642 0 0 0 -0.64699,0.60306 l -7.38845,12.5367 -7.40237,-12.53826 a 1.5552069,1.5549642 0 0 0 -0.64906,-0.6015 h -1.40597 a 1.5552069,1.5549642 0 0 0 -0.65112,0.60253 l -7.39513,12.54911 -7.40907,-12.55014 a 1.5552069,1.5549642 0 0 0 -0.64909,-0.6015 h -1.3915 a 1.5552069,1.5549642 0 0 0 -0.65062,0.6015 l -7.40855,12.55014 -7.13149,-12.10081 -0.26416,-0.4483 a 1.5552069,1.5549642 0 0 0 -0.65012,-0.60253 h -1.40649 a 1.5552069,1.5549642 0 0 0 -0.65061,0.6015 l -7.40081,12.53826 -7.38844,-12.53723 a 1.5552069,1.5549642 0 0 0 -0.65009,-0.60253 h -1.38379 a 1.5552069,1.5549642 0 0 0 -0.64596,0.60253 l -7.38843,12.53775 -7.40186,-12.53878 a 1.5552069,1.5549642 0 0 0 -0.64906,-0.6015 h -1.42597 a 1.5552069,1.5549642 0 0 0 -0.65062,0.6015 l -7.4034,12.54034 -7.40234,-12.54034 a 1.5552069,1.5549642 0 0 0 -0.64908,-0.6015 h -1.38376 a 1.5552069,1.5549642 0 0 0 -0.64651,0.60253 l -7.40751,12.57077 -7.40805,-12.57077 a 1.5552069,1.5549642 0 0 0 -0.65009,-0.60253 h -1.38123 a 1.5552069,1.5549642 0 0 0 -0.65058,0.6015 l -7.40237,12.53981 -7.40187,-12.53981 a 1.5552069,1.5549642 0 0 0 -0.64905,-0.6015 h -1.40648 a 1.5552069,1.5549642 0 0 0 -0.65009,0.6015 l -7.40237,12.53878 -7.38843,-12.53775 a 1.5552069,1.5549642 0 0 0 -0.65011,-0.60253 h -1.38378 a 1.5552069,1.5549642 0 0 0 -0.64598,0.60253 l -7.38842,12.53723 -7.40236,-12.53826 a 1.5552069,1.5549642 0 0 0 -0.64907,-0.6015 h -1.40649 a 1.5552069,1.5549642 0 0 0 -0.65061,0.6015 l -7.40237,12.54137 -7.40236,-12.54137 a 1.5552069,1.5549642 0 0 0 -0.64907,-0.6015 h -1.40699 a 1.5552069,1.5549642 0 0 0 -0.65062,0.6015 l -7.40133,12.53878 -7.38843,-12.53775 a 1.5552069,1.5549642 0 0 0 -0.6501,-0.60253 h -1.38378 a 1.5552069,1.5549642 0 0 0 -0.64598,0.60253 l -7.38843,12.53723 -7.4003,-12.53826 a 1.5552069,1.5549642 0 0 0 -0.64906,-0.6015 h -1.40907 a 1.5552069,1.5549642 0 0 0 -0.65113,0.60253 l -7.39463,12.54961 -7.40906,-12.55064 a 1.5552069,1.5549642 0 0 0 -0.64907,-0.6015 h -1.39204 a 1.5552069,1.5549642 0 0 0 -0.65061,0.6015 l -7.40804,12.54911 -6.52163,-11.06802 a 1.5552069,1.5549642 0 0 0 -0.001,-0.002 l -0.87454,-1.48003 a 1.5552069,1.5549642 0 0 0 -0.64753,-0.60047 h -1.40906 a 1.5552069,1.5549642 0 0 0 -0.64959,0.601 l -7.40029,12.53826 -7.38843,-12.53723 a 1.5552069,1.5549642 0 0 0 -0.64906,-0.60203 h -1.38585 a 1.5552069,1.5549642 0 0 0 -0.64495,0.60203 l -7.38791,12.53723 -7.40236,-12.53826 a 1.5552069,1.5549642 0 0 0 -0.64858,-0.60067 h -1.40804 a 1.5552069,1.5549642 0 0 0 -0.64957,0.601 l -7.4034,12.54031 -7.40185,-12.54031 a 1.5552069,1.5549642 0 0 0 -0.64804,-0.601 h -1.38584 a 1.5552069,1.5549642 0 0 0 -0.64546,0.60203 l -7.40804,12.57024 -7.408038,-12.57024 a 1.5552069,1.5549642 0 0 0 -0.649067,-0.60203 h -1.3843 a 1.5552069,1.5549642 0 0 0 -0.649583,0.601 l -7.401845,12.53979 -7.40133,-12.53979 a 1.5552069,1.5549642 0 0 0 -0.648553,-0.601 h -1.408548 a 1.5552069,1.5549642 0 0 0 -0.649582,0.601 l -7.402364,12.53826 -7.387916,-12.53723 a 1.5552069,1.5549642 0 0 0 -0.649067,-0.60203 h -1.385846 a 1.5552069,1.5549642 0 0 0 -0.644941,0.60203 l -7.387913,12.53723 -7.402364,-12.53826 a 1.5552069,1.5549642 0 0 0 -0.648552,-0.601 H 34.29068 a 1.5552069,1.5549642 0 0 0 -0.649585,0.601 l -7.402361,12.54134 -7.403394,-12.54031 a 1.5552069,1.5549642 0 0 0 -0.650099,-0.60203 H 16.78082 a 1.5552069,1.5549642 0 0 0 -0.651648,0.60203 L 8.7283584,285.78827 1.555079,273.61629 v -0.9683 z"
         id="path5202" />
      <path
         inkscape:connector-curvature="0"
         id="rect4520"
         d="M 8.727305,-1810.4031 0,-1795.6098 v 0.051 1.4201 h 1.555076 v -1.0474 l 7.1732611,-12.1588 7.4008039,12.5248 a 1.5552029,1.5533196 0 0 0 0.839967,0.6814 h 1.02313 a 1.5552029,1.5533196 0 0 0 0.843063,-0.6814 l 7.403375,-12.5263 7.401827,12.5263 a 1.5552029,1.5533196 0 0 0 0.839969,0.6814 H 35.5036 a 1.5552029,1.5533196 0 0 0 0.843065,-0.6814 l 7.402341,-12.5243 7.387897,12.5233 a 1.5552029,1.5533196 0 0 0 0.840998,0.6824 h 0.994754 a 1.5552029,1.5533196 0 0 0 0.844095,-0.6824 l 7.387898,-12.5233 7.402341,12.5243 a 1.5552029,1.5533196 0 0 0 0.839968,0.6814 h 1.023647 a 1.5552029,1.5533196 0 0 0 0.843064,-0.6814 l 7.40131,-12.5258 7.401827,12.5258 a 1.5552029,1.5533196 0 0 0 0.839967,0.6814 h 0.999398 a 1.5552029,1.5533196 0 0 0 0.843578,-0.6824 l 7.408018,-12.5569 7.407974,12.5569 a 1.5552029,1.5533196 0 0 0 0.841,0.6824 h 0.99475 a 1.5552029,1.5533196 0 0 0 0.84358,-0.6814 l 7.40182,-12.5263 7.40339,12.5263 a 1.5552029,1.5533196 0 0 0 0.83996,0.6814 h 1.02313 a 1.5552029,1.5533196 0 0 0 0.84306,-0.6814 l 7.40234,-12.5243 7.38791,12.5233 a 1.5552029,1.5533196 0 0 0 0.84101,0.6824 h 0.99473 a 1.5552029,1.5533196 0 0 0 0.8441,-0.6824 l 7.38842,-12.5233 7.40027,12.5243 a 1.5552029,1.5533196 0 0 0 0.83996,0.6814 h 1.02365 a 1.5552029,1.5533196 0 0 0 0.84256,-0.6809 l 0.87454,-1.4781 a 1.5552029,1.5533196 0 0 0 9.9e-4,0 l 6.52162,-11.056 7.40802,12.5352 a 1.5552029,1.5533196 0 0 0 0.83481,0.6798 h 1.01899 a 1.5552029,1.5533196 0 0 0 0.83843,-0.6798 l 7.40853,-12.5362 7.39512,12.5351 a 1.5552029,1.5533196 0 0 0 0.83585,0.6809 h 1.03447 a 1.5552029,1.5533196 0 0 0 0.83842,-0.6798 l 7.40028,-12.5244 7.38841,12.5233 a 1.5552029,1.5533196 0 0 0 0.83584,0.6809 h 1.00508 a 1.5552029,1.5533196 0 0 0 0.83893,-0.6809 l 7.38841,-12.5242 7.40131,12.5253 a 1.5552029,1.5533196 0 0 0 0.8348,0.6798 h 1.03346 a 1.5552029,1.5533196 0 0 0 0.83842,-0.6798 l 7.40234,-12.5274 7.40235,12.5274 a 1.5552029,1.5533196 0 0 0 0.83481,0.6798 h 1.03293 a 1.5552029,1.5533196 0 0 0 0.83842,-0.6798 l 7.40234,-12.5244 7.38841,12.5233 a 1.5552029,1.5533196 0 0 0 0.83584,0.6809 h 1.00507 a 1.5552029,1.5533196 0 0 0 0.83894,-0.6809 l 7.38841,-12.5238 7.40234,12.5249 a 1.5552029,1.5533196 0 0 0 0.83482,0.6798 h 1.03243 a 1.5552029,1.5533196 0 0 0 0.8384,-0.6798 l 7.40182,-12.5259 7.40235,12.5259 a 1.5552029,1.5533196 0 0 0 0.83481,0.6798 h 1.00867 a 1.5552029,1.5533196 0 0 0 0.83896,-0.6809 l 7.40802,-12.5574 7.4075,12.5574 a 1.5552029,1.5533196 0 0 0 0.83582,0.6809 h 1.00507 a 1.5552029,1.5533196 0 0 0 0.83844,-0.6798 l 7.40233,-12.5264 7.40337,12.5264 a 1.5552029,1.5533196 0 0 0 0.8343,0.6798 h 1.03293 a 1.5552029,1.5533196 0 0 0 0.83842,-0.6798 l 7.40235,-12.5244 7.38789,12.5233 a 1.5552029,1.5533196 0 0 0 0.83585,0.6809 h 1.00508 a 1.5552029,1.5533196 0 0 0 0.83891,-0.6809 l 7.38842,-12.5233 7.40079,12.5244 a 1.5552029,1.5533196 0 0 0 0.8343,0.6798 h 1.03397 a 1.5552029,1.5533196 0 0 0 0.83894,-0.6809 l 0.26416,-0.4473 7.13094,-12.0878 7.40906,12.5362 a 1.5552029,1.5533196 0 0 0 0.83479,0.6798 h 1.01797 a 1.5552029,1.5533196 0 0 0 0.83843,-0.6798 l 7.40907,-12.5362 7.3951,12.5351 a 1.5552029,1.5533196 0 0 0 0.83586,0.6809 h 1.03241 a 1.5552029,1.5533196 0 0 0 0.8379,-0.6798 l 7.40234,-12.5244 7.38843,12.5228 a 1.5552029,1.5533196 0 0 0 0.83738,0.6814 h 1.00197 a 1.5552029,1.5533196 0 0 0 0.84048,-0.6814 l 7.3884,-12.5228 7.40235,12.5244 a 1.5552029,1.5533196 0 0 0 0.83428,0.6798 h 1.03295 a 1.5552029,1.5533196 0 0 0 0.83841,-0.6798 l 7.40235,-12.5269 7.40338,12.5269 a 1.5552029,1.5533196 0 0 0 0.83429,0.6798 h 1.00661 a 1.5552029,1.5533196 0 0 0 0.83843,-0.6809 l 7.408,-12.5574 7.40753,12.5574 a 1.5552029,1.5533196 0 0 0 0.83582,0.6809 h 1.00508 a 1.5552029,1.5533196 0 0 0 0.83841,-0.6798 l 7.40234,-12.5264 7.40338,12.5264 a 1.5552029,1.5533196 0 0 0 0.83429,0.6798 h 1.03346 a 1.5552029,1.5533196 0 0 0 0.83791,-0.6798 l 7.40234,-12.5249 7.3884,12.5238 a 1.5552029,1.5533196 0 0 0 0.83585,0.6809 h 1.00507 a 1.5552029,1.5533196 0 0 0 0.83894,-0.6809 l 7.38791,-12.5233 7.40078,12.5244 a 1.5552029,1.5533196 0 0 0 0.83479,0.6798 h 1.03398 a 1.5552029,1.5533196 0 0 0 0.83688,-0.6788 l 0.87505,-1.4781 a 1.5552029,1.5533196 0 0 0 10e-4,0 l 6.5211,-11.0565 7.40905,12.5356 a 1.5552029,1.5533196 0 0 0 0.82757,0.6778 h 1.03089 a 1.5552029,1.5533196 0 0 0 0.83274,-0.6778 l 7.40853,-12.5351 7.3946,12.5341 a 1.5552029,1.5533196 0 0 0 0.82862,0.6788 h 1.04686 a 1.5552029,1.5533196 0 0 0 0.83275,-0.6778 l 7.4008,-12.5243 7.38839,12.5233 a 1.5552029,1.5533196 0 0 0 0.82865,0.6788 h 1.01847 a 1.5552029,1.5533196 0 0 0 0.83276,-0.6788 l 7.38737,-12.5233 7.40078,12.5243 a 1.5552029,1.5533196 0 0 0 0.82757,0.6778 h 1.04637 a 1.5552029,1.5533196 0 0 0 0.83273,-0.6778 l 7.40185,-12.5259 7.40182,12.5259 a 1.5552029,1.5533196 0 0 0 0.82758,0.6778 h 1.04585 a 1.5552029,1.5533196 0 0 0 0.83222,-0.6778 l 7.40234,-12.5249 7.38893,12.5239 a 1.5552029,1.5533196 0 0 0 0.82861,0.6788 h 1.0185 a 1.5552029,1.5533196 0 0 0 0.83273,-0.6788 l 7.3879,-12.5239 7.40284,12.5249 a 1.5552029,1.5533196 0 0 0 0.82759,0.6778 h 1.0448 a 1.5552029,1.5533196 0 0 0 0.83276,-0.6778 l 7.40182,-12.5259 7.40235,12.5259 a 1.5552029,1.5533196 0 0 0 0.82811,0.6778 h 1.02365 a 1.5552029,1.5533196 0 0 0 0.83323,-0.6788 l 7.40752,-12.5579 7.40801,12.5579 a 1.5552029,1.5533196 0 0 0 0.82864,0.6788 h 1.01847 a 1.5552029,1.5533196 0 0 0 0.83222,-0.6778 l 7.40235,-12.5264 7.40389,12.5264 a 1.5552029,1.5533196 0 0 0 0.82758,0.6778 h 1.04532 a 1.5552029,1.5533196 0 0 0 0.83274,-0.6778 l 7.40235,-12.5243 7.38842,12.5233 a 1.5552029,1.5533196 0 0 0 0.82862,0.6788 h 1.01847 a 1.5552029,1.5533196 0 0 0 0.83276,-0.6788 l 7.38789,-12.5233 7.40079,12.5243 a 1.5552029,1.5533196 0 0 0 0.82757,0.6778 h 1.04584 a 1.5552029,1.5533196 0 0 0 0.83223,-0.6773 l 0.87454,-1.4781 a 1.5552029,1.5533196 0 0 0 5.3e-4,0 l 6.52108,-11.0554 7.40855,12.5346 a 1.5552029,1.5533196 0 0 0 0.82347,0.6762 h 1.02619 a 1.5552029,1.5533196 0 0 0 0.82915,-0.6773 l 7.40905,-12.5584 7.40801,12.5569 a 1.5552029,1.5533196 0 0 0 0.82913,0.6788 h 1.01643 a 1.5552029,1.5533196 0 0 0 0.83377,-0.6788 l 7.41523,-12.5471 7.40235,12.5476 a 1.5552029,1.5533196 0 0 0 0.82709,0.6783 h 1.02159 a 1.5552029,1.5533196 0 0 0 0.83116,-0.6783 l 7.40185,-12.5461 7.40131,12.5461 a 1.5552029,1.5533196 0 0 0 0.82706,0.6783 h 1.02158 a 1.5552029,1.5533196 0 0 0 0.8312,-0.6783 l 7.40236,-12.5481 7.41676,12.5481 a 1.5552029,1.5533196 0 0 0 0.82968,0.6783 h 1.01487 a 1.5552029,1.5533196 0 0 0 0.83377,-0.6783 l 7.41523,-12.5492 7.39719,12.5389 a 1.5552029,1.5533196 0 0 0 0.86164,0.6886 h 0.95555 a 1.5552029,1.5533196 0 0 0 0.86266,-0.6886 l 7.40181,-12.5466 7.40803,12.5569 a 1.5552029,1.5533196 0 0 0 0.82759,0.6783 h 1.01952 a 1.5552029,1.5533196 0 0 0 0.83222,-0.6783 l 7.40235,-12.5268 7.40339,12.5268 a 1.5552029,1.5533196 0 0 0 0.82964,0.6783 h 1.04169 a 1.5552029,1.5533196 0 0 0 0.83429,-0.6783 l 7.40235,-12.5244 7.38789,12.5234 a 1.5552029,1.5533196 0 0 0 0.83018,0.6793 h 1.01539 a 1.5552029,1.5533196 0 0 0 0.8343,-0.6793 l 7.38839,-12.5234 7.4008,12.5244 a 1.5552029,1.5533196 0 0 0 0.82913,0.6783 h 1.04377 a 1.5552029,1.5533196 0 0 0 0.83327,-0.6778 l 0.87403,-1.4781 a 1.5552029,1.5533196 0 0 0 10e-4,0 l 6.52161,-11.056 7.40799,12.5352 a 1.5552029,1.5533196 0 0 0 0.82399,0.6767 h 1.03811 a 1.5552029,1.5533196 0 0 0 0.83016,-0.6767 l 7.40903,-12.5362 7.39513,12.5351 a 1.5552029,1.5533196 0 0 0 0.825,0.6778 h 1.05304 a 1.5552029,1.5533196 0 0 0 0.83018,-0.6767 l 7.40078,-12.5244 7.3879,12.5233 a 1.5552029,1.5533196 0 0 0 0.82503,0.6778 h 1.02518 a 1.5552029,1.5533196 0 0 0 0.82965,-0.6778 l 7.38842,-12.5249 7.40131,12.526 a 1.5552029,1.5533196 0 0 0 0.82396,0.6767 h 1.05254 a 1.5552029,1.5533196 0 0 0 0.83017,-0.6767 l 7.40236,-12.5275 7.40235,12.5275 a 1.5552029,1.5533196 0 0 0 0.82448,0.6767 h 1.0515 a 1.5552029,1.5533196 0 0 0 0.8287,-0.6767 l 7.40279,-12.5244 7.3883,12.5233 a 1.5552029,1.5533196 0 0 0 0.8251,0.6778 h 1.0252 a 1.5552029,1.5533196 0 0 0 0.8296,-0.6778 l 7.3884,-12.5238 7.4028,12.5249 a 1.5552029,1.5533196 0 0 0 0.8246,0.6767 h 1.051 a 1.5552029,1.5533196 0 0 0 0.8301,-0.6767 l 7.4013,-12.526 7.403,12.526 a 1.5552029,1.5533196 0 0 0 0.8239,0.6767 h 1.0263 a 1.5552029,1.5533196 0 0 0 0.829,-0.6778 l 7.4075,-12.5574 7.4081,12.5574 a 1.5552029,1.5533196 0 0 0 0.825,0.6778 h 1.0252 a 1.5552029,1.5533196 0 0 0 0.8292,-0.6767 l 7.4022,-12.5265 7.4034,12.5265 a 1.5552029,1.5533196 0 0 0 0.824,0.6767 h 1.0516 a 1.5552029,1.5533196 0 0 0 0.83,-0.6767 l 7.4019,-12.5244 7.3883,12.5233 a 1.5552029,1.5533196 0 0 0 0.825,0.6778 h 1.0252 a 1.5552029,1.5533196 0 0 0 0.8297,-0.6778 l 7.3884,-12.5233 7.4009,12.5244 a 1.5552029,1.5533196 0 0 0 0.8245,0.6767 h 1.053 a 1.5552029,1.5533196 0 0 0 0.8286,-0.6757 l 0.2647,-0.4469 7.1347,-12.0944 7.4125,12.5423 a 1.5552029,1.5533196 0 0 0 0.8189,0.6747 h 1.0468 a 1.5552029,1.5533196 0 0 0 0.8245,-0.6747 l 7.4127,-12.5418 7.3987,12.5408 a 1.5552029,1.5533196 0 0 0 0.8199,0.6757 h 1.0617 a 1.5552029,1.5533196 0 0 0 0.824,-0.6747 l 7.4034,-12.5249 7.3874,12.5239 a 1.5552029,1.5533196 0 0 0 0.8198,0.6757 h 1.0365 a 1.5552029,1.5533196 0 0 0 0.8234,-0.6757 l 7.389,-12.5233 7.4023,12.5243 a 1.5552029,1.5533196 0 0 0 0.8189,0.6747 h 1.0623 a 1.5552029,1.5533196 0 0 0 0.8246,-0.6747 l 7.4027,-12.5269 7.404,12.5269 a 1.5552029,1.5533196 0 0 0 0.8188,0.6747 h 1.0382 a 1.5552029,1.5533196 0 0 0 0.8218,-0.6747 l 7.408,-12.5575 7.4081,12.5575 a 1.5552029,1.5533196 0 0 0 0.8177,0.6747 h 1.0407 a 1.5552029,1.5533196 0 0 0 0.8209,-0.6747 l 7.4018,-12.5264 7.4034,12.5264 a 1.5552029,1.5533196 0 0 0 0.8188,0.6747 h 1.0623 a 1.5552029,1.5533196 0 0 0 0.8245,-0.6747 l 7.4024,-12.5243 7.3878,12.5233 a 1.5552029,1.5533196 0 0 0 0.8199,0.6757 h 1.0365 a 1.5552029,1.5533196 0 0 0 0.8234,-0.6757 l 7.388,-12.5233 7.4009,12.5243 a 1.5552029,1.5533196 0 0 0 0.8193,0.6747 h 1.0617 a 1.5552029,1.5533196 0 0 0 0.8235,-0.6732 l 0.1945,-0.3278 7.2048,-12.2129 7.4126,12.5417 a 1.5552029,1.5533196 0 0 0 0.8126,0.6722 h 1.0588 a 1.5552029,1.5533196 0 0 0 0.8173,-0.6722 l 7.4152,-12.5469 7.4014,12.5459 a 1.5552029,1.5533196 0 0 0 0.813,0.6732 h 1.0639 a 1.5552029,1.5533196 0 0 0 0.8172,-0.6722 l 7.4087,-12.535 7.3878,12.5232 a 1.5552029,1.5533196 0 0 0 0.8462,0.684 h 0.9849 a 1.5552029,1.5533196 0 0 0 0.8488,-0.684 l 7.3878,-12.5227 7.4065,12.5345 a 1.5552029,1.5533196 0 0 0 0.8127,0.6722 h 1.067 a 1.5552029,1.5533196 0 0 0 0.8172,-0.6722 l 7.4066,-12.5355 7.4017,12.5263 a 1.5552029,1.5533196 0 0 0 0.8379,0.6814 h 0.9994 a 1.5552029,1.5533196 0 0 0 0.8425,-0.6824 l 7.408,-12.558 7.4086,12.5575 a 1.5552029,1.5533196 0 0 0 0.8425,0.6829 h 0.9918 a 1.5552029,1.5533196 0 0 0 0.8455,-0.6829 l 6.9897,-11.8296 a 1.5552029,1.5533196 0 0 0 6e-4,0 l 0.4048,-0.686 7.4024,12.5263 a 1.5552029,1.5533196 0 0 0 0.8132,0.6722 h 1.0747 a 1.5552029,1.5533196 0 0 0 0.8171,-0.6722 l 7.403,-12.5263 0.2905,0.4923 a 1.5552029,1.5533196 0 0 0 5e-4,0 l 7.1051,12.0233 a 1.5552029,1.5533196 0 0 0 0.8432,0.6829 h 0.9895 a 1.5552029,1.5533196 0 0 0 0.8466,-0.6829 l 7.4128,-12.5652 7.408,12.5574 a 1.5552029,1.5533196 0 0 0 0.8708,0.6907 h 0.9361 a 1.5552029,1.5533196 0 0 0 0.8719,-0.6907 l 0.8636,-1.46 6.5327,-11.0747 7.4182,12.5522 a 1.5552029,1.5533196 0 0 0 0.8152,0.6732 h 1.0464 a 1.5552029,1.5533196 0 0 0 0.8173,-0.6732 l 7.4156,-12.5475 7.4029,12.5475 a 1.5552029,1.5533196 0 0 0 0.8132,0.6732 h 1.0514 a 1.5552029,1.5533196 0 0 0 0.8152,-0.6732 l 7.404,-12.5491 7.4033,12.5491 a 1.5552029,1.5533196 0 0 0 0.8133,0.6732 h 1.0487 a 1.5552029,1.5533196 0 0 0 0.8178,-0.6732 l 7.4024,-12.5481 7.4158,12.5481 a 1.5552029,1.5533196 0 0 0 0.8152,0.6732 h 1.0464 a 1.5552029,1.5533196 0 0 0 0.8171,-0.6732 l 7.4174,-12.5537 7.4066,12.5537 a 1.5552029,1.5533196 0 0 0 0.813,0.6732 h 1.0587 a 1.5552029,1.5533196 0 0 0 0.8174,-0.6722 l 7.4121,-12.5412 7.3879,12.5232 a 1.5552029,1.5533196 0 0 0 0.8667,0.6902 h 0.9452 a 1.5552029,1.5533196 0 0 0 0.868,-0.6902 l 7.3884,-12.5237 7.4126,12.5417 a 1.5552029,1.5533196 0 0 0 0.8125,0.6722 h 1.0583 a 1.5552029,1.5533196 0 0 0 0.8173,-0.6722 l 7.4126,-12.5443 7.4029,12.5258 a 1.5552029,1.5533196 0 0 0 0.871,0.6907 h 0.9359 a 1.5552029,1.5533196 0 0 0 0.8719,-0.6907 l 7.4029,-12.5657 7.4079,12.5574 a 1.5552029,1.5533196 0 0 0 0.8978,0.699 h 0.8849 a 1.5552029,1.5533196 0 0 0 0.8967,-0.699 l 7.39,-12.5057 7.4034,12.5264 a 1.5552029,1.5533196 0 0 0 0.8291,0.6783 h 1.0422 a 1.5552029,1.5533196 0 0 0 0.8343,-0.6783 l 7.4023,-12.5244 7.3885,12.5234 a 1.5552029,1.5533196 0 0 0 0.8301,0.6793 h 1.0154 a 1.5552029,1.5533196 0 0 0 0.8343,-0.6793 l 7.388,-12.5234 7.4007,12.5244 a 1.5552029,1.5533196 0 0 0 0.8291,0.6783 h 1.0433 a 1.5552029,1.5533196 0 0 0 0.8338,-0.6783 l 0.2647,-0.4474 7.1345,-12.0934 7.4128,12.5418 a 1.5552029,1.5533196 0 0 0 0.8254,0.6773 h 1.034 a 1.5552029,1.5533196 0 0 0 0.8317,-0.6773 l 7.4127,-12.5418 7.3987,12.5408 a 1.5552029,1.5533196 0 0 0 0.827,0.6783 h 1.0475 a 1.5552029,1.5533196 0 0 0 0.8317,-0.6773 l 7.4022,-12.5238 7.388,12.5223 a 1.5552029,1.5533196 0 0 0 0.8286,0.6788 h 1.0185 a 1.5552029,1.5533196 0 0 0 0.8327,-0.6788 l 7.3885,-12.5228 7.4028,12.5243 a 1.5552029,1.5533196 0 0 0 0.8256,0.6773 h 1.0478 a 1.5552029,1.5533196 0 0 0 0.8317,-0.6773 l 7.4023,-12.5269 7.4035,12.5269 a 1.5552029,1.5533196 0 0 0 0.8255,0.6773 h 1.0231 a 1.5552029,1.5533196 0 0 0 0.8307,-0.6783 l 7.408,-12.5584 7.4081,12.5584 a 1.5552029,1.5533196 0 0 0 0.8269,0.6783 h 1.0217 a 1.5552029,1.5533196 0 0 0 0.8307,-0.6773 l 7.4018,-12.5264 7.4034,12.5264 a 1.5552029,1.5533196 0 0 0 0.8254,0.6773 h 1.0486 a 1.5552029,1.5533196 0 0 0 0.8317,-0.6773 l 7.4022,-12.5243 7.388,12.5233 a 1.5552029,1.5533196 0 0 0 0.827,0.6783 h 1.0216 a 1.5552029,1.5533196 0 0 0 0.8312,-0.6783 l 7.3885,-12.5233 7.4008,12.5243 a 1.5552029,1.5533196 0 0 0 0.8254,0.6773 h 1.0485 a 1.5552029,1.5533196 0 0 0 0.8306,-0.6762 l 0.8752,-1.4781 6.5246,-11.0627 7.4122,12.5418 a 1.5552029,1.5533196 0 0 0 0.8204,0.6752 h 1.0451 a 1.5552029,1.5533196 0 0 0 0.8261,-0.6752 l 7.4122,-12.5413 7.3982,12.5403 a 1.5552029,1.5533196 0 0 0 0.8208,0.6762 h 1.0614 a 1.5552029,1.5533196 0 0 0 0.8261,-0.6752 l 7.4008,-12.5244 7.3884,12.5234 a 1.5552029,1.5533196 0 0 0 0.8208,0.6762 h 1.0341 a 1.5552029,1.5533196 0 0 0 0.825,-0.6762 l 7.3873,-12.5234 7.4007,12.5244 a 1.5552029,1.5533196 0 0 0 0.8203,0.6752 h 1.0604 a 1.5552029,1.5533196 0 0 0 0.826,-0.6752 l 7.4018,-12.5259 7.4019,12.5259 a 1.5552029,1.5533196 0 0 0 0.8204,0.6752 h 1.0592 a 1.5552029,1.5533196 0 0 0 0.8261,-0.6752 l 7.4023,-12.5244 7.3883,12.5234 a 1.5552029,1.5533196 0 0 0 0.8209,0.6762 h 1.034 a 1.5552029,1.5533196 0 0 0 0.825,-0.6762 l 7.388,-12.5239 7.4028,12.5249 a 1.5552029,1.5533196 0 0 0 0.8205,0.6752 h 1.0586 a 1.5552029,1.5533196 0 0 0 0.826,-0.6752 l 7.4018,-12.5259 7.4024,12.5259 a 1.5552029,1.5533196 0 0 0 0.8204,0.6752 h 1.0426 a 1.5552029,1.5533196 0 0 0 0.8266,-0.6762 l 7.4076,-12.5574 7.4081,12.5574 a 1.5552029,1.5533196 0 0 0 0.8208,0.6762 h 1.0339 a 1.5552029,1.5533196 0 0 0 0.8245,-0.6752 l 7.4023,-12.5264 7.4034,12.5264 a 1.5552029,1.5533196 0 0 0 0.8205,0.6752 h 1.0591 a 1.5552029,1.5533196 0 0 0 0.826,-0.6752 l 7.4023,-12.5244 7.3885,12.5234 a 1.5552029,1.5533196 0 0 0 0.8209,0.6762 h 1.034 a 1.5552029,1.5533196 0 0 0 0.825,-0.6762 l 7.3884,-12.5234 7.4008,12.5244 a 1.5552029,1.5533196 0 0 0 0.8204,0.6752 h 1.0592 a 1.5552029,1.5533196 0 0 0 0.8255,-0.6752 l 0.874,-1.4781 6.5252,-11.0627 7.4127,12.5417 a 1.5552029,1.5533196 0 0 0 0.8178,0.6743 h 1.0509 a 1.5552029,1.5533196 0 0 0 0.8224,-0.6743 l 7.4124,-12.5412 7.3985,12.5403 a 1.5552029,1.5533196 0 0 0 0.8185,0.6752 h 1.0664 a 1.5552029,1.5533196 0 0 0 0.8229,-0.6743 l 7.4013,-12.5242 7.3879,12.5233 a 1.5552029,1.5533196 0 0 0 0.8183,0.6752 h 1.0396 a 1.5552029,1.5533196 0 0 0 0.8219,-0.6752 l 7.3885,-12.5233 7.4023,12.5242 a 1.5552029,1.5533196 0 0 0 0.8177,0.6743 h 1.066 a 1.5552029,1.5533196 0 0 0 0.823,-0.6743 l 7.4018,-12.5263 7.4034,12.5263 a 1.5552029,1.5533196 0 0 0 0.8178,0.6743 h 1.0658 a 1.5552029,1.5533196 0 0 0 0.823,-0.6743 l 7.4024,-12.5242 7.1727,12.1588 v 1.0397 h 1.5566 v -1.4191 -0.051 l -8.7267,-14.7933 -8.7429,14.7933 h -0.028 l -8.7429,-14.7933 -8.7412,14.7933 h -0.028 l -8.7428,-14.7933 -8.7273,14.7933 -8.7268,-14.7933 -8.7417,14.7933 h -0.028 l -8.7273,-14.7933 -0.01,0.012 -0.01,-0.012 -8.7427,14.7933 h -0.013 l -8.7428,-14.7933 -0.01,0.011 -0.01,-0.011 -7.8539,13.315 -0.874,1.4783 h -0.027 l -8.7413,-14.7933 -8.7273,14.7933 -8.7274,-14.7933 -8.7428,14.7933 h -0.027 l -8.7428,-14.7933 -8.7418,14.7933 -8.7267,-14.7933 -0.022,0.035 -0.02,-0.035 -8.7267,14.7933 h -0.01 l -8.7419,-14.7933 -8.7412,14.7933 h -0.027 l -8.7433,-14.7933 -8.7263,14.7933 -8.7273,-14.7933 -8.7427,14.7933 h -0.027 l -8.7414,-14.7933 -8.7411,14.7933 h -0.028 l -8.7411,-14.7933 -8.7262,14.7933 -8.7274,-14.7933 -8.7412,14.7933 h -0.029 l -8.7267,-14.7933 -0.01,0.012 -0.01,-0.012 -8.7428,14.7933 h -0.013 l -8.7428,-14.7933 -0.01,0.011 -0.01,-0.011 -7.8526,13.315 -0.8752,1.4783 h -0.027 l -8.7413,-14.7933 -8.7273,14.7933 -8.7269,-14.7933 -8.7426,14.7933 h -0.027 l -8.7428,-14.7933 -8.7412,14.7933 -8.7262,-14.7933 -6e-4,5e-4 -0.022,0.035 -0.02,-0.035 -8.7268,14.7933 -8.7428,-14.7933 h -5e-4 l -8.7412,14.7933 h -0.027 l -8.7433,-14.7928 -8.7268,14.7923 -8.7269,-14.7923 -8.7426,14.7928 h -0.027 l -8.7274,-14.7933 -0.01,0.012 -0.01,-0.012 -5e-4,5e-4 -8.7429,14.7928 h -0.012 l -8.7428,-14.7933 -0.01,0.011 -0.01,-0.011 -5e-4,5e-4 -8.4631,14.3454 -0.2647,0.4474 h -0.028 l -8.7412,-14.7933 -8.7268,14.7933 -8.7274,-14.7933 -8.7427,14.7933 h -0.027 l -8.7428,-14.7933 -8.7294,14.7728 -8.7149,-14.7733 -0.012,0.021 -0.012,-0.02 -0.022,0.035 -0.02,-0.035 -8.7154,14.7743 -8.7319,-14.7748 -0.011,0.018 -0.01,-0.018 -8.7407,14.7928 h -0.01 l -8.7427,-14.7933 -0.01,0.017 -0.01,-0.017 -8.7164,14.7759 -8.7165,-14.7764 -0.01,0.017 -0.01,-0.017 -8.7423,14.7928 h -0.01 l -8.7268,-14.7933 -0.01,0.012 -0.01,-0.012 -0.01,0.013 -0.01,-0.012 v 0 l -0.8859,1.4995 0.034,0.057 h -0.039 l -0.014,-0.025 -7.8348,13.2599 -8.7423,-14.7923 -0.01,0.011 -0.01,-0.011 v 0.01 -0.01 h -5e-4 -5e-4 l -0.8874,1.5041 0.029,0.049 h -0.033 l -0.012,-0.021 -7.8223,13.2609 v 0 l -8.7266,-14.7928 -0.017,0.028 -0.016,-0.028 -8.7273,14.7933 -8.7273,-14.7933 v 0.01 -0.01 l -0.01,0.012 -0.01,-0.012 -8.7417,14.7918 -8.7419,-14.7923 -0.01,0.012 -0.01,-0.012 -0.01,0.011 -0.01,-0.011 -7.8539,13.315 -0.8635,1.4604 -8.7165,-14.7759 -0.022,0.035 -0.02,-0.035 -0.011,0.018 -0.01,-0.018 -8.7212,14.783 -7.1051,-12.0235 -1.6278,-2.7595 v 0 0 l -8.7418,14.7933 h -0.026 l -8.7418,-14.7928 v 0 0 l -1.7423,2.9528 -6.9901,11.8307 -8.7216,-14.7835 -0.01,0.01 -0.01,-0.01 -0.022,0.035 -0.02,-0.035 -8.7216,14.7835 -8.7356,-14.784 h -5e-4 l -0.01,0.01 -0.01,-0.01 -8.7407,14.7928 h -0.018 l -8.7408,-14.7933 -0.01,0.011 -0.01,-0.011 -8.72,14.782 -8.7205,-14.7825 -0.01,0.011 -0.01,-0.011 -8.7421,14.7928 h -0.015 l -8.7268,-14.7933 -0.01,0.012 -0.01,-0.012 v 0.01 -0.01 l -8.7418,14.7928 h -0.01 l -8.7428,-14.7933 -0.01,0.011 -0.01,-0.011 -8.5334,14.4652 -0.1945,0.3281 h -0.027 l -8.7412,-14.7933 -8.7267,14.7933 -8.7268,-14.7933 -8.7429,14.7933 h -0.027 l -8.7428,-14.7933 -8.7413,14.7933 -7.8336,-13.2783 -0.026,0.043 h -0.02 l 0.036,-0.061 -0.8828,-1.4959 v -5e-4 h -5e-4 l -0.022,0.035 -0.02,-0.035 -8.7268,14.7933 -8.7427,-14.7933 h -5e-4 l -8.7419,14.7933 h -0.027 l -8.7428,-14.7928 -8.7273,14.7928 -8.7263,-14.7933 -5e-4,5e-4 -8.7429,14.7928 h -0.027 l -8.7273,-14.7933 -0.01,0.012 -0.01,-0.012 v -5e-4 h -5e-4 l -8.7428,14.7933 h -0.012 l -8.7428,-14.7933 -0.01,0.011 -0.01,-0.011 v -6e-4 h -5e-4 l -8.4627,14.3465 -0.2647,0.4469 h -0.028 l -8.7413,-14.7934 -8.7273,14.7934 -8.7273,-14.7934 -8.7423,14.7934 h -0.027 l -8.7427,-14.7934 -8.7418,14.7934 -8.7268,-14.7934 -0.022,0.035 -0.02,-0.035 -8.7267,14.7934 -8.7423,-14.7934 -8.7407,14.7934 h -0.027 l -8.7434,-14.7934 -8.7267,14.7934 -8.7272,-14.7934 -8.74181,14.7934 h -0.0274 l -8.74123,-14.7934 h -5.2e-4 -5e-4 l -8.74125,14.7934 h -0.0279 l -8.74072,-14.7934 h -5.2e-4 -0.001 l -8.72677,14.7934 -8.72681,-14.7934 -8.74122,14.7934 h -0.0289 l -8.7268,-14.7934 -0.007,0.012 -0.007,-0.012 -8.74278,14.7934 h -0.0134 l -8.74225,-14.7934 -0.006,0.011 -0.007,-0.011 -7.85378,13.3151 -0.87455,1.4783 h -0.0274 l -8.74122,-14.7934 -8.72731,14.7934 -8.7268,-14.7934 -8.74278,14.7934 h -0.0273 l -8.7428,-14.7934 -8.74123,14.7934 -8.72731,-14.7934 -0.0217,0.035 -0.0196,-0.035 -8.7211,14.7832 -8.7206,-14.7832 -0.0155,0.026 -0.015,-0.026 -8.7407,14.7924 -8.74228,-14.7924 -0.0145,0.024 -0.0145,-0.024 -8.72676,14.7934 -8.72681,-14.7934 -0.0145,0.024 -0.0145,-0.024 -8.7273,14.7934 -8.72677,-14.7934 -0.0145,0.024 -0.0139,-0.024 -8.74175,14.7919 -8.72679,-14.7919 -0.006,0.012 -0.008,-0.012 -0.0145,0.024 -0.0145,-0.024 -8.72731,14.7934 -8.74278,-14.7934 -0.006,0.011 -0.006,-0.011 -7.85381,13.3151 -0.87454,1.4783 h -0.0274 l -8.74072,-14.7934 -8.72731,14.7934 -8.72729,-14.7934 -8.74278,14.7934 h -0.0269 l -8.7428,-14.7934 -8.74175,14.7934 -8.72677,-14.7934 -0.0217,0.035 -0.0207,-0.035 -8.72626,14.7934 h -0.006 l -8.74174,-14.7934 -8.74123,14.7934 h -0.0259 l -8.74331,-14.7934 -8.72628,14.7934 -8.7273,-14.7934 -8.74277,14.7934 h -0.0274 l -8.74123,-14.7934 -8.74123,14.7934 h -0.0279 l -8.74126,-14.7934 -8.72627,14.7934 -8.72729,-14.7934 -8.74123,14.7934 h -0.0289 l -8.72679,-14.7934 -0.007,0.012 -0.006,-0.012 -8.74278,14.7934 h -0.0129 l -8.74278,-14.7934 -0.006,0.011 -0.007,-0.011 -7.85327,13.3151 -0.87506,1.4783 h -0.0272 l -8.74123,-14.7934 -8.7268,14.7934 -8.72681,-14.7934 -8.74278,14.7934 h -0.0274 l -8.74279,-14.7934 -8.74176,14.7934 -7.83366,-13.2794 -0.0265,0.043 h -0.0196 l 0.0356,-0.06 -0.88228,-1.4959 v -5e-4 h -5.1e-4 l -0.0217,0.035 -0.0201,-0.035 -8.72681,14.7933 -8.74279,-14.7933 h -4.9e-4 l -8.74125,14.7933 h -0.0274 l -8.74278,-14.7928 -8.7268,14.7923 -8.72678,-14.7923 -8.74277,14.7928 h -0.0274 l -8.7268,-14.7933 -0.006,0.012 -0.007,-0.011 v -5e-4 h -5e-4 l -8.74277,14.7933 h -0.0124 l -8.7428,-14.7933 -0.006,0.011 -0.007,-0.01 v -5e-4 h -5.3e-4 l -8.46313,14.3459 -0.26417,0.4474 h -0.0279 l -8.74123,-14.7933 -8.7273,14.7933 -8.72679,-14.7933 -8.7428,14.7933 h -0.0269 l -8.74278,-14.7933 -8.74173,14.7933 -8.7268,-14.7933 -0.0217,0.035 -0.0202,-0.035 -8.7268,14.7933 h -0.003 l -8.74175,-14.7933 -8.74122,14.7933 h -0.0274 l -8.74278,-14.7933 -8.72679,14.7933 -8.72731,-14.7933 -8.74279,14.7933 h -0.0274 l -8.74124,-14.7933 h -5.2e-4 -0.001 l -8.74071,14.7933 h -0.0279 l -8.74124,-14.7933 h -10e-4 l -8.72679,14.7933 -8.7273,-14.7933 -8.74072,14.7933 h -0.0294 l -8.7268,-14.7933 -0.007,0.012 -0.007,-0.012 -8.74227,14.7933 h -0.0134 l -8.74226,-14.7933 -0.006,0.011 -0.007,-0.011 -7.8538,13.315 -0.87454,1.4783 h -0.0279 l -8.7407,-14.7933 -8.72731,14.7933 -8.7268,-14.7933 -8.74278,14.7933 h -0.0274 l -8.74279,-14.7933 -8.74124,14.7933 -8.727247,-14.7933 -0.02167,0.035 -0.01961,-0.035 -8.727306,14.7933 h -0.0036 l -8.741236,-14.7933 -8.740719,14.7933 h -0.02786 l -8.742782,-14.7933 -8.726788,14.7933 -8.726788,-14.7933 -8.742781,14.7933 h -0.02735 l -8.741235,-14.7933 -8.742783,14.7933 h -0.02834 z M 0,271.55507 v 1.33778 0.0525 l 8.727305,14.79371 8.741243,-14.7937 h 0.02735 l 8.742783,14.7937 8.741235,-14.7937 h 0.02735 l 8.742783,14.7937 8.726788,-14.7937 8.726787,14.7937 8.742782,-14.7937 h 0.02786 l 8.74072,14.7937 8.741235,-14.7937 h 0.0036 l 8.727305,14.7937 0.01961,-0.0345 0.02167,0.0345 8.727254,-14.7937 8.74123,14.7937 8.74279,-14.7937 h 0.0275 l 8.74277,14.7937 8.7268,-14.7937 8.72731,14.7937 8.74071,-14.7937 h 0.028 l 0.87453,1.47856 7.8538,13.31514 0.007,-0.0103 0.006,0.0103 8.74226,-14.7937 h 0.0134 l 8.74226,14.7937 0.007,-0.0123 0.007,0.0123 8.72628,-14.7937 h 0.0294 l 8.74071,14.7937 8.72729,-14.7937 8.7268,14.7937 10e-4,-0.002 v 0.002 l 8.74124,-14.7937 h 0.028 l 8.74071,14.7937 0.001,-0.002 5.2e-4,0.002 8.74124,-14.7937 h 0.0273 l 8.74278,14.7937 8.7273,-14.7937 8.7268,14.7937 8.74279,-14.7937 h 0.0274 l 8.74123,14.7937 8.74176,-14.7937 h 0.003 l 8.72679,14.7937 0.0202,-0.0345 0.0217,0.0345 8.7268,-14.7937 8.74174,14.7937 8.74277,-14.7937 h 0.0269 l 8.74277,14.7937 8.7268,-14.7937 8.72731,14.7937 8.74123,-14.7937 h 0.0279 l 0.26417,0.44813 8.46314,14.34557 5.3e-4,-5.1e-4 0.007,-0.01 0.006,0.0103 8.74278,-14.7937 h 0.0124 l 8.74279,14.7937 5e-4,-5.1e-4 0.007,-0.0118 0.006,0.0124 8.72679,-14.7937 h 0.0274 l 8.74279,14.79319 8.72678,-14.79269 8.72679,14.79269 8.74278,-14.79319 h 0.0274 l 8.74125,14.7937 h 5e-4 l 8.74278,-14.7937 8.72681,14.7937 0.0201,-0.0345 0.0217,0.0345 5.2e-4,-5.1e-4 8.72626,-14.79319 8.74176,14.7937 8.74277,-14.7937 h 0.0274 l 8.74277,14.7937 8.72681,-14.7937 8.72679,14.7937 8.74122,-14.7937 h 0.0275 l 0.87505,1.47857 7.85328,13.31513 0.007,-0.0103 0.006,0.0103 8.74277,-14.7937 h 0.0129 l 8.74278,14.7937 0.006,-0.0124 0.007,0.0124 8.72681,-14.7937 h 0.0288 l 8.74122,14.7937 8.72731,-14.7937 8.72627,14.7937 8.74126,-14.7937 h 0.0279 l 8.74124,14.7937 8.74123,-14.7937 h 0.0273 l 8.7428,14.7937 8.72729,-14.7937 8.72628,14.7937 8.7433,-14.7937 h 0.0269 l 8.74122,14.7937 8.74176,-14.7937 h 0.006 l 8.72626,14.7937 0.0207,-0.0345 0.0217,0.0345 8.72677,-14.7937 8.74176,14.7937 8.7428,-14.7937 h 0.0269 l 8.74278,14.7937 8.7273,-14.7937 8.72731,14.7937 8.74071,-14.7937 h 0.0274 l 0.87456,1.47857 7.8538,13.31513 0.006,-0.0103 0.006,0.0103 8.74279,-14.7937 8.7273,14.79423 0.0145,-0.0247 0.0145,0.0242 0.008,-0.0124 0.006,0.0124 8.72626,-14.79218 8.74228,14.79271 0.0145,-0.0242 0.014,0.0237 8.72627,-14.7932 h 9.9e-4 l 8.72677,14.7932 0.0145,-0.0242 0.0145,0.0247 8.72681,-14.79373 8.72677,14.79373 0.0145,-0.0247 0.0145,0.0242 8.74229,-14.79267 8.74068,14.7932 0.0155,-0.0257 0.015,0.0252 8.7206,-14.78289 8.72111,14.7834 0.0196,-0.0345 0.0222,0.0345 8.72677,-14.79371 8.74125,14.79371 8.74278,-14.79371 h 0.0274 l 8.74279,14.79371 8.72679,-14.79371 8.7273,14.79371 8.74123,-14.79371 h 0.0274 l 0.87454,1.47857 7.85379,13.31514 0.007,-0.0104 0.006,0.0104 8.74225,-14.79371 h 0.0134 l 8.74279,14.79371 0.007,-0.0123 0.007,0.0123 8.7268,-14.79371 h 0.0287 l 8.74123,14.79371 8.72681,-14.79371 8.72676,14.79371 10e-4,-0.002 5.2e-4,0.002 8.74072,-14.79371 h 0.0279 l 8.74124,14.79371 0.001,-0.002 v 0.002 l 8.74122,-14.79371 h 0.0274 l 8.74172,14.79371 8.7273,-14.79371 8.7267,14.79371 8.7434,-14.79371 h 0.027 l 8.7407,14.79371 8.7424,-14.79371 8.7267,14.79371 0.02,-0.0345 0.022,0.0345 8.7268,-14.79371 8.7417,14.79371 8.7428,-14.79371 h 0.027 l 8.7424,14.79371 8.7271,-14.79371 8.7274,14.79371 8.7413,-14.79371 h 0.028 l 0.2647,0.44763 8.4626,14.34608 5e-4,-5.1e-4 0.01,-0.01 0.01,0.0104 8.7428,-14.79373 h 0.012 l 8.7428,14.79373 5e-4,-5.3e-4 0.01,-0.0119 0.01,0.0124 8.7273,-14.79373 h 0.027 l 8.743,14.7932 v 5.3e-4 h 5e-4 l 8.726,-14.7932 8.7274,14.79267 8.7428,-14.7932 h 0.027 l 8.7417,14.79373 h 5e-4 l 8.7429,-14.79373 8.7267,14.79373 0.02,-0.0345 0.022,0.0345 5e-4,-5.3e-4 8.7268,-14.7932 8.7413,14.79373 8.7427,-14.79373 h 0.027 l 8.7428,14.79373 8.7267,-14.79373 8.7269,14.79373 8.7412,-14.79373 h 0.027 l 0.1945,0.32873 8.5334,14.465 0.01,-0.0104 0.01,0.0104 8.7429,-14.79373 h 0.01 l 8.7422,14.79373 v -0.006 0.006 l 0.01,-0.0124 0.01,0.0124 8.7268,-14.79373 h 0.014 l 8.7427,14.79373 0.01,-0.0109 0.01,0.0109 8.7206,-14.78292 8.72,14.78292 0.01,-0.0109 0.01,0.0109 8.7406,-14.79373 h 0.017 l 8.7412,14.79373 0.01,-0.009 0.01,0.009 v -0.002 l 5e-4,0.002 8.7357,-14.78395 8.7216,14.78395 0.02,-0.0345 0.022,0.0345 0.01,-0.01 0.01,0.01 8.7216,-14.78342 7.1742,12.14212 1.5582,2.6413 v -0.002 0.002 l 8.7427,-14.79373 h 0.025 l 8.7417,14.79373 v -0.003 0.003 l 1.8053,-3.06062 6.9271,-11.7228 8.7216,14.78342 0.011,-0.018 0.01,0.018 0.02,-0.0345 0.022,0.0345 8.7166,-14.7757 0.8636,1.46054 7.8539,13.31516 0.01,-0.0104 0.01,0.0104 0.01,-0.0124 0.01,0.0124 8.7418,-14.79218 8.7417,14.79218 0.01,-0.0124 0.01,0.0124 v -0.008 0.008 l 8.7271,-14.79373 8.7274,14.79373 0.016,-0.0278 0.017,0.0278 8.7272,-14.79373 8.7269,14.79373 10e-4,-0.002 v 0.002 -0.007 0.007 l 0.01,-0.0104 0.01,0.0104 8.7417,-14.79218 8.7407,14.79218 v -0.002 0.002 l 0.01,-0.0129 0.01,0.0129 0.01,-0.0124 0.01,0.0124 8.7268,-14.79373 h 0.01 l 8.7429,14.79373 0.01,-0.0175 0.01,0.0175 8.7164,-14.77725 8.7165,14.77725 0.01,-0.0175 0.01,0.0175 8.7427,-14.79373 h 0.01 l 8.7413,14.79373 0.011,-0.018 0.01,0.018 8.7315,-14.7752 8.716,14.7752 0.02,-0.0345 0.022,0.0345 0.012,-0.0206 0.012,0.0206 8.715,-14.77312 8.7292,14.77312 8.7428,-14.79373 h 0.027 l 8.7428,14.79373 8.7273,-14.79373 8.7266,14.79373 8.7414,-14.79373 h 0.028 l 0.2646,0.44816 8.4632,14.34557 h 5e-4 l 0.01,-0.0104 0.01,0.0104 8.7428,-14.79373 h 0.012 l 8.7427,14.79373 h 5e-4 l 0.01,-0.0124 0.01,0.0124 8.7274,-14.79373 h 0.027 l 8.7428,14.7932 8.7268,-14.79267 8.7267,14.79267 8.7433,-14.7932 h 0.027 l 8.7413,14.79373 h 5e-4 l 8.7427,-14.79373 8.7268,14.79373 0.02,-0.0345 0.022,0.0345 h 6e-4 l 0.8796,-1.49197 -0.034,-0.0577 0.036,0.0551 7.8445,-13.29918 8.7412,14.79373 8.7429,-14.79373 h 0.027 l 8.7428,14.79373 8.7269,-14.79373 8.7272,14.79373 8.7413,-14.79373 h 0.027 l 0.8752,1.47857 7.8527,13.31516 0.01,-0.0104 0.01,0.0104 8.7428,-14.79373 h 0.013 l 8.7427,14.79373 0.01,-0.0124 0.01,0.0124 8.7268,-14.79373 h 0.029 l 8.7412,14.79373 8.7273,-14.79373 8.7263,14.79373 8.7413,-14.79373 h 0.028 l 8.7413,14.79373 8.7413,-14.79373 h 0.027 l 8.7427,14.79373 8.7273,-14.79373 8.7263,14.79373 8.7432,-14.79373 h 0.027 l 8.7412,14.79373 8.7418,-14.79373 h 0.01 l 8.7268,14.79373 0.02,-0.0345 0.022,0.0345 8.7268,-14.79373 8.7419,14.79373 8.7427,-14.79373 h 0.027 l 8.7428,14.79373 8.7273,-14.79373 8.7272,14.79373 8.7413,-14.79373 h 0.027 l 0.8739,1.47857 7.8538,13.31516 0.01,-0.0104 0.01,0.0104 8.7428,-14.79373 h 0.013 l 8.7427,14.79373 0.01,-0.0124 0.01,0.0124 8.7274,-14.79373 h 0.028 l 8.7417,14.79373 8.7269,-14.79373 8.7272,14.79373 8.7429,-14.79373 h 0.028 l 8.7413,14.79373 8.7427,-14.79373 h 0.028 l 8.7428,14.79373 8.7267,-14.79373 v -0.052 -1.33882 h -1.5566 v 0.96762 l -7.1727,12.15883 -7.4023,-12.52514 a 1.5552029,1.5533196 0 0 0 -0.6512,-0.60131 h -1.4029 a 1.5552029,1.5533196 0 0 0 -0.6528,0.60131 l -7.4032,12.52723 -7.4019,-12.52723 a 1.5552029,1.5533196 0 0 0 -0.6511,-0.60131 h -1.4029 a 1.5552029,1.5533196 0 0 0 -0.6526,0.60131 l -7.4024,12.52514 -7.3884,-12.52411 a 1.5552029,1.5533196 0 0 0 -0.6516,-0.60234 h -1.3802 a 1.5552029,1.5533196 0 0 0 -0.648,0.60234 l -7.388,12.52411 -7.4013,-12.52514 a 1.5552029,1.5533196 0 0 0 -0.651,-0.60131 h -1.4039 a 1.5552029,1.5533196 0 0 0 -0.6527,0.60234 l -7.3987,12.54111 -7.4122,-12.54214 a 1.5552029,1.5533196 0 0 0 -0.6511,-0.60131 h -1.3879 a 1.5552029,1.5533196 0 0 0 -0.6522,0.60131 l -7.4128,12.54267 -6.5251,-11.06305 a 1.5552029,1.5533196 0 0 0 0,-9.9e-4 l -0.874,-1.4786 a 1.5552029,1.5533196 0 0 0 -0.6512,-0.60131 h -1.4013 a 1.5552029,1.5533196 0 0 0 -0.6527,0.60131 l -7.4008,12.52514 -7.3883,-12.52411 a 1.5552029,1.5533196 0 0 0 -0.6517,-0.60234 h -1.3802 a 1.5552029,1.5533196 0 0 0 -0.648,0.60234 l -7.3884,12.52411 -7.4024,-12.52514 a 1.5552029,1.5533196 0 0 0 -0.6511,-0.60131 h -1.4019 a 1.5552029,1.5533196 0 0 0 -0.6526,0.60131 l -7.4034,12.52723 -7.4024,-12.52723 a 1.5552029,1.5533196 0 0 0 -0.6511,-0.60131 h -1.3797 a 1.5552029,1.5533196 0 0 0 -0.6485,0.60234 l -7.4079,12.55758 -7.4076,-12.55758 a 1.5552029,1.5533196 0 0 0 -0.6516,-0.60234 h -1.3854 a 1.5552029,1.5533196 0 0 0 -0.6526,0.60131 l -7.4023,12.5267 -7.4018,-12.5267 a 1.5552029,1.5533196 0 0 0 -0.6513,-0.60131 h -1.4017 a 1.5552029,1.5533196 0 0 0 -0.6523,0.60131 l -7.4027,12.52567 -7.388,-12.52464 a 1.5552029,1.5533196 0 0 0 -0.6517,-0.60234 h -1.38 a 1.5552029,1.5533196 0 0 0 -0.6482,0.60234 l -7.3883,12.52411 -7.4023,-12.52514 a 1.5552029,1.5533196 0 0 0 -0.6513,-0.60131 h -1.4019 a 1.5552029,1.5533196 0 0 0 -0.6526,0.60131 l -7.4018,12.5267 -7.4019,-12.5267 a 1.5552029,1.5533196 0 0 0 -0.651,-0.60131 h -1.4029 a 1.5552029,1.5533196 0 0 0 -0.6526,0.60131 l -7.4009,12.52514 -7.3874,-12.52411 a 1.5552029,1.5533196 0 0 0 -0.6516,-0.60234 h -1.3802 a 1.5552029,1.5533196 0 0 0 -0.648,0.60234 l -7.3884,12.52411 -7.4008,-12.52514 a 1.5552029,1.5533196 0 0 0 -0.6512,-0.60131 h -1.4038 a 1.5552029,1.5533196 0 0 0 -0.6532,0.60234 l -7.3983,12.54111 -7.412,-12.54214 a 1.5552029,1.5533196 0 0 0 -0.6512,-0.60131 h -1.3879 a 1.5552029,1.5533196 0 0 0 -0.6527,0.60131 l -7.4121,12.54267 -6.5248,-11.06305 a 1.5552029,1.5533196 0 0 0 0,-0.002 l -0.8751,-1.47859 a 1.5552029,1.5533196 0 0 0 -0.6506,-0.60028 h -1.4012 a 1.5552029,1.5533196 0 0 0 -0.6527,0.60131 l -7.4008,12.52514 -7.3885,-12.52411 a 1.5552029,1.5533196 0 0 0 -0.6516,-0.60234 h -1.3802 a 1.5552029,1.5533196 0 0 0 -0.6479,0.60234 l -7.388,12.52411 -7.4024,-12.52514 a 1.5552029,1.5533196 0 0 0 -0.6511,-0.60131 h -1.4018 a 1.5552029,1.5533196 0 0 0 -0.6526,0.60131 l -7.4035,12.52723 -7.4018,-12.52723 a 1.5552029,1.5533196 0 0 0 -0.6505,-0.60131 h -1.3797 a 1.5552029,1.5533196 0 0 0 -0.6491,0.60234 l -7.4074,12.55862 -7.4086,-12.55862 a 1.5552029,1.5533196 0 0 0 -0.6517,-0.60234 h -1.3802 a 1.5552029,1.5533196 0 0 0 -0.6475,0.60131 l -7.4033,12.52773 -7.4023,-12.52773 a 1.5552029,1.5533196 0 0 0 -0.6512,-0.60131 h -1.4019 a 1.5552029,1.5533196 0 0 0 -0.6522,0.60131 l -7.4028,12.52514 -7.3884,-12.52358 a 1.5552029,1.5533196 0 0 0 -0.6527,-0.60287 h -1.3775 a 1.5552029,1.5533196 0 0 0 -0.6495,0.60287 l -7.388,12.52309 -7.4024,-12.52465 a 1.5552029,1.5533196 0 0 0 -0.6509,-0.60131 h -1.4019 a 1.5552029,1.5533196 0 0 0 -0.6533,0.60234 l -7.3988,12.54164 -7.4126,-12.54267 a 1.5552029,1.5533196 0 0 0 -0.6511,-0.60131 h -1.3874 a 1.5552029,1.5533196 0 0 0 -0.6527,0.60131 l -7.4127,12.54317 -7.1346,-12.09398 a 1.5552029,1.5533196 0 0 0 0,-10e-4 l -0.2646,-0.44815 a 1.5552029,1.5533196 0 0 0 -0.6512,-0.60131 h -1.4022 a 1.5552029,1.5533196 0 0 0 -0.6528,0.60131 l -7.4009,12.52514 -7.3879,-12.52411 a 1.5552029,1.5533196 0 0 0 -0.6516,-0.60234 h -1.3802 a 1.5552029,1.5533196 0 0 0 -0.6478,0.60234 l -7.3885,12.52411 -7.4024,-12.52514 a 1.5552029,1.5533196 0 0 0 -0.6511,-0.60131 h -1.4018 a 1.5552029,1.5533196 0 0 0 -0.6528,0.60131 l -7.4034,12.52723 -7.3898,-12.50662 a 1.5552029,1.5533196 0 0 0 -0.6924,-0.62192 h -1.2909 a 1.5552029,1.5533196 0 0 0 -0.6961,0.62295 l -7.4081,12.55756 -7.409,-12.55962 a 1.5552029,1.5533196 0 0 0 -0.6887,-0.62089 h -1.3003 a 1.5552029,1.5533196 0 0 0 -0.6904,0.61986 l -7.4023,12.52617 -7.4126,-12.54472 a 1.5552029,1.5533196 0 0 0 -0.6512,-0.60131 h -1.3848 a 1.5552029,1.5533196 0 0 0 -0.6522,0.60131 l -7.4126,12.54317 -7.3885,-12.52564 a 1.5552029,1.5533196 0 0 0 -0.6821,-0.61884 h -1.3119 a 1.5552029,1.5533196 0 0 0 -0.6864,0.61884 l -7.3872,12.52514 -7.4128,-12.54267 a 1.5552029,1.5533196 0 0 0 -0.651,-0.60131 h -1.3854 a 1.5552029,1.5533196 0 0 0 -0.6531,0.60234 l -7.406,12.5545 -7.4183,-12.55397 a 1.5552029,1.5533196 0 0 0 -0.6544,-0.60287 h -1.3717 a 1.5552029,1.5533196 0 0 0 -0.6523,0.60287 l -7.4157,12.5483 -7.4029,-12.54883 a 1.5552029,1.5533196 0 0 0 -0.6517,-0.60234 h -1.3801 a 1.5552029,1.5533196 0 0 0 -0.6481,0.60234 l -7.4039,12.55039 -7.4038,-12.55039 a 1.5552029,1.5533196 0 0 0 -0.6516,-0.60234 h -1.3802 a 1.5552029,1.5533196 0 0 0 -0.6481,0.60234 l -7.4029,12.54883 -7.4156,-12.5483 a 1.5552029,1.5533196 0 0 0 -0.6538,-0.60287 h -1.3735 a 1.5552029,1.5533196 0 0 0 -0.6516,0.60287 l -7.4184,12.55294 -6.5324,-11.07488 a 1.5552029,1.5533196 0 0 0 0,-0.002 l -0.8635,-1.46056 a 1.5552029,1.5533196 0 0 0 -0.6858,-0.61831 h -1.3027 a 1.5552029,1.5533196 0 0 0 -0.6904,0.62037 l -7.4081,12.55758 -7.4131,-12.56531 a 1.5552029,1.5533196 0 0 0 -0.6713,-0.61264 h -1.3368 a 1.5552029,1.5533196 0 0 0 -0.6712,0.61161 l -6.9273,11.7228 a 1.5552029,1.5533196 0 0 0 -5e-4,9.9e-4 l -0.4678,0.79361 -7.4029,-12.52773 a 1.5552029,1.5533196 0 0 0 -0.6512,-0.60131 h -1.3998 a 1.5552029,1.5533196 0 0 0 -0.6521,0.60131 l -7.4039,12.52773 -0.2208,-0.37429 a 1.5552029,1.5533196 0 0 0 -5e-4,-10e-4 l -7.1744,-12.14211 a 1.5552029,1.5533196 0 0 0 -0.6701,-0.61161 h -1.3369 a 1.5552029,1.5533196 0 0 0 -0.6723,0.61264 l -7.4085,12.55759 -7.4085,-12.55809 a 1.5552029,1.5533196 0 0 0 -0.6702,-0.61214 h -1.3389 a 1.5552029,1.5533196 0 0 0 -0.6703,0.61111 l -7.4019,12.52668 -7.4074,-12.53648 a 1.5552029,1.5533196 0 0 0 -0.6511,-0.60131 h -1.392 a 1.5552029,1.5533196 0 0 0 -0.6528,0.60131 l -7.4063,12.53598 -7.388,-12.52412 a 1.5552029,1.5533196 0 0 0 -0.6723,-0.61317 h -1.3342 a 1.5552029,1.5533196 0 0 0 -0.6733,0.61317 l -7.3885,12.52462 -7.409,-12.53648 a 1.5552029,1.5533196 0 0 0 -0.6512,-0.60131 h -1.3884 a 1.5552029,1.5533196 0 0 0 -0.6532,0.60234 l -7.4017,12.54728 -7.4154,-12.54831 a 1.5552029,1.5533196 0 0 0 -0.651,-0.60131 h -1.3853 a 1.5552029,1.5533196 0 0 0 -0.6521,0.60131 l -7.4124,12.54267 -7.2052,-12.21292 a 1.5552029,1.5533196 0 0 0 0,-0.003 l -0.1945,-0.32873 a 1.5552029,1.5533196 0 0 0 -0.6491,-0.59925 h -1.4039 a 1.5552029,1.5533196 0 0 0 -0.6516,0.6008 l -7.4008,12.52515 -7.3879,-12.52411 a 1.5552029,1.5533196 0 0 0 -0.6506,-0.60184 h -1.3823 a 1.5552029,1.5533196 0 0 0 -0.647,0.60184 l -7.3879,12.52411 -7.4022,-12.52515 a 1.5552029,1.5533196 0 0 0 -0.6502,-0.6008 h -1.4039 a 1.5552029,1.5533196 0 0 0 -0.6517,0.6008 l -7.4033,12.52721 -7.4018,-12.52721 a 1.5552029,1.5533196 0 0 0 -0.65,-0.6008 h -1.3818 a 1.5552029,1.5533196 0 0 0 -0.6475,0.60184 l -7.408,12.55808 -7.408,-12.55808 a 1.5552029,1.5533196 0 0 0 -0.6506,-0.60184 h -1.3813 a 1.5552029,1.5533196 0 0 0 -0.6469,0.6008 l -7.404,12.52773 -7.4028,-12.52773 a 1.5552029,1.5533196 0 0 0 -0.6501,-0.6008 h -1.4038 a 1.5552029,1.5533196 0 0 0 -0.6513,0.6008 l -7.4028,12.52515 -7.3884,-12.52361 a 1.5552029,1.5533196 0 0 0 -0.6518,-0.60234 h -1.38 a 1.5552029,1.5533196 0 0 0 -0.6481,0.60234 l -7.3879,12.52464 -7.4033,-12.52618 a 1.5552029,1.5533196 0 0 0 -0.6501,-0.6008 h -1.4034 a 1.5552029,1.5533196 0 0 0 -0.6523,0.60184 l -7.3987,12.54161 -7.4126,-12.54265 a 1.5552029,1.5533196 0 0 0 -0.6501,-0.6008 h -1.3889 a 1.5552029,1.5533196 0 0 0 -0.6511,0.6008 l -7.4127,12.54318 -7.1345,-12.09452 a 1.5552029,1.5533196 0 0 0 0,-0.002 l -0.2647,-0.44766 a 1.5552029,1.5533196 0 0 0 -0.6507,-0.60028 h -1.4028 a 1.5552029,1.5533196 0 0 0 -0.6528,0.60131 l -7.4007,12.52514 -7.3884,-12.52411 a 1.5552029,1.5533196 0 0 0 -0.6517,-0.60234 h -1.3801 a 1.5552029,1.5533196 0 0 0 -0.648,0.60234 l -7.3885,12.52411 -7.4018,-12.52514 a 1.5552029,1.5533196 0 0 0 -0.6512,-0.60131 h -1.4018 a 1.5552029,1.5533196 0 0 0 -0.6527,0.60131 l -7.4034,12.52723 -7.4024,-12.52723 a 1.5552029,1.5533196 0 0 0 -0.6499,-0.60131 h -1.3818 a 1.5552029,1.5533196 0 0 0 -0.6476,0.60184 l -7.4079,12.55808 -7.4076,-12.55808 a 1.5552029,1.5533196 0 0 0 -0.6506,-0.60184 h -1.3812 a 1.5552029,1.5533196 0 0 0 -0.6475,0.60131 l -7.4028,12.5267 -7.4013,-12.5267 a 1.5552029,1.5533196 0 0 0 -0.6512,-0.60131 h -1.4023 a 1.5552029,1.5533196 0 0 0 -0.6522,0.60131 l -7.4028,12.52567 -7.3884,-12.52464 a 1.5552029,1.5533196 0 0 0 -0.6522,-0.60234 h -1.3771 a 1.5552029,1.5533196 0 0 0 -0.6501,0.60234 l -7.389,12.52411 -7.40221,-12.52514 a 1.5552029,1.5533196 0 0 0 -0.6504,-0.60131 h -1.40206 a 1.5552029,1.5533196 0 0 0 -0.65267,0.60131 l -7.40234,12.52773 -7.40235,-12.52773 a 1.5552029,1.5533196 0 0 0 -0.65111,-0.60131 h -1.40288 a 1.5552029,1.5533196 0 0 0 -0.65269,0.60131 l -7.40131,12.5262 -7.3884,-12.52517 a 1.5552029,1.5533196 0 0 0 -0.65165,-0.60234 h -1.38017 a 1.5552029,1.5533196 0 0 0 -0.64804,0.60234 l -7.3879,12.52411 -7.4008,-12.52514 a 1.5552029,1.5533196 0 0 0 -0.65111,-0.60131 h -1.40442 a 1.5552029,1.5533196 0 0 0 -0.65268,0.60234 l -7.3946,12.53597 -7.40906,-12.537 a 1.5552029,1.5533196 0 0 0 -0.65112,-0.60131 h -1.38069 a 1.5552029,1.5533196 0 0 0 -0.65268,0.60131 l -7.40804,12.53598 -6.52161,-11.05636 a 1.5552029,1.5533196 0 0 0 -10e-4,-0.002 l -0.87451,-1.47859 a 1.5552029,1.5533196 0 0 0 -0.64959,-0.60028 h -1.40442 a 1.5552029,1.5533196 0 0 0 -0.65164,0.6008 l -7.4008,12.52516 -7.38843,-12.52412 a 1.5552029,1.5533196 0 0 0 -0.65061,-0.60184 h -1.38222 a 1.5552029,1.5533196 0 0 0 -0.647,0.60184 l -7.3879,12.52412 -7.40234,-12.52516 a 1.5552029,1.5533196 0 0 0 -0.6501,-0.6008 h -1.40441 a 1.5552029,1.5533196 0 0 0 -0.65114,0.6008 l -7.40338,12.52774 -7.40234,-12.52774 a 1.5552029,1.5533196 0 0 0 -0.6501,-0.6008 h -1.38172 a 1.5552029,1.5533196 0 0 0 -0.64749,0.60184 l -7.40803,12.55756 -7.40181,-12.54726 a 1.5552029,1.5533196 0 0 0 -0.67023,-0.61214 h -1.33889 a 1.5552029,1.5533196 0 0 0 -0.67076,0.61214 l -7.39717,12.53903 -7.41524,-12.54986 a 1.5552029,1.5533196 0 0 0 -0.65114,-0.60135 h -1.37861 a 1.5552029,1.5533196 0 0 0 -0.64856,0.60131 l -7.41679,12.54884 -7.40235,-12.54831 a 1.5552029,1.5533196 0 0 0 -0.6506,-0.60184 h -1.38224 a 1.5552029,1.5533196 0 0 0 -0.647,0.60184 l -7.40132,12.54624 -7.40131,-12.54624 a 1.5552029,1.5533196 0 0 0 -0.65112,-0.60184 h -1.37654 a 1.5552029,1.5533196 0 0 0 -0.65321,0.60234 l -7.40182,12.54781 -7.41627,-12.54781 a 1.5552029,1.5533196 0 0 0 -0.6532,-0.60234 h -1.37448 a 1.5552029,1.5533196 0 0 0 -0.65115,0.60339 l -7.408,12.55706 -7.40857,-12.55861 a 1.5552029,1.5533196 0 0 0 -0.65057,-0.60184 h -1.38123 a 1.5552029,1.5533196 0 0 0 -0.64699,0.6008 l -7.40853,12.53546 -6.5211,-11.05585 a 1.5552029,1.5533196 0 0 0 -9.9e-4,-0.002 l -0.87454,-1.47856 a 1.5552029,1.5533196 0 0 0 -0.64855,-0.59978 h -1.40648 a 1.5552029,1.5533196 0 0 0 -0.65061,0.60028 l -7.40029,12.52515 -7.38839,-12.52412 a 1.5552029,1.5533196 0 0 0 -0.65009,-0.60131 h -1.38379 a 1.5552029,1.5533196 0 0 0 -0.64597,0.60131 l -7.38892,12.52465 -7.40185,-12.52568 a 1.5552029,1.5533196 0 0 0 -0.64905,-0.60028 h -1.40599 a 1.5552029,1.5533196 0 0 0 -0.65007,0.60028 l -7.40391,12.52723 -7.40232,-12.52723 a 1.5552029,1.5533196 0 0 0 -0.64909,-0.60028 h -1.38379 a 1.5552029,1.5533196 0 0 0 -0.64645,0.60131 l -7.40804,12.55809 -7.40749,-12.55809 a 1.5552029,1.5533196 0 0 0 -0.65009,-0.60131 h -1.38482 a 1.5552029,1.5533196 0 0 0 -0.65061,0.60028 l -7.40234,12.5267 -7.40183,-12.5267 a 1.5552029,1.5533196 0 0 0 -0.64909,-0.60028 h -1.40595 a 1.5552029,1.5533196 0 0 0 -0.65011,0.60028 l -7.40284,12.52568 -7.3879,-12.52465 a 1.5552029,1.5533196 0 0 0 -0.65009,-0.60131 h -1.38378 a 1.5552029,1.5533196 0 0 0 -0.64598,0.60131 l -7.38892,12.52465 -7.40235,-12.52568 a 1.5552029,1.5533196 0 0 0 -0.64905,-0.60028 h -1.40597 a 1.5552029,1.5533196 0 0 0 -0.65062,0.60028 l -7.40182,12.5267 -7.40186,-12.5267 a 1.5552029,1.5533196 0 0 0 -0.64905,-0.60028 h -1.407 a 1.5552029,1.5533196 0 0 0 -0.65062,0.60028 l -7.40079,12.52515 -7.38735,-12.52412 a 1.5552029,1.5533196 0 0 0 -0.64959,-0.60131 h -1.38429 a 1.5552029,1.5533196 0 0 0 -0.646,0.60131 l -7.38839,12.52412 -7.4008,-12.52515 a 1.5552029,1.5533196 0 0 0 -0.64909,-0.60028 h -1.408 a 1.5552029,1.5533196 0 0 0 -0.65115,0.60131 l -7.39461,12.53495 -7.40852,-12.53598 a 1.5552029,1.5533196 0 0 0 -0.64905,-0.60028 h -1.39207 a 1.5552029,1.5533196 0 0 0 -0.65008,0.60028 l -7.40905,12.53649 -6.5211,-11.05686 a 1.5552029,1.5533196 0 0 0 -5.3e-4,-0.002 l -0.87504,-1.47857 a 1.5552029,1.5533196 0 0 0 -0.64906,-0.59925 h -1.40647 a 1.5552029,1.5533196 0 0 0 -0.65063,0.60028 l -7.40078,12.52515 -7.38791,-12.52412 a 1.5552029,1.5533196 0 0 0 -0.64959,-0.60131 h -1.3843 a 1.5552029,1.5533196 0 0 0 -0.64597,0.60131 l -7.3884,12.52465 -7.40234,-12.52568 a 1.5552029,1.5533196 0 0 0 -0.64906,-0.60028 h -1.40597 a 1.5552029,1.5533196 0 0 0 -0.65063,0.60028 l -7.40336,12.52723 -7.40234,-12.52723 a 1.5552029,1.5533196 0 0 0 -0.64906,-0.60028 h -1.38379 a 1.5552029,1.5533196 0 0 0 -0.64647,0.60131 l -7.40753,12.55809 -7.408,-12.55809 a 1.5552029,1.5533196 0 0 0 -0.64959,-0.60131 h -1.38428 a 1.5552029,1.5533196 0 0 0 -0.64546,0.60028 l -7.4034,12.52773 -7.40234,-12.52773 a 1.5552029,1.5533196 0 0 0 -0.64905,-0.60028 h -1.40648 a 1.5552029,1.5533196 0 0 0 -0.65011,0.60028 l -7.40236,12.52515 -7.38839,-12.52359 a 1.5552029,1.5533196 0 0 0 -0.65061,-0.60184 h -1.38222 a 1.5552029,1.5533196 0 0 0 -0.64701,0.60184 l -7.38842,12.52359 -7.40235,-12.52515 a 1.5552029,1.5533196 0 0 0 -0.64906,-0.60028 h -1.40597 a 1.5552029,1.5533196 0 0 0 -0.65112,0.60131 l -7.3951,12.53598 -7.40907,-12.53701 a 1.5552029,1.5533196 0 0 0 -0.64908,-0.60028 h -1.3915 a 1.5552029,1.5533196 0 0 0 -0.65061,0.60028 l -7.40853,12.53701 -7.13147,-12.08783 -0.26416,-0.44815 a 1.5552029,1.5533196 0 0 0 -0.65012,-0.60131 h -1.40649 a 1.5552029,1.5533196 0 0 0 -0.65061,0.60028 l -7.40078,12.52515 -7.38843,-12.52412 a 1.5552029,1.5533196 0 0 0 -0.65008,-0.60131 h -1.3838 a 1.5552029,1.5533196 0 0 0 -0.64595,0.60131 l -7.38841,12.52465 -7.40183,-12.52568 a 1.5552029,1.5533196 0 0 0 -0.64907,-0.60028 h -1.40597 a 1.5552029,1.5533196 0 0 0 -0.65061,0.60028 l -7.40339,12.52723 -7.40232,-12.52723 a 1.5552029,1.5533196 0 0 0 -0.64909,-0.60028 h -1.38375 a 1.5552029,1.5533196 0 0 0 -0.6465,0.60131 l -7.40749,12.55758 -7.40803,-12.55758 a 1.5552029,1.5533196 0 0 0 -0.65009,-0.60131 h -1.38122 a 1.5552029,1.5533196 0 0 0 -0.65059,0.60028 l -7.40234,12.5267 -7.40185,-12.5267 a 1.5552029,1.5533196 0 0 0 -0.64905,-0.60028 h -1.40648 a 1.5552029,1.5533196 0 0 0 -0.65009,0.60028 l -7.40234,12.52568 -7.38843,-12.52465 a 1.5552029,1.5533196 0 0 0 -0.6501,-0.60131 h -1.38378 a 1.5552029,1.5533196 0 0 0 -0.64596,0.60131 l -7.38842,12.52412 -7.40234,-12.52515 a 1.5552029,1.5533196 0 0 0 -0.64906,-0.60028 h -1.40649 a 1.5552029,1.5533196 0 0 0 -0.65062,0.60028 l -7.40234,12.52826 -7.40234,-12.52826 a 1.5552029,1.5533196 0 0 0 -0.64907,-0.60028 h -1.40699 a 1.5552029,1.5533196 0 0 0 -0.65062,0.60028 l -7.40131,12.52568 -7.38841,-12.52465 a 1.5552029,1.5533196 0 0 0 -0.6501,-0.60131 h -1.38379 a 1.5552029,1.5533196 0 0 0 -0.64596,0.60131 l -7.38841,12.52412 -7.40028,-12.52515 a 1.5552029,1.5533196 0 0 0 -0.64907,-0.60028 h -1.40906 a 1.5552029,1.5533196 0 0 0 -0.65112,0.60131 l -7.39461,12.53648 -7.40905,-12.53751 a 1.5552029,1.5533196 0 0 0 -0.64906,-0.60028 h -1.39203 a 1.5552029,1.5533196 0 0 0 -0.65062,0.60028 l -7.40802,12.53598 -6.52163,-11.05635 a 1.5552029,1.5533196 0 0 0 -9.9e-4,-0.002 l -0.87454,-1.47857 a 1.5552029,1.5533196 0 0 0 -0.64751,-0.59925 h -1.41281 a 1.5552029,1.5533196 0 0 0 -0.64958,0.59978 l -7.40026,12.52515 -7.38842,-12.52413 a 1.5552029,1.5533196 0 0 0 -0.64907,-0.6008 h -1.38585 a 1.5552029,1.5533196 0 0 0 -0.64492,0.6008 l -7.38791,12.52413 -7.40234,-12.52515 a 1.5552029,1.5533196 0 0 0 -0.64855,-0.59978 h -1.40803 a 1.5552029,1.5533196 0 0 0 -0.64958,0.59978 l -7.40338,12.5272 -7.40182,-12.5272 a 1.5552029,1.5533196 0 0 0 -0.64804,-0.59978 h -1.38584 a 1.5552029,1.5533196 0 0 0 -0.64546,0.6008 l -7.407967,12.55707 -7.40802,-12.55707 a 1.5552029,1.5533196 0 0 0 -0.649065,-0.6008 H 86.7873 a 1.5552029,1.5533196 0 0 0 -0.64958,0.59978 l -7.401827,12.52667 -7.401312,-12.52667 a 1.5552029,1.5533196 0 0 0 -0.648552,-0.59978 h -1.42994 a 1.5552029,1.5533196 0 0 0 -0.64958,0.59978 l -7.402344,12.52515 -7.387898,-12.52413 a 1.5552029,1.5533196 0 0 0 -0.649065,-0.6008 H 51.78136 a 1.5552029,1.5533196 0 0 0 -0.644941,0.6008 l -7.387894,12.52413 -7.402344,-12.52515 a 1.5552029,1.5533196 0 0 0 -0.648551,-0.59978 h -1.408026 a 1.5552029,1.5533196 0 0 0 -0.649583,0.59978 l -7.402343,12.52841 -7.403377,-12.52721 a 1.5552029,1.5533196 0 0 0 -0.650096,-0.6008 h -1.404418 a 1.5552029,1.5533196 0 0 0 -0.651645,0.6008 L 8.7283371,284.68102 1.555076,272.52216 v -0.96709 z"
         style="fill:#000000;fill-opacity:0.44897958;stroke:none;stroke-width:0.71350443;stroke-miterlimit:4;stroke-dasharray:none;stroke-opacity:1" />
    </g>
  </g>
</svg>
