<?xml version="1.0" encoding="utf-8"?>
<!--
  ~ Copyright (c) 2017.  Caipi Labs.  All rights reserved.
  ~
  ~ This File is part of Caipi. You can redistribute it and/or modify
  ~ it under the terms of the GNU Affero General Public License as
  ~ published by the Free Software Foundation, either version 3 of the
  ~ License, or (at your option) any later version.
  ~ This program is distributed in the hope that it will be useful,
  ~ but WITHOUT ANY WARRANTY; without even the implied warranty of
  ~ MERCHANTABILITY or FITNESS FOR A PARTICULAR PURPOSE.  See the
  ~ GNU Affero General Public License for more details.
  ~ You should have received a copy of the GNU Affero General Public License
  ~ along with this program. If not, see <http://www.gnu.org/licenses/>.
  ~  This project is dual licensed under AGPL and Commercial Licence.
  ~
  ~ @author : Nathanael Braun
  ~ @contact : caipilabs@gmail.com
  -->

<!-- Generator: Adobe Illustrator 15.0.0, SVG Export Plug-In . SVG Version: 6.00 Build 0)  -->
<!DOCTYPE svg PUBLIC "-//W3C//DTD SVG 1.1//EN" "http://www.w3.org/Graphics/SVG/1.1/DTD/svg11.dtd">
<svg version="1.1" id="Calque_1" xmlns="http://www.w3.org/2000/svg" xmlns:xlink="http://www.w3.org/1999/xlink" x="0px" y="0px"
	 width="78.155px" height="78.426px" viewBox="0 0 78.155 78.426" enable-background="new 0 0 78.155 78.426" xml:space="preserve">
<path fill="#FFFFFF" d="M46.806,39.23L76.53,9.505c2.167-2.167,2.167-5.68,0-7.847c-2.166-2.167-5.679-2.167-7.846,0L38.959,31.383
	L9.234,1.659c-2.167-2.167-5.68-2.167-7.846,0c-2.167,2.167-2.167,5.68,0,7.847L31.112,39.23L1.388,68.955
	c-2.167,2.167-2.167,5.679,0,7.847c1.083,1.083,2.503,1.625,3.923,1.625c1.42,0,2.84-0.542,3.923-1.625l29.725-29.725l29.725,29.725
	c1.083,1.083,2.503,1.625,3.923,1.625s2.84-0.542,3.923-1.625c2.167-2.167,2.167-5.68,0-7.847L46.806,39.23z"/>
</svg>
