<?xml version="1.0" encoding="utf-8"?>
<!--
  ~ Copyright (c) 2017.  Caipi Labs.  All rights reserved.
  ~
  ~ This File is part of Caipi. You can redistribute it and/or modify
  ~ it under the terms of the GNU Affero General Public License as
  ~ published by the Free Software Foundation, either version 3 of the
  ~ License, or (at your option) any later version.
  ~ This program is distributed in the hope that it will be useful,
  ~ but WITHOUT ANY WARRANTY; without even the implied warranty of
  ~ MERCHANTABILITY or FITNESS FOR A PARTICULAR PURPOSE.  See the
  ~ GNU Affero General Public License for more details.
  ~ You should have received a copy of the GNU Affero General Public License
  ~ along with this program. If not, see <http://www.gnu.org/licenses/>.
  ~  This project is dual licensed under AGPL and Commercial Licence.
  ~
  ~ @author : Nathanael Braun
  ~ @contact : caipilabs@gmail.com
  -->

<!-- Generator: Adobe Illustrator 15.0.0, SVG Export Plug-In . SVG Version: 6.00 Build 0)  -->
<!DOCTYPE svg PUBLIC "-//W3C//DTD SVG 1.1//EN" "http://www.w3.org/Graphics/SVG/1.1/DTD/svg11.dtd">
<svg version="1.1" id="Calque_1" xmlns="http://www.w3.org/2000/svg" xmlns:xlink="http://www.w3.org/1999/xlink" x="0px" y="0px"
	 width="154px" height="111px" viewBox="0 0 154 111" enable-background="new 0 0 154 111" xml:space="preserve">
<path fill="#FFFFFF" d="M152.5,0h-3.953H8.145H2.5H0v1.5v107v2.5h2.5h150h1.5v-2.5V7.866V4.433V1.5V0H152.5z M141,21.033v64.286
	l-33.636-35.542L141,21.033z M14,20.488l34.286,29.298L14,86.014V20.488z M59.233,58.988L73.94,71.373
	c1.203,1.027,2.769,1.532,4.406,1.532c1.603,0,3.168-0.615,4.409-1.675l14.711-12.232L133.111,97H23.6L59.233,58.988z M130.159,14
	L78.346,58.277L26.532,14H130.159z"/>
</svg>
