<?xml version="1.0" encoding="utf-8"?>
<!--
  ~ Copyright (c) 2017.  Caipi Labs.  All rights reserved.
  ~
  ~ This File is part of Caipi. You can redistribute it and/or modify
  ~ it under the terms of the GNU Affero General Public License as
  ~ published by the Free Software Foundation, either version 3 of the
  ~ License, or (at your option) any later version.
  ~ This program is distributed in the hope that it will be useful,
  ~ but WITHOUT ANY WARRANTY; without even the implied warranty of
  ~ MERCHANTABILITY or FITNESS FOR A PARTICULAR PURPOSE.  See the
  ~ GNU Affero General Public License for more details.
  ~ You should have received a copy of the GNU Affero General Public License
  ~ along with this program. If not, see <http://www.gnu.org/licenses/>.
  ~  This project is dual licensed under AGPL and Commercial Licence.
  ~
  ~ @author : Nathanael Braun
  ~ @contact : caipilabs@gmail.com
  -->

<!-- Generator: Adobe Illustrator 15.0.0, SVG Export Plug-In . SVG Version: 6.00 Build 0)  -->
<!DOCTYPE svg PUBLIC "-//W3C//DTD SVG 1.1//EN" "http://www.w3.org/Graphics/SVG/1.1/DTD/svg11.dtd">
<svg version="1.1" id="Calque_1" xmlns="http://www.w3.org/2000/svg" xmlns:xlink="http://www.w3.org/1999/xlink" x="0px" y="0px"
	 width="95.734px" height="95.623px" viewBox="0 0 95.734 95.623" enable-background="new 0 0 95.734 95.623" xml:space="preserve">
<g>
	<path fill-rule="evenodd" clip-rule="evenodd" fill="#FFFFFF" d="M65.791,55.616c6.843,6.202,14.421,12.722,21.802,19.1
		c2.394,2.069,5.595,4.044,6.945,6.56c4.46,8.309-4.397,17.144-12.541,13.505c-2.891-1.292-4.902-4.161-7.139-6.753
		c-6.441-7.464-12.75-14.912-19.101-22.188c-2.496,1.465-3.718,2.385-5.788,3.28c-12.611,5.451-26.823,1.735-34.921-4.052
		C6.117,58.686,0,48.341,0,35.936c0-10.515,4.449-18.802,10.226-24.888C16.153,4.803,24.558,0.636,35.114,0.05
		c12.818-0.71,23.708,6.244,29.905,14.856c6.301,8.757,9.169,22.984,3.859,35.114C67.983,52.063,67.379,53.654,65.791,55.616z
		 M16.207,16.643c-3.496,3.629-7.241,7.899-7.91,16.593c-0.985,12.789,5.412,21.338,12.155,25.853
		c4.861,3.255,12.37,5.415,19.293,4.438c18.358-2.591,31.838-25.358,18.907-43.603C54.774,14.452,45.595,7.171,32.799,8.54
		C25.04,9.369,20.041,12.663,16.207,16.643z"/>
	<path fill-rule="evenodd" clip-rule="evenodd" fill="#FFFFFF" d="M38.973,12.398c7.648-0.229,14.559,6.15,17.75,11.576
		c0.895,1.521,5.921,10.829,0.579,10.805c-2.704-0.013-3.096-4.389-3.858-6.174c-2.007-4.703-5.08-7.985-9.84-10.032
		c-1.698-0.731-5.964-1.05-6.174-3.666C37.329,13.649,37.916,12.883,38.973,12.398z"/>
</g>
</svg>
