<?xml version="1.0" encoding="utf-8"?>
<!--
  ~ Copyright (c) 2017.  Caipi Labs.  All rights reserved.
  ~
  ~ This File is part of Caipi. You can redistribute it and/or modify
  ~ it under the terms of the GNU Affero General Public License as
  ~ published by the Free Software Foundation, either version 3 of the
  ~ License, or (at your option) any later version.
  ~ This program is distributed in the hope that it will be useful,
  ~ but WITHOUT ANY WARRANTY; without even the implied warranty of
  ~ MERCHANTABILITY or FITNESS FOR A PARTICULAR PURPOSE.  See the
  ~ GNU Affero General Public License for more details.
  ~ You should have received a copy of the GNU Affero General Public License
  ~ along with this program. If not, see <http://www.gnu.org/licenses/>.
  ~  This project is dual licensed under AGPL and Commercial Licence.
  ~
  ~ @author : Nathanael Braun
  ~ @contact : caipilabs@gmail.com
  -->

<!-- Generator: Adobe Illustrator 15.0.0, SVG Export Plug-In . SVG Version: 6.00 Build 0)  -->
<!DOCTYPE svg PUBLIC "-//W3C//DTD SVG 1.1//EN" "http://www.w3.org/Graphics/SVG/1.1/DTD/svg11.dtd">
<svg version="1.1" id="Calque_1" xmlns="http://www.w3.org/2000/svg" xmlns:xlink="http://www.w3.org/1999/xlink" x="0px" y="0px"
	 width="79.737px" height="64.646px" viewBox="0 0 79.737 64.646" enable-background="new 0 0 79.737 64.646" xml:space="preserve">
<g>
	<path fill="#FFFFFF" d="M77.485,1.352c-6.194,3.547-10.481,3.829-10.481,3.829s-0.002,0.001-0.002,0.002
		C64.021,1.995,59.781,0,55.073,0c-9.019,0-16.33,7.312-16.33,16.331c0,1.278,0.151,2.521,0.429,3.714
		c-0.001,0.001-0.003,0.001-0.004,0.002c-20.551,0-33.762-16.894-33.762-16.894c-6.645,14.078,5.068,21.624,5.068,21.624
		c-4.477,0-7.433-2.14-7.433-2.14c0.676,14.078,13.064,16.218,13.064,16.218c-2.027,1.126-7.433,0.563-7.433,0.563
		c4.167,10.474,15.317,11.375,15.317,11.375C10.812,59.916,0,57.325,0,57.325c11.6,7.433,23.876,7.321,23.876,7.321
		c34.284,0,47.527-26.233,47.527-48.315c5.406-4.242,8.334-8.391,8.334-8.391c-5.181,2.14-9.506,2.305-9.506,2.305
		C75.76,6.805,77.485,1.352,77.485,1.352z"/>
</g>
</svg>
