<svg version="1" xmlns="http://www.w3.org/2000/svg" width="1600" height="1600" viewBox="0 0 1200.000000 1200.000000"><path d="M565.7 157.6c-.1.1-6.7.7-14.7 1.4-44.8 3.6-88.2 13.2-128 28.5-9.1 3.5-18.2 7.1-20.2 7.9-3.3 1.4-19.9 1.6-156.5 1.7-84 0-155.8.3-159.5.8-5.6.6-7.3 1.2-9.9 3.7-4.8 4.6-6.2 8-5.7 14.4.5 6.9 3.5 11.5 9.2 14.1 3.9 1.8 9.2 1.9 121.6 1.9 64.6 0 117 .4 116.4.8-.6.4-1.4 2-1.8 3.5-2 8.3-4 10.7-17.6 21.6-7.4 6-18.9 15.8-25.5 21.8-76.2 69.6-128.1 166.2-143.9 267.8-6.7 42.3-7.4 90.1-2 132 14.3 112.4 70.9 217 157.5 291.1 71.8 61.5 157.9 98.5 253.9 109.1 19.5 2.1 70.6 2.4 89 .5 133.7-13.9 247.4-77.5 327.6-183.3 40.1-52.9 69.4-118.1 82.9-184.3 17.8-87.4 10.1-176.1-22.6-261.4-3.3-8.5-5.6-15.9-5.3-16.4.4-.7.2-.8-.4-.4-.7.4-1.2.3-1.2-.2 0-1.7 31.8-2.2 102-1.5l70.6.6 3.7-3.2c3.4-3.1 3.7-3.7 3.7-8.8 0-4.7-.4-5.9-2.9-8.4l-2.9-2.9h-75c-41.2 0-83-.3-93-.7l-18.2-.6-8.6-15.1c-62-108.7-162.3-187-281.3-219.6-37.9-10.4-69.3-14.8-112.4-15.8-15.9-.4-28.9-.6-29-.6zM405 202.5c1.6.8 3.4 2.4 4 3.4 1.6 3.2 1.2 12.6-1 18.3-6.5 17.7-13.8 40-12.6 38.8.7-.8 8.6-9.7 17.4-19.7 22.2-25.3 23.8-26.5 35.9-27.8 7.5-.9 12.3.5 15.8 4.6 2.1 2.6 2.5 4.1 2.5 9.5s-1 8.9-6.5 23.5c-3.6 9.4-6.5 17.4-6.5 17.7 0 .3 7.8-7.1 17.3-16.5C489.7 236 491.2 235 501 235c5.6 0 10.8 2.6 13.8 7.1 4 5.7 2.8 11.7-7.8 39.4-5.1 13.2-9.8 25.7-10.6 27.7l-1.3 3.8h9.7l.3-8.3c.8-17.6 11.2-29.9 30.9-36.3 4.7-1.5 10.3-1.8 37.6-2.2 26.4-.3 32.2-.1 33.2 1 1.1 1.4-1 8.3-11.1 36l-3.6 9.8h4.3c3.2 0 4.6-.5 5.1-1.8.4-.9 3.6-10 7.2-20.2s7.1-20 7.9-21.8l1.3-3.2 17.8.2c21.1.4 20.3-.3 15.4 13.4-1.7 4.6-2.8 8.4-2.6 8.4.3 0 5.8-4.3 12.3-9.7 15.1-12.4 18-13.8 30-13.8 9.3 0 9.4 0 12.3 3.3 3.5 3.9 3.7 7.1.9 14.8-2.2 6.4-3.5 7 11.5-5.5 13-10.9 16.5-12.6 27.7-12.6 8.2 0 8.8.1 11.7 2.9 4.9 4.7 4.4 10.5-2.4 29.4-3 8.4-5.5 15.5-5.5 15.8 0 .2 1.3.4 2.9.4h2.8l.5-8.3c1-17.5 11.5-30.1 30.2-36 6.7-2.1 8.7-2.2 39.1-2.2h32l.3 2.6c.2 1.4-3 11.8-7.1 23l-7.4 20.4 17.4.3c18.8.3 19.2.4 17.9 5.7-.9 3.7-6.5 9.6-11.1 11.6-3.5 1.6-7 1.9-29.5 1.9-21.2 0-26-.3-28.5-1.6-1.6-.8-3.3-2.2-3.8-2.9-.6-1.1-1.6-.9-5.2 1.4-6.5 4.2-12 5.4-20.6 4.6-4.1-.3-19.5-.9-34.2-1.3l-26.9-.7-3.4-3.7c-2.9-3.2-3.4-4.5-3.4-8.6 0-2.7.6-7 1.4-9.5.8-2.6 1.3-4.7 1.1-4.7-.1 0-6.7 5.4-14.6 12.1-7.9 6.6-16 12.9-17.9 13.9-7.8 4-17.9 3.7-23-.7-2.7-2.2-3-3.1-3-8.1 0-3.3.9-8 2-11 1.4-3.5 1.6-5.1.8-4.6-.7.4-6.5 5.2-12.9 10.5-6.4 5.4-13.3 10.9-15.4 12.3l-3.8 2.6h-30.9c-26.8 0-31.5-.2-34.5-1.7-1.9-.9-3.7-2.2-4-2.9-.3-.9-1.7-.5-4.9 1.5-6.5 4.2-11.9 5.4-20.5 4.6-4.1-.3-20.4-.9-36.4-1.3-20.5-.5-29.7-1.1-31.2-2-6-3.4-5.8-10.3.7-27.4 2.8-7.2 4.8-13.3 4.7-13.5-.2-.2-8.6 8.6-18.5 19.6-10 10.9-19.8 21-21.9 22.2-3.1 1.9-5.2 2.4-10.8 2.4-11.8-.1-15.8-3.5-15.7-13.4 0-4.5 1.6-9.6 8.1-26.1 4.4-11.2 7.9-20.6 7.7-20.8-.2-.1-10.6 12.1-23.1 27.2-18 21.8-23.5 27.9-26.9 29.6-3.7 1.7-6.2 2-18.4 2-12.9 0-14.2-.2-14.2-1.8 0-.9 7.8-24 17.4-51.2l17.3-49.5-141.6-.5-141.6-.5-3.7-2.3c-2.5-1.6-4.2-3.7-5.4-6.7-2.5-6.7-.4-12.7 5.9-16.5 3.1-2 6.4-2 162-2 139.7 0 159.2.2 161.7 1.5zM618.5 238c34.1 3.1 67 10.3 96.9 21.2 11.4 4.1 11.7 4.3 9.5 5.8-1.3.8-5.3 3.9-8.9 6.7l-6.5 5.3-.5-5.1c-.5-4.2-1.2-5.7-3.8-8-3.1-2.8-3.5-2.9-14-2.9-14.2 0-17.9 1.7-33.5 14.9-1.7 1.4-1.7 1.3-.8-1.3 1.5-3.7 1.4-8.9-.1-10.4-.9-.9-6.9-1.2-20.8-1.2-21.7 0-21.5 0-23.8 6.5l-1 3-.1-3.6c-.1-2-.7-4.2-1.5-4.8-1.1-.9-10.5-1.1-36.8-.9-32.9.4-35.7.5-40.9 2.5-7.8 2.9-11.3 4.8-15.6 8.6-2.8 2.4-3.5 2.7-2.9 1.2 5.8-14.9 6.6-17.9 6.6-25.6 0-5.6.4-7.9 1.2-7.9.7 0 6-.7 11.8-1.5 5.8-.9 14.6-1.9 19.5-2.4 13-1.2 53.1-1.3 66-.1zM400 303.8c-3.3 8.4-4 11.5-4 17.2 0 5.9.3 7.3 2.6 10 1.5 1.7 3.9 3.7 5.5 4.5 3.2 1.7 17.3 2.1 21.3.5 3.4-1.3 9.1-6.5 20.8-19.2 5.4-5.9 9.8-10.4 9.8-9.9s-.7 2.8-1.5 5.1-1.5 6.6-1.5 9.5c0 4.3.5 6 2.6 8.4 1.4 1.8 3.6 3.7 4.8 4.4 1.4.8 11.4 1.4 32.1 1.9 16.5.4 32.6 1 35.7 1.4 6.5.7 14.4-.7 20.5-3.7 3.8-1.8 4.4-1.9 7-.5 1.6.8 4.6 1.7 6.7 2.1l3.8.8-4.9 1.6c-6.4 2.2-11.8 6.4-15 11.8-2.4 4.1-2.5 5-2.1 15.1.3 5.9.8 11.5 1.2 12.4.8 1.7-.5 1.8-18.7 1.8-25.6 0-32.1 1.4-39.5 8.4-5.2 4.8-6.2 7.6-6.2 16.6 0 9.7 1.5 13.5 7.4 18.7 9.5 8.2 23.2 11.8 45.6 11.8 21-.1 34.1-3.3 43.3-10.6l3.9-3.1 3.7 3.6c6 5.9 12 7.6 26.6 7.6 13 0 20.2-1.6 24.6-5.6 1.7-1.6 2-1.5 5.3 1.4l3.6 3.1h39c43 .1 41.9.2 49.8-6.4 3.6-3 4.2-3.1 4.2-.7 0 1 1.2 3 2.8 4.5 2.7 2.6 2.9 2.6 21.7 3.1 10.5.3 22.5.8 26.8 1.1 5.9.5 8.9.3 12.8-1 3.7-1.3 5.4-1.4 6.2-.6.8.8 17.1 1.1 55.8 1.1h54.7l7.6 15.2c9.2 18.8 13.5 29.1 19.7 47.7 21.5 63.7 25.7 133.3 12 199.2-11.1 52.9-35.2 106.3-67.4 149.2-47.5 63-111.8 109.4-185.9 133.8-23.8 7.8-52.2 13.9-79.8 17-17.4 2-63 1.7-81-.5-46.7-5.6-85.7-17.2-126-37.2-36.3-18.1-66.4-39.4-95.3-67.4-32-30.9-56.4-64.3-76.2-104.5-25.5-51.6-37.7-100.8-39.2-158-.7-26.1.5-44.5 4.3-69.5 12.1-78.4 49.8-152.4 106.5-208.9l12.4-12.4 14.1.2c16.4.3 21.8-.8 27.1-5.4 2.1-1.8 10.1-11 17.8-20.3 7.7-9.4 14.1-17 14.2-16.8.1.1-1.5 4.8-3.7 10.4zm199.1 3.3c-.5 1.3-1 1.9-1 1.2-.1-1.5 1-4.5 1.5-4 .3.2 0 1.5-.5 2.8zm111.3 23.8l4.6 4.6 27.3.7c14.9.3 30 .9 33.3 1.3 6.9.8 14.7-.5 21.1-3.6 4.1-2 4.3-2 7.5-.2 2.7 1.4 6.5 1.9 20.9 2.3l17.5.5 6 5.2 5.9 5.3h-13.1c-10.9 0-13.4.3-14.5 1.6-.8.9-3.6 8-6.4 15.8l-5 14.1-11 .6c-10.3.6-18 2.4-21.1 5-1 .8-2.2 0-5-3-3.6-4-3.7-4.1-10.5-4.1-7.5 0-12.3 1.5-17.6 5.6-3.1 2.3-3.3 2.4-3.3.6 0-1.1-.6-2.4-1.3-3-.9-.8-22.4-1.1-72.3-1.1-68.6 0-71.1 0-76.4 2-3 1.1-6.2 2.2-7 2.5-1.2.4-2-.9-3.4-5.3-1-3.2-2.5-7.2-3.4-8.8l-1.5-3 4.1 3.7c8.7 7.9 22.7 7.9 31.4 0 5-4.5 6.8-8.6 6.8-14.9-.1-6.6-3-12.6-8.1-16.2l-4.2-3.1h5.9c7.6 0 10.7-1.6 22.3-11.4l9.1-7.7v5.3c0 10.5 5.4 14.8 18.7 14.8 10.1-.1 13-1.4 26.3-12.5l10.5-8.7.7 5.2c.5 4.5 1.3 6 5.2 9.9zm-100.9 9c2.2 1 5.5 3.4 7.3 5.5 2.8 3.2 3.2 4.4 3.2 9.5 0 4.4-.6 6.6-2.2 9.1-3.9 5.7-7.1 7.4-14.8 7.8-6.1.4-7.5.1-11.4-2.2-4.5-2.7-8.6-9-8.6-13.4 0-2.8-2.4-2.8-5.1-.1-2.5 2.5-2.2 4 3.3 18.7 2.2 5.8 4.2 12 4.5 13.8l.5 3.3 3.7-2.9c8.1-6.6 7.1-6.5 66.9-6.8 50.7-.3 54.3-.2 54.9 1.5.4 1-1.2 7.2-3.8 14.7-5.6 16.5-5.5 15.9-3.2 15.4 1.3-.2 3.2-4.2 7.3-15.8l5.5-15.5 12.8-.3c14.6-.3 14.9-.1 12.3 7.5-.9 2.5-1.6 4.8-1.6 5.1 0 .2 3-2.1 6.7-5.2 8.6-7.1 12.2-8.8 19.5-8.9 5.5-.2 6.2.1 8.5 2.7 2 2.4 2.4 3.7 2 6.8l-.5 3.8 4.1-3.5c6.4-5.5 13.5-7.7 26.2-8.3l11-.4 5.5-15.7 5.5-15.6h13c11.7 0 13 .2 13.3 1.8.2 1-4.2 14.7-9.8 30.4-5.6 15.7-9.8 28.8-9.5 29.1.4.4 78.3.9 173.2 1.2l172.5.5 1.9 2.4c2.7 3.3 2.5 8.2-.5 11l-2.4 2.3-183.7-.1c-100.9-.1-184.3-.5-185.3-.8-.9-.3-2.4-1.2-3.3-2-1.3-1.1-2.2-1-6 .6-4.2 1.9-6 2-30.8 1.4-23.8-.6-26.5-.8-28.7-2.5-2.6-2.1-3.2-6.6-1.4-11.4 1-2.4.7-2.3-3.7 1.5-2.7 2.3-7.2 5.9-10.2 7.9l-5.4 3.7-20.8.3c-17.2.3-21.3 0-23.8-1.2-2.6-1.4-3.3-1.4-6.5-.1-4.9 2.1-21.7 2-25.6 0-3.3-1.7-5-4.3-5-7.6 0-2.1-.3-2.1-3.7 1.3-6.6 6.4-12.1 8.2-24.8 8.3-13.9 0-19.5-1.5-25-6.9-2.3-2.3-4.4-4.8-4.7-5.6-.4-1.1-1.5-.6-4.8 2.4-9.4 8.5-23.9 12.6-44.5 12.6-21.4 0-36.1-4.4-44.2-13.2-4.6-5.1-5.8-9.1-5.1-16.9.9-9.3 8.8-15.7 21.8-17.8 3.6-.6 13.7-1.1 22.5-1.1h16.1l2.7 5.6c4.4 8.9 4.1 9.1-12.3 9.6-12.1.3-14.2.6-16.6 2.4-6.7 5-5.8 9.5 2.9 13.8 8.2 4.1 17.8 4.2 26 .4 5-2.4 6.1-3.4 7.9-7.5 1.9-4.3 2-5.3.9-10.4-.6-3.1-2.3-8.5-3.7-12-7.3-17.6-7.1-28.3.4-36.2 6.6-7 16-9.3 40.2-9.5 10.2-.1 13.2.2 16.5 1.7zM865 358.4c11.4 12 39 47.4 39 50 0 .3-14.2.6-31.5.6s-31.5-.2-31.5-.4 3.8-11.1 8.5-24.2c4.7-13.2 8.8-25.6 9.1-27.7.4-2 .8-3.7 1-3.7.1 0 2.6 2.4 5.4 5.4zm-312.4 43.9c-1.6 8.4-14 12.9-26 9.3-5.1-1.6-8.6-4.1-8.6-6.2 0-3.1 6.2-4.8 19.5-5.2 7.2-.2 13.4-.8 13.9-1.3 1.5-1.4 1.9-.3 1.2 3.4zM238 795l5 10-4.2 2.1c-3.9 2-4.2 2-5.4.4-.8-1-1.5-2.2-1.7-2.8-.1-.5-9.8 3.9-21.5 9.7-11.6 5.8-21.3 10.6-21.5 10.6-1.1 0-3.9-8.2-3.1-8.9.5-.5 9.8-5.5 20.7-11.1 10.8-5.6 19.7-10.6 19.7-11.2 0-.5-.5-1.8-1-2.8-.9-1.7-.5-2.2 2.7-3.9 2.1-1.1 4.1-2 4.5-2.1.4 0 3 4.5 5.8 10zm708.3-5.1c.5.5.1 2.5-.7 4.6-.9 2.1-1.6 3.9-1.6 4.1 0 .2 2.3 1.6 5.2 3 4.8 2.5 5.3 2.5 6.3.9 2.9-4.9 2.8-4.8 7.9-2.4 3.6 1.8 4.6 2.8 4.2 4.1-.3 1-.9 2.6-1.2 3.6-.4 1.3.5 2.3 3.3 3.9 7 3.8 7.8 3.8 9.7-.6l1.8-3.9 4.9 2c4.2 1.8 4.8 2.4 4.3 4.2-1.3 4.3-6.5 13.7-7.8 14.2-.8.3-13-5.1-27-12L930 803.1l4.2-8.5 4.2-8.5 3.5 1.5c2 .8 4 1.9 4.4 2.3zm6.9 36.4l21.7 12.9-1.5 3c-.8 1.6-2.1 3.1-2.8 3.4-.7.3-5.5-2-10.7-5-8.5-5-9.5-5.4-10.6-3.9-.7.9-1.3 2-1.3 2.4 0 .3 4.3 3.2 9.5 6.3 5.2 3.1 9.5 6.2 9.5 6.7 0 1.7-3.3 6.9-4.4 6.9-1.3 0-38.7-21.6-46.4-26.8-1.1-.8-.9-1.7 1.2-5l2.6-4.1 8.2 4.9c4.6 2.8 8.8 5 9.4 5 1 0 2.4-2.1 2.4-3.5 0-.3-3.9-2.7-8.7-5.6-4.9-2.8-8.9-5.2-9-5.3-.1-.1.9-1.9 2.3-3.9 3-4.4-.4-5.8 28.6 11.6zm-703.8-8.2c5.7 4.5 7.2 11.9 3.4 16.3-2.1 2.4-27.4 18.3-36.2 22.8-6.3 3.2-11.9 1.1-15.5-5.9-1.5-3-1.4-7.5.4-10 1.5-2.1 33.4-22.2 38.5-24.2 3.9-1.5 6.5-1.3 9.4 1zm16 25.5c1.6 2 2.4 3.9 1.9 4.3-.5.3-8.9 6.4-18.6 13.4-12.4 9-17.7 13.4-17.7 14.8 0 1.2.7 1.9 1.8 1.9s9.9-5.8 19.8-13c9.8-7.1 18.1-13 18.4-12.9.3 0 1.7 1.7 3.2 3.9l2.7 3.9-18.7 13.4c-10.3 7.4-19.7 13.9-20.9 14.6-5.4 2.8-12 .3-15.8-6.2-3.1-5.4-3.2-8.8-.2-12.1 2.5-2.9 38.6-29.4 40.2-29.5.6-.1 2.3 1.5 3.9 3.5zm655 1c2.5 1.6 4.6 3.3 4.6 3.9-.1.5-1.2 2.3-2.5 4l-2.4 2.9-4.1-2.3c-3.1-1.7-4.5-2-5.3-1.2-1.9 1.9.2 4 13.8 13.8 13.2 9.4 15.4 10.6 17.4 9.3 1.8-1.1.3-3.7-4-6.8l-3.8-2.8 2.6-3.7c1.4-2 2.9-3.7 3.3-3.7.4 0 3.3 2.4 6.4 5.2 4.8 4.4 5.8 6 6.3 9.4 1.1 8.5-5.6 14.6-13.6 12.4-5.2-1.4-33.9-21.6-36.8-25.9-3.6-5.3-3.1-10.5 1.2-14.8 3.2-3.2 3.9-3.5 8-3.1 2.4.3 6.4 1.8 8.9 3.4zm-630.1 29.3c3.7 4.3 6.7 8.2 6.7 8.5 0 .3-1.5 1.9-3.2 3.5-3.3 2.9-3.3 2.9-5.4 1-1.1-1-2.4-1.9-2.7-1.9-.4 0-8.6 6.8-18.2 15.1l-17.4 15-3-3.3c-1.7-1.8-3-3.8-3-4.3 0-.6 7.5-7.3 16.5-15 9.1-7.7 17-14.6 17.6-15.3.8-.9.6-1.8-.8-3.3-1.9-2.1-1.8-2.1 1.4-5 1.8-1.6 3.6-2.9 4.1-2.9.4 0 3.8 3.5 7.4 7.9zm606.5-5.2c1.7 1 10.1 7.6 18.6 14.6 17.2 14.3 18.9 16.7 16.3 22.9-2.9 6.7-8.5 9.8-13.9 7.5-3.7-1.7-29.8-23-34-28-4.3-4.8-3.9-9.8 1.1-14.8 4.3-4.4 6.9-4.8 11.9-2.2zm-11.6 30.1c9.8 9.8 10.4 11.5 6.6 18.3l-2.2 4 7.2 7.2 7.2 7.3-3.3 3.2-3.3 3.2-20.8-20.2-20.7-20.1 4.3-4.5c4.8-4.9 8.8-7.1 13.2-7.2 2.4 0 4.6 1.7 11.8 8.8zm-562.6 10.5l3.5 3.2-5.1 11.4c-2.7 6.3-4.8 11.6-4.6 11.8.2.3 5-2.5 10.6-6.1 5.5-3.6 10.4-6.6 10.8-6.6.5 0 2.3 1.6 4.2 3.5l3.3 3.4-8.3 10.3c-4.6 5.7-12.7 15.4-17.9 21.5l-9.6 11.2-3.7-3.6c-2.1-2.1-3.8-4-3.8-4.3 0-.4 3-4.1 6.6-8.3 3.6-4.2 6.3-7.7 5.9-7.7-.3 0-3.7 2.9-7.5 6.5s-7.2 6.5-7.5 6.5c-1.1 0-6.5-4.4-6.5-5.2 0-.5 2.2-4.1 4.8-8.1 2.7-4 5.2-7.9 5.6-8.7.9-1.7-4.2 3.5-9.6 9.8-4 4.8-5.1 4.8-9.7-.2l-2.4-2.5 3.6-4.5c2-2.4 9.4-10.8 16.4-18.6 7.1-7.8 13.4-15 14.2-16.1 1.8-2.6 2.6-2.4 6.7 1.4zm515.8 27.6c6.1 5.4 16 14.5 22 20.2l10.9 10.4-4.1 2.9-4.1 2.8-4.4-3.6c-3.7-3-4.6-3.4-5.6-2.2-.9 1.1-.7 2.4 1.1 6 1.2 2.5 2 4.7 1.7 4.9-.2.1-2.1 1.5-4.1 3l-3.7 2.7-3.1-5.2c-1.6-2.9-7.8-14.7-13.6-26.2l-10.7-21 2.7-2.3c1.5-1.3 3-2.3 3.3-2.3.3 0 5.5 4.4 11.7 9.9zm-475.3 3.8c6.6 5.9 5.8 8.4-9.1 29.7-13.6 19.5-16.1 21.7-22.5 19.6-1.9-.6-4.9-2.6-6.6-4.3-5-5-4-7.9 9-26.4 13-18.6 12.9-18.4 16.1-20.6 4.1-2.8 8.5-2.2 13.1 2zM810.5 951c-1.4.8-2.3 2-2.1 2.7.3.6 5.8 9.2 12.4 19 6.5 9.8 12.1 18.3 12.5 18.9.8 1.4-7.2 7-8.2 5.7-.4-.4-6.3-9.2-13.1-19.6-6.7-10.3-12.5-18.7-12.9-18.7-.4 0-1.6.7-2.8 1.5-1.9 1.4-2.2 1.2-4.8-2.6-1.4-2.3-2.4-4.4-2-4.7.4-.4 4.6-3.2 9.3-6.3l8.7-5.6 2.7 4.1 2.8 4.1-2.5 1.5zm-429.1 3.6c2.6 1.5 4.5 3.1 4.3 3.8-1.9 4.9-6.7 21-6.5 21.7.2.4 2.8-3.7 5.8-9.1 3-5.5 6-10 6.5-10 1.4 0 7.5 3.8 7.5 4.7 0 .5-6.2 11.2-13.8 23.9l-13.7 23.2-4.6-2.4-4.7-2.3 3.9-12.2c2.2-6.7 3.8-12.4 3.5-12.6-.2-.2-3.1 4.4-6.6 10.2-3.4 5.8-6.4 10.5-6.6 10.5-1.4 0-8.4-4.2-8.1-4.8.9-1.9 28-47.2 28.2-47.2.1 0 2.4 1.2 4.9 2.6zm36.9 18c5 2.6 9.3 4.8 9.5 4.9.2.2-.6 2.2-1.8 4.5-1.6 3.2-2.5 4-3.8 3.5-4-1.7-4.6-.9-14.1 19.2-5.3 11.1-10 20.5-10.4 20.9-.8.8-8.7-2.5-8.7-3.6 0-.4 4.5-10.2 9.9-21.6 10.3-21.7 10.4-22.1 5.7-23.7-1.2-.4 2.2-8.7 3.6-8.7.4 0 5 2.1 10.1 4.6zm343.2 0c2.3 1.1 4.2 3.3 6.4 7.5l3.2 5.9-3.8 1.5c-2.1.8-4.2 1.6-4.7 1.8-.4.1-1.6-1.4-2.5-3.3-1.9-4.2-5.1-5.3-5.1-1.8 0 4.9 3.4 8.4 11.2 11.4 9.8 3.7 12.4 5.7 15.3 11.5 3.6 7 3.4 12.8-.5 16.8-3.2 3.2-8.4 4.8-11.9 3.6-4.2-1.3-11.1-8.8-11.1-11.9 0-.3 1.9-1.5 4.2-2.7 3-1.5 4.3-1.8 4.6-1 .9 2.6 4.9 6.4 6 5.7 3.5-2.2-.5-8.9-6.5-11.1-13.8-5-15.1-6-18.3-12.7-5-10.5-3.5-18 4.4-21.4 4-1.7 5.1-1.7 9.1.2zm-319.3 10.5c6.2 2.4 10.5 6.1 11.3 9.8.7 3.5-5.7 20.7-9.1 24.1-2 2.1-3.4 2.5-7.8 2.4h-5.4l-3.7 9.4c-3 7.5-4 9.2-5.4 8.7-.9-.4-2.9-1.2-4.4-1.7-1.6-.6-2.6-1.5-2.4-2.2 12.5-33.1 20.2-52.6 20.9-52.6.4 0 3.1.9 6 2.1zm300.8 23.1c4.5 12.3 8.8 23.8 9.6 25.6 1.2 3.1 1.2 3.3-1.4 4.6-6.8 3.4-6.5 3.5-14.2-7.9-3.9-5.8-7.2-10.5-7.5-10.5-.4 0 4.3 13.2 7 19.6l1.4 3.4-4 2c-2.2 1.2-4.4 1.8-4.8 1.5-.9-.5-19.1-48.6-19.1-50.5 0-.8 7.9-5 9.5-5 .2 0 2.8 4 5.9 8.9 7.1 11.2 9.5 13.5 6.7 6.3-1.2-2.9-3-7.5-4.1-10.2-1.1-2.8-2-5.7-2-6.4 0-1.2 4.5-3.2 7.6-3.5.7-.1 4.9 9.9 9.4 22.1zm-269.5-11.6l8.3 2.6-1.4 4.6c-.7 2.6-1.4 4.8-1.4 4.9 0 .1-2-.4-4.4-1.1l-4.5-1.4-1.5 4.6c-2.3 6.7-2.1 8.2 1.4 8.8 1.7.4 3 1.2 3 1.8 0 2.4-2.8 10.1-3.6 10-.5-.1-2.1-.4-3.5-.8-2.8-.6-3.1-.2-5.8 8.1-1.1 3.6-.4 4.3 5.2 5.7 2.2.5 2.7 1.1 2.2 2.4-.3.9-.9 3-1.2 4.5-.3 1.6-1.2 3.1-1.8 3.4-1.4.5-14-3-16.3-4.6-1.1-.6.3-6.5 6.9-28.5 4.6-15.2 8.7-27.6 9.2-27.6s4.7 1.2 9.2 2.6zm227.3 18.1c6.9 14.3 17.2 37 17.2 37.8 0 .2-1.6.6-3.6.9-1.9.4-4.2 1-5 1.3-1 .4-2.1-1-3.6-4.6-2.9-7.1-5.2-6.7-5.6 1.1l-.3 5.6-4.6 1.1c-2.5.7-4.7 1.1-4.8.9-.7-.8-5.5-50.3-5.5-56.9 0-1.6 3-3.2 7.1-3.8.3-.1 4.2 7.4 8.7 16.6zm-204.5-10.6c2.8.8 3.7 1.4 3.3 2.7-2.1 7.5-9.6 42.4-9.2 43.1.3.5 2.4 1.1 4.6 1.5 4.4.7 4.2.1 2.1 8.3-.8 2.9-.9 2.9-11 .8l-8.3-1.8.6-4.1c.8-4.7 10.4-48.4 11.1-50.4.5-1.5 1.9-1.5 6.8-.1zm169.9 5.6c3.5 3.4 5.8 10.7 8.8 27.9 3.5 20.2 1.6 24.9-11.4 27.2-3.7.7-7 1.2-7.1 1-.2-.2-2.7-13-5.7-28.6l-5.5-28.2 3.6-.9c9.7-2.5 13.4-2.2 17.3 1.6zm-140.3.2c1.2.8.9 4-1.7 20.9-4.1 26-4.2 24.9.9 25.7l4.2.7-.6 5c-.4 2.8-.8 5.2-1 5.4-.5.5-17.8-2.4-18.4-3-.5-.5 6.1-48 7.4-53.4.4-1.8 1.2-2.2 4.2-2.2 2 0 4.2.4 5 .9zm86.1 5c2.2 1.6 2.6 2.9 3.3 9.7.9 9.8.3 13.5-2.7 16.3l-2.4 2.3 3.9 11.6c2.1 6.4 3.9 12.1 3.9 12.8 0 1.4-8.2 2.6-9.1 1.3-.3-.5-1.6-5.4-2.9-10.9-1.3-5.5-2.6-9.8-2.8-9.5-.2.2-.4 5.2-.3 11l.2 10.5h-4.5c-4.4 0-4.6-.1-4.6-2.8 0-3.4-1.7-36.7-2.5-46.9l-.5-7.2 5.8-.4c7.9-.5 12.3.1 15.2 2.2zm-57.1-.4c.4.4-3.7 48.7-4.5 52.2-.4 2.1-.8 2.2-5.2 1.6-2.6-.3-4.8-.7-4.9-.8-.3-.2 3.1-38.9 4.3-49.4l.6-5.3 4.6.7c2.6.4 4.9.8 5.1 1zm26.5-.9c1.2.4 1.6 2 1.6 5.5v4.9h-9v11.9l3.3.3c3.2.3 3.2.4 3.5 6l.3 5.7-3.8.3-3.8.3-.3 6.2-.3 6.2 4.6.6 4.5.7v9.8h-19.2l.7-28.8c.4-15.8.9-29 1.2-29.5.5-.8 14.5-1 16.7-.1z"/><path d="M81.9 208.9c-3.2 3.3-3.6 5.8-1.4 10.1 1 2 2.7 3.2 5.3 3.9 2.5.7 50.3 1.1 145.5 1.1 121.5 0 141.8.2 142.3 1.4.4 1-25.4 77.2-34.4 101.5-.4 1.1 1.2 1.3 9.5.9 15.9-.8 14.4.4 46.8-38.9 17.7-21.6 28.5-33.9 29.4-33.7.9.2 1.7 1.1 1.9 2.1.2.9-4.6 14.5-10.7 30.1-6 15.7-11.3 30-11.6 31.9-.9 4.9 2.4 8.5 8.7 9.3 8.4 1.1 10.9-.9 36.7-29.2 12.8-14 23.9-25.8 24.7-26.1 4.3-1.6 3.7 1.8-4.3 22.9-4.5 11.7-8.3 22.3-8.6 23.6-.8 3.5 2.3 6.4 7.9 7.3 6.2 1 36.1 1 43.4 0 4-.6 6.4-.4 9 .7 4.5 1.9 16.2 1.2 21-1.3 1.9-1 5.1-3.1 7.1-4.6 4.6-3.6 5.5-3.6 7.4.1 2.8 5.4 3.6 5.5 34.5 5.5 24.8 0 28.9-.2 31.5-1.7 1.7-.9 10.9-8.2 20.5-16.2 21.9-18.3 24.2-18.8 18.7-4.1-5 13.4-5.7 16.4-4.7 18.9 1.7 4.5 10.4 5.6 17.8 2.3 1.5-.7 11.2-8.3 21.7-17 10.4-8.6 19.4-15.6 20-15.4 1.9.7 1.6 4.5-1.3 14.3-3.5 11.6-3 14.7 2.9 17.7 3 1.6 6.3 1.8 27.9 1.8 13.5 0 28.1.1 32.5.2 8.6.1 12.9-1.4 19.3-6.8 3.9-3.3 5.4-3.1 7.2.8 2.3 5 7.4 5.9 32 5.5 22.4-.4 25.8-1.2 30.1-6.7l2.1-2.6-17.6-.3c-14.3-.2-17.8-.5-18.2-1.7-.5-1.1 13.4-41.8 15.3-44.8.3-.5-12.9-.7-29.3-.4-23.7.3-30.9.7-34.5 1.9-12.3 4.2-20 10.3-24.7 19.3-2 4-2.7 7-3.1 15l-.6 10h-8c-7.3 0-8-.2-8.3-2.1-.2-1.1 2.4-9.6 5.8-18.8 6.8-18.9 7.4-23.6 3.5-26.2-3.4-2.2-13.5-1.4-19.2 1.4-2.3 1.2-10.8 7.8-18.9 14.7-8.1 6.9-15.3 12.5-16.1 12.5-2.7 0-2.5-3.3 1.1-13.3 2-5.6 3.6-10.8 3.6-11.5 0-3-3.9-5.2-9.5-5.2-9.2 0-14.5 2.8-31.9 17-8.8 7.2-16.5 13-17.3 13-2.8 0-2.4-3.4 1.6-14.8 2.3-6.4 4.1-12 4.1-12.5 0-.4-6-.7-13.3-.7h-13.4l-7.8 22.2c-4.3 12.3-8.2 22.9-8.8 23.5-1.5 2-17.6 1.8-18.4-.2-.3-.9 2.9-11 7.1-22.6 4.2-11.6 7.6-21.5 7.6-22 0-1.5-51.4-1.1-59.1.5-13.2 2.8-23.5 9.9-28.3 19.4-3.1 6.1-3.9 10.1-4 18.7l-.1 7h-10c-8.4 0-10-.3-10.3-1.6-.2-.9 4.7-14.9 10.8-31 6.2-16.2 11.4-30.9 11.7-32.6 1.6-9.4-8.2-15-18.5-10.8-2.4 1-11.2 9.1-24.9 22.7-15.1 15.1-21.6 20.9-22.7 20.5-.9-.4-1.6-1.3-1.6-2.1 0-.7 4-11.8 8.9-24.5 4.9-12.8 9.3-24.5 9.6-26.2 1.4-6.2-3.5-11.9-10.3-11.9-5.1 0-13.1 3-16.9 6.3-2 1.7-13.3 14.1-25 27.4-11.8 13.4-22.1 24.3-22.9 24.3-.8 0-1.7-.7-2-1.5-.4-.8 4-14.7 9.6-30.8 10.1-28.9 11.7-35.4 9.2-37.9-1-1-32.6-1.4-160.3-1.6l-159-.2-3 2.9zm487.7 73.4c.5 1.4-10.1 32.3-11.8 34.4-1.5 1.9-8.7 1.5-13.4-.6-6.8-3.1-7.3-6-3.4-19.4 5.1-17.6 3.1-15.7 16.5-15.7 8.6 0 11.7.3 12.1 1.3zm248 0c.5 1.5-10 32.2-11.7 34.4-1.4 1.6-7.7 1.7-11.6.2-5-1.9-7.3-4.8-7.3-9.3 0-3.2 3.8-18.2 6.5-25.4.7-1.8 23.4-1.7 24.1.1z"/><path d="M547.7 292.2c-.9 3.5-2.3 8.4-3.1 11-1.4 4.3-1.3 4.9.3 6.9 1.1 1.4 2.9 2.2 5.5 2.3l3.8.1 4.4-12.4c2.4-6.8 4.4-12.7 4.4-13.2s-3.1-.9-6.8-.9h-6.8l-1.7 6.2zm10.1-2c-1.8 6.8-6.4 18.8-7.3 18.8-3.2-.1-3.4-1.6-1-9.5 1.4-4.4 2.7-8.6 3-9.3.2-.6 1.6-1.2 3-1.2 1.6 0 2.5.5 2.3 1.2zM797.7 286.7c-.3.5-1.8 5.4-3.5 11.1-2.8 9.6-2.9 10.4-1.3 12.2 1 1.3 3 2.1 5.5 2.3l3.9.2 4.7-13.3 4.7-13.2h-6.8c-3.7 0-7 .3-7.2.7zm2.3 15.8c1.6 1.9.5 6.5-1.6 6.5-1.9 0-2.8-2.4-2-5.5.7-2.9 1.8-3.2 3.6-1zM421.8 382.6c-.3.2-.3 6.5 0 13.9.5 14.1-1.7 34.2-4.3 39.7-1.1 2.4-1.1 2.8 0 2.8.8 0 2.1-1 3-2.3 1.5-2 1.6-2 1.1-.2-1 3.8-3.6 15-3.6 16 0 .6 3.4 2.3 7.5 3.9 11.5 4.4 17.5 11.4 17.5 20.4 0 3.9-2.7 7.8-6.8 9.6-3.2 1.5-5.8 1.7-13.3 1.3-5.2-.2-10.3-.7-11.4-1.1-2.8-1-6.5 2.7-6.5 6.3 0 1.5-1 6.3-2.2 10.7-1.8 6.7-2.1 10.4-2.1 24.1.1 19.4 1.2 24.2 2.9 13.8.6-3.9 1.2-5.6 1.3-4 .2 5.2 4.1 17.7 7.2 23.3 4.8 8.5.6 8-12.7-1.4-6.1-4.4-8.4-5.3-8.4-3.4 0 1.7 7 8.8 11.6 11.7 2.4 1.5 4.6 3.4 4.9 4 .5 1.6-17.7-7.5-25.2-12.4-4.3-2.9-5.6-3.4-6.6-2.4-3 3.1 17.1 16.6 34.3 23.1 5.3 2.1 10.5 4.2 11.6 4.8 1.8 1 1.7 1.1-1.1 2.3-1.6.6-7.1 1.4-12 1.7-7.9.4-10 .1-16.4-2.1-5.7-2-7.1-2.2-6.7-1.1.4 1.1.1 1.4-1.2 1-10.6-3.1-10.5-1.3.1 4.3 22.6 11.9 45.4 27.2 47.1 31.7.5 1.4.1 1.5-2.6 1-9.2-1.7-25.7-3.5-36.8-4.1-19-1-38.7-4.7-47.2-9-5-2.4-4.5-.9.7 2.4 11.5 7.3 27.3 11.9 48 14.1 5.5.6 14.1 1.9 19 2.9l9 1.9-9 .1c-16.9.2-47.5-4.9-66-11-10.9-3.6-22.6-11.1-33.7-21.8-6.6-6.2-7.8-7-7.8-5.1 0 1.2.9 3.8 2.1 5.6 2.4 4 14.7 14.9 22.6 20.1 5 3.4 5.3 3.8 3.7 5-1 .7-2.1 1.3-2.5 1.3-1 0-17.7-10.2-25-15.3-8.3-5.8-9.5-6-3.2-.5 5.8 5 20.1 14.5 34.3 22.7 5.8 3.3 9.6 6.1 8.5 6.1-11.7 0-38.8-7.6-53.7-15.1-4.4-2.2-8.5-3.8-9.1-3.6-1.8.6 7.8 7.1 16.9 11.6 13.4 6.6 26 9.7 49.5 12.1 7.8.8 11.4 1.8 20.2 5.5 12.5 5.4 16.5 5.5 6.2.2-6.8-3.5-6.9-3.6-3.5-3.7 5.1-.1 8.2-1.1 7.6-2.5-.3-.9.5-1.1 3.2-.5 2 .4 5.8 1.1 8.5 1.5 10.8 1.5 2.2-3.6-16.1-9.4-5.7-1.9-10.1-3.5-10-3.7.2-.2 5.8.8 12.3 2.2 12 2.4 36.4 4.7 42.7 3.9 1.8-.2 6.2-.7 9.8-1 5.5-.4 6.2-.3 5 .8-2.9 2.7-10.1 4.7-16.5 4.7-4.9 0-6.5.3-6.5 1.4 0 2 5.1 3.6 14.5 4.7 17.9 2 18.5 2.1 19.6 4 1.5 2.8-.4 5.3-5.1 6.9-3.4 1.1-6.4 1.1-20.3-.3-8.9-.9-24.6-1.9-34.8-2.2-10.3-.2-22-1.1-26-1.9-4.1-.9-10.3-1.9-13.8-2.3-9.5-1.2-9-3.1.6-2.6l7.8.3-12.5-3c-6.9-1.6-15-2.9-18-2.9s-7.1-.2-9-.4c-3.9-.5-18.6-9.3-18.2-10.8.1-.6-.2-.8-.7-.4-.6.3-3.5-.8-6.5-2.6-3.1-1.7-6-2.9-6.6-2.7-1.4.4 30.8 23 42.2 29.5 9.9 5.7 30.1 14 42 17.3 3.9 1.1 7.4 2.2 7.7 2.6.8.9-25-.4-36.4-1.8-10-1.2-13.9-2.7-17.2-6.6-2.6-3.1-4.1-2.3-2.7 1.5 1.2 3.6 13.9 12 25.2 16.8 9.9 4.2 24 8 45.8 12.5l15.1 3.1 11.8-2.1c14.2-2.4 20.6-2.5 30.5-.2 6.1 1.4 7.6 2.1 7.8 3.8.6 4.2-.9 4.4-37.1 4.7l-34.6.3-4.7-4.7c-5.1-5.2-8.9-7.2-12.6-6.7-3.6.5-3.8 6.2-.2 9.9 2.4 2.5 2.5 3 1.3 4.6-.7 1-1.5 2-1.6 2.2-.1.2-3.1-2.2-6.7-5.3-3.5-3.1-6.9-5.6-7.4-5.6-.6 0-2.3 1.9-3.9 4.2-3.1 4.7-5.8 5.7-10.4 3.8-3.6-1.6-11.6-10.1-12.5-13.4-.3-1.4-1.7-3.2-3.1-4.1-2.4-1.6-2.7-1.5-6.8 1.2-8.7 5.6-19.4 14.2-21.9 17.6-3.1 4.1-3.3 8.5-.6 11.7 1.1 1.3 2.5 4 3.1 6.1 1.1 3.5 1 4-1.5 6.9-4.6 5.6-3.6 10.6 4.1 19.3 1.8 2 3.3 4.1 3.3 4.6s-1.4 1.8-3.1 2.8c-3 2-3 2-7.6-.4-5.4-2.7-7.6-2.9-9.3-.8-.9 1.1-.8 2.4.4 6.2 2.7 7.8 8.6 13.3 14.3 13.3 2.7 0 3.5-.5 4.4-2.7.6-1.7.6-3.6 0-5.4-.7-2.1-.6-2.9.5-3.3 1-.4 1.3-1.3.9-2.5-.3-1 .1-2.3.9-3 1.1-.9 1.8-.4 3.6 2.6 1.2 2.1 2.8 4.1 3.5 4.5 2.2 1.3 12.3 15.2 12.7 17.4.1 1.2-.5 3.1-1.5 4.2-2.3 2.5-.8 3.6 2.8 2 2.3-1 2.8-1 3.6.4 2 3.7 6.1 7.7 11.4 11.3 5.2 3.6 5.7 3.8 9.2 2.7 2.1-.6 5.6-2.8 7.8-4.7l4-3.6 3.2 4c1.9 2.2 5.3 4.9 7.7 6.1l4.4 2.1-9.2 14.5c-16.5 26.3-30.8 47.8-34.8 52.7-3.9 4.6-4 4.8-2.3 6.7 2.4 2.7 3.8 2.5 5.7-.8.9-1.6 4.7-6.8 8.5-11.8 3.7-4.9 14-19.9 23-33.4 24.4-36.7 37.5-54.1 41.8-55.6 1.1-.3 2.9-1.5 3.9-2.6 1.6-1.7 2.7-1.9 7.3-1.4 2.9.3 7.5 1.4 10.2 2.5 4.8 1.8 24.5 14 23.8 14.7-.2.2-5.5-2-11.8-5-15-7.1-18.5-8.1-22.4-6.5l-3 1.3 4.5.6c5.4.7 28.3 12.8 52 27.5 9.1 5.6 19.1 11.7 22.3 13.5 5.4 3 5.7 3.4 5.7 7.1 0 4.7 1.7 8.4 7.2 15.2 2.1 2.8 4.6 6.4 5.4 8.1l1.5 3.1-2.3-3c-4.5-5.9-9.1-10.5-10.4-10.5-1.9 0-1 1.9 6.9 14.5 6.5 10.2 19.2 31.3 29 48 14.9 25.4 29.8 42.5 42.7 49 4.7 2.4 9 3.3 9 1.9 0-.4-6.2-6.8-13.9-14.3-7.6-7.5-15.8-16.5-18.2-20.1-5.6-8.4-16-25-15.5-25 .2 0 3.7 4.4 7.8 9.7 9.3 12.1 27 29.3 36.3 35.5 12.6 8.3 29.9 12.4 33.8 8 2.2-2.4 2.3-10.5.1-12.3-2.3-1.9-4.8.1-5.4 4.3l-.5 3.5-6.1-1.3c-3.4-.6-8.3-2.3-11-3.7-5.1-2.6-17.4-11.3-17.4-12.3 0-.3.5-.2 1.1.1.6.4 2-.2 3.2-1.2 3.6-3.2 4.2-3.3 9.3-1.8 6 1.8 8.2 1.8 11.1.2 1.2-.6 4.7-2.5 7.8-4.2 6.6-3.5 8.2-5.1 9.4-9.3.8-2.5.5-3.6-1.7-6.7-1.6-2.2-3.7-3.9-5.4-4.2-2.2-.4-2.9-1.2-3.4-4.1-.4-2.2-.3-3.7.3-3.9.6-.2 3.6-1.9 6.8-3.8 3.2-1.9 6.3-3.5 6.9-3.5 3 0 8.5-2.2 9-3.7 1.9-4.8-8.9-7-16.2-3.4-2 1-4.9 2.2-6.4 2.5-2.7.6-2.8.4-2.8-2.9 0-2-.9-8.1-2.1-13.5-1.1-5.5-1.9-10.5-1.8-11.2.1-.7-.3-2.6-.9-4.1-1.8-4.2-1.5-4.6 2.8-4 3.1.4 4.1.2 4.6-1.1.4-1.1 1.8-1.6 4.3-1.6 3.5 0 13.2-2.9 21.6-6.5 2.2-1 6.6-2.1 9.8-2.5 4.5-.7 7.5-2 12.6-5.3 3.6-2.5 9.5-5.9 13.1-7.7 3.6-1.8 7.7-4.1 9.2-5.1l2.6-1.9 11.2 20.1c11.3 20.5 17.8 31.1 35.1 57 5.3 8 11.3 17.9 13.3 22 1.9 4.1 5.8 11 8.5 15.4 2.8 4.3 5.4 8.7 5.7 9.7.3 1 1 1.8 1.5 1.8 1.4 0 6.9-2.9 6.9-3.7 0-.3-3.2-4.9-7.1-10-5.2-6.9-7.4-11-8.5-15.1-1.9-7.2-5.8-14.3-19-34.5-5.9-8.9-15.2-23.4-20.7-32.2-5.4-8.8-11.7-18.2-13.8-20.9-2.2-2.7-3.9-5.4-3.9-6.1 0-2.1-6.9-9.3-9.6-9.9-3.3-.9-20.2 7.1-29.3 13.7-3.5 2.6-6.8 4.7-7.3 4.7-.6 0-4.2 1.6-8.2 3.5-6.9 3.4-25.4 7.5-33.5 7.5H602v-7.5c0-4.5 1.2-13.5 3-22.2 1.7-8 3-16.1 3-17.9 0-1.9 1.4-6.5 3.1-10.2 2-4.5 2.8-7.6 2.5-9.5-.4-2-.2-2.7 1-2.7 2.3 0 8.5-3.5 12.8-7.2l3.9-3.4 6.7 1.4c5.9 1.3 6.8 1.8 8 4.6.7 1.7 2.7 6.2 4.5 10.1 1.7 3.8 3.7 8.2 4.3 9.7.6 1.6 1.7 2.8 2.3 2.8 1.7 0 4.8-4.2 4.9-6.5 0-1.1.6-2.9 1.4-4 .7-1.1 2.2-4.6 3.2-7.8 1.5-4.8 1.6-6.3.6-9-1.1-2.8-1-3.4.5-4.5.9-.6 2.4-1.2 3.2-1.2 2.9 0 13.8-5.8 17.9-9.4 2.2-2 4.8-5.3 5.7-7.2l1.7-3.6 3.3 3.6c1.8 2 4.8 4.3 6.7 5 1.9.8 4 2.1 4.6 2.9.7.8 3.2 2.2 5.6 3.1l4.3 1.7 1.9 9.1c1 5 2.6 10 3.4 11.1 1.5 1.8 1.8 1.9 4.8.3 1.8-.9 3.4-2.7 3.8-4.2.4-1.4 2.2-4.8 4-7.6 1.9-2.7 3.4-5.3 3.4-5.7 0-.4 1-.7 2.2-.8 1.2-.1 4.4-1.4 7.1-2.9l4.8-2.6 5.1 3.6c2.9 2 5.4 3.3 5.7 3 .6-.5-.6-1.6-6.8-6.6l-2.5-1.9 4-4 4-4 9.1 3.1c14.2 4.7 16 3.6 2.3-1.5-4.1-1.5-7.8-3.1-8.2-3.4-.8-.7 2.9-9.1 3.9-9.1.4 0 21.5 8.3 46.8 18.5l4 1.6-2.5-2.2c-3.4-3-17.6-9.5-34.8-16-7.8-3-13.8-5.5-13.2-5.7.6-.2 7.7.3 15.8 1.2 17.2 1.8 20.5 2 29.2 1.7 10.1-.3 5.5-1.7-14.4-4.6-20.9-3-31.6-5.4-31.6-7.1 0-.7 1.5-1.6 3.3-1.9 21.3-3.5 29.7-4.6 44.2-5.5 16.1-1 29.4-2.6 30.4-3.6.2-.2-4.7-.4-11-.4l-11.4-.1 11.9-3.5c17.8-5.2 40-14.4 38.4-15.9-.2-.2-6.7 1.6-14.3 4-26.4 8.4-65.9 17.5-76 17.5-3.6 0-4.3-.3-3.8-1.6.3-.9-.6-2.8-2.4-4.7-1.6-1.8-4.4-5.1-6.1-7.3l-3.2-4.1 8.9-3.2c10.6-3.8 15.7-7.3 19.1-13 1.4-2.4 4-6.5 5.8-9.2 1.7-2.6 3.2-5.7 3.2-6.8 0-2-2.5-3.5-4.2-2.5-.6.4-1.4.1-1.8-.6-.5-.9-1.9-.2-4.8 2.4-6 5.4-12.8 6.7-25.2 4.7l-4.5-.7 6-3.1c6.8-3.5 12.1-8.6 13-12.4 1.2-4.8-.5-4.6-9.3 1.3-2.3 1.6-4.3 2.8-4.5 2.8-.2 0 1.7-2.1 4.1-4.8 4.2-4.4 9.2-13.1 9.2-16 0-3.3-3.2-1.9-9.4 4.1-8 7.8-16 12.2-24.6 13.5-6.3 1-6.7.9-11.1-1.9-6.5-4.1-7.6-5.6-8.8-12.3-1.5-8.1-1.5-7.9 2-7.2 9.5 1.9 21.5-8.2 29.8-25.2 4.3-8.5 8.2-21.8 8.2-28 .1-5.1.5-5.9 6.4-13.6 7.1-9.1 11.4-12.7 26.7-22 5.9-3.5 12.7-7.8 15.1-9.5 2.5-1.7 4.9-3.1 5.4-3.1.4 0 3.1-1.6 6-3.6 7.8-5.4 14.6-17.4 9.8-17.4-.8 0-1.5.6-1.5 1.4 0 1.7-5.7 6.8-11.9 10.8-4.1 2.5-5.3 2.8-13.4 2.8-9.2 0-17.9-1.8-31.3-6.3-10.1-3.5-17.5-4.1-26.1-2.3-7.2 1.5-23.1 6.9-31 10.6-4.7 2.1-6.2 5.4-4.3 8.9 1.3 2.6 3 1.9 2.3-.9-.7-2.6 1.1-4.7 4.8-5.5 1.6-.4 8.4-2.4 15.2-4.6 16.1-5.1 24.2-5.3 36.7-.8 15.3 5.5 20.3 7 26.2 7.6l5.9.6-4 2.3c-3.7 2.1-4.5 2.2-11.6 1.2-10-1.3-12.2-.7-14.1 4.2-4.1 10.2-25 19.9-42.8 20-6.3 0-6.7.1-5.5 1.7.8.9-1.5-.8-5.1-3.8-3.6-3-9.3-7.2-12.7-9.2-3.4-2.1-8.5-6.4-11.3-9.5l-5-5.6 6.1-2.8c7.2-3.3 10.6-6 16.3-13 3.5-4.4 4.1-5.8 3.6-8.3l-.5-3-3.3 4.7c-4.7 6.9-9.9 8.2-28.9 7.6-13.3-.5-17.2.2-10.3 1.7 1.7.4 3 1.2 3 1.8 0 .6 1.2 2.8 2.7 5 2.5 3.6 2.6 4 1 4.9-2.3 1.2-1.1 3 1.7 2.6 1.7-.2 4.7 2.2 12.2 9.8 5.5 5.6 12.4 11.4 15.4 13.2 3.1 1.7 6.6 4.2 7.8 5.5l2.3 2.4-2.5-.4c-2.1-.4-4 .6-9.1 5-4.5 3.9-10.9 7.7-21 12.6-11.3 5.4-14.5 7.4-14.5 8.9 0 4.8 4.6 3.8 22.5-4.8 10.1-4.8 12.9-6.8 17.9-11.9 5.3-5.6 6.1-6.1 8.9-5.5 1.6.3 4.5 2 6.3 3.8 1.8 1.7 4.1 3.7 5 4.5 2.5 2.1 1.3 19.5-1.8 25.4-1.1 2.3-2.3 3.6-2.5 2.9-.3-.6-1.1-1.2-1.8-1.2-.8 0-2.9-1.3-4.8-2.9-1.8-1.7-5.5-3.8-8.1-4.9-4.2-1.6-5.4-1.7-9.6-.6-5.2 1.3-12.3 5-17.7 9.1-2.7 2.1-3.3 3.2-3.4 6.7-.1 3.6-.2 3.8-.8 1.2-1.7-7.8-5.7-.2-7.2 13.4-2 19.7-.6 28.7 5.9 36 3.1 3.5 4.4 4.3 7.2 4.2 2.2 0 4.8.9 7.6 2.9 4.6 3.1 11.4 5.9 14.4 5.9 2.2 0 3.4-2.8 1.9-4.6-.9-1.1-.4-2 2.1-4.1 1.8-1.5 4.3-4.9 5.5-7.5 2.2-4.7 2.2-4.7 4-2.8 1 1.1 2.1 1.7 2.5 1.5.4-.3 3.4 1.1 6.6 3 3.2 1.9 6.3 3.5 6.8 3.5.6 0 2.8.5 4.8 1 2.6.8 3.5 1.5 3.1 2.5-.7 1.9 3.4 3.6 14.2 6.1 5.8 1.3 7.2 1.9 5.2 2.2-3.9.5-3.1 3.4 1.3 4.8l3.5 1.2-8 2.4c-5.5 1.7-8.2 2.2-8.7 1.4-.6-.9-21.8-4.8-22.6-4.1-.1.1 1.9 1.7 4.6 3.4 2.7 1.7 5.7 4 6.7 5.1 1 1.1 2.2 1.7 2.7 1.4.6-.4.4.4-.2 1.7-1.1 1.9-1 2.4.6 3.6 1 .7 1.3 1.3.7 1.3-2.2 0-2.1 4.3.2 10.8 2.7 7.8 2.2 8.8-5.1 7.9-2.6-.2-4.5 0-4.7.6-.2.6-2.3 1.5-4.8 2.1-2.4.6-4.3 1.5-4.2 2 .2.5 4 1.1 8.5 1.3 8.1.3 15.8 2.5 15.8 4.6 0 .9-1.1.8-7-.8-2.4-.6-2.4-.6.6 2.3 1.7 1.6 3.7 3.1 4.4 3.4 1 .3 1 1.1.1 4.1-.7 2-1.6 3.9-2 4.2-.5.2-3.4-1.1-6.6-3-6.4-3.9-6.5-3.9-6.5-2.5 0 .5 2.5 2.6 5.5 4.6 3 2.1 5.4 3.8 5.3 3.9-.2.1-2.1 1.4-4.4 2.8l-4.1 2.5-5.9-3.9c-3.2-2.1-6.2-3.9-6.6-3.9-1.9 0-.3 1.8 4.7 5.5l5.4 4-3.2.5c-1.8.3-3.1 1.1-3 1.7.5 2.2-8.2 3.2-16.1 1.8-7.9-1.4-12.1-3.2-17.9-7.7-4.5-3.6-6.7-7.5-7.6-13.7-.4-3.2-1.1-4.7-2.3-4.9-1.7-.3-2.5 1.9-3.2 8.9-.7 7.1-5.8 11.6-24.1 21.5-4.9 2.6-9.3 5.3-9.7 5.8-.4.7-4.4 1-10 1-10.8-.2-21.7-3.1-35.1-9.2-8.9-4.2-10.8-5.7-7.9-6.5 10.5-3.2 35-12.2 36.2-13.3 1-1 1.1-1.7.3-2.5-1.1-1.1-12.4 1.9-33.5 9l-11.7 3.9-6.3-6.6c-7.4-7.7-7.9-7.1 8.7-9.1 14.8-1.8 16.5-2.1 16.5-3.1 0-1.4-9.3-1.2-22.6.5-6.4.9-11.7 1.4-11.8 1.3-.5-1-13.1-15.4-17.9-20.4l-5.8-6.2 7-1.2c3.8-.6 7.7-1.7 8.7-2.4 1.6-1.2 1.4-1.4-2-2.6-4.5-1.5-11.3-.7-22.1 2.7-9.7 3-14.1 5.6-16 9.3-1.9 3.7-1.9 4.5.1 6.5 1.9 1.9 3.9.7 4.8-2.8.3-1.3 2.1-3 4.1-4 4.4-2.1 6-2.2 2.2-.1-2.4 1.3-2.8 2-2.2 4.2.3 1.5 1.3 3.7 2 4.9 2 3 10.3 8.4 11.1 7.2.3-.6 2.4.8 4.7 3 2.2 2.3 4.8 4.1 5.6 4.2 2.9.2-4.3 1.8-15 3.3-11.6 1.7-26.3 2.1-25.5.7 1.3-2-8.2-6.7-15.4-7.7-2.8-.4-5-1-5-1.4 0-.4-1.2-.6-2.7-.3-2.4.3-2.5.2-.8-.6s1.7-1 .3-1c-1-.1-4.4-1.5-7.6-3.1-6.6-3.4-13.4-3.9-16.7-1.4-1.7 1.3-1.8 1.6-.5 2.5 1.2.9 1.1.9-.5.4-1.1-.4-4.9-1.8-8.4-3l-6.4-2.3 4.9-.7c7.7-1.1 12.5-2.5 11.9-3.5-.4-.6-1.4-1-2.3-1.1-2.8-.1 9.1-2.8 12.8-2.9 1.9 0 4.1-.4 4.8-.8 1.2-.8-10.8-3.1-17.3-3.3-2.8-.1-2.8-.1-.6-.8 1.4-.4 2.6-1.2 2.8-1.8.5-1.5-9.7-3.1-27.7-4.3-8-.5-18.3-1.6-23-2.5-4.7-.9-12.1-2.2-16.5-3-6.6-1.2-18.6-1.8-28-1.3-7.4.4-28-2.7-36.3-5.4-5.1-1.7-9.1-3.2-9-3.3.2-.2 3.7.1 7.8.5 23.3 2.7 56.2-1.2 61.4-7.3 2-2.5 6.4-2.7 24.6-1.5 5.6.4 8 .4 6-.1-3.3-.8-3.1-.9 2.5-1.2 3.3-.2 8.5-.4 11.5-.5 9.7-.3 9.4-.2 8-1.9-1.6-1.9-.6-3.2 3.5-4.4 4.2-1.1 7.6-.4 9.3 2.1.7 1 2 1.8 2.8 1.8.8 0 1.5.9 1.5 2 .1 1.1.2 2.6.3 3.2.1.9 2.3 1.3 7.6 1.1 7.2-.1 7.6-.2 10.7-3.7 3.3-3.6 3.3-3.6 1.8-7.2-.9-2.3-1.3-5.5-1-8.8.2-2.8.4-5.7.5-6.4 0-2 3.8-5.2 6.2-5.2 1.2 0 3 .7 4 1.7 2.4 2.1 6.5.4 7-2.9.5-3.1-.9-9.2-2.1-9.6-.6-.2-1.1-2-1.2-4 0-3-.2-3.3-.9-1.7-.5 1.1-.9 1.7-1.1 1.2-.6-2.4-.3-3.4 1.4-4.8 1.6-1.3 1.9-2.8 1.8-7.5 0-3.2-.6-6.1-1.1-6.2-1.3-.5-1.3-5.9 0-6.7.6-.3 1-1.9 1-3.5s.5-3.2 1.1-3.5c.6-.4.8-1.3.5-2.1-.8-2.1 2.3-8.6 4.5-9.1 1-.3 1.9-1.4 1.9-2.4 0-1.1.7-2.2 1.5-2.5.8-.4 1.5-1.1 1.5-1.7 0-.6.6-1.8 1.4-2.6.8-.9 1.7-2.8 2-4.3.2-1.5 1.2-3.8 2-5 .9-1.2 1.6-3.2 1.6-4.5 0-1.2.5-2.5 1-2.8 1.5-.9 1.2-4.3-.7-7.3-2.3-3.6-3.4-4.3-5.8-3.5-2 .6-2 .5-.1-1.6 2.3-2.6 3.2-10.8 1.8-16.9-.7-2.8-.7-4.2 0-4.2 1.9 0-.3-7.3-4-14-2-3.6-3.8-6.8-4-7.1-.1-.4 1.7-1 4-1.5l4.3-.8-5.2-.5-5.2-.6-5.8-8.5c-3.2-4.7-7.1-10.2-8.7-12.3-1.6-2-2.6-3.7-2.4-3.7.3 0 3.1.9 6.4 2.1 3.2 1.1 8.6 2.2 11.9 2.4 4.1.2 8.2 1.4 13 3.5 14 6.5 23.5 8.7 23.5 5.7 0-1.6-2.7-4.1-5.2-5-1.5-.5-1.8-1.9-1.8-7.7 0-7.1 1.4-11.4 4.4-13.9 2-1.7 7.5-1.6 16.7.3 4.1.8 12.6 1.9 18.9 2.6 6.3.6 15.3 1.7 20 2.5 4.7.8 15.7 1.6 24.5 1.9 15 .5 16.4.4 23-1.8 3.9-1.4 7.1-2.3 7.3-2.1.8.7-11.5 10.5-18.6 14.8-7.8 4.8-8.1 4.8-11 3.3-1.7-.9-3.2-2.1-3.5-2.8-.3-.7-.6-.4-.6.8-.1 2.3 3.4 4.4 10.9 6.5 2.5.6 7.3 2.2 10.7 3.5 7.3 2.8 20.2 4.8 25.2 3.9 2-.4 5.6-1.7 8-3.1 2.4-1.3 4.6-2.3 4.8-2 1 1-1.2 6-3.8 8.6-4.7 4.6-13.1 7.3-20.9 6.6-3.6-.3-7.8-.6-9.5-.6-4.2.1-12.2-1.9-16.9-4.1-5-2.4-5.3-2.4-3 .2 3.1 3.4 10.8 6.8 18.4 8.1 3.8.7 7 1.6 7 2 0 2.2 17.4-.5 25.3-3.9 2.1-.9 3.6-2.1 3.4-2.7-.2-.6.7-2.6 2-4.5 1.7-2.5 2.3-4.8 2.3-9 .1-3.3.7-6.4 1.5-7.5 2.8-3.7 1.4-7.6-1.5-4.1-.7.8-1.8 1.5-2.4 1.5-.6 0-1.6 1-2.1 2.2-.6 1.2-3.4 3.5-6.4 5-6.6 3.5-13.9 3.7-27.4.9-5-1.1-10.3-2.1-11.7-2.3-2.2-.3-1.9-.6 2.2-2.5 6.4-2.9 12.4-7.2 17.6-12.4 4.1-4.2 4.6-5.2 5.6-10.9.3-1.4 1-4.1 1.5-6 1.4-4.5 1.4-12.6.1-15.1-.6-1-1.9-1.9-3-1.9-2.2 0-3.7 1.9-2.3 2.9 1.2.7 2.3 6 1.6 7.8-.6 1.5-2.9-1.1-5.6-6.2l-1.6-3-.1 2.8c0 1.5 1.1 5 2.5 7.8 1.5 2.9 2.3 5.8 2 6.9-.3 1.1-3.1 3.1-6.3 4.7-5.1 2.5-7 2.8-19.7 3.3-7.7.4-14.1.6-14.3.5-.1-.1 2.5-1.2 5.9-2.4 3.3-1.3 5.8-2.5 5.5-2.8-.3-.3-3.4 0-6.8.8-12 2.7-32.1 1.5-58.7-3.3-9.4-1.7-12-1.9-15.2-.9-7.2 2.2-11.2 11.5-9.1 20.8.5 2.4.8 4.3.6 4.3-2.4 0-54.2-22-58.2-24.7-14.7-10.1-58.3-58.1-62.3-68.7-2-5.4-3.1-7.1-4.1-6zM427 417c-1.1 3-1.8 4.4-1.5 3 .2-1.4.8-5.3 1.2-8.5.6-5.5.7-5.8 1.5-3 .7 2.2.4 4.4-1.2 8.5zm288 99.5c0 .3-2.8 1.9-6.1 3.6-4.3 2.1-6.9 2.9-8.8 2.4-1.9-.4-2.2-.3-1.1.5.8.5 1 1 .4 1s-2.8-1.5-4.7-3.4l-3.7-3.4 7.3.4c5.6.4 13.9-.4 16.5-1.5.1-.1.2.1.2.4zm-297.3 43.3c.8 1.9.9 3.1.3 2.7-1.1-.7-3.3-5.4-4.4-9.6-.6-2-.4-2 1 .5.9 1.6 2.3 4.5 3.1 6.4zm44.3-3.6c-.1.2-.9 2.8-2 5.8-1.4 3.9-1.9 4.7-2 2.9 0-3.3 1.9-8.9 3.1-8.9.5 0 .9.1.9.2zm288.9 17.2c-.1 1.7-.2 1.6-.9-.6-.4-1.4-1.1-3.2-1.5-4-.3-.7.1-.4.9.6.9 1.1 1.6 2.9 1.5 4zm.8 15.3c-.2 1.6-.4.5-.4-2.2 0-2.8.2-4 .4-2.8.2 1.3.2 3.5 0 5zm-341 8c3.7 1.3 6.3 3.2 9.5 6.8l4.3 4.9-5-3.4c-2.7-1.9-8.1-5.2-12-7.3-7.1-3.9-6-4.3 3.2-1zM712.4 619c6.8 2.3 7.9 3.1 11.8 8.4 2.6 3.6 3.8 9.6 2 9.6-.5 0-2.4-.8-4.3-1.8-2.6-1.3-6-1.7-14.4-1.8-10.6-.1-11-.2-12.2-2.5-1.6-3.1-1.6-6.3 0-9.2.6-1.2 1.3-2.4 1.4-2.6.2-.4 6.2-1.9 8.3-2 .8 0 4.2.8 7.4 1.9zm9.5 19.3c2.5 1.2 4.9 2.9 5.4 3.8 1.6 2.7-.1 8.2-4.4 14l-4.1 5.6-7.4-3c-7-2.8-8.7-4.7-4.3-4.7 3.4 0 7-4.9 6.7-8.9-.4-4.1-2.8-5.6-2.8-1.7 0 3.5-3.8 5.6-5.7 3-1.5-2-1.7-5.4-.4-5.4.5 0 .7-.9.4-1.9-.4-1.6.1-2 2.9-2.4 7-.8 9.4-.6 13.7 1.6zM369 639.5l3.5 1.3-4.2.1c-4 .1-6-.9-4.6-2.3.8-.8 1.1-.7 5.3.9zm-10.7.2c-.7.2-1.9.2-2.5 0-.7-.3-.2-.5 1.2-.5s1.9.2 1.3.5zm343.6 5.3l1 3h-4.2c-2.8 0-3.7-.3-2.8-.9.7-.5 1-1.4.7-2-1-1.6.2-3.1 2.4-3.1 1.1 0 2.2 1.1 2.9 3zm66.4 8.2c-.6 1.2-11.1 1-11.8-.2-.3-.6.5-1 1.8-1 1.4 0 4-.6 5.8-1.4 3.1-1.3 3.5-1.3 4 .2.4.9.5 2 .2 2.4zM706 651c0 .5-.5 1-1.1 1-.5 0-.7-.5-.4-1 .3-.6.8-1 1.1-1 .2 0 .4.4.4 1zm-365.5 6.3c3.5 1.2 9.5 4.7 8 4.7-.5-.1-4.1-1.6-8-3.6-6.7-3.3-6.7-3.5 0-1.1zm69.3 2.3c2 .9 6.6 1.7 10.2 1.9 8.1.3 28.2 2.5 29.3 3.2.4.3.2 1.2-.5 2-2.7 3.2-37.4-.2-41.7-4.1-.9-.9-4-2-6.9-2.6-2.9-.7-5.2-1.4-5.2-1.6 0-1.1 11.5-.2 14.8 1.2zm357.1 37.3c1.5 2.3 1.5 2.4-.4 1.3-1.1-.6-2.9-1.8-4-2.7-2-1.5-2-1.6.4-1.3 1.3.2 3.1 1.4 4 2.7zm-392.6 7c5 4.7 4.3 6.3-1.7 3.4-3.1-1.5-4.5-2.9-4.8-4.7-.7-3.8 1.5-3.3 6.5 1.3zm185.1-2.3c.5 1.4.4 1.5-.9.4-1.7-1.4-1.9-2-.6-2 .5 0 1.2.7 1.5 1.6zm-3.7 0c-.3.3-1.2.4-1.9.1-.8-.3-.5-.6.6-.6 1.1-.1 1.7.2 1.3.5zm217.1 6.3c7 2.4 7.4 3.1 2 3.1-3.8 0-4.9-.4-6.2-2.5-.9-1.4-1.5-2.5-1.4-2.5.2.1 2.7.9 5.6 1.9zm-400.1 5.6c2.2 1.1 7.9 1.5 23.2 1.8 12.6.3 20.5.8 20.9 1.4.4.6 9.9 2.9 21.2 5.1 11.3 2.2 22.3 4.4 24.5 4.8l4 .8-5.4.6c-3 .3-10.4.2-16.5-.4-12.3-1-21.4-.3-24.2 2-1.8 1.5-1.8 1.5.4 1.1 1.2-.3 2.2-.2 2.2.2s5 2.9 11 5.7l11.1 4.9-5.3.8c-2.9.4-6.6.6-8.1.3-2.6-.5-2.8-.4-2.1 1.7 1.7 5.8 6 7.2 25.4 8.2 6.3.4 17 1.8 23.6 3.1 12.8 2.5 33.4 3.4 33.4 1.4 0-.6-.6-1-1.4-1-4.2 0-29.3-3.3-30.6-4.1-2.5-1.4 17.9-1 25 .6 7.2 1.5 28.3 9.9 28.8 11.3.3 1.1-7.6 2.7-21.8 4.4-12.3 1.4-14.6 3.3-3 2.4 4.7-.4 11.3-.9 14.7-1.2l6.1-.6 3.1 4.2c6 8.4 9 23 9.1 44.6 0 10.1 0 10.1-4 16.2-2.2 3.4-4.7 6.2-5.5 6.2-.8 0-3.2-1-5.3-2.3-2-1.3-6.5-3.8-9.9-5.7-3.4-1.8-6.5-4.1-6.8-5.1-.9-2.8-3.5-2.4-3.5.6v2.5l-4.2-2.1c-2.4-1.2-10.4-5.8-17.8-10.2-10.2-6.1-15.7-10.1-22.5-16.7-13.9-13.5-30.5-23.4-41.4-24.7-5.7-.6-11.7 1.1-13.1 3.8-.6 1-1.9 1.9-2.9 1.9s-3.4 1.1-5.4 2.4c-3.5 2.4-3.6 2.4-5.2.6-2.1-2.3-1.3-5 1.3-5 1.3 0 2.8-2.1 5.1-6.8 3.1-6.5 3.2-7 1.8-10.3-.8-1.8-4-6.5-7-10.4-5.8-7.1-6.2-9.8-1.1-7.2 5 2.5 10.3 3 13 1.2 1.9-1.2 2.4-2.4 2.4-5.8 0-5.9-4.3-10.1-12.6-12.2-3.2-.9-6.4-2.2-7-3-1.4-1.9-2.3-1.9-4.6.2-2.4 2.2-2.3 7.4.2 10.6 1.4 1.7 1.7 2.8.9 3.2-.6.4-1.4.3-1.8-.1-.4-.5-3.4-4.3-6.6-8.4-3.2-4.1-7.2-9-8.9-10.7-2.7-3-2.8-3.5-1.6-5.8.7-1.4 1.4-2.5 1.5-2.5.1 0 1.5.7 3.2 1.5zm49.6 3.2c-.7.2-2.1.2-3 0-1-.3-.4-.5 1.2-.5 1.7 0 2.4.2 1.8.5zm151.4 10.9c-.3.3-1.2.4-1.9.1-.8-.3-.5-.6.6-.6 1.1-.1 1.7.2 1.3.5zM357.5 735c-.5.9-1.4.4-3-1.6-3-3.8-2-5.4 1.2-2.1 1.5 1.5 2.2 3 1.8 3.7zm38.9-3.1c1.5 1 3.7 3.2 4.7 4.7 1.9 3 2.6 7.4 1.1 7.4-1.1 0-9.2-5.8-9.2-6.6 0-.3.5-.2 1 .1 2.1 1.3.9-2-1.7-4.7-2.4-2.5-2.5-2.8-.7-2.8 1 0 3.2.9 4.8 1.9zm45.6.1c2.6 1.6.4 2-3.6.6-3.8-1.4-3.8-1.5-.9-1.5 1.7 0 3.7.3 4.5.9zm136.2-.3c.2.5 1.6 1.9 3.3 3.3 2.2 1.9 2.6 2 1.5.5-.8-1.1 1.2.5 4.3 3.5 3.1 3 5.7 5.7 5.7 6 0 .6-2.4 1.6-13.7 5.6l-7.2 2.6-3.3-2.7c-2.8-2.4-3.8-2.7-7.9-2.2-4.7.6-10.5-.8-12.4-2.9-3.4-3.7-10.9-7.4-15.3-7.5-3.1-.1-1.6-.5 4.3-1 5-.5 15.3-1.9 23-3.3 16.2-2.7 17.2-2.9 17.7-1.9zm-129.5.9c-.3.3-1.2.4-1.9.1-.8-.3-.5-.6.6-.6 1.1-.1 1.7.2 1.3.5zm-41.8 8.8c-.1 3.1-.1 3.1-.8-.6-.4-2-1.2-4.3-1.7-5-.5-.8-.1-.5.9.5.9 1.1 1.6 3.3 1.6 5.1zm80.9-.3c-1.1 1.7-2 2-5.3 1.5-2.2-.4-7.1-1-11-1.4l-7-.7 11.5-.6c6.3-.3 11.8-.6 12.3-.7.4-.1.2.7-.5 1.9zM329 757.8c0 1.1-4.7-2.9-6.9-5.9-2.2-3-2-2.9 2.2 1.1 2.6 2.4 4.7 4.6 4.7 4.8zm274.9-5.4c3.1 1.9 9 5 13.1 6.9 7.2 3.3 7.4 3.5 4.5 4.1-1.6.4-4 1.2-5.3 1.7-3.5 1.4-12.2 1-16.7-.8-5.4-2.1-11.1-2.8-12-1.4-.3.7.8 2.5 2.5 4.1 1.8 1.7 2.8 3 2.3 3-.6 0-1.8-1-2.9-2.1-1-1.2-4.5-4.1-7.7-6.4l-5.8-4.3 4.3-1.6c8.5-3.1 17.3-6.4 17.7-6.5.2 0 2.9 1.4 6 3.3zm131.5 7.9c.5 2.2-.5 4.7-2.8 6.6-1.8 1.5-3-.4-4.1-6l-.7-3.5 3.5.4c2.5.3 3.7 1 4.1 2.5zm-355 1.8c2.9 3.4 3.3 4.9 1.3 4.9-1.9 0-7-5.7-6.3-6.9 1.1-1.8 2.3-1.3 5 2zM311 767c3 4.3 1.8 3.7-1.6-.7-1.5-2-2.3-3.3-1.6-2.9.6.3 2.1 2 3.2 3.6zm-22 .8c-2 .7-.9 3.1 2.7 6.1 2.1 1.7 3.4 3.1 3 3.1-1.7 0-10.7-9.4-10.7-11.2 0-1.9.1-1.9 3-.1 1.7 1 2.6 1.9 2 2.1zm110.3 1.3c-.6.6-.7-.3-.4-2.3.4-2.8.6-2.9.9-.9.2 1.3 0 2.7-.5 3.2zm263.2-2.4c-.7 3-5.3 13.3-5.9 13.3-.2 0-1.1-2.1-2-4.7-.9-2.5-2.3-5.4-3.1-6.3-1.4-1.6-1.2-1.8 3.6-2.3 2.9-.4 5.7-1.1 6.3-1.7 1.6-1.6 1.9-1.2 1.1 1.7zm-315.4 2c1.3 1.6 1.2 1.7-.3.4-1.7-1.3-2.2-2.1-1.4-2.1.2 0 1 .8 1.7 1.7zm191.5 3.3l1.4 3.5-2.1-2.5c-1.1-1.4-2.8-3.1-3.7-3.8-1.5-1.2-1.5-1.3.6-1 1.6.2 2.8 1.4 3.8 3.8zm-241.2 1.6c.5 1.4.4 1.5-.9.4-1.7-1.4-1.9-2-.6-2 .5 0 1.2.7 1.5 1.6zm51.5 3.9c2.2 2.4 3.1 4.1 2.7 5.2-.6 1.4-1 1.1-2.6-1.5-1.1-1.8-2.6-3.2-3.4-3.2-1.8 0-2.9-1.6-2.1-3 1-1.6 1.9-1.2 5.4 2.5zm230.8-.5c2.1 1.7 3.5 1.9 7.4 1.4 5.6-.7 10.2 1.4 11.9 5.7 1.4 3.2.7 12.8-1.3 18.4-.8 2.2-2.2 8.4-3.2 13.7-1.5 8.4-1.6 11.7-.6 26.5.6 9.2 1.9 20.8 3 25.8 1 4.9 2.2 11.6 2.6 14.7.8 6.5-.4 7.9-5.4 6.2-3.7-1.3-5.1-4.9-7.2-19.3-2.5-16.8-2.7-17.8-5.4-23.6-2.2-4.8-2.3-6-2.2-27.5 0-22.5 0-22.5-2.5-26.5-1.4-2.2-3.7-5.1-5.2-6.4-7-6.5.6-15 8.1-9.1zm30.3 1.5c0 1.4-.4 2.5-1 2.5-.5 0-.7-.7-.3-1.6.3-.9 0-2-.8-2.5-1.1-.7-1.1-.9.4-.9 1.2 0 1.7.8 1.7 2.5zm-265.2 4c-.3.3-1.3-.7-2.3-2.2l-1.7-2.8 2.3 2.2c1.2 1.2 2 2.5 1.7 2.8zm205.8 10.1c1-.4 3.5 1.4 7.5 5.7l6 6.2-.2 10.5c-.2 11.8.5 14.2 9.1 31 4.4 8.5 5.1 10.6 6.3 20.5.8 6.8 1 11.2.4 11.6-1.6 1.1-4.8-.3-5.9-2.6-.6-1.3-2.9-3.1-5.2-4-2.2-.9-4.9-2.1-5.8-2.6-1.1-.5-.5 1.2 1.9 5.4 3.4 6 7.7 16.7 6.9 17.4-.2.2-3.7-1.6-7.7-4-10.4-6.1-15.5-7.9-21.9-7.5-4.7.3-5.5.6-5.5 2.2 0 1.7 1.1 2.2 6.6 3.1 4.8.7 8.9 2.4 15 5.9 9.7 5.6 11.9 7.3 12 9.5 0 1 .2 1.2.6.3.9-2.3 2.4-1.2 2.1 1.5-.2 2-.8 2.8-2 2.7-1-.1-1.8.4-1.8 1.2 0 .8-.6 1.4-1.2 1.4-1.9 0-11.8-2.6-16.3-4.3-4.1-1.6-7.9-5.3-6.9-6.8.3-.5.1-.8-.5-.7-1 .3-21-25.9-21.1-27.6 0-.5 1-.1 2.3 1l2.2 1.9-1.9-2.2c-1-1.3-2.2-2-2.6-1.8-.7.5-5.3-5.9-5.6-7.8-.1-.4-.2-1-.3-1.5 0-.4-2.1-3.2-4.6-6.2-2.5-3-5-7-5.6-8.7-.6-1.8-1.5-3.3-2-3.3s-.9-.7-.9-1.5c0-1.9-.5-2.1 8.3 2 4.2 1.9 8.4 3.5 9.5 3.5 2 0 7.2 4.2 7.2 5.9 0 .6 1.2.4 2.8-.4 1.5-.8 4.1-1.9 5.8-2.5 4.2-1.5 7.7-5.5 9.8-11 3.2-8.1 3.2-30.6.1-45l-.6-2.5 1.1 2.4c.7 1.5 1.5 2.1 2.6 1.7zm-217.5 3.1c1.3 1.6 1.2 1.7-.3.4-1.7-1.3-2.2-2.1-1.4-2.1.2 0 1 .8 1.7 1.7z"/><path d="M550 900.4c0 .2.7.7 1.6 1 .8.3 1.2.2.9-.4-.6-1-2.5-1.4-2.5-.6zM637 496c0 .5.4 1 .9 1 .6 0 1.3-.5 1.6-1 .3-.6-.1-1-.9-1-.9 0-1.6.4-1.6 1zM651 502.5c1.4.8 3.2 1.4 4 1.4.8 0 0-.6-1.9-1.4-4.2-1.9-5.4-1.9-2.1 0zM612 523.6c0 4.9-5.2 8.2-22.5 14-17.6 6-22.2 8.3-28.4 14.6-6.6 6.6-9.9 11.9-14 23.1-5.7 15.1-6.8 33.3-1.7 27.6.7-.8 2.5-6.4 4-12.4 3.5-13.9 9-25.6 15.4-32.4l5-5.3 5.4.7c7.2.9 16.6-1.4 28.4-7.1 5.9-2.8 9.8-5.3 10.9-7.1 2.3-3.4 3.2-13.1 1.6-16.2-1.7-3-4.1-2.7-4.1.5zM638 591.9c0 1.9.7 4.2 1.5 5.1 1.5 1.7 3.7 8.4 5.6 17 .5 2.4 1.6 5.1 2.5 6 1.4 1.3 1.5 1.2.8-1.5-1-4.4-7.3-23.5-9-27l-1.4-3v3.4zM851.4 591.1c-.3.6-.1 1.4.5 1.8.8.6 1.2 7.3 1.4 22.9.1 12.2.1 22.2 0 22.2-.2 0-1.4-2.3-2.8-5-1.4-2.8-2.3-5-2-5 .4 0-3-7.1-7.5-15.8-8.5-16.4-11.2-19.5-13-14.7-.5 1.3-1.8 2.8-2.8 3.4-1.1.6-2.5 2.5-3.1 4.2-.9 2.7-.8 3.2.9 3.6 1.3.3 2 1.4 2 2.8 0 1.2 2.6 6.2 5.8 11.1 3.2 4.9 7.8 12.2 10.2 16.2 2.4 4.1 4.9 7.6 5.6 7.9.7.3 2.7 2.6 4.4 5.2 2.9 4.6 3 5.2 3 15.5v10.8l-3.5-2.2c-4.1-2.5-7.2-2-8.6 1.7-1.4 3.8-1.2 4.2 3.7 6.3 5.3 2.3 11.2 2.6 13.8.7 2.4-1.7 2.6-5.1 3-46.7.3-27.7.7-35.6 1.9-39.9 1.2-4 1.3-5.8.5-6.8-1.3-1.6-12.4-1.8-13.4-.2zM587.1 600.3c-7.2 3.6-14.4 11-22.5 23-9.7 14.4-13.6 22.2-13.7 27.2 0 2.9-.2 3.5-.8 2.1-.7-1.9-.8-1.9-1.5 0-.8 2.2 3.3 6.4 6.3 6.4 1 0 3.7 1.3 5.9 3 2.3 1.6 4.6 3 5.2 3 .5 0 1 .9 1 2.1 0 2.8 4.9 4.6 15.4 5.8 4.8.6 9.1 1.3 9.6 1.6.5.3 1.1.1 1.5-.5.8-1.3 5.1-1.3 7.7.1 1.2.6 4.2 1.2 6.8 1.2 3.9.1 5.5-.5 9.1-3.3 6.6-5 12.8-11.1 15-14.7 2-3.2 2-3.5.4-11.4-2.1-10.1-4.5-16.2-5.4-13.6-.8 2.2-6 5.7-8.4 5.7-1 0-1.5.5-1.2 1.1.4.5-2.2-.4-5.7-2.2-6.5-3.2-8.8-4.8-5.3-3.5 1.8.7 1.8.5-.3-1.7-1.2-1.3-2.2-2.7-2.2-3.3 0-.5-1.4-1.7-3-2.6-4.2-2.4-5.8-6.2-3.7-8.6 2.2-2.4 2.2-2.3-1.8-6.5-5.1-5.2-4.3-9.8 2-11.6 2.8-.9 2.8-.9-1.5-1-2.8 0-6.2.8-8.9 2.2zm29.1 47c8.5 4.1 9 5.5 3.4 8.4-1.7.9-5.4 3.3-8.3 5.5-6.8 5-12.8 6.2-26.3 5.5-15.6-.9-21.9-3.5-23.4-10-.8-3.6 1.9-6.4 10.4-10.7 5.9-3 8.7-3.3 6.2-.8-2.5 2.5-1.1 7.9 3 12.5 1.6 1.7 2.7 2 5.4 1.6 2.3-.4 3.4-.2 3.4.7 0 .8-.8 1-2.6.6-1.6-.4-2.3-.3-1.9.3.3.6 2.2 1.3 4.2 1.7 4.6.9 11.1-2.3 13.7-6.6 1.7-3 1.7-3-.8-3-1.4 0-2.8.4-3.1 1-1.1 1.7-4.4 1.1-5.5-1-.9-1.6-.8-2.2.5-2.6.8-.4 2.2-.1 3 .6 1.2 1 1.5 1 1.5-.3 0-.9-.4-1.9-1-2.2-2.1-1.3-.9-4.3 2.1-5.8 2.6-1.2 3.7-1.3 5.8-.3 1.4.7 6.1 2.9 10.3 4.9zm-25.2 3.6c0 .9-.7 2.6-1.5 3.7-3.1 4.5-10.5-.5-9.1-6.1.5-1.9 1.2-2.5 2.4-2.1.9.3 2.4.1 3.2-.4 1.7-1.1 5 2.1 5 4.9zm2 7.1c0 .5-.2 1-.4 1-.3 0-.8-.5-1.1-1-.3-.6-.1-1 .4-1 .6 0 1.1.4 1.1 1zM871.3 609.9c-4 3.8-5.6 8.2-6.1 16.7-.4 6.7-.1 8.7 1.6 12 3 5.9 7 9 13.9 10.9 5.8 1.6 6.4 1.6 8.7.1 3.2-2 4.4-6.7 4.5-18.1.2-10.8-1.4-14.4-8.3-19.3-5.9-4.3-11.3-5.2-14.3-2.3zm13.5 11.2c2.1 2.9 2.3 4.2 1.9 9.5-.6 6.7-2.4 11.4-4.2 11.4-.7 0-2-.9-3.1-2.1-1.6-1.7-1.9-3.7-1.9-10.9 0-12.3 2.5-15 7.3-7.9zM278 617.6c0 2.2 1.2 3.9 5 6.9 2.2 1.7 2.2 1.6-.3-1.2-1.6-1.7-2.8-3.3-2.6-3.5.1-.1-.2-1.2-.9-2.3-1.1-2-1.1-2-1.2.1zM473 670.5c-1.4.8-2 1.4-1.5 1.4.6 0 2.1-.6 3.5-1.4 1.4-.8 2.1-1.4 1.5-1.4-.5 0-2.1.6-3.5 1.4zM449.3 672.7c3.2.2 8.1.2 11 0 2.9-.2.3-.3-5.8-.3-6 0-8.4.1-5.2.3zM387 683.6c5.2.7 14.5 1.5 20.5 1.8 10.1.5 9.7.4-6-1.4-19.4-2.1-28.7-2.4-14.5-.4zM703.5 685.4c-5.8 1.8-9.4 3.9-15 8.5-2.7 2.2-6.1 4.3-7.5 4.6-3.5.8-5.2 4.1-4.8 9.5.3 3.8.7 4.5 3 5.1 3 .8 10.6-2.4 11.5-4.7.7-1.9 5-1.7 5.7.2.3.9.6 2.8.6 4.3 0 1.4.7 3.7 1.6 4.9 1.3 1.9 2.3 2.3 6.2 2 4.5-.3 4.8-.5 6.9-4.8 1.2-2.5 2.6-4.4 3.2-4.3.5.1 2.6 1.4 4.7 2.8 2.2 1.5 4.9 2.5 6.4 2.3 2.2-.3 2.5-.7 2.4-4.3-.1-5.2-4.4-13.7-10.2-20-6.7-7.3-8.5-8-14.7-6.1zm12.2 7.5c.8 1.7.9 3.1.2 4.3-.7 1.4-.6 1.8.5 1.8 2 0 2.9 1.7 1.9 3.5-.8 1.3-1.1 1.3-3.1-.1-1.2-.8-2-1.9-1.8-2.3.3-.4-.5-.8-1.6-.8-2.3-.2-3.5-1.6-4.4-5.2-1.3-4.6 6-5.6 8.3-1.2zM703.9 707c1.4 2 1.9 3.5 1.4 4.5-.6 1-1.3.2-2.4-3-.9-2.5-1.6-4.5-1.5-4.5.1 0 1.2 1.4 2.5 3zM383.8 686.7c1.2.2 3 .2 4 0 .9-.3-.1-.5-2.3-.4-2.2 0-3 .2-1.7.4zM421 688c.8.5 2.6 1 4 1 2 0 2.2-.2 1-1-.8-.5-2.6-1-4-1-2 0-2.2.2-1 1zM449.8 690.7c.6.2 1.8.2 2.5 0 .6-.3.1-.5-1.3-.5-1.4 0-1.9.2-1.2.5zM436.8 691.7c.7.3 1.6.2 1.9-.1.4-.3-.2-.6-1.3-.5-1.1 0-1.4.3-.6.6zM440.8 692.7c.6.2 1.8.2 2.5 0 .6-.3.1-.5-1.3-.5-1.4 0-1.9.2-1.2.5zM446 693c-.9.6-1 1-.3 1 .6 0 1.5-.5 1.8-1 .8-1.2.4-1.2-1.5 0zM461.8 692.7c.7.3 1.6.2 1.9-.1.4-.3-.2-.6-1.3-.5-1.1 0-1.4.3-.6.6zM599 699.8c0 1.1 4.3 3.5 14.7 8.1 13.9 6.1 24 9.1 32.3 9.8 4.7.4 7.8 1.1 8.3 1.9.8 1.4 6.7 2 6.7.6 0-.9-9.3-3.7-17.3-5.2-7.7-1.5-16.5-4.6-31.5-10.9-13-5.5-13.2-5.5-13.2-4.3zM399 704.5c0 .8.8 1.5 1.8 1.5 1.4 0 1.4-.2.3-.9-1.1-.7-.7-1 1.5-1.4l2.9-.4-3.2-.2c-2.3-.1-3.3.3-3.3 1.4zM403.8 706.7c.6.2 1.8.2 2.5 0 .6-.3.1-.5-1.3-.5-1.4 0-1.9.2-1.2.5zM632.4 721.1c-.8 1.3 3.2 5.6 4.2 4.6.8-.8-1.5-5.7-2.7-5.7-.4 0-1.1.5-1.5 1.1zM617.2 728.2c.6 1.8 2.8 2.1 2.8.4 0-.9-.7-1.6-1.6-1.6-.9 0-1.4.5-1.2 1.2zM590 731.9c0 .4 1.1 1.8 2.5 3.1s2.5 2.1 2.5 1.7c0-.3-1.1-1.7-2.5-3.1-1.4-1.4-2.5-2.2-2.5-1.7zM670.7 733.6c-1.1 1.2.3 2.4 2.9 2.4 1.6 0 2.4-.5 2.2-1.3-.5-1.3-4-2.2-5.1-1.1zM645.5 735.9c-.9 1.6 3.5 3.5 4.8 2.2.9-.9.8-1.4-.3-2.1-1.9-1.2-3.7-1.3-4.5-.1zM667.2 742.7c-3 .6-2.3 2.7 1.1 3.1 2.2.3 2.7-.1 2.7-1.7 0-1.2-.3-2-.7-2-.5.1-1.8.4-3.1.6zM802.1 762.4c-2 2.4-8.1 21.8-8.1 25.7 0 2.1-1 5.4-2.1 7.4-2.1 3.4-2.1 4.6-1.9 29.3.3 21.1 0 26.4-1.2 29.6-1.7 4.2-1.9 4.1-3.8-1.9-1.8-5.6-5.7-13.2-9.5-18.5-1.7-2.5-4-7-5-10-2.3-7.2-5.2-12.9-8-16-3.2-3.7-7.5-11.7-9.5-18-1.3-4-2.3-5.5-3.6-5.5-2.5 0-3.7 6-3.1 16.7.3 6.2.1 9-.8 10-2.6 2.6-4.7 12.4-5.2 24.4-.7 14.2.5 19.5 7.1 31.9 2.3 4.4 5.4 11.9 6.9 16.6 1.5 4.7 3.8 10.2 5.2 12.3 4.8 7.1 6.3 10.9 5.2 13.3-2.3 5 3.1 11.3 9.7 11.3 2.5 0 2.7.2 1.5 1.6-1 1.3-1 1.7.2 2.5 1.1.7 1.1.9-.3.9-3.1 0-4 3.5-1.7 6.4 4.2 5.3 4.8 5.2 17-3.1 15.3-10.2 26.9-19.1 26.9-20.5 0-.6.3-.9.6-.5.4.3 3.4-1.5 6.8-4 8.2-6.3 20.8-18.5 19.8-19.2-.5-.3-2.3-3.2-4.1-6.4-1.8-3.1-3.5-5.7-3.8-5.7-.3 0-3.7.9-7.5 2.1-9.3 2.7-12 2.3-12.9-1.9-.4-1.7-.6-3.2-.5-3.2 1 0 22.2-9.3 23.3-10.1.8-.7 1.2-1.8.9-2.5-.3-.9.8-1.7 3.2-2.5 4.7-1.4 11.7.3 13.2 3.1 1.5 2.8 1.2 12.1-.5 15.4-.8 1.5-1.5 3.1-1.5 3.3 0 1 3-1.9 6.1-5.8l2.9-3.7-1.6-4.4c-.9-2.4-1.7-5.4-1.7-6.8-.2-2.1-1-2.7-4.7-3.7-8.8-2.3-13.1-1.4-20.5 4.3-2.9 2.2-15.5 6.8-16.3 6-.2-.3.6-.7 1.7-1.1 1.7-.5 1.9-1 1-3.1-.5-1.4-.7-2.9-.4-3.3.2-.5-.7-1.9-2-3.1-2.7-2.5-4.5-7.6-4.5-12.5 0-1.7-.9-4.9-2.1-7-1.1-2.2-2.5-6.8-3-10.3-.5-3.5-1.6-7.7-2.5-9.4-1-1.9-1.4-4.4-1.1-6.3.5-2.9.2-3.4-3-4.9-1.9-.9-3.2-1.2-2.9-.7.3.5 0 1.1-.8 1.4-.9.4-1.6-.3-1.9-1.9-.3-1.9.5-3.2 3.4-5.9 4.5-4.1 5.4-4.2 6.9-1.4 1.1 1.9 1.3 2 3 .4s1.9-1.5 3.6 1c4.1 6.2 5.6 15.1 6.1 36.5.2 11.3.6 21.1.9 21.8.3 1 .9 1 2.4.2 3.4-1.8 4.2-8.1 3.8-27-.4-15.6-.8-18.4-3.2-25.9-2.2-6.7-3.6-9.2-7.3-12.8-4-4.1-4.6-5.2-5.4-11.2-1.2-8-2.7-14.1-3.7-14.2-.4 0-1.7-.2-2.8-.5-1.2-.2-2.7.3-3.3 1zm4.8 15.2l.1 6-4.2 2.2c-2.3 1.1-4.4 1.9-4.7 1.6-.3-.2 1.3-5.6 3.5-11.9 3.8-11.2 3.9-11.4 4.6-7.8.4 2.1.7 6.5.7 9.9zm-54.1 23c1.1 4.1 1.1 4.8-.5 6-1 .7-2.1 1.4-2.4 1.4-.8 0-2-10-1.3-11.1 1.3-2.1 3.1-.5 4.2 3.7zm6.6 11c1.4 1.5 2.6 2.9 2.7 3.3 0 .3.2 2 .3 3.8.2 1.8 1.5 5.1 2.9 7.5 1.3 2.4 3.4 7.9 4.6 12.3 1.2 4.4 2.8 9.7 3.7 11.9 1.1 2.9 1.2 4.1.3 5.2-1.1 1.3-.3 1.9 2.3 1.5.4 0 1.6 1.5 2.8 3.5 2.9 4.6 3.5 3.7 1.5-2.1-.8-2.6-1.4-5-1.1-5.2.2-.2 1.1 1.5 1.9 3.9.8 2.4 1.8 5.1 2.2 6 .8 2-1.5 1.8-9.5-.9l-5.5-1.8-5.2-10.5c-2.9-5.8-6.2-13.5-7.3-17.3-1.2-3.7-3-7.6-4.1-8.6-1.7-1.6-1.9-2.6-1.3-6.6.6-4.4 3.2-8.5 5.3-8.5.4 0 2 1.2 3.5 2.6zm-11 9.7c.2 1.4 0 2.9-.5 3.2-.5.4-.9-1.1-.9-3.1 0-4.2.6-4.2 1.4-.1zm-.6 27.2c0 2.6-.1 2.5-.9-1-.4-2.2-.8-5.6-.7-7.5 0-3.3.1-3.2.9 1 .4 2.5.7 5.8.7 7.5zm2.1 8c0 .5-.4.3-.9-.5s-.9-2.2-.9-3c0-1.6 1.7 1.6 1.8 3.5zm25.3 57.3c-1.3.2-3.1.1-3.9-.3-1.3-.5-1.1-1.1 1.2-3.5l2.9-3 1.1 3.2c.9 3.1.8 3.3-1.3 3.6zm41.8-4.3c0 .2-.9.9-2 1.5-1.2.6-2 .7-2 .1 0-.5.8-1.2 1.8-1.4.9-.3 1.8-.5 2-.6.1 0 .2.1.2.4zm-7.3 3.1c-.3.3-1.2.4-1.9.1-.8-.3-.5-.6.6-.6 1.1-.1 1.7.2 1.3.5zm-6.4 1.1c-.7.2-2.1.2-3 0-1-.3-.4-.5 1.2-.5 1.7 0 2.4.2 1.8.5zm-22.8 6.3c-.3.5-1.2 1-1.8 1-.7 0-.6-.4.3-1 1.9-1.2 2.3-1.2 1.5 0z"/><path d="M773.5 910c-.3.5-.1 1 .4 1 .6 0 1.1-.5 1.1-1 0-.6-.2-1-.4-1-.3 0-.8.4-1.1 1zM304.5 793c-1.6 2.5 5.1 11.7 10.6 14.6 3.5 1.8 13.9 1.7 13.9-.1 0-1.3-7.9-7.8-14.1-11.7-3.3-2.1-9.7-3.9-10.4-2.8zm11.5 11.6c0 .2-.9 0-2-.6s-2-1.3-2-1.6c0-.2.9 0 2 .6s2 1.3 2 1.6zM606.3 855.8c-1.2.7-1.2 5.6 0 6.8.6.7 1.3.7 17.7 2.3 12.6 1.2 16.9.6 18.6-2.7 1-2 1.2-2 2.7-.4 1.1 1 1.7 1.2 1.7.4 0-2.8-8.3-5-20.5-5.6-6.6-.3-13.6-.8-15.5-1.1-1.9-.3-4-.2-4.7.3zM823.5 857c1 1.1 2 2 2.3 2 .3 0-.3-.9-1.3-2s-2-2-2.3-2c-.3 0 .3.9 1.3 2z"/><path d="M646 856.7c0 .5.5 1.4 1 1.9 1.7 1.7 4 16.1 4 25.2 0 15.6-3.7 31.3-11.6 49.7-10.5 24.5-19.6 36.4-33.2 43.3-4.3 2.1-7.7 4.5-7.7 5.3 0 4.1 13.3.3 21.3-6.1 12.9-10.2 27.9-38.3 34.7-65.3 4.3-17.1 3.3-39.6-2.3-49.1-1.8-3-6.2-6.5-6.2-4.9zM770.2 924c0 1.4.2 1.9.5 1.2.2-.6.2-1.8 0-2.5-.3-.6-.5-.1-.5 1.3zM486.8 944.6c-1.2 2.1-2.3 4.3-2.4 4.9-.2.5-2 5.3-4.2 10.5-5.9 14.4-5.9 13.5-1.1 14.9 2.2.7 4.4 1 4.7.7 1-1.1 9.2-26.9 9.2-29.1 0-1.2-.9-3-2-4-1.9-1.7-2-1.6-4.2 2.1zM693.5 952c.2 6.7.7 8.2 4.1 14.1 3.8 6.4 4 6.5 6.9 5.6 1.7-.5 3.1-1.1 3.3-1.3.8-.6-11.4-22.4-12.5-22.4-.6 0-1.4-.8-1.6-1.8-.2-.9-.3 1.7-.2 5.8z"/><path d="M622.8 956.7c.7.3 1.6.2 1.9-.1.4-.3-.2-.6-1.3-.5-1.1 0-1.4.3-.6.6zM573 344.1c-7.7 1.3-15.3 5.1-18.1 9-2 2.9-2.4 4.5-2.3 10.4 0 5.7.8 8.9 4.2 17.7 4.8 12.3 6 19.8 4.2 25.3-3.6 11.1-17.8 17.3-33 14.5-12.4-2.2-19-7.7-19-15.7 0-3.9.5-5 3.4-7.7 4.5-4.3 9.5-5.6 21-5.6 5.3 0 9.6-.4 9.6-.8 0-.5-.6-1.6-1.3-2.6-1.2-1.7-2.8-1.8-18.3-1.4-19.1.6-25.4 2-30.3 6.9-5.3 5.3-5.3 14.3-.1 20.3 11.1 12.5 50.4 15.9 71.8 6.1 8.1-3.7 11.9-6.9 14.7-12.5 4-7.9 3.1-15.4-4-33.4-1.9-4.9-3.7-11-4.1-13.6-.6-4.2-.3-5 2.3-8 2.2-2.5 3.9-3.3 7.6-3.7 5.7-.7 7.8.7 7.1 4.6-.8 3.7 1.9 8.7 5.9 11.1 3.9 2.4 10.6 2.6 14.7.5 5.7-3 7.9-11.9 4-16.7-3.7-4.8-7.6-5.8-21.7-5.7-7 .1-15.3.5-18.3 1zM828 370.7l-5.5 15.8-12 .6c-13.1.7-16.4 1.5-23.1 5.4-6.6 3.9-9.7 9.1-10.3 17.8l-.6 7.2-5.8.3c-4.1.2-5.9-.1-6.2-1-.3-.8 1.5-7.2 4-14.2 2.5-7.1 4.3-13.7 4-14.7-.8-2.6-3.7-3.2-8.7-1.8-5 1.3-7.1 2.7-19.2 12.7-4.9 4-9.4 7.1-10 6.9-2-.7-1.8-4.5.8-11.7l2.6-7h-16.6l-3.9 11.2c-2.1 6.2-4.7 13.2-5.6 15.5l-1.8 4.3H704c-4.6 0-6.2-.4-6.7-1.6-.3-.8 1.3-7 3.7-13.7 2.3-6.7 4.4-13 4.7-14 .5-1.6-2.3-1.7-48.5-1.7-46 0-49.4.1-55.3 2-7.2 2.2-10.9 5.2-14 11.2-4.1 8.1-.9 16.6 7.8 20.9 4.1 2 6.3 2.3 15.8 2.4 10.1 0 11.4-.2 16.2-2.8 9.5-4.9 13.3-14 9.3-22.1-1.2-2.5-1.9-5-1.5-5.6.3-.5 4.2-1 8.6-1 6 0 8.1.4 8.5 1.5.3.8-1 5.8-3 11.1-4.3 11.6-4.5 14.7-1.1 17 3.7 2.4 19.8 1.7 24-1.1l2.9-2-6.2-.3c-6-.3-6.2-.4-6.1-3 0-1.5 1.7-7.2 3.8-12.7l3.6-10 4.6-.6c2.5-.4 6-1.4 7.8-2.3 3.5-1.9 5.1-1.4 5.1 1.4 0 2.3-7.7 23.9-9.1 25.6-1.3 1.5.3 4.9 2.7 5.8.8.3 9.6.6 19.3.6 21.1 0 20.6.2 36.7-13.3 9.8-8.3 13.4-10.1 13.4-6.5 0 .6-1.2 4.9-2.7 9.5-2.4 7.2-2.5 8.5-1.3 9.4.8.5 9.4.9 19 .8 10.8 0 18.6.4 20.5 1.1 3.5 1.3 9.6.5 14.7-2.1 5.2-2.6 5.6-3.9 1.3-3.9-4 0-8.5-3.6-8.5-6.8 0-1.6 3.3-12 5.5-17.5.6-1.4 2.1-1.7 9.6-1.7s9.1.3 9.6 1.7c.7 1.7-4.8 18.9-7.2 22.8-1.6 2.6 0 6.4 2.9 7 1.2.2 83.4.6 182.7.9 193.5.6 186.3.7 183.3-4.1-1.1-1.7-7-1.8-126.5-2.4-69-.3-147.5-.7-174.5-.8-40.5-.1-49.3-.3-49.7-1.5-.3-.7 4.2-14.5 9.9-30.6 5.7-16.2 10.4-29.5 10.4-29.7 0-.2-3.7-.3-8.3-.3h-8.2l-5.5 15.7zm-203.1 22.6c1.4 1.7-6.1 23.5-8.7 25.5-2 1.5-8.5.8-11.9-1.4-3.5-2.2-3.6-4.9-.7-13.7 4.1-12.4 3.3-11.7 12.3-11.7 5.4 0 8.2.4 9 1.3z"/><path d="M608.9 404.5c-2.7 8-2.5 9 2 9.7 2.1.3 2.6-.5 5.2-7.2 3.7-9.8 3.6-10-.8-10h-3.8l-2.6 7.5zM677 396.7c-2.1.3-2.9 1.6-5.3 8.1-1.5 4.3-2.7 8.1-2.7 8.5 0 .4 1.3.7 2.9.7 3 0 2.7.6 8.9-16.8.2-.6 0-1.1-.4-1.1-.5.1-2 .4-3.4.6zM643 398.7c0 3.6 1.6 4.3 2.7 1.3 1-2.7.9-3-.8-3-1.1 0-1.9.7-1.9 1.7zM803.3 398.7c-.3 1-1.5 4-2.5 6.7-2.2 5.6-1.4 7.2 3.6 7.8 2.6.3 3-.1 5.1-5.7 4.2-11.3 4.3-10.5-1-10.5-3.4 0-4.7.4-5.2 1.7zm2.7 6.9c-1 2.7-1.9 4.2-2 3.3 0-2 2.9-9.3 3.5-8.7.3.2-.4 2.6-1.5 5.4zM770.6 411.5c-.3.8-.1 1.5.4 1.5.6 0 1-.7 1-1.5s-.2-1.5-.4-1.5-.6.7-1 1.5zM226.3 835.8c-13.5 8.2-15.7 10.2-13.3 11.7 1.5.9 30.4-16.9 30.8-18.9.7-3.1-3.4-1.5-17.5 7.2zM892.2 879.6c.4 2.2 25.6 23.6 27.1 23.1 2.8-.9.8-3.3-11.3-13.3-13.3-11.1-16.5-13.1-15.8-9.8zM869.6 900.7c-.8.9 10.4 12.3 12.1 12.3 2.7 0 1.1-4.2-3.2-8.5-4.1-4.2-7.2-5.5-8.9-3.8zM843 954.5c0 .6.9 2.3 1.9 3.8 1.3 2 2.1 2.5 2.6 1.7.4-.7-.3-2.3-1.9-3.8-1.4-1.5-2.6-2.2-2.6-1.7zM347.4 956.2c-3.1 4.6-7.6 11-10 14.3-2.9 4.2-4 6.5-3.4 7.5.7 1.2 1.1 1.2 2.5 0 2.7-2.2 19.5-26.7 19.5-28.4 0-3.6-3.2-1.1-8.6 6.6zM437.7 1000.7c-2 5.5-2.4 8-1.6 8.7.7.8 1.6.4 2.9-1.2 2.4-2.8 5.4-11.8 4.6-13.7-1.2-3.3-3.2-1.1-5.9 6.2zM697.1 1030.7c-.1 1.7.4 3.5 1 3.8 1.9 1.3 2.3-.5.6-3.8l-1.6-3.2v3.2zM656 1015.4c0 .3 1.6 8.6 3.5 18.6 1.9 10 3.5 18.3 3.5 18.6 0 .2.4.4 1 .4.5 0 1.4-1.8 2-4 .9-3.2.7-6.3-1-15.6-2.4-13.1-2.7-14.2-4.8-16.7-1.4-1.5-4.2-2.4-4.2-1.3zM602.2 1027.7c.2 6 .6 7.8 1.7 7.8 3.7 0 3.5-14.6-.2-15.3-1.6-.3-1.8.4-1.5 7.5z"/></svg>